<?xml version="1.0" encoding="UTF-8" standalone="no"?>
<!-- Created with Inkscape (http://www.inkscape.org/) -->

<svg
   width="303.89307"
   height="30.175781"
   viewBox="0 0 80.405039 7.9840088"
   version="1.1"
   id="svg1"
   xml:space="preserve"
   xmlns="http://www.w3.org/2000/svg"
   xmlns:svg="http://www.w3.org/2000/svg"><defs
     id="defs1" /><g
     id="layer13"
     transform="translate(-1729.8223,-16055.971)"><path
       d="m 1733.8847,16060.97 h -1.358 c 0.2692,-0.691 0.48,-1.299 0.679,-1.99 0.199,0.691 0.398,1.299 0.679,1.99 z m 0.6205,1.569 0.2927,0.667 c 0.1873,0.433 0.4214,0.726 0.9131,0.726 0.5269,0 0.8781,-0.351 0.8781,-0.855 0,-0.164 -0.035,-0.398 -0.1288,-0.62 l -2.3297,-5.702 c -0.2108,-0.515 -0.5034,-0.76 -0.9249,-0.76 -0.4215,0 -0.7141,0.245 -0.9249,0.76 l -2.3297,5.702 c -0.094,0.222 -0.1288,0.456 -0.1288,0.62 0,0.504 0.3512,0.855 0.8781,0.855 0.4917,0 0.7258,-0.293 0.9131,-0.726 l 0.281,-0.667 z m 4.7531,-2.939 v -1.709 h 1.042 c 0.6321,0 1.0419,0.281 1.0419,0.855 0,0.573 -0.4098,0.854 -1.0419,0.854 z m 0,1.71 h 0.9834 l 1.1707,1.896 c 0.2576,0.422 0.5034,0.726 1.0069,0.726 0.5385,0 0.8546,-0.351 0.8546,-0.831 0,-0.363 -0.1522,-0.609 -0.3044,-0.843 l -0.9483,-1.44 c 0.7376,-0.433 1.1707,-1.159 1.1707,-2.119 0,-1.557 -1.1239,-2.587 -2.88,-2.587 h -1.9668 c -0.5502,0 -0.9131,0.363 -0.9131,0.913 v 5.9 c 0,0.621 0.398,1.007 0.9131,1.007 0.5152,0 0.9132,-0.386 0.9132,-1.007 z m 8.4175,2.645 c 0.9366,0 1.7209,-0.304 2.3297,-0.831 0.2576,-0.222 0.4449,-0.515 0.4449,-0.89 0,-0.491 -0.3395,-0.866 -0.8546,-0.866 -0.3044,0 -0.5503,0.129 -0.7727,0.34 -0.2576,0.257 -0.6322,0.468 -1.1473,0.468 -1.1122,0 -1.7795,-0.995 -1.7795,-2.213 0,-1.217 0.6673,-2.212 1.7795,-2.212 0.5151,0 0.8897,0.21 1.1473,0.468 0.2224,0.211 0.4683,0.339 0.7727,0.339 0.5151,0 0.8546,-0.374 0.8546,-0.866 0,-0.375 -0.1873,-0.667 -0.4449,-0.89 -0.6088,-0.527 -1.3931,-0.831 -2.3297,-0.831 -2.2829,0 -3.6292,1.826 -3.6292,3.992 0,2.166 1.3463,3.992 3.6292,3.992 z m 7.2702,-2.985 h -1.3581 c 0.2693,-0.691 0.48,-1.299 0.679,-1.99 0.1991,0.691 0.3981,1.299 0.6791,1.99 z m 0.6204,1.569 0.2927,0.667 c 0.1873,0.433 0.4215,0.726 0.9132,0.726 0.5268,0 0.878,-0.351 0.878,-0.855 0,-0.164 -0.035,-0.398 -0.1288,-0.62 l -2.3297,-5.702 c -0.2107,-0.515 -0.5034,-0.76 -0.9249,-0.76 -0.4214,0 -0.7141,0.245 -0.9248,0.76 l -2.3298,5.702 c -0.094,0.222 -0.1287,0.456 -0.1287,0.62 0,0.504 0.3512,0.855 0.878,0.855 0.4917,0 0.7258,-0.293 0.9132,-0.726 l 0.2809,-0.667 z m 8.6282,-2.599 -1.8263,-3.231 c -0.281,-0.515 -0.5853,-0.714 -0.96,-0.714 -0.4917,0 -0.8663,0.351 -0.8663,0.913 v 6.017 c 0,0.621 0.398,1.007 0.9132,1.007 0.5151,0 0.9131,-0.386 0.9131,-1.007 v -0.878 c 0,-0.597 -0.047,-1.253 -0.1171,-2.037 0.3513,0.796 0.6674,1.382 0.9834,1.943 0.281,0.492 0.5737,0.691 0.96,0.691 0.3864,0 0.6791,-0.199 0.96,-0.691 0.3161,-0.561 0.6322,-1.147 0.9834,-1.943 -0.07,0.784 -0.117,1.44 -0.117,2.037 v 0.878 c 0,0.621 0.398,1.007 0.9131,1.007 0.5151,0 0.9132,-0.386 0.9132,-1.007 v -6.017 c 0,-0.562 -0.3746,-0.913 -0.8664,-0.913 -0.3746,0 -0.679,0.199 -0.9599,0.714 z m 6.9307,2.095 v -1.287 h 1.3229 c 0.5854,0 0.9483,-0.375 0.9483,-0.855 0,-0.48 -0.3629,-0.855 -0.9483,-0.855 h -1.3229 v -1.147 h 2.5287 c 0.6088,0 0.9834,-0.386 0.9834,-0.89 0,-0.503 -0.3746,-0.889 -0.9834,-0.889 h -3.4419 c -0.5502,0 -0.9131,0.363 -0.9131,0.913 v 5.877 c 0,0.55 0.3629,0.913 0.9131,0.913 h 3.5122 c 0.6088,0 0.9834,-0.386 0.9834,-0.89 0,-0.503 -0.3746,-0.89 -0.9834,-0.89 z m 9.237,-1.463 c -0.4098,-0.679 -0.7961,-1.229 -1.2059,-1.779 l -1.7326,-2.272 c -0.2693,-0.363 -0.5151,-0.526 -0.8781,-0.526 -0.5268,0 -0.878,0.362 -0.878,0.948 v 5.982 c 0,0.621 0.398,1.007 0.9132,1.007 0.5151,0 0.9131,-0.386 0.9131,-1.007 v -1.112 c 0,-0.784 -0.023,-1.627 -0.094,-2.459 0.4098,0.68 0.7961,1.23 1.2059,1.78 l 1.7326,2.271 c 0.2693,0.363 0.5151,0.527 0.8781,0.527 0.5268,0 0.878,-0.363 0.878,-0.948 v -5.983 c 0,-0.62 -0.398,-1.006 -0.9132,-1.006 -0.5151,0 -0.9131,0.386 -0.9131,1.006 v 1.113 c 0,0.784 0.023,1.627 0.094,2.458 z m 6.638,0.398 h -1.3581 c 0.2693,-0.691 0.48,-1.299 0.679,-1.99 0.1991,0.691 0.3981,1.299 0.6791,1.99 z m 0.6204,1.569 0.2927,0.667 c 0.1873,0.433 0.4215,0.726 0.9132,0.726 0.5268,0 0.878,-0.351 0.878,-0.855 0,-0.164 -0.035,-0.398 -0.1288,-0.62 l -2.3297,-5.702 c -0.2107,-0.515 -0.5034,-0.76 -0.9249,-0.76 -0.4214,0 -0.7141,0.245 -0.9248,0.76 l -2.3298,5.702 c -0.094,0.222 -0.1287,0.456 -0.1287,0.62 0,0.504 0.3512,0.855 0.878,0.855 0.4917,0 0.7258,-0.293 0.9132,-0.726 l 0.2809,-0.667 z m 4.7532,-2.939 v -1.709 h 1.0419 c 0.6322,0 1.0419,0.281 1.0419,0.855 0,0.573 -0.4097,0.854 -1.0419,0.854 z m 0,1.71 h 0.9834 l 1.1707,1.896 c 0.2575,0.422 0.5034,0.726 1.0068,0.726 0.5385,0 0.8546,-0.351 0.8546,-0.831 0,-0.363 -0.1522,-0.609 -0.3044,-0.843 l -0.9482,-1.44 c 0.7375,-0.433 1.1707,-1.159 1.1707,-2.119 0,-1.557 -1.1239,-2.587 -2.88,-2.587 h -1.9668 c -0.5502,0 -0.9132,0.363 -0.9132,0.913 v 5.9 c 0,0.621 0.3981,1.007 0.9132,1.007 0.5151,0 0.9132,-0.386 0.9132,-1.007 z m 6.8955,0.725 v -4.144 h 0.9015 c 1.1941,0 1.838,0.644 1.838,2.072 0,1.429 -0.6439,2.072 -1.838,2.072 z m 4.5892,-2.072 c 0,-2.294 -1.3814,-3.851 -3.7229,-3.851 h -1.7795 c -0.5385,0 -0.9131,0.374 -0.9131,0.913 v 5.877 c 0,0.538 0.3746,0.913 0.9131,0.913 h 1.7795 c 2.3415,0 3.7229,-1.557 3.7229,-3.852 z m 3.5707,3.992 c 1.9317,0 2.798,-0.936 2.798,-2.294 0,-1.674 -1.2643,-2.131 -2.3063,-2.447 -0.6439,-0.187 -1.3112,-0.386 -1.3112,-0.96 0,-0.351 0.2576,-0.574 0.8781,-0.574 0.9248,0 0.9483,0.527 1.6039,0.527 0.5268,0 0.8429,-0.328 0.8429,-0.784 0,-0.773 -0.9132,-1.452 -2.4819,-1.452 -1.8147,0 -2.7161,0.902 -2.7161,2.318 0,1.581 1.1005,2.189 2.0722,2.482 0.7843,0.246 1.5453,0.351 1.5453,0.948 0,0.328 -0.2576,0.527 -0.9014,0.527 -1.241,0 -1.1708,-0.691 -1.9669,-0.691 -0.5736,0 -0.8663,0.363 -0.8663,0.82 0,0.937 1.2059,1.58 2.8097,1.58 z"
       id="text2469"
       style="font-weight:900;font-size:11.7072px;line-height:0.9;font-family:Menco;-inkscape-font-specification:'Menco, Heavy';font-variant-ligatures:none;letter-spacing:0px;word-spacing:0px;fill:#ffffff;stroke-width:0.525698;stroke-linecap:round"
       aria-label="ARCA MENARDS " /></g></svg>
