<?xml version="1.0" encoding="UTF-8" standalone="no"?>
<!-- Created with Inkscape (http://www.inkscape.org/) -->

<svg
   width="270.06836"
   height="30"
   viewBox="0 0 71.455585 7.9375"
   version="1.1"
   id="svg1"
   xml:space="preserve"
   xmlns="http://www.w3.org/2000/svg"
   xmlns:svg="http://www.w3.org/2000/svg"><defs
     id="defs1" /><g
     id="layer20"
     transform="translate(-1779.8466,-8065.6806)"><path
       class="cls-2"
       d="m 1786.1758,8071.3959 c 0,1.3626 -0.6374,2.0877 -2.3626,2.0877 h -3.9666 v -7.6598 h 3.8238 c 1.7798,0 2.3953,0.7032 2.3953,2.0016 0,0.9888 -0.3737,1.4396 -1.4284,1.7032 l -0.1979,0.055 0.1759,0.033 c 1.1867,0.2614 1.5605,0.7014 1.5605,1.7791 z m -4.5035,-2.3734 h 1.6043 c 0.6374,0 0.9238,-0.2749 0.9238,-0.9342 0,-0.6928 -0.2637,-0.967 -0.9238,-0.967 h -1.6059 z m 2.6451,2.1856 c 0,-0.7033 -0.2856,-1.0008 -0.9342,-1.0008 h -1.7125 v 1.9776 h 1.7141 c 0.6813,8e-4 0.9326,-0.2848 0.9326,-0.9768 z m 3.104,-0.2199 v -5.1644 h 1.9119 v 5.1101 c 0,0.8469 0.3849,1.1649 1.4176,1.1649 1.0327,0 1.4188,-0.318 1.4188,-1.1649 v -5.1101 h 1.9119 v 5.1644 c 0,1.8022 -1.0439,2.6263 -3.3295,2.6263 -2.2857,0 -3.3292,-0.8241 -3.3292,-2.6263 z m 15.6265,-5.1644 v 7.6598 h -2.3292 l -3.2525,-5.5393 v 5.5382 h -1.7803 v -7.6599 h 2.3296 l 3.2525,5.5382 v -5.537 z m 1.5735,0 h 3.4173 c 2.6809,0 3.3842,1.0989 3.3842,3.8237 0,2.6483 -0.7699,3.835 -3.3842,3.835 h -3.4173 z m 3.3622,6.1972 c 1.1209,0 1.4835,-0.5824 1.4835,-2.3735 0,-1.7801 -0.3626,-2.3625 -1.4835,-2.3625 h -1.4503 v 4.7344 z m 4.8315,-6.1972 h 5.3623 v 1.4627 h -3.4516 v 1.6167 h 2.8681 v 1.4395 h -2.8681 v 1.6814 h 3.5274 v 1.4626 h -5.4381 z m 6.5717,7.3619 v -1.4942 a 7.8796313,7.8796313 0 0 0 2.5601,0.4176 c 0.8791,0 1.2637,-0.2309 1.2637,-0.8241 0,-0.5166 -0.1648,-0.6701 -0.868,-0.8129 l -1.2745,-0.2637 c -1.3295,-0.2748 -1.7706,-0.8129 -1.7706,-2.1209 0,-1.6809 0.9889,-2.4065 2.9777,-2.4065 0.9011,0 1.7472,0.1539 2.4392,0.4176 v 1.4943 a 6.9862397,6.9862397 0 0 0 -2.3287,-0.4065 c -0.945,0 -1.2637,0.2525 -1.2637,0.8469 0,0.4941 0.2198,0.6374 0.8349,0.7698 l 1.2417,0.2637 c 1.4396,0.3079 1.8349,0.791 1.8349,2.1647 0,1.6374 -1.0108,2.3865 -3.0766,2.3865 a 7.6509908,7.6509908 0 0 1 -2.5701,-0.4323 z m 6.9901,-7.3619 h 1.9119 v 6.1972 h 3.2856 v 1.4626 h -5.1964 z m 6.3919,0 h 1.9119 v 7.6598 h -1.9119 z m 9.8296,3.2307 v 4.1643 c -0.7144,0.2417 -1.6593,0.3957 -2.6482,0.3957 -2.659,0 -3.9119,-1.1759 -3.9119,-3.967 0,-2.769 1.2525,-3.9669 3.9119,-3.9669 0.945,0 1.8476,0.154 2.527,0.4288 v 1.4835 c -0.7471,-0.2529 -1.5824,-0.4065 -2.3734,-0.4065 -1.6043,0 -2.1097,0.6482 -2.1097,2.4611 0,1.89 0.5273,2.5163 2.0435,2.5163 a 7.3803945,7.3803945 0 0 0 1.0008,-0.066 v -1.7141 h -1.4173 v -1.3294 z m 6.2438,2.8237 h -2.9997 l -0.5389,1.6043 h -1.9015 l 2.736,-7.6599 h 2.4392 l 2.7249,7.6599 h -1.9246 z m -1.4831,-4.8457 -1.1086,3.4611 h 2.2087 z"
       id="path3145"
       style="fill:#ffffff;stroke-width:0.0384917" /></g></svg>
