<?xml version="1.0" encoding="UTF-8" standalone="no"?>
<!-- Created with Inkscape (http://www.inkscape.org/) -->

<svg
   width="300.28369"
   height="30.972658"
   viewBox="0 0 79.450058 8.1948491"
   version="1.1"
   id="svg1"
   xml:space="preserve"
   xmlns="http://www.w3.org/2000/svg"
   xmlns:svg="http://www.w3.org/2000/svg"><defs
     id="defs1" /><g
     id="layer23"
     transform="translate(-1721.5604,-8959.536)"><path
       d="m 1725.3146,8967.7304 c 0.8152,0 1.7913,-0.1501 2.746,-0.3754 l -0.2682,-1.5768 -1.5124,0.6114 c -0.354,0.1395 -0.6328,0.2146 -0.9654,0.2146 -1.137,0 -1.9522,-1.2014 -1.9522,-2.9712 0,-1.7699 0.8045,-2.9713 1.9093,-2.9713 0.354,0 0.6329,0.064 0.9976,0.2146 l 1.4159,0.6114 0.2789,-1.5768 c -0.9225,-0.2253 -1.8772,-0.3754 -2.6924,-0.3754 -2.156,0 -3.7113,1.6947 -3.7113,4.0975 0,2.4027 1.5768,4.0974 3.7542,4.0974 z m 10.6728,-0.1287 -2.8854,-7.9375 h -2.0487 l -0.075,0.7616 c -0.032,0.2681 -0.1073,0.5041 -0.1931,0.7615 l -2.2955,6.4144 h 1.3087 c 0.2038,-0.665 0.4183,-1.3301 0.6435,-1.9951 h 3.0249 l 0.6972,1.9951 z m -5.2023,-3.0355 c 0.3647,-1.1156 0.7508,-2.2311 1.137,-3.3574 l 1.1799,3.3574 z m 13.1506,3.0355 -1.9415,-3.5611 c 0.9546,-0.3755 1.5446,-1.137 1.5446,-2.1131 0,-1.3408 -1.2228,-2.2633 -3.0141,-2.2633 h -3.7543 l 0.1287,0.7616 c 0.043,0.2896 0.064,0.4826 0.064,0.7615 v 6.4144 h 1.7162 v -3.293 h 1.5661 l 1.7162,3.293 z m -3.5183,-6.8971 c 0.7723,0 1.3194,0.5364 1.3194,1.3087 0,0.783 -0.5471,1.3193 -1.3194,1.3193 h -1.7377 v -2.628 z m 11.3378,6.8971 -2.8854,-7.9375 h -2.0487 l -0.075,0.7616 c -0.032,0.2681 -0.1073,0.5041 -0.1931,0.7615 l -2.2955,6.4144 h 1.3087 c 0.2038,-0.665 0.4183,-1.3301 0.6436,-1.9951 h 3.0248 l 0.6972,1.9951 z m -5.2023,-3.0355 c 0.3647,-1.1156 0.7508,-2.2311 1.137,-3.3574 l 1.1799,3.3574 z m 10.9624,-1.18 c 1.0941,-0.2467 1.7913,-0.8902 1.7913,-1.7376 0,-1.1799 -1.2228,-1.9844 -3.0141,-1.9844 h -3.7543 l 0.1287,0.7616 c 0.043,0.2896 0.064,0.4826 0.064,0.7615 v 6.4144 h 3.8508 c 1.802,0 3.0356,-0.8795 3.0356,-2.1774 0,-1.0512 -0.826,-1.8235 -2.1024,-2.0381 z m -1.3301,-2.6816 c 0.7723,0 1.3194,0.4827 1.3194,1.18 0,0.7293 -0.5471,1.2228 -1.3194,1.2228 h -1.7377 v -2.4028 z m -1.7377,5.8567 v -2.51 h 2.0166 c 0.7937,0 1.3515,0.5149 1.3515,1.2764 0,0.7294 -0.5578,1.2336 -1.3515,1.2336 z m 12.9897,1.0404 -2.8854,-7.9375 h -2.0487 l -0.075,0.7616 c -0.032,0.2681 -0.1073,0.5041 -0.1931,0.7615 l -2.2954,6.4144 h 1.3086 c 0.2038,-0.665 0.4183,-1.3301 0.6436,-1.9951 h 3.0248 l 0.6972,1.9951 z m -5.2023,-3.0355 c 0.3647,-1.1156 0.7509,-2.2311 1.137,-3.3574 l 1.1799,3.3574 z m 9.214,3.1642 c 2.2096,0 3.765,-1.684 3.765,-4.0974 0,-2.4135 -1.5554,-4.0975 -3.765,-4.0975 -2.2096,0 -3.7757,1.684 -3.7757,4.0975 0,2.4134 1.5661,4.0974 3.7757,4.0974 z m 0,-1.1262 c -1.1584,0 -1.9737,-1.2014 -1.9737,-2.9712 0,-1.7699 0.8153,-2.9713 1.9737,-2.9713 1.1477,0 1.9629,1.2014 1.9629,2.9713 0,1.7698 -0.8152,2.9712 -1.9629,2.9712 z m 10.9302,1.1262 c 0.8152,0 1.7913,-0.1501 2.746,-0.3754 l -0.2682,-1.5768 -1.5124,0.6114 c -0.354,0.1395 -0.6329,0.2146 -0.9654,0.2146 -1.137,0 -1.9522,-1.2014 -1.9522,-2.9712 0,-1.7699 0.8045,-2.9713 1.9093,-2.9713 0.354,0 0.6329,0.064 0.9976,0.2146 l 1.4158,0.6114 0.2789,-1.5768 c -0.9224,-0.2253 -1.8771,-0.3754 -2.6923,-0.3754 -2.156,0 -3.7113,1.6947 -3.7113,4.0975 0,2.4027 1.5767,4.0974 3.7542,4.0974 z m 7.1331,0 c 1.92,0 3.2608,-1.212 3.2608,-2.939 v -5.1272 h -1.2014 v 5.1916 c 0,1.019 -0.7508,1.7484 -1.8235,1.7484 -1.0619,0 -1.8235,-0.7294 -1.8235,-1.7484 v -5.1916 h -1.9093 l 0.1288,0.7616 c 0.043,0.2896 0.064,0.4826 0.064,0.7615 v 3.5827 c 0,1.7376 1.373,2.9604 3.3038,2.9604 z m 8.388,-8.0662 h -3.6899 l 0.1287,0.7616 c 0.043,0.2896 0.064,0.4826 0.064,0.7615 v 6.4144 h 1.7162 v -3.0141 h 1.5875 c 1.963,0 3.3038,-0.9868 3.3038,-2.4563 0,-1.4696 -1.2658,-2.4671 -3.1107,-2.4671 z m -1.7806,3.8829 v -2.8425 h 1.6626 c 0.8367,0 1.4266,0.5793 1.4266,1.4267 0,0.8473 -0.5899,1.4158 -1.4266,1.4158 z"
       id="text7100"
       style="font-weight:bold;font-size:10.7264px;line-height:0.9;font-family:'EFL 1888';-inkscape-font-specification:'EFL 1888, Bold';font-variant-ligatures:none;letter-spacing:0px;word-spacing:0px;fill:#ffffff;stroke-width:1.06811;stroke-linejoin:round;paint-order:stroke fill markers"
       aria-label="CARABAO CUP" /></g><style
     type="text/css"
     id="style1">
	.st0{fill:#FFFFFF;}
	.st1{fill:#B69B40;}
	.st2{fill:#283271;}
	.st3{fill:url(#Plinth_00000024719996797075204420000012647641536287814807_);}
	.st4{opacity:0.4;fill:url(#p40_00000106113143120193750130000016072925933129080735_);enable-background:new    ;}
	.st5{fill:url(#Sky_x5F_Logo_00000061460388762851295990000018372894465928754855_);}
	.st6{opacity:0.25;fill:url(#s25_00000182524357250295268150000002348907512278735291_);enable-background:new    ;}
</style><style
     type="text/css"
     id="style1-4">
	.st0{fill:#008F5E;}
	.st1{fill:#FCEB20;}
	.st2{fill:#E2231A;}
	.st3{fill:#100C08;}
	.st4{fill:#FFFFFF;}
	.st5{fill:none;stroke:#100C08;stroke-width:0.174;stroke-miterlimit:10;}
	.st6{fill:none;stroke:#FFFFFF;stroke-miterlimit:10;}
</style></svg>
