<?xml version="1.0" encoding="UTF-8" standalone="no"?>
<!-- Created with Inkscape (http://www.inkscape.org/) -->

<svg
   width="407.03369"
   height="31.148439"
   viewBox="0 0 107.69433 8.2413579"
   version="1.1"
   id="svg1"
   xml:space="preserve"
   xmlns="http://www.w3.org/2000/svg"
   xmlns:svg="http://www.w3.org/2000/svg"><defs
     id="defs1" /><g
     id="g1446"
     transform="translate(-1727.8396,-4652.515)"><path
       d="m 1733.7136,4654.3762 q -0.4051,-0.2532 -0.9115,-0.4052 -0.4937,-0.1519 -1.0254,-0.1519 -0.4051,0 -0.7849,0.1266 -0.3798,0.1266 -0.6583,0.3798 -0.4177,0.3798 -0.6076,0.9748 -0.1773,0.5823 -0.1773,1.2406 0,1.3799 0.5444,2.1521 0.557,0.7723 1.6837,0.7723 0.6456,0 1.152,-0.1393 0.5064,-0.1392 0.9368,-0.3924 l 0.1266,1.2406 q -0.4304,0.2532 -1.076,0.4178 -0.6457,0.1645 -1.3926,0.1645 -0.8735,0 -1.5571,-0.3038 -0.6836,-0.3165 -1.1647,-0.8608 -0.4684,-0.5571 -0.7216,-1.304 -0.2405,-0.7595 -0.2405,-1.6457 0,-0.8355 0.2405,-1.5824 0.2532,-0.7469 0.7216,-1.304 0.4811,-0.5696 1.1774,-0.8988 0.6962,-0.3418 1.5824,-0.3418 0.6836,0 1.2913,0.1646 0.6203,0.1519 0.9494,0.3671 z m 3.1522,-1.6964 v 3.4307 h 3.0636 v -3.4307 h 1.5825 v 7.9375 h -1.5825 v -3.2535 h -3.0636 v 3.2535 h -1.5824 v -7.9375 z m 9.7478,-0.114 3.1269,8.0515 h -1.7343 l -0.7849,-2.1015 h -2.5446 l -0.7849,2.1015 h -1.4178 l 3.0509,-7.7856 z m -1.5065,4.7474 h 1.6584 l -0.8355,-2.2281 z m 7.2919,-4.6334 2.2408,4.3675 2.2407,-4.3675 h 1.3672 l 0.3798,7.9375 h -1.5445 l -0.2025,-5.2917 -2.0762,4.1017 h -0.5443 l -2.2154,-4.1903 -0.2026,5.3803 h -1.2406 l 0.3165,-7.9375 z m 10.153,0 q 0.8228,0 1.3419,0.1266 0.519,0.1266 0.9241,0.3798 0.4811,0.3291 0.7596,0.8481 0.2785,0.5191 0.2785,1.2027 0,1.2533 -0.7596,1.9116 -0.7596,0.6456 -2.2154,0.6456 h -1.076 v 2.8231 h -1.5825 v -7.9375 z m -0.7469,3.9244 h 0.8481 q 0.7596,0 1.1394,-0.3038 0.3924,-0.3165 0.3924,-1.0381 0,-0.7216 -0.3798,-1.0254 -0.3797,-0.3038 -1.114,-0.3038 h -0.8861 z m 6.8487,-3.9244 v 7.9375 h -1.5824 v -7.9375 z m 4.8866,1.1267 q -0.4684,0 -0.8229,0.2152 -0.3544,0.2025 -0.595,0.5823 -0.2405,0.3798 -0.3671,0.8988 -0.1139,0.5191 -0.1139,1.1394 0,0.6203 0.1139,1.1394 0.1266,0.519 0.3671,0.8988 0.2406,0.3671 0.595,0.5823 0.3545,0.2026 0.8229,0.2026 0.4684,0 0.8229,-0.2026 0.3544,-0.2152 0.595,-0.5823 0.2405,-0.3798 0.3544,-0.8988 0.1266,-0.5191 0.1266,-1.1394 0,-0.6203 -0.1266,-1.1394 -0.1139,-0.519 -0.3544,-0.8988 -0.2406,-0.3798 -0.595,-0.5823 -0.3545,-0.2152 -0.8229,-0.2152 z m 0,-1.2913 q 0.8735,0 1.5445,0.3292 0.6836,0.3291 1.1393,0.8861 0.4558,0.557 0.6836,1.3166 0.2406,0.7469 0.2406,1.5951 0,0.8482 -0.2406,1.5951 -0.2278,0.7469 -0.6836,1.3166 -0.4557,0.557 -1.1393,0.8862 -0.671,0.3164 -1.5445,0.3164 -0.8735,0 -1.5571,-0.3164 -0.671,-0.3292 -1.1267,-0.8862 -0.4557,-0.5697 -0.6963,-1.3166 -0.2279,-0.7469 -0.2279,-1.5951 0,-0.8482 0.2279,-1.5951 0.2406,-0.7596 0.6963,-1.3166 0.4557,-0.557 1.1267,-0.8861 0.6836,-0.3292 1.5571,-0.3292 z m 5.95,0.1646 3.8991,5.2917 v -5.2917 h 1.3546 v 7.9375 h -1.152 l -3.8359,-5.0132 v 5.0132 h -1.3545 v -7.9375 z m 11.2669,1.5824 q -0.3797,-0.2279 -0.8608,-0.3544 -0.4811,-0.1393 -0.9115,-0.1393 -0.5697,0 -0.8988,0.2405 -0.3292,0.2279 -0.3292,0.6457 0,0.2658 0.2153,0.481 0.1519,0.1519 0.3797,0.2785 0.2406,0.1266 0.5317,0.2659 l 0.5064,0.2405 q 1.0887,0.5191 1.5192,1.1014 0.443,0.5823 0.443,1.3546 0,0.6076 -0.2152,1.0634 -0.2152,0.443 -0.6076,0.7342 -0.3925,0.2912 -0.9242,0.4431 -0.5317,0.1392 -1.152,0.1392 -0.633,0 -1.19,-0.1392 -0.557,-0.1266 -1.1014,-0.3671 l 0.1013,-1.4432 q 0.4937,0.2911 1.0508,0.481 0.5696,0.1899 1.1013,0.1899 0.595,0 1.0001,-0.2278 0.4051,-0.2406 0.4051,-0.7216 0,-0.4811 -0.3671,-0.7596 -0.3545,-0.2912 -0.8988,-0.5317 l -0.2912,-0.1266 q -0.3798,-0.1646 -0.7596,-0.3545 -0.3797,-0.1899 -0.6836,-0.4557 -0.3038,-0.2785 -0.5063,-0.6456 -0.1899,-0.3798 -0.1899,-0.8989 0,-0.557 0.2152,-0.9747 0.2278,-0.4178 0.595,-0.6963 0.3798,-0.2912 0.8608,-0.4304 0.4937,-0.1393 1.0128,-0.1393 0.557,0 1.1014,0.1266 0.5443,0.1266 0.9621,0.3418 z m 6.0513,-1.5824 v 6.6842 h 3.2788 l -0.2912,1.2533 h -4.57 v -7.9375 z m 9.2414,0 -0.3798,1.2533 h -2.9117 v 2.1774 h 2.6712 l -0.2912,1.2533 h -2.38 v 2.0002 h 3.4434 l -0.2911,1.2533 h -4.7347 v -7.9375 z m 4.722,-0.114 3.1269,8.0515 h -1.7343 l -0.7849,-2.1015 h -2.5446 l -0.7849,2.1015 h -1.4178 l 3.0509,-7.7856 z m -1.5065,4.7474 h 1.6584 l -0.8355,-2.2281 z m 11.2164,-2.8864 q -0.4558,-0.3165 -0.9748,-0.4684 -0.5191,-0.1519 -1.0887,-0.1519 -0.5697,0 -1.0255,0.2152 -0.443,0.2152 -0.7595,0.595 -0.3039,0.3798 -0.4684,0.8861 -0.1646,0.5064 -0.1646,1.0888 0,0.7975 0.2152,1.3545 0.2152,0.5444 0.5444,0.8862 0.3291,0.3291 0.7216,0.4811 0.4051,0.1519 0.7722,0.1519 0.2912,0 0.595,-0.051 0.3038,-0.051 0.5823,-0.1519 v -1.8989 h -1.3166 l 0.3798,-1.2533 h 2.4939 v 3.8485 q -0.1645,0.1392 -0.4557,0.2912 -0.2785,0.1392 -0.6456,0.2532 -0.3545,0.1139 -0.7723,0.1772 -0.4051,0.076 -0.8102,0.076 -0.9115,0 -1.6584,-0.2785 -0.7342,-0.2911 -1.2659,-0.8228 -0.5191,-0.5317 -0.8102,-1.304 -0.2785,-0.7722 -0.2785,-1.747 0,-0.7722 0.2532,-1.5065 0.2658,-0.7342 0.7722,-1.3039 0.519,-0.5823 1.2659,-0.9241 0.7469,-0.3545 1.7217,-0.3545 0.7216,0 1.3419,0.1646 0.6203,0.1519 0.9368,0.3671 z m 3.6586,-1.747 v 4.9245 q 0,0.4811 0.076,0.8102 0.076,0.3165 0.2405,0.5317 0.1646,0.2152 0.4937,0.3672 0.3418,0.1519 0.7849,0.1519 0.4557,0 0.7722,-0.1266 0.3165,-0.1393 0.4937,-0.3418 0.2532,-0.2785 0.3165,-0.633 0.063,-0.3671 0.063,-0.7469 v -4.9372 h 1.4685 v 4.9498 q 0,0.6583 -0.1266,1.2027 -0.1266,0.5317 -0.443,0.8988 -0.3672,0.4431 -1.0255,0.7343 -0.6456,0.2911 -1.5697,0.2911 -0.8482,0 -1.4559,-0.2278 -0.6076,-0.2279 -1.0001,-0.633 -0.3545,-0.3798 -0.519,-0.9115 -0.1519,-0.5317 -0.1519,-1.3166 v -4.9878 z m 11.2416,0 -0.3798,1.2533 h -2.9117 v 2.1774 h 2.6712 l -0.2912,1.2533 h -2.38 v 2.0002 h 3.4434 l -0.2912,1.2533 h -4.7346 v -7.9375 z"
       id="text1348"
       style="font-weight:bold;font-size:12.6595px;line-height:0.9;font-family:Champions;-inkscape-font-specification:'Champions, Bold';font-variant-ligatures:none;letter-spacing:0px;word-spacing:0px;fill:#ffffff;stroke-width:0.528436;stroke-linecap:round"
       aria-label="CHAMPIONS LEAGUE " /></g></svg>
