<?xml version="1.0" encoding="UTF-8" standalone="no"?>
<!-- Created with Inkscape (http://www.inkscape.org/) -->

<svg
   width="90.998535"
   height="31.421875"
   viewBox="0 0 24.076695 8.3137044"
   version="1.1"
   id="svg1"
   xml:space="preserve"
   xmlns="http://www.w3.org/2000/svg"
   xmlns:svg="http://www.w3.org/2000/svg"><defs
     id="defs1" /><g
     id="layer12"
     transform="translate(-1734.6084,-14930.113)"><path
       d="m 1734.6084,14938.225 h 1.6764 v -5.119 l 3.8591,5.119 h 1.6876 v -7.898 h -1.6764 v 5.107 l -3.859,-5.107 h -1.6877 z m 14.8288,-4.253 c 0.2475,-0.326 0.4163,-0.765 0.4163,-1.35 0,-1.497 -1.2151,-2.295 -2.3402,-2.295 h -4.6692 v 7.898 h 4.7367 c 0.6076,0 2.5427,-0.338 2.5427,-2.487 0,-0.72 -0.2587,-1.327 -0.6863,-1.766 z m -1.9239,-1.969 c 0.1125,0 0.6526,0.03 0.6526,0.619 0,0.596 -0.6526,0.607 -0.6526,0.607 h -2.9928 v -1.226 z m 0.067,4.534 h -3.0603 v -1.62 h 3.0603 c 0.2588,0 0.8663,0.08 0.8663,0.821 0,0.732 -0.585,0.799 -0.8663,0.799 z m 7.4594,1.89 c 1.8452,0 2.779,-0.754 3.6454,-1.496 l -1.0914,-1.271 c -0.7651,0.652 -1.3164,1.091 -2.554,1.08 -1.3726,0 -2.6665,-1.024 -2.6665,-2.476 0,-1.361 1.2039,-2.475 2.6778,-2.475 1.2488,0.01 1.8902,0.731 2.1489,0.99 l 1.1926,-1.192 c -0.1462,-0.147 -1.2601,-1.474 -3.3303,-1.474 -2.3852,0 -4.3654,1.811 -4.3766,4.14 0,2.262 1.9014,4.163 4.3541,4.174 z"
       id="text2184"
       style="font-weight:900;font-size:11.251px;line-height:0.9;font-family:'NBC Tinker';-inkscape-font-specification:'NBC Tinker, Heavy';font-variant-ligatures:none;letter-spacing:0px;word-spacing:0px;fill:#ffffff;stroke-width:0.482131;stroke-linecap:round"
       aria-label="NBC" /></g></svg>
