<?xml version="1.0" encoding="UTF-8" standalone="no"?>
<!-- Created with Inkscape (http://www.inkscape.org/) -->

<svg
   width="208.81738"
   height="30.679689"
   viewBox="0 0 55.249598 8.1173345"
   version="1.1"
   id="svg1"
   xml:space="preserve"
   xmlns="http://www.w3.org/2000/svg"
   xmlns:svg="http://www.w3.org/2000/svg"><defs
     id="defs1" /><g
     id="layer12"
     transform="translate(-1782.9243,-15559.773)"><path
       d="m 1788.3688,15565.587 q 0,0.491 -0.2012,0.916 -0.2013,0.414 -0.5702,0.727 -0.3577,0.302 -0.872,0.481 -0.5143,0.179 -1.1291,0.179 -0.9279,0 -1.6211,-0.425 -0.6931,-0.436 -1.0509,-1.141 l 1.1739,-0.737 q 0.1006,0.212 0.246,0.402 0.1565,0.19 0.3465,0.347 0.1901,0.145 0.436,0.234 0.2572,0.09 0.559,0.09 0.6037,0 0.9614,-0.257 0.369,-0.269 0.369,-0.705 0,-0.391 -0.2348,-0.659 -0.2348,-0.28 -0.6596,-0.582 l -0.559,-0.413 q -0.6707,-0.503 -1.0173,-1.006 -0.3466,-0.503 -0.3466,-1.174 0,-0.481 0.2012,-0.861 0.2013,-0.391 0.5367,-0.66 0.3465,-0.279 0.7937,-0.425 0.4584,-0.145 0.9615,-0.145 0.7378,0 1.3639,0.313 0.626,0.302 1.0173,0.95 l -1.1738,0.738 q -0.4249,-0.771 -1.308,-0.771 -0.4472,0 -0.7714,0.235 -0.3131,0.234 -0.3131,0.637 0,0.346 0.2236,0.604 0.2348,0.257 0.6596,0.581 l 0.559,0.414 q 0.2795,0.212 0.5366,0.436 0.2683,0.223 0.4584,0.48 0.19,0.257 0.3018,0.559 0.123,0.291 0.123,0.638 z m 2.6048,-5.724 h 1.2969 l -0.8497,3.968 4.1141,-3.968 h 1.6211 l -4.3154,4.17 2.8732,3.767 h -1.4645 l -2.8732,-3.756 -0.7937,3.756 h -1.2969 z m 8.2618,4.594 -1.9565,-4.594 h 1.3751 l 1.3639,3.353 2.7614,-3.353 h 1.6434 l -3.8905,4.594 -0.7155,3.343 h -1.2968 z m 9.4132,1.13 q 0,0.491 -0.2013,0.916 -0.2012,0.414 -0.5701,0.727 -0.3578,0.302 -0.872,0.481 -0.5143,0.179 -1.1292,0.179 -0.9279,0 -1.621,-0.425 -0.6931,-0.436 -1.0509,-1.141 l 1.1739,-0.737 q 0.1006,0.212 0.2459,0.402 0.1565,0.19 0.3466,0.347 0.19,0.145 0.436,0.234 0.2571,0.09 0.559,0.09 0.6037,0 0.9614,-0.257 0.3689,-0.269 0.3689,-0.705 0,-0.391 -0.2347,-0.659 -0.2348,-0.28 -0.6596,-0.582 l -0.559,-0.413 q -0.6708,-0.503 -1.0174,-1.006 -0.3465,-0.503 -0.3465,-1.174 0,-0.481 0.2012,-0.861 0.2012,-0.391 0.5366,-0.66 0.3466,-0.279 0.7938,-0.425 0.4583,-0.145 0.9614,-0.145 0.7379,0 1.3639,0.313 0.6261,0.302 1.0174,0.95 l -1.1739,0.738 q -0.4248,-0.771 -1.308,-0.771 -0.4472,0 -0.7714,0.235 -0.313,0.234 -0.313,0.637 0,0.346 0.2236,0.604 0.2348,0.257 0.6596,0.581 l 0.559,0.414 q 0.2794,0.212 0.5366,0.436 0.2683,0.223 0.4583,0.48 0.1901,0.257 0.3019,0.559 0.123,0.291 0.123,0.638 z m 3.5663,-4.137 -0.4808,2.258 h 1.0174 q 0.8384,0 1.3303,-0.424 0.4919,-0.425 0.4919,-1.163 0,-0.503 -0.3353,-0.772 -0.3354,-0.279 -1.0397,-0.279 h -2.2024 l 0.2571,-1.207 h 2.0682 q 0.6373,0 1.1068,0.167 0.4807,0.168 0.8049,0.47 0.3243,0.302 0.4808,0.715 0.1677,0.414 0.1677,0.906 0,1.33 -0.8385,2.068 -0.8385,0.727 -2.4931,0.727 h -1.0732 l -0.6149,2.884 h -1.2968 l 1.3527,-6.35 z m 5.5562,2.594 q 0,0.525 0.1454,1.006 0.1565,0.469 0.4583,0.827 0.3131,0.358 0.7714,0.57 0.4696,0.213 1.0844,0.213 0.682,0 1.2522,-0.246 0.5701,-0.246 0.9838,-0.66 0.4136,-0.425 0.6372,-0.972 0.2236,-0.559 0.2236,-1.163 0,-0.526 -0.1565,-0.995 -0.1454,-0.481 -0.4584,-0.839 -0.3018,-0.357 -0.7714,-0.57 -0.4583,-0.212 -1.0732,-0.212 -0.6932,0 -1.2633,0.246 -0.559,0.246 -0.9726,0.671 -0.4137,0.413 -0.6373,0.972 -0.2236,0.548 -0.2236,1.152 z m 6.909,-0.548 q 0,0.838 -0.3018,1.632 -0.3019,0.794 -0.8832,1.409 -0.5702,0.604 -1.4198,0.984 -0.8497,0.369 -1.9565,0.369 -0.8943,0 -1.5875,-0.313 -0.6819,-0.314 -1.1515,-0.828 -0.4695,-0.525 -0.7155,-1.196 -0.2459,-0.671 -0.2459,-1.386 0,-0.839 0.3018,-1.632 0.3019,-0.794 0.8721,-1.398 0.5813,-0.615 1.4309,-0.984 0.8497,-0.38 1.9565,-0.38 0.8832,0 1.5763,0.313 0.6931,0.313 1.1627,0.839 0.4695,0.514 0.7155,1.185 0.2459,0.67 0.2459,1.386 z m 3.2756,-2.057 -0.3912,1.856 h 1.1626 q 0.7714,0 1.1963,-0.336 0.4248,-0.346 0.4248,-0.928 0,-0.469 -0.3131,-0.715 -0.3018,-0.257 -0.9502,-0.257 h -2.3477 l 0.2571,-1.196 h 2.2918 q 0.5814,0 1.0285,0.156 0.4472,0.145 0.7491,0.425 0.3018,0.279 0.4472,0.66 0.1565,0.38 0.1565,0.838 0,0.548 -0.1901,0.995 -0.1789,0.436 -0.5142,0.76 -0.3354,0.313 -0.8162,0.503 -0.4695,0.179 -1.0508,0.213 l 1.6769,3.387 h -1.3974 l -1.6434,-3.376 h -0.4137 l -0.7155,3.376 h -1.2968 l 1.3527,-6.361 z m 4.5501,-0.302 0.2684,-1.274 h 5.3997 l -0.2683,1.274 z m 3.2645,0.38 -1.3416,6.283 h -1.2968 l 1.3416,-6.283 z"
       id="text7091"
       style="font-style:italic;font-weight:500;font-size:11.1796px;line-height:0.9;font-family:SSportsFO;-inkscape-font-specification:'SSportsFO, Medium Italic';font-variant-ligatures:none;letter-spacing:0px;word-spacing:0px;fill:#ffffff;stroke-width:0.495816;stroke-linecap:round"
       aria-label="SKYSPORT" /></g></svg>
