<?xml version="1.0" encoding="UTF-8" standalone="no"?>
<!-- Created with Inkscape (http://www.inkscape.org/) -->

<svg
   width="247.41454"
   height="30.511719"
   viewBox="0 0 65.461761 8.0728923"
   version="1.1"
   id="svg1"
   xml:space="preserve"
   xmlns="http://www.w3.org/2000/svg"
   xmlns:svg="http://www.w3.org/2000/svg"><defs
     id="defs1" /><g
     id="layer12"
     transform="translate(-1752.1869,-15187.513)"><path
       d="m 1752.187,15195.518 h 5.4542 v -1.462 h -3.7533 v -1.837 h 2.9482 v -1.395 h -2.9482 v -1.78 h 3.6285 v -1.463 h -5.3294 z m 6.418,-3.424 c 0,2.257 1.1226,3.492 3.2544,3.492 2.1431,0 3.2657,-1.235 3.2657,-3.492 v -4.513 h -1.7009 v 4.604 c 0,1.258 -0.4649,1.939 -1.5648,1.939 -1.0886,0 -1.5535,-0.681 -1.5535,-1.939 v -4.604 h -1.7009 z m 7.8241,3.424 h 1.7009 v -2.664 h 1.4288 l 1.338,2.664 h 1.8823 l -1.5648,-3.061 c 0.8278,-0.397 1.3607,-1.213 1.3607,-2.234 0,-1.61 -1.1679,-2.642 -2.9142,-2.642 h -3.2317 z m 3.0956,-6.52 c 0.8051,0 1.3154,0.477 1.3154,1.225 0,0.737 -0.5103,1.213 -1.3154,1.213 h -1.3947 v -2.438 z m 11.6228,2.552 c 0,-2.314 -1.5988,-4.037 -3.9347,-4.037 -2.3359,0 -3.9347,1.723 -3.9347,4.037 0,2.313 1.5988,4.036 3.9347,4.036 2.3359,0 3.9347,-1.723 3.9347,-4.036 z m -6.1345,0 c 0,-1.497 0.8618,-2.597 2.1998,-2.597 1.3267,0 2.1885,1.1 2.1885,2.597 0,1.496 -0.8618,2.596 -2.1885,2.596 -1.338,0 -2.1998,-1.1 -2.1998,-2.596 z m 6.8489,1.36 c 0.011,1.611 1.27,2.676 3.2884,2.676 1.8596,0 3.0843,-1.02 3.0956,-2.505 0.011,-1.599 -1.1906,-2.008 -2.5513,-2.257 -1.3154,-0.249 -1.939,-0.386 -1.939,-1.032 0,-0.612 0.5216,-0.918 1.2473,-0.918 0.8278,0 1.338,0.465 1.4174,1.134 h 1.6669 c -0.023,-1.52 -1.2133,-2.495 -3.0843,-2.495 -1.7916,0 -2.9596,0.998 -2.9596,2.404 0,1.61 1.1793,2.041 2.5174,2.29 1.3267,0.261 1.973,0.397 1.973,1.066 0,0.624 -0.5783,0.964 -1.3607,0.964 -0.9752,0 -1.5875,-0.533 -1.6442,-1.304 z m 7.4046,2.608 h 1.7009 v -2.664 h 1.5308 c 1.7235,0 2.8688,-1.032 2.8688,-2.631 0,-1.61 -1.1453,-2.642 -2.8688,-2.642 h -3.2317 z m 3.0729,-6.52 c 0.7938,0 1.304,0.465 1.304,1.225 0,0.748 -0.5102,1.213 -1.304,1.213 h -1.372 v -2.438 z m 11.5321,2.552 c 0,-2.314 -1.5989,-4.037 -3.9348,-4.037 -2.3358,0 -3.9347,1.723 -3.9347,4.037 0,2.313 1.5989,4.036 3.9347,4.036 2.3359,0 3.9348,-1.723 3.9348,-4.036 z m -6.1346,0 c 0,-1.497 0.8618,-2.597 2.1998,-2.597 1.3267,0 2.1885,1.1 2.1885,2.597 0,1.496 -0.8618,2.596 -2.1885,2.596 -1.338,0 -2.1998,-1.1 -2.1998,-2.596 z m 7.1665,3.968 h 1.7009 v -2.664 h 1.4287 l 1.338,2.664 h 1.8824 l -1.5649,-3.061 c 0.8278,-0.397 1.3608,-1.213 1.3608,-2.234 0,-1.61 -1.168,-2.642 -2.9142,-2.642 h -3.2317 z m 3.0956,-6.52 c 0.8051,0 1.3153,0.477 1.3153,1.225 0,0.737 -0.5102,1.213 -1.3153,1.213 h -1.3947 v -2.438 z m 3.3564,0.05 h 2.2906 v 6.474 h 1.7009 v -6.474 h 2.3018 v -1.463 h -6.2933 z"
       id="text2185"
       style="font-weight:bold;font-size:11.3393px;line-height:0.9;font-family:'Aeonik Pro';-inkscape-font-specification:'Aeonik Pro, Bold';font-variant-ligatures:none;letter-spacing:0px;word-spacing:0px;fill:#ffffff;stroke-width:0.485916;stroke-linecap:round"
       aria-label="EUROSPORT" /></g></svg>
