<?xml version="1.0" encoding="UTF-8" standalone="no"?>
<!-- Created with Inkscape (http://www.inkscape.org/) -->

<svg
   width="262.06738"
   height="30.828123"
   viewBox="0 0 69.33866 8.1566076"
   version="1.1"
   id="svg1"
   xml:space="preserve"
   xmlns="http://www.w3.org/2000/svg"
   xmlns:svg="http://www.w3.org/2000/svg"><defs
     id="defs1" /><g
     id="layer12"
     transform="translate(-1718.7365,-14739.239)"><g
       id="text1873"
       style="font-weight:900;font-size:11.1648px;line-height:0.9;font-family:Roboto;-inkscape-font-specification:'Roboto, Heavy';font-variant-ligatures:none;letter-spacing:0px;word-spacing:0px;fill:#ffffff;stroke-width:0.476198;stroke-linecap:round"
       aria-label="SUPERSPORT"
       transform="translate(256.22219,-53.588954)"><path
         style="font-weight:normal;font-size:11.1125px;-inkscape-font-specification:'Roboto, Normal'"
         d="m 1465.3248,14797.354 q -1.3402,-0.386 -1.9533,-0.945 -0.6077,-0.564 -0.6077,-1.389 0,-0.933 0.7433,-1.541 0.7488,-0.613 1.9425,-0.613 0.8139,0 1.4488,0.315 0.6403,0.315 0.9875,0.868 0.3527,0.554 0.3527,1.21 h -1.0472 q 0,-0.716 -0.4558,-1.123 -0.4558,-0.413 -1.286,-0.413 -0.7705,0 -1.2045,0.342 -0.4287,0.337 -0.4287,0.939 0,0.483 0.407,0.819 0.4123,0.331 1.3944,0.608 0.9876,0.277 1.541,0.613 0.5589,0.331 0.8248,0.776 0.2713,0.445 0.2713,1.047 0,0.961 -0.7488,1.541 -0.7488,0.576 -2.0022,0.576 -0.8139,0 -1.5193,-0.31 -0.7054,-0.314 -1.0906,-0.857 -0.3798,-0.543 -0.3798,-1.232 h 1.0472 q 0,0.716 0.5263,1.134 0.5318,0.413 1.4162,0.413 0.8248,0 1.2643,-0.337 0.4395,-0.336 0.4395,-0.917 0,-0.58 -0.407,-0.895 -0.4069,-0.32 -1.4759,-0.629 z m 9.8266,-4.379 v 5.371 q -0.01,1.118 -0.7054,1.829 -0.6945,0.711 -1.8883,0.798 l -0.2767,0.01 q -1.2968,0 -2.0673,-0.7 -0.7705,-0.7 -0.7814,-1.927 v -5.382 h 1.031 v 5.35 q 0,0.857 0.4721,1.335 0.472,0.472 1.3456,0.472 0.8844,0 1.3511,-0.472 0.4721,-0.472 0.4721,-1.33 v -5.355 z m 2.6859,4.807 v 3.093 h -1.0418 v -7.9 h 2.9137 q 1.2969,0 2.0294,0.662 0.7379,0.662 0.7379,1.752 0,1.151 -0.7217,1.775 -0.7162,0.618 -2.0564,0.618 z m 0,-0.852 h 1.8719 q 0.8356,0 1.2806,-0.39 0.4449,-0.396 0.4449,-1.14 0,-0.705 -0.4449,-1.128 -0.445,-0.424 -1.2209,-0.44 h -1.9316 z m 10.4342,0.293 h -3.4238 v 2.8 h 3.9773 v 0.852 h -5.0191 v -7.9 h 4.9648 v 0.857 h -3.923 v 2.539 h 3.4238 z m 4.7478,0.456 h -1.8557 v 3.196 h -1.0472 v -7.9 h 2.6153 q 1.3348,0 2.051,0.607 0.7217,0.608 0.7217,1.769 0,0.738 -0.4015,1.286 -0.3961,0.548 -1.1069,0.82 l 1.8557,3.353 v 0.07 h -1.1178 z m -1.8557,-0.852 h 1.6007 q 0.7759,0 1.2317,-0.401 0.4612,-0.402 0.4612,-1.075 0,-0.732 -0.4395,-1.123 -0.4341,-0.391 -1.2589,-0.396 h -1.5952 z"
         id="path1924" /><path
         d="m 1500.7408,14798.765 q 0,-0.42 -0.2998,-0.654 -0.2944,-0.234 -1.0413,-0.485 -0.7469,-0.251 -1.2211,-0.485 -1.5428,-0.758 -1.5428,-2.083 0,-0.659 0.3816,-1.161 0.387,-0.507 1.0903,-0.785 0.7032,-0.284 1.5809,-0.284 0.8559,0 1.5319,0.306 0.6815,0.305 1.0576,0.872 0.3762,0.562 0.3762,1.287 h -1.9081 q 0,-0.486 -0.2998,-0.753 -0.2944,-0.267 -0.8014,-0.267 -0.5124,0 -0.8123,0.229 -0.2943,0.224 -0.2943,0.573 0,0.305 0.3271,0.556 0.327,0.245 1.1502,0.512 0.8232,0.262 1.352,0.567 1.2866,0.741 1.2866,2.044 0,1.042 -0.785,1.636 -0.7851,0.594 -2.1534,0.594 -0.9649,0 -1.75,-0.343 -0.7795,-0.349 -1.1775,-0.949 -0.3925,-0.605 -0.3925,-1.39 h 1.9189 q 0,0.638 0.3271,0.943 0.3326,0.3 1.074,0.3 0.4743,0 0.7469,-0.202 0.278,-0.207 0.278,-0.578 z m 4.8083,-0.583 v 2.693 h -1.9135 v -7.937 h 3.1673 q 0.9104,0 1.6082,0.338 0.7033,0.332 1.0849,0.954 0.3871,0.616 0.3871,1.401 0,1.161 -0.8341,1.859 -0.8287,0.692 -2.2788,0.692 z m 0,-1.477 h 1.2538 q 0.5561,0 0.845,-0.278 0.2944,-0.279 0.2944,-0.785 0,-0.557 -0.2998,-0.889 -0.2999,-0.333 -0.8178,-0.338 h -1.2756 z m 12.0752,0.365 q 0,1.161 -0.4307,2.055 -0.4307,0.894 -1.2266,1.379 -0.7905,0.48 -1.8045,0.48 -1.014,0 -1.799,-0.463 -0.785,-0.469 -1.2266,-1.336 -0.4361,-0.867 -0.4579,-1.99 v -0.447 q 0,-1.166 0.4252,-2.055 0.4307,-0.894 1.2266,-1.379 0.8014,-0.486 1.8208,-0.486 1.0086,0 1.7991,0.48 0.7904,0.48 1.2266,1.369 0.4415,0.883 0.447,2.028 z m -1.9462,-0.333 q 0,-1.183 -0.398,-1.793 -0.3925,-0.616 -1.1285,-0.616 -1.4392,0 -1.5209,2.158 l -0.01,0.584 q 0,1.166 0.3871,1.793 0.387,0.627 1.1502,0.627 0.7251,0 1.1176,-0.616 0.3925,-0.616 0.398,-1.771 z m 5.8822,1.336 h -1.0358 v 2.802 h -1.9135 v -7.937 h 3.1238 q 1.4119,0 2.2078,0.626 0.796,0.627 0.796,1.772 0,0.829 -0.338,1.374 -0.3326,0.545 -1.0467,0.883 l 1.6572,3.2 v 0.08 h -2.0497 z m -1.0358,-1.477 h 1.2103 q 0.5451,0 0.8177,-0.284 0.278,-0.289 0.278,-0.801 0,-0.513 -0.278,-0.802 -0.278,-0.294 -0.8177,-0.294 h -1.2103 z m 11.3284,-2.181 h -2.3824 v 6.46 h -1.9135 v -6.46 h -2.3387 v -1.477 h 6.6346 z"
         id="path1925" /></g></g></svg>
