<?xml version="1.0" encoding="UTF-8" standalone="no"?>
<!-- Created with Inkscape (http://www.inkscape.org/) -->

<svg
   width="249.53516"
   height="31.574217"
   viewBox="0 0 66.022842 8.3540115"
   version="1.1"
   id="svg1"
   xml:space="preserve"
   xmlns="http://www.w3.org/2000/svg"
   xmlns:svg="http://www.w3.org/2000/svg"><defs
     id="defs1" /><g
     id="layer12"
     transform="translate(-1784.5615,-15368.822)"><path
       d="m 1784.5615,15376.973 0.3689,-7.937 h 1.7017 l 2.0707,3.725 2.023,-3.725 h 1.7137 l 0.3689,7.937 h -1.797 l -0.2261,-5.188 -1.6422,3.094 h -0.9283 l -1.7374,-3.059 -0.2023,5.153 z m 9.663,0 v -7.937 h 5.4265 v 1.571 h -3.6295 v 1.547 h 2.8203 v 1.523 h -2.8203 v 1.713 h 3.8914 v 1.583 z m 6.9022,0 v -7.937 h 2.9989 q 1.2257,0 2.1777,0.428 0.9639,0.417 1.5113,1.309 0.5475,0.881 0.5475,2.273 0,1.309 -0.5594,2.19 -0.5474,0.868 -1.5113,1.309 -0.952,0.428 -2.1777,0.428 z m 1.7969,-1.594 h 1.0949 q 1.19,0 1.8326,-0.631 0.6426,-0.631 0.6426,-1.714 0,-1.095 -0.595,-1.749 -0.595,-0.667 -1.8802,-0.667 h -1.0949 z m 6.6761,1.594 v -7.937 h 1.7969 v 7.937 z m 2.6538,0 2.9631,-7.937 h 1.9874 l 2.9037,7.937 h -1.9636 l -0.6069,-1.821 h -2.7966 l -0.6069,1.821 z m 2.9036,-3.213 h 1.9517 l -0.9639,-2.999 z m 11.3886,0.631 1.2257,1.118 q -0.3332,0.453 -0.8568,0.833 -0.5117,0.381 -1.1543,0.607 -0.6426,0.227 -1.3804,0.227 -1.202,0 -2.1302,-0.536 -0.9163,-0.536 -1.4399,-1.464 -0.5117,-0.94 -0.5117,-2.142 0,-0.88 0.2975,-1.642 0.2975,-0.774 0.833,-1.345 0.5474,-0.571 1.2971,-0.892 0.7616,-0.322 1.678,-0.322 1.0948,0 1.9278,0.405 0.833,0.405 1.3804,1.166 l -1.2257,1.178 q -0.357,-0.499 -0.8449,-0.797 -0.4879,-0.309 -1.1662,-0.309 -0.7141,0 -1.2377,0.345 -0.5117,0.333 -0.7973,0.904 -0.2737,0.571 -0.2737,1.262 0,0.702 0.2737,1.261 0.2856,0.559 0.7973,0.893 0.5117,0.321 1.202,0.321 0.5712,0 0.952,-0.155 0.3808,-0.155 0.6426,-0.393 0.2737,-0.249 0.5117,-0.523 z m 5.7717,2.785 q -0.8807,0 -1.6304,-0.31 -0.7497,-0.321 -1.3209,-0.892 -0.5593,-0.572 -0.8687,-1.333 -0.3094,-0.762 -0.3094,-1.642 0,-0.893 0.3094,-1.643 0.3094,-0.761 0.8687,-1.333 0.5593,-0.571 1.309,-0.88 0.7616,-0.321 1.6423,-0.321 0.8806,0 1.6303,0.321 0.7497,0.309 1.309,0.88 0.5712,0.572 0.8807,1.333 0.3094,0.75 0.3094,1.643 0,0.88 -0.3094,1.642 -0.3095,0.761 -0.8807,1.333 -0.5593,0.571 -1.309,0.892 -0.7497,0.31 -1.6303,0.31 z m 0,-1.69 q 0.7021,0 1.2019,-0.345 0.5117,-0.346 0.7735,-0.917 0.2737,-0.571 0.2737,-1.249 0,-0.679 -0.2737,-1.238 -0.2618,-0.571 -0.7735,-0.904 -0.4998,-0.345 -1.2019,-0.345 -0.7022,0 -1.2139,0.345 -0.4998,0.333 -0.7735,0.904 -0.2737,0.559 -0.2737,1.238 0,0.678 0.2737,1.249 0.2737,0.571 0.7735,0.917 0.5117,0.345 1.2139,0.345 z m 5.367,1.487 v -7.937 h 2.9513 q 0.9282,0 1.547,0.345 0.6188,0.333 0.9282,0.904 0.3094,0.56 0.3094,1.238 0,0.761 -0.3451,1.345 -0.3332,0.583 -0.952,0.928 l 1.7612,3.177 h -1.9754 l -1.4756,-2.915 h -0.9997 v 2.915 z m 1.7493,-4.355 h 1.1068 q 0.4998,0 0.7854,-0.298 0.2856,-0.297 0.2856,-0.75 0,-0.487 -0.2975,-0.773 -0.2856,-0.286 -0.7735,-0.286 h -1.1068 z m 5.4742,4.355 v -7.937 h 2.8917 q 0.9878,0 1.5947,0.369 0.6188,0.357 0.9044,0.94 0.2856,0.583 0.2856,1.249 0,0.845 -0.3808,1.428 -0.3808,0.572 -0.9996,0.869 -0.6069,0.286 -1.321,0.286 h -1.2257 v 2.796 z m 1.7493,-4.248 h 1.0472 q 0.488,0 0.7855,-0.31 0.2975,-0.309 0.2975,-0.785 0,-0.5 -0.2975,-0.809 -0.2975,-0.322 -0.7974,-0.322 h -1.0353 z"
       id="text3534"
       style="font-weight:bold;font-size:11.9003px;line-height:0.9;font-family:Effra;-inkscape-font-specification:'Effra, Bold';font-variant-ligatures:none;letter-spacing:0px;word-spacing:0px;fill:#ffffff;stroke-width:0.516311;stroke-linecap:round"
       aria-label="MEDIACORP" /></g></svg>
