<?xml version="1.0" encoding="UTF-8" standalone="no"?>
<!-- Created with Inkscape (http://www.inkscape.org/) -->

<svg
   width="325.70166"
   height="31.132814"
   viewBox="0 0 86.175229 8.2372238"
   version="1.1"
   id="svg1"
   xml:space="preserve"
   xmlns="http://www.w3.org/2000/svg"
   xmlns:svg="http://www.w3.org/2000/svg"><defs
     id="defs1" /><g
     id="g866"
     transform="translate(-1712.6358,-3377.0728)"><path
       d="m 1713.1885,3383.2582 q -0.5527,-0.9525 -0.5527,-2.0696 0,-1.1171 0.5527,-2.0638 0.5527,-0.9525 1.4993,-1.4993 0.9525,-0.5527 2.0697,-0.5527 1.5052,0 2.6576,0.9761 0.1234,0.1058 0.1234,0.2763 0,0.1235 -0.094,0.2176 l -0.8231,0.7937 q -0.7409,-0.8819 -1.8639,-0.8819 -0.7114,0 -1.2758,0.3704 -0.5645,0.3704 -0.8702,0.9936 -0.2999,0.6174 -0.2999,1.37 0,1.1818 0.6879,1.9579 0.6879,0.7761 1.758,0.7761 0.8643,0 1.5758,-0.5879 0.1411,-0.1117 0.2881,-0.1117 0.1117,0 0.2175,0.088 l 0.8173,0.8056 q -0.5703,0.5644 -1.317,0.8819 -0.7468,0.3116 -1.5817,0.3116 -1.1171,0 -2.0696,-0.5527 -0.9466,-0.5526 -1.4993,-1.4993 z m 7.6406,0 q -0.5468,-0.9525 -0.5468,-2.0696 0,-1.1171 0.5527,-2.0638 0.5527,-0.9525 1.4993,-1.4993 0.9466,-0.5527 2.0579,-0.5527 0.8408,0 1.5993,0.3293 0.7643,0.3234 1.3111,0.8761 0.5527,0.5468 0.8761,1.3111 0.3292,0.7585 0.3292,1.5993 0,1.1171 -0.5526,2.0696 -0.5469,0.9467 -1.4994,1.4993 -0.9466,0.5527 -2.0637,0.5527 -1.1171,0 -2.0638,-0.5527 -0.9466,-0.5526 -1.4993,-1.4993 z m 1.1289,-2.0696 q 0,1.1936 0.6703,1.9638 0.6703,0.7702 1.7639,0.7702 1.0995,0 1.7698,-0.7702 0.6761,-0.7761 0.6761,-1.9638 0,-1.1818 -0.682,-1.9579 -0.6821,-0.7761 -1.7639,-0.7761 -1.0877,0 -1.7639,0.7761 -0.6703,0.7702 -0.6703,1.9579 z m 8.0169,3.9746 v -7.6611 q 0,-0.1118 0.1,-0.1941 0.1059,-0.082 0.2529,-0.082 h 3.1867 q 1.176,0 1.9109,0.7997 0.7409,0.7937 0.7409,1.9696 0,1.2583 -0.7703,2.0226 -0.7702,0.7585 -2.0461,0.7585 h -1.6992 v 2.3871 z m 1.6757,-3.5748 q 0.1412,-0.2293 0.4587,-0.2293 h 1.2758 q 0.3293,0 0.5645,-0.1235 0.2352,-0.1293 0.3469,-0.3469 0.1176,-0.2175 0.1646,-0.4351 0.053,-0.2175 0.053,-0.4586 0,-0.241 -0.053,-0.4527 -0.047,-0.2175 -0.1646,-0.4292 -0.1117,-0.2176 -0.3469,-0.341 -0.2352,-0.1235 -0.5645,-0.1235 h -1.7345 z m 4.1129,3.5748 3.7453,-7.9257 q 0.059,-0.1176 0.2175,-0.1176 0.1529,0 0.2058,0.1058 l 3.7454,7.9375 h -1.8462 l -0.7468,-1.758 h -2.7222 l -0.7585,1.758 z m 3.1279,-2.9633 h 1.0172 q 0.5762,0 0.8526,0.4704 l -1.0349,-2.393 z m 7.9611,2.9633 3.7453,-7.9257 q 0.059,-0.1176 0.2176,-0.1176 0.1529,0 0.2058,0.1058 l 3.7453,7.9375 h -1.8462 l -0.7467,-1.758 h -2.7223 l -0.7585,1.758 z m 3.128,-2.9633 h 1.0172 q 0.5762,0 0.8525,0.4704 l -1.0348,-2.393 z m 5.6474,2.9633 0.5174,-7.9375 h 0.8584 q 0.3881,0 0.5998,0.4351 l 2.3753,4.7919 2.3813,-4.7919 q 0.2117,-0.4351 0.6056,-0.4351 h 0.8525 l 0.5175,7.9375 h -1.517 l -0.2881,-4.5978 -2.346,4.6331 q -0.088,0.071 -0.2058,0.071 -0.1176,0 -0.2057,-0.071 l -2.346,-4.6331 -0.2822,4.5978 z m 10.357,0 v -6.9967 q 0,-0.3881 0.2764,-0.6644 0.2763,-0.2764 0.6644,-0.2764 h 4.1627 v 1.4699 h -3.3808 v 2.3401 q 0.1647,-0.4821 0.8937,-0.4821 h 2.2108 v 1.3817 h -3.1045 v 1.7698 h 3.3808 v 1.4581 z m 6.7528,0 v -7.0203 q 0,-0.3821 0.2705,-0.6467 0.2763,-0.2705 0.6585,-0.2705 h 2.6105 q 1.1407,0 1.8992,0.782 0.7643,0.782 0.7643,1.9991 0,0.976 -0.488,1.6874 -0.488,0.7115 -1.3758,1.0113 l 1.8873,2.4577 h -2.0814 l -1.5287,-2.3459 h -0.9407 v 2.3459 z m 1.6757,-3.2984 q 0.1705,-0.4822 0.782,-0.4822 h 0.9643 q 0.3292,0 0.5644,-0.1293 0.2352,-0.1294 0.3528,-0.3469 0.1176,-0.2176 0.1646,-0.4351 0.053,-0.2234 0.053,-0.4645 0,-0.2411 -0.053,-0.4586 -0.047,-0.2176 -0.1646,-0.4292 -0.1176,-0.2176 -0.3528,-0.3411 -0.2352,-0.1293 -0.5644,-0.1293 h -1.7463 z m 5.959,3.2984 v -7.1026 q 0,-0.3234 0.2411,-0.5762 0.2411,-0.2587 0.5703,-0.2587 h 0.8996 v 7.6259 q 0,0.1352 -0.088,0.2234 -0.088,0.088 -0.2352,0.088 z m 3.7307,-1.905 q -0.5527,-0.9525 -0.5527,-2.0696 0,-1.1171 0.5527,-2.0638 0.5527,-0.9525 1.4993,-1.4993 0.9525,-0.5527 2.0696,-0.5527 1.5052,0 2.6576,0.9761 0.1235,0.1058 0.1235,0.2763 0,0.1235 -0.094,0.2176 l -0.8232,0.7937 q -0.7408,-0.8819 -1.8638,-0.8819 -0.7114,0 -1.2759,0.3704 -0.5644,0.3704 -0.8702,0.9936 -0.2998,0.6174 -0.2998,1.37 0,1.1818 0.6879,1.9579 0.6879,0.7761 1.758,0.7761 0.8643,0 1.5758,-0.5879 0.1411,-0.1117 0.288,-0.1117 0.1118,0 0.2176,0.088 l 0.8173,0.8056 q -0.5704,0.5644 -1.3171,0.8819 -0.7467,0.3116 -1.5816,0.3116 -1.1171,0 -2.0696,-0.5527 -0.9467,-0.5526 -1.4993,-1.4993 z m 6.7939,1.905 3.7454,-7.9257 q 0.059,-0.1176 0.2175,-0.1176 0.1529,0 0.2058,0.1058 l 3.7453,7.9375 h -1.8462 l -0.7467,-1.758 h -2.7223 l -0.7584,1.758 z m 3.128,-2.9633 h 1.0172 q 0.5762,0 0.8525,0.4704 l -1.0348,-2.393 z"
       id="text1072"
       style="font-size:12.0415px;line-height:0.9;font-family:'Copa America';-inkscape-font-specification:'Copa America, Normal';font-variant-ligatures:none;letter-spacing:0.267548px;word-spacing:0px;fill:#ffffff;stroke-width:0.608065;stroke-miterlimit:5"
       aria-label="COPA AMERICA" /></g></svg>
