<?xml version="1.0" encoding="UTF-8" standalone="no"?>
<!-- Created with Inkscape (http://www.inkscape.org/) -->

<svg
   width="364.50293"
   height="29.999023"
   viewBox="0 0 96.441398 7.9372416"
   version="1.1"
   id="svg1"
   xml:space="preserve"
   xmlns="http://www.w3.org/2000/svg"
   xmlns:svg="http://www.w3.org/2000/svg"><defs
     id="defs1" /><g
     id="g1442"
     style="display:inline"
     transform="translate(-1757.5809,-366.96774)"><path
       d="m 1760.507,371.67357 -0.8963,3.23169 h -2.0297 l 2.2013,-7.93748 h 2.1566 l 0.4991,3.2317 0.8963,-3.2317 h 2.0297 l -2.2012,7.93748 h -2.1566 z m 5.9815,0.96385 -0.6289,2.26784 h -2.0298 l 1.8868,-6.80355 1.3294,-1.13393 h 3.0445 l 0.7005,1.13393 -1.8868,6.80355 h -2.0297 l 0.6289,-2.26784 z m 1.4866,-1.70089 0.6289,-2.26786 h -1.0149 l -0.6289,2.26786 z m 3.483,-2.83482 1.3292,-1.13393 h 3.0447 l 0.7004,1.13393 -0.3145,1.13392 h -2.0298 l 0.1573,-0.56696 h -1.0148 l -0.3931,1.41741 h 2.0297 l 0.7004,1.13393 -0.7076,2.55133 -1.3293,1.13392 h -3.0446 l -0.7004,-1.13392 0.3145,-1.13392 h 2.0297 l -0.1572,0.56696 h 1.0148 l 0.3931,-1.41741 h -2.0297 l -0.7004,-1.13393 z m 8.6287,0.56696 h -1.0149 l -1.2578,4.53571 h 1.0149 l 0.1572,-0.56696 h 2.0297 l -0.3144,1.13392 -1.3294,1.13392 h -3.0446 l -0.7004,-1.13392 1.5723,-5.66963 1.3294,-1.13393 h 3.0446 l 0.7004,1.13393 -0.3145,1.13392 h -2.0297 z m 3.6259,3.96875 -0.6289,2.26784 h -2.0297 l 1.8868,-6.80355 1.3292,-1.13393 h 3.0447 l 0.7004,1.13393 -1.8868,6.80355 h -2.0298 l 0.629,-2.26784 z m 1.4866,-1.70089 0.6289,-2.26786 h -1.0148 l -0.629,2.26786 z m 6.3703,-2.26786 h -1.0149 l -0.4717,1.7009 h 1.0149 z m -1.9126,3.40178 h -0.045 l -0.7862,2.83481 h -2.0296 l 2.2013,-7.93748 h 4.0593 l 0.7005,1.13393 -0.7862,2.83482 -1.1765,1.00352 0.4565,2.96521 h -2.1566 z m 11.8732,-3.40178 h -1.015 l -1.2578,4.53571 h 1.0149 l 0.1572,-0.56696 h 2.0298 l -0.3145,1.13392 -1.3294,1.13392 h -3.0445 l -0.7004,-1.13392 1.5723,-5.66963 1.3293,-1.13393 h 3.0446 l 0.7004,1.13393 -0.3144,1.13392 h -2.0298 z m 5.7413,0 h -1.0148 l -0.4717,1.7009 h 1.0148 z m -1.9125,3.40178 h -0.045 l -0.7862,2.83481 h -2.0297 l 2.2012,-7.93748 h 4.0595 l 0.7004,1.13393 -0.7862,2.83482 -1.1764,1.00352 0.4564,2.96521 h -2.1566 z m 5.5385,0.56697 -0.6289,2.26784 h -2.0298 l 1.8868,-6.80355 1.3293,-1.13393 h 3.0447 l 0.7003,1.13393 -1.8868,6.80355 h -2.0297 l 0.6289,-2.26784 z m 1.4865,-1.70089 0.629,-2.26786 h -1.0149 l -0.6289,2.26786 z m 5.3555,-2.26786 -0.3931,1.41741 h 3.0447 l -0.4717,1.70089 h -3.0447 l -0.8648,3.11829 h -2.0297 l 1.8868,-6.80355 1.3294,-1.13393 h 4.0594 l -0.4717,1.70089 z m 9.2577,-1.70089 -0.4717,1.70089 h -1.5223 l -1.7295,6.23659 h -2.0298 l 1.7296,-6.23659 h -1.5223 l 0.4717,-1.70089 z m 0.3526,1.13393 1.3294,-1.13393 h 3.0445 l 0.7005,1.13393 -0.3145,1.13392 h -2.0297 l 0.1572,-0.56696 h -1.0149 l -0.3931,1.41741 h 2.0298 l 0.7004,1.13393 -0.7075,2.55133 -1.3294,1.13392 h -3.0446 l -0.7004,-1.13392 0.3144,-1.13392 h 2.0298 l -0.1573,0.56696 h 1.0149 l 0.3931,-1.41741 h -2.0297 l -0.7005,-1.13393 z m 7.3514,1.51379 -1.467,5.28976 h -2.0298 l 2.2013,-7.93748 h 3.552 l -0.3394,3.96875 1.8617,-3.96875 h 3.552 l -2.2012,7.93748 h -2.0298 l 1.467,-5.28976 -2.4818,5.28976 h -2.5372 z m 8.4554,3.02192 -0.6289,2.26784 h -2.0298 l 1.8868,-6.80355 1.3293,-1.13393 h 3.0446 l 0.7004,1.13393 -1.8868,6.80355 h -2.0297 l 0.6289,-2.26784 z m 1.4865,-1.70089 0.6289,-2.26786 h -1.0148 l -0.6289,2.26786 z m 4.5221,0.73704 -0.8962,3.23169 h -2.0297 l 2.2012,-7.93748 h 2.1566 l 0.4992,3.2317 0.8962,-3.2317 h 2.0298 l -2.2013,7.93748 h -2.1566 z"
       id="text1468"
       style="font-size:10.9849px;line-height:0.9;font-family:Hauser;-inkscape-font-specification:'Hauser, Normal';font-variant-ligatures:none;letter-spacing:0.168764px;word-spacing:0px;fill:#ffffff;stroke-width:0.0255703;stroke-linecap:round;stroke-linejoin:round;paint-order:stroke fill markers"
       aria-label="NASCAR CRAFTSMAN" /></g></svg>
