<?xml version="1.0" encoding="UTF-8" standalone="no"?>
<!-- Created with Inkscape (http://www.inkscape.org/) -->

<svg
   width="603.46338"
   height="31.035154"
   viewBox="0 0 159.66635 8.2113846"
   version="1.1"
   id="svg1"
   xml:space="preserve"
   xmlns="http://www.w3.org/2000/svg"
   xmlns:svg="http://www.w3.org/2000/svg"><defs
     id="defs1" /><g
     id="g2717"
     transform="translate(-1690.6712,-6777.0851)"><g
       id="g3098"><path
         style="font-style:italic;font-weight:900;font-size:11.9003px;line-height:0.9;font-family:'Proxima Nova';-inkscape-font-specification:'Proxima Nova, Heavy Italic';font-variant-ligatures:none;letter-spacing:0px;word-spacing:0px;fill:#ffffff;stroke-width:0.551651;stroke-linecap:round"
         d="m 1848.5882,6785.1536 1.7493,-7.9375 h -2.4039 l -0.9282,4.2127 -1.8326,-4.2127 h -2.4753 l -1.7493,7.9375 h 2.4038 l 0.9758,-4.4745 1.9517,4.4745 z"
         id="path3091" /><path
         style="font-style:italic;font-weight:900;font-size:11.9003px;line-height:0.9;font-family:'Proxima Nova';-inkscape-font-specification:'Proxima Nova, Heavy Italic';font-variant-ligatures:none;letter-spacing:0px;word-spacing:0px;fill:#ffffff;stroke-width:0.551651;stroke-linecap:round"
         d="m 1839.8771,6785.1536 0.4403,-1.9992 h -3.6176 l 0.2261,-1.0116 h 3.5343 l 0.4404,-1.9992 h -3.5344 l 0.2023,-0.9282 h 3.6177 l 0.4403,-1.9993 h -6.0216 l -1.7493,7.9375 z"
         id="path3090" /><path
         style="font-style:italic;font-weight:900;font-size:11.9003px;line-height:0.9;font-family:'Proxima Nova';-inkscape-font-specification:'Proxima Nova, Heavy Italic';font-variant-ligatures:none;letter-spacing:0px;word-spacing:0px;fill:#ffffff;stroke-width:0.551651;stroke-linecap:round"
         d="m 1825.5492,6781.6549 c 0,2.3206 1.9635,3.6415 4.1413,3.6415 1.4399,0 2.6656,-0.6069 3.4154,-1.6065 l 0.714,-3.2012 h -3.8676 l -0.4522,1.9754 h 1.5351 l -0.071,0.357 c -0.3094,0.2262 -0.6664,0.3571 -1.1424,0.3571 -1.1543,0 -1.7851,-0.8569 -1.7851,-1.6899 0,-1.2614 0.964,-2.2848 2.1778,-2.2848 0.7259,0 1.3804,0.3808 1.547,0.8687 l 2.2135,-0.9044 c -0.4403,-1.0354 -1.5709,-2.0826 -3.4154,-2.0826 -3.0108,0 -5.01,1.9636 -5.01,4.5697 z"
         id="path3089" /><path
         style="font-style:italic;font-weight:900;font-size:11.9003px;line-height:0.9;font-family:'Proxima Nova';-inkscape-font-specification:'Proxima Nova, Heavy Italic';font-variant-ligatures:none;letter-spacing:0px;word-spacing:0px;fill:#ffffff;stroke-width:0.551651;stroke-linecap:round"
         d="m 1825.2636,6785.1536 -1.1781,-7.9375 h -3.0227 l -4.6768,7.9375 h 2.7251 l 0.5355,-1.0234 h 3.0346 l 0.095,1.0234 z m -2.749,-3.0227 h -1.8088 l 1.5351,-2.9155 z"
         id="path3088" /><path
         style="font-style:italic;font-weight:900;font-size:11.9003px;line-height:0.9;font-family:'Proxima Nova';-inkscape-font-specification:'Proxima Nova, Heavy Italic';font-variant-ligatures:none;letter-spacing:0px;word-spacing:0px;fill:#ffffff;stroke-width:0.551651;stroke-linecap:round"
         d="m 1814.8865,6785.1536 4.0223,-7.9375 h -2.7609 l -2.0825,4.8553 -0.1309,-4.8553 h -1.8089 l -2.2729,4.8553 0.048,-4.8553 h -2.63 l 0.5236,7.9375 h 2.5229 l 2.0111,-4.4983 0.036,4.4983 z"
         id="path3087" /><path
         style="font-style:italic;font-weight:900;font-size:11.9003px;line-height:0.9;font-family:'Proxima Nova';-inkscape-font-specification:'Proxima Nova, Heavy Italic';font-variant-ligatures:none;letter-spacing:0px;word-spacing:0px;fill:#ffffff;stroke-width:0.551651;stroke-linecap:round"
         d="m 1805.0212,6785.1536 1.7493,-7.9375 h -2.4039 l -0.9282,4.2127 -1.8326,-4.2127 h -2.4753 l -1.7493,7.9375 h 2.4038 l 0.9759,-4.4745 1.9516,4.4745 z"
         id="path3084" /><path
         style="font-style:italic;font-weight:900;font-size:11.9003px;line-height:0.9;font-family:'Proxima Nova';-inkscape-font-specification:'Proxima Nova, Heavy Italic';font-variant-ligatures:none;letter-spacing:0px;word-spacing:0px;fill:#ffffff;stroke-width:0.551651;stroke-linecap:round"
         d="m 1796.3101,6785.1536 0.4404,-1.9992 h -3.6177 l 0.2261,-1.0116 h 3.5344 l 0.4403,-1.9992 h -3.5344 l 0.2023,-0.9282 h 3.6177 l 0.4403,-1.9993 h -6.0216 l -1.7493,7.9375 z"
         id="path3083" /><path
         style="font-style:italic;font-weight:900;font-size:11.9003px;line-height:0.9;font-family:'Proxima Nova';-inkscape-font-specification:'Proxima Nova, Heavy Italic';font-variant-ligatures:none;letter-spacing:0px;word-spacing:0px;fill:#ffffff;stroke-width:0.551651;stroke-linecap:round"
         d="m 1789.3247,6785.1536 -0.7854,-2.6776 c 1.0353,-0.3689 1.9516,-1.4518 1.9516,-2.856 0,-1.4638 -1.2257,-2.4039 -2.6657,-2.4039 h -3.8557 l -1.7493,7.9375 h 2.4039 l 0.5593,-2.5467 h 0.9639 l 0.5355,2.5467 z m -3.701,-4.5459 0.3094,-1.3923 h 1.3685 c 0.4284,0 0.7021,0.2499 0.7021,0.6426 0,0.4879 -0.3927,0.7497 -0.9758,0.7497 z"
         id="path3082" /><path
         style="font-style:italic;font-weight:900;font-size:11.9003px;line-height:0.9;font-family:'Proxima Nova';-inkscape-font-specification:'Proxima Nova, Heavy Italic';font-variant-ligatures:none;letter-spacing:0px;word-spacing:0px;fill:#ffffff;stroke-width:0.551651;stroke-linecap:round"
         d="m 1777.5553,6785.2964 c 2.618,0 3.6772,-1.4994 4.0937,-3.4154 l 1.0353,-4.6649 h -2.4396 l -1.0234,4.6173 c -0.1666,0.7616 -0.6307,1.3686 -1.5113,1.3686 -0.8806,0 -1.2377,-0.5356 -1.2496,-1.083 0,-0.119 0.024,-0.3451 0.06,-0.4998 l 0.9759,-4.4031 h -2.4396 l -0.9401,4.2484 c -0.095,0.4284 -0.1309,0.833 -0.1309,0.9282 0,1.7018 1.1543,2.9037 3.5701,2.9037 z"
         id="path3047" /><path
         style="font-style:italic;font-weight:900;font-size:11.9003px;line-height:0.9;font-family:'Proxima Nova';-inkscape-font-specification:'Proxima Nova, Heavy Italic';font-variant-ligatures:none;letter-spacing:0px;word-spacing:0px;fill:#ffffff;stroke-width:0.551651;stroke-linecap:round"
         d="m 1764.5244,6781.6549 c 0,2.154 1.7851,3.6415 4.1413,3.6415 2.7609,0 4.7601,-2.0587 4.7601,-4.5935 0,-2.1421 -1.785,-3.6177 -4.1294,-3.6177 -2.7608,0 -4.772,2.035 -4.772,4.5697 z m 6.4143,-0.7616 c 0,1.2138 -0.8806,2.2849 -2.1421,2.2849 -1.071,0 -1.785,-0.7141 -1.785,-1.6899 0,-1.2138 0.8806,-2.2848 2.142,-2.2848 1.0711,0 1.7851,0.714 1.7851,1.6898 z"
         id="path3044" /><path
         style="font-style:italic;font-weight:900;font-size:11.9003px;line-height:0.9;font-family:'Proxima Nova';-inkscape-font-specification:'Proxima Nova, Heavy Italic';font-variant-ligatures:none;letter-spacing:0px;word-spacing:0px;fill:#ffffff;stroke-width:0.551651;stroke-linecap:round"
         d="m 1761.2756,6785.1536 1.2853,-5.843 h 2.1182 l 0.4641,-2.0945 h -6.6522 l -0.4641,2.0945 h 2.1301 l -1.2852,5.843 z"
         id="path3022" /><path
         style="font-style:italic;font-weight:900;font-size:11.9003px;line-height:0.9;font-family:'Proxima Nova';-inkscape-font-specification:'Proxima Nova, Heavy Italic';font-variant-ligatures:none;letter-spacing:0px;word-spacing:0px;fill:#ffffff;stroke-width:0.551651;stroke-linecap:round"
         d="m 1753.0644,6785.1536 0.4404,-1.9992 h -3.6177 l 0.2261,-1.0116 h 3.5344 l 0.4403,-1.9992 h -3.5344 l 0.2023,-0.9282 h 3.6177 l 0.4403,-1.9993 h -6.0216 l -1.7493,7.9375 z"
         id="path2925" /><path
         style="font-style:italic;font-weight:900;font-size:11.9003px;line-height:0.9;font-family:'Proxima Nova';-inkscape-font-specification:'Proxima Nova, Heavy Italic';font-variant-ligatures:none;letter-spacing:0px;word-spacing:0px;fill:#ffffff;stroke-width:0.551651;stroke-linecap:round"
         d="m 1745.7577,6785.1536 1.7493,-7.9375 h -2.4039 l -0.6188,2.8085 h -2.8441 l 0.6188,-2.8085 h -2.4039 l -1.7493,7.9375 h 2.4038 l 0.6664,-3.0346 h 2.8442 l -0.6664,3.0346 z"
         id="path2922" /><path
         style="font-style:italic;font-weight:900;font-size:11.9003px;line-height:0.9;font-family:'Proxima Nova';-inkscape-font-specification:'Proxima Nova, Heavy Italic';font-variant-ligatures:none;letter-spacing:0px;word-spacing:0px;fill:#ffffff;stroke-width:0.551651;stroke-linecap:round"
         d="m 1730.1445,6781.6549 c 0,2.2373 1.8683,3.6415 4.1413,3.6415 1.0829,0 2.6299,-0.3927 3.6177,-1.8207 l -1.8803,-1.2139 c -0.2737,0.5117 -0.9877,0.9164 -1.6065,0.9164 -1.0949,0 -1.7851,-0.7855 -1.7851,-1.6899 0,-1.19 0.8925,-2.2848 2.1778,-2.2848 0.833,0 1.4637,0.4998 1.6065,1.2376 l 2.3087,-0.7259 c -0.3689,-1.2734 -1.4876,-2.63 -3.8081,-2.63 -2.6419,0 -4.772,1.8207 -4.772,4.5697 z"
         id="path2921" /><path
         style="font-style:italic;font-weight:900;font-size:11.9003px;line-height:0.9;font-family:'Proxima Nova';-inkscape-font-specification:'Proxima Nova, Heavy Italic';font-variant-ligatures:none;letter-spacing:0px;word-spacing:0px;fill:#ffffff;stroke-width:0.551651;stroke-linecap:round"
         d="m 1722.3022,6783.7494 c 0.7854,0.9401 2.2848,1.547 3.9747,1.547 2.0468,0 3.3201,-1.2257 3.3201,-2.7014 0,-1.5113 -1.6303,-2.1182 -2.7608,-2.4752 -0.595,-0.1904 -1.0116,-0.3689 -1.0116,-0.6307 0,-0.2142 0.1785,-0.4046 0.6189,-0.4046 0.6902,0 1.7255,0.3213 2.3205,0.9639 l 1.4043,-1.6304 c -0.8688,-0.8687 -2.1659,-1.3209 -3.463,-1.3209 -2.2611,0 -3.344,1.4637 -3.344,2.5229 0,1.666 1.6184,2.2372 2.737,2.5942 0.6189,0.2023 0.9997,0.3808 0.9997,0.6664 0,0.2024 -0.1785,0.3928 -0.6664,0.3928 -1.0354,0 -2.154,-0.4761 -2.7371,-1.1901 z"
         id="path2885" /><path
         style="font-style:italic;font-weight:900;font-size:11.9003px;line-height:0.9;font-family:'Proxima Nova';-inkscape-font-specification:'Proxima Nova, Heavy Italic';font-variant-ligatures:none;letter-spacing:0px;word-spacing:0px;fill:#ffffff;stroke-width:0.551651;stroke-linecap:round"
         d="m 1719.5413,6785.1536 1.2852,-5.843 h 2.1183 l 0.4641,-2.0945 h -6.6523 l -0.4641,2.0945 h 2.1302 l -1.2853,5.843 z"
         id="path2882" /><path
         style="font-style:italic;font-weight:900;font-size:11.9003px;line-height:0.9;font-family:'Proxima Nova';-inkscape-font-specification:'Proxima Nova, Heavy Italic';font-variant-ligatures:none;letter-spacing:0px;word-spacing:0px;fill:#ffffff;stroke-width:0.551651;stroke-linecap:round"
         d="m 1710.7708,6785.2964 c 2.618,0 3.6772,-1.4994 4.0937,-3.4154 l 1.0353,-4.6649 h -2.4396 l -1.0234,4.6173 c -0.1666,0.7616 -0.6307,1.3686 -1.5113,1.3686 -0.8807,0 -1.2377,-0.5356 -1.2496,-1.083 0,-0.119 0.024,-0.3451 0.06,-0.4998 l 0.9759,-4.4031 h -2.4396 l -0.9401,4.2484 c -0.095,0.4284 -0.1309,0.833 -0.1309,0.9282 0,1.7018 1.1543,2.9037 3.5701,2.9037 z"
         id="path2823" /><path
         style="font-style:italic;font-weight:900;font-size:11.9003px;line-height:0.9;font-family:'Proxima Nova';-inkscape-font-specification:'Proxima Nova, Heavy Italic';font-variant-ligatures:none;letter-spacing:0px;word-spacing:0px;fill:#ffffff;stroke-width:0.551651;stroke-linecap:round"
         d="m 1705.4513,6785.1536 0.4403,-1.9992 h -3.6177 l 0.2261,-1.0116 h 3.5344 l 0.4403,-1.9992 h -3.5343 l 0.2023,-0.9282 h 3.6177 l 0.4403,-1.9993 h -6.0216 l -1.7493,7.9375 z"
         id="path2807" /><path
         style="font-style:italic;font-weight:900;font-size:11.9003px;line-height:0.9;font-family:'Proxima Nova';-inkscape-font-specification:'Proxima Nova, Heavy Italic';font-variant-ligatures:none;letter-spacing:0px;word-spacing:0px;fill:#ffffff;stroke-width:0.551651;stroke-linecap:round"
         d="m 1692.4205,6777.2161 -1.7493,7.9375 h 3.5343 c 4.0223,0 5.2957,-2.4991 5.2957,-4.5102 0,-2.1064 -1.8327,-3.4273 -3.5939,-3.4273 z m 1.1186,5.8431 0.8211,-3.7486 h 1.1068 c 0.9282,0 1.547,0.6664 1.547,1.5113 0,1.2138 -0.8687,2.2373 -2.3681,2.2373 z"
         id="path2804" /></g></g></svg>
