<?xml version="1.0" encoding="UTF-8" standalone="no"?>
<!-- Created with Inkscape (http://www.inkscape.org/) -->

<svg
   width="421.5415"
   height="30.972658"
   viewBox="0 0 111.53285 8.1948491"
   version="1.1"
   id="svg1"
   xml:space="preserve"
   xmlns="http://www.w3.org/2000/svg"
   xmlns:svg="http://www.w3.org/2000/svg"><defs
     id="defs1" /><g
     id="layer22"
     transform="translate(-1712.8656,-8535.6554)"><path
       d="m 1714.7749,8540.2134 h 2.9926 l 0.1609,-1.0405 h -3.1535 v -2.4134 c 1.4695,0.118 2.8746,0.2896 4.2369,0.5148 l 0.2253,-1.4909 h -6.3715 l 0.1287,0.7615 c 0.043,0.2897 0.064,0.4827 0.064,0.7616 v 6.4144 h 6.1248 l 0.2467,-1.6089 c -1.4909,0.2681 -3.0463,0.4934 -4.6552,0.6328 z m 11.917,-4.43 h -6.3071 l 0.1287,0.7615 c 0.043,0.2897 0.064,0.4827 0.064,0.7616 v 6.4144 h 1.7162 v -3.293 h 2.9176 l 0.1716,-1.0405 h -3.0892 v -2.6279 c 1.448,0.118 2.8318,0.2896 4.1726,0.5148 z m 6.8327,7.9375 0.2682,-1.7162 c -1.4052,0.3111 -2.8747,0.5685 -4.3978,0.7401 v -6.9614 h -1.9093 l 0.1287,0.7615 c 0.043,0.2897 0.064,0.4827 0.064,0.7616 v 6.4144 z m 6.7791,0.1287 c 0.8152,0 1.7913,-0.1501 2.746,-0.3754 l -0.2682,-1.5768 -1.5124,0.6114 c -0.354,0.1395 -0.6329,0.2146 -0.9654,0.2146 -1.137,0 -1.9522,-1.2014 -1.9522,-2.9713 0,-1.7698 0.8045,-2.9712 1.9093,-2.9712 0.354,0 0.6329,0.064 0.9976,0.2146 l 1.4159,0.6114 0.2788,-1.5768 c -0.9224,-0.2253 -1.8771,-0.3754 -2.6923,-0.3754 -2.156,0 -3.7113,1.6947 -3.7113,4.0974 0,2.4028 1.5768,4.0975 3.7542,4.0975 z m 8.8386,-4.6767 h -3.2179 v -3.3895 h -1.9093 l 0.1287,0.7615 c 0.043,0.2897 0.064,0.4827 0.064,0.7616 v 6.4144 h 1.7163 v -3.5075 h 3.2179 v 3.5075 h 1.7162 v -7.9375 h -1.7162 z m 10.19,4.548 -2.8854,-7.9375 h -2.0487 l -0.075,0.7615 c -0.032,0.2682 -0.1072,0.5042 -0.1931,0.7616 l -2.2954,6.4144 h 1.3086 c 0.2038,-0.665 0.4183,-1.3301 0.6436,-1.9951 h 3.0248 l 0.6973,1.9951 z m -5.2023,-3.0356 c 0.3647,-1.1155 0.7509,-2.2311 1.137,-3.3573 l 1.1799,3.3573 z m 14.352,-4.9019 h -1.5232 l -2.2311,5.0521 -2.2847,-5.0521 h -1.8235 l 0.075,0.7294 c 0.032,0.2789 0,0.4827 -0.032,0.7937 l -0.7616,6.4144 h 1.2014 l 0.6221,-5.4919 2.1453,4.8054 h 1.0941 l 2.1131,-4.8805 0.6221,5.567 h 1.727 z m 5.7708,0 h -3.6899 l 0.1287,0.7615 c 0.043,0.2897 0.064,0.4827 0.064,0.7616 v 6.4144 h 1.7162 v -3.0141 h 1.5875 c 1.9629,0 3.3037,-0.9868 3.3037,-2.4564 0,-1.4695 -1.2657,-2.467 -3.1106,-2.467 z m -1.7806,3.8829 v -2.8425 h 1.6626 c 0.8367,0 1.4266,0.5793 1.4266,1.4266 0,0.8474 -0.5899,1.4159 -1.4266,1.4159 z m 7.7123,4.0546 v -7.9375 h -1.9093 l 0.1287,0.7615 c 0.043,0.2897 0.064,0.4827 0.064,0.7616 v 6.4144 z m 5.0628,0.1287 c 2.2097,0 3.765,-1.684 3.765,-4.0975 0,-2.4134 -1.5553,-4.0974 -3.765,-4.0974 -2.2096,0 -3.7757,1.684 -3.7757,4.0974 0,2.4135 1.5661,4.0975 3.7757,4.0975 z m 0,-1.1262 c -1.1584,0 -1.9736,-1.2014 -1.9736,-2.9713 0,-1.7698 0.8152,-2.9712 1.9736,-2.9712 1.1478,0 1.963,1.2014 1.963,2.9712 0,1.7699 -0.8152,2.9713 -1.963,2.9713 z m 10.5012,-1.6734 -4.1297,-5.2666 h -1.4802 l 0.1287,0.7615 c 0.043,0.2897 0.064,0.4827 0.064,0.7616 v 6.4144 h 1.2014 l -0.011,-5.2881 4.1296,5.2881 h 1.2872 v -7.9375 h -1.2013 z m 5.7171,2.7996 c 1.9952,0 3.3681,-0.9761 3.3681,-2.4027 0,-2.7781 -4.7732,-2.0809 -4.7732,-3.7006 0,-0.5792 0.5899,-0.9868 1.4373,-0.9868 0.354,0 0.6436,0.086 1.019,0.2252 l 1.5875,0.6222 0.2682,-1.5661 c -1.019,-0.2467 -2.038,-0.3861 -2.8747,-0.3861 -1.8985,0 -3.2072,0.901 -3.2072,2.2418 0,2.7567 4.7733,2.0594 4.7733,3.7113 0,0.6758 -0.6865,1.137 -1.6841,1.137 -0.3861,0 -0.7401,-0.043 -1.1584,-0.2038 l -1.8128,-0.6436 -0.2574,1.5661 c 1.1584,0.236 2.3383,0.3861 3.3144,0.3861 z m 9.4715,-4.6767 h -3.218 v -3.3895 h -1.9093 l 0.1288,0.7615 c 0.043,0.2897 0.064,0.4827 0.064,0.7616 v 6.4144 h 1.7162 v -3.5075 h 3.218 v 3.5075 h 1.7162 v -7.9375 h -1.7162 z m 5.1379,4.548 v -7.9375 h -1.9093 l 0.1287,0.7615 c 0.043,0.2897 0.064,0.4827 0.064,0.7616 v 6.4144 z m 5.213,-7.9375 h -3.6899 l 0.1288,0.7615 c 0.043,0.2897 0.064,0.4827 0.064,0.7616 v 6.4144 h 1.7162 v -3.0141 h 1.5876 c 1.9629,0 3.3037,-0.9868 3.3037,-2.4564 0,-1.4695 -1.2657,-2.467 -3.1107,-2.467 z m -1.7806,3.8829 v -2.8425 h 1.6626 c 0.8367,0 1.4267,0.5793 1.4267,1.4266 0,0.8474 -0.59,1.4159 -1.4267,1.4159 z"
       id="text3568"
       style="font-weight:bold;font-size:10.7264px;line-height:0.9;font-family:'EFL 1888';-inkscape-font-specification:'EFL 1888, Bold';font-variant-ligatures:none;letter-spacing:0px;word-spacing:0px;fill:#ffffff;stroke-width:1.06811;stroke-linejoin:round;paint-order:stroke fill markers"
       aria-label="EFL CHAMPIONSHIP" /></g><style
     type="text/css"
     id="style1">
	.st0{fill:#FFFFFF;}
	.st1{fill:#B69B40;}
	.st2{fill:#283271;}
	.st3{fill:url(#Plinth_00000024719996797075204420000012647641536287814807_);}
	.st4{opacity:0.4;fill:url(#p40_00000106113143120193750130000016072925933129080735_);enable-background:new    ;}
	.st5{fill:url(#Sky_x5F_Logo_00000061460388762851295990000018372894465928754855_);}
	.st6{opacity:0.25;fill:url(#s25_00000182524357250295268150000002348907512278735291_);enable-background:new    ;}
</style></svg>
