<?xml version="1.0" encoding="UTF-8" standalone="no"?>
<!-- Created with Inkscape (http://www.inkscape.org/) -->

<svg
   width="327.07471"
   height="30.995117"
   viewBox="0 0 86.538515 8.2007914"
   version="1.1"
   id="svg1"
   xml:space="preserve"
   xmlns="http://www.w3.org/2000/svg"
   xmlns:svg="http://www.w3.org/2000/svg"><defs
     id="defs1" /><g
     id="g274"
     style="display:inline"
     transform="translate(-1694.5783,-392.63045)"><path
       d="m 1699.672,399.14351 h -2.5546 c -0.4903,0 -0.738,-0.25288 -0.738,-0.7535 v -0.9909 h 2.6733 v -1.56376 h -2.6733 v -1.50183 h 3.1068 v -1.56377 h -4.908 v 5.50672 c 0,1.34701 0.6451,2.43081 2.1057,2.43081 h 2.9881 z m 6.5338,-6.36343 h -1.796 v 5.63574 c 0,0.45932 -0.3613,0.86704 -0.8309,0.86704 h -0.289 c -0.4748,0 -0.8361,-0.40256 -0.8361,-0.86704 v -5.63574 h -1.796 v 5.57897 c 0,0.6864 0.2425,1.27475 0.7277,1.75988 0.4851,0.48513 1.0734,0.71221 1.7599,0.71221 h 0.578 c 0.6864,0 1.2747,-0.22708 1.7547,-0.71221 0.4851,-0.48513 0.7277,-1.07348 0.7277,-1.75988 z m 7.4885,7.9272 c -1.058,-1.66699 -1.6979,-2.7353 -1.9147,-3.20495 -0.052,-0.10838 -0.077,-0.17547 -0.077,-0.2116 0,-0.0568 0.046,-0.10321 0.1393,-0.1445 0.9187,-0.39739 1.378,-1.09928 1.378,-2.10566 v -0.10322 c 0,-1.507 -1.3057,-2.30694 -2.6888,-2.30694 h -0.3252 c -1.4502,0 -2.5392,0.95477 -2.5392,2.44112 v 5.63575 h 1.8012 v -5.57898 c 0,-0.53674 0.3664,-0.92381 0.9083,-0.92381 h 0.1445 c 0.4903,0 0.898,0.35611 0.898,0.85672 v 0.14967 c 0,0.40771 -0.3148,0.76382 -0.9444,1.05799 l -0.1548,0.0722 c -0.3716,0.17031 -0.5574,0.38707 -0.5574,0.64512 0,0.44384 0.6038,1.68247 1.8166,3.72104 z m 6.2499,-5.57898 c 0,-0.6864 -0.2426,-1.27475 -0.7277,-1.76504 -0.48,-0.49029 -1.0683,-0.73285 -1.7547,-0.73285 h -0.5832 c -1.3831,0 -2.4824,1.11992 -2.4824,2.49789 v 3.22043 c 0,0.6864 0.2426,1.27475 0.7277,1.75988 0.4851,0.48512 1.0683,0.71221 1.7547,0.71221 h 0.5832 c 0.6864,0 1.2747,-0.22709 1.7547,-0.71221 0.4851,-0.48513 0.7277,-1.07348 0.7277,-1.75988 z m -1.796,3.2772 c 0,0.46448 -0.3613,0.86187 -0.8361,0.86187 h -0.2838 c -0.4748,0 -0.8361,-0.39223 -0.8361,-0.86187 v -3.33397 c 0,-0.46448 0.3613,-0.86704 0.8361,-0.86704 h 0.2838 c 0.4697,0 0.8361,0.40772 0.8361,0.86704 z m 8.7736,-3.35461 c 0,-1.54828 -1.2386,-2.42048 -2.6992,-2.42048 h -0.2942 c -1.4502,0 -2.5598,0.95477 -2.5598,2.44112 v 5.63575 h 1.8012 v -2.66305 c 1.4296,0 2.4463,-0.27869 3.0501,-0.84123 0.4696,-0.43868 0.7019,-1.07348 0.7019,-1.90955 z m -1.8012,0.3303 c 0,1.14057 -1.1044,1.16121 -1.9508,1.16121 v -1.4141 c 0,-0.52641 0.3767,-0.92381 0.9083,-0.92381 h 0.191 c 0.5625,0 0.8515,0.42836 0.8515,0.95478 z m 8.1079,3.76232 h -2.5547 c -0.4903,0 -0.738,-0.25288 -0.738,-0.7535 v -0.9909 h 2.6733 v -1.56376 h -2.6733 v -1.50183 h 3.1069 v -1.56377 h -4.9081 v 5.50672 c 0,1.34701 0.6451,2.43081 2.1057,2.43081 h 2.9882 z m 5.517,-5.24351 c -0.191,-0.77414 -0.8412,-1.26959 -1.636,-1.26959 -0.7638,0 -1.4141,0.53157 -1.5999,1.26959 l -1.6876,6.80728 h 1.7444 l 0.3922,-1.64634 h 2.2502 l 0.3767,1.64634 h 1.8425 z m -2.4514,3.66943 0.093,-0.40256 c 0.3612,-1.56376 0.5677,-2.45144 0.5831,-2.66304 0.015,-0.0568 0.052,-0.0877 0.1084,-0.0877 0.057,0 0.088,0.031 0.093,0.0877 0.015,0.23224 0.093,0.61415 0.2323,1.14057 0.1909,0.73801 0.3148,1.24894 0.3715,1.52247 l 0.083,0.40256 z m 10.6057,-4.79968 h -1.7238 v 2.02825 c 0,0.74318 0.026,1.52764 0.072,2.35855 0.015,0.0671 -0.015,0.10322 -0.093,0.10322 -0.052,0 -0.088,-0.0258 -0.098,-0.0722 -0.1238,-0.46449 -0.5161,-1.35217 -1.2025,-2.66305 l -0.9186,-1.75472 h -1.5896 v 7.93753 h 1.7238 v -1.956 c 0,-0.79995 -0.01,-1.47087 -0.052,-2.01793 -0.01,-0.0722 0.021,-0.10838 0.093,-0.10838 0.052,0 0.082,0.0258 0.098,0.0774 0.067,0.27869 0.191,0.61415 0.3716,1.00122 0.057,0.12386 0.2116,0.42836 0.4542,0.90832 l 0.8206,1.63086 c 0.1857,0.37159 0.5057,0.5419 0.9547,0.5419 0.6297,0 1.089,-0.449 1.089,-1.0838 z m 10.4612,7.93753 c -1.058,-1.66699 -1.6979,-2.7353 -1.9147,-3.20495 -0.052,-0.10838 -0.077,-0.17547 -0.077,-0.2116 0,-0.0568 0.046,-0.10321 0.1393,-0.1445 0.9187,-0.39739 1.378,-1.09928 1.378,-2.10566 v -0.10322 c 0,-1.507 -1.3057,-2.30694 -2.6889,-2.30694 h -0.3251 c -1.4502,0 -2.5392,0.95477 -2.5392,2.44112 v 5.63575 h 1.8012 v -5.57898 c 0,-0.53674 0.3664,-0.92381 0.9083,-0.92381 h 0.1445 c 0.4903,0 0.898,0.35611 0.898,0.85672 v 0.14967 c 0,0.40771 -0.3148,0.76382 -0.9444,1.05799 l -0.1549,0.0722 c -0.3715,0.17031 -0.5573,0.38707 -0.5573,0.64512 0,0.44384 0.6038,1.68247 1.8166,3.72104 z m 5.2074,-6.80728 c -0.191,-0.77414 -0.8412,-1.26959 -1.636,-1.26959 -0.7638,0 -1.4141,0.53157 -1.5999,1.26959 l -1.6876,6.80728 h 1.7443 l 0.3923,-1.64634 h 2.2501 l 0.3768,1.64634 h 1.8425 z m -2.4515,3.66943 0.093,-0.40256 c 0.3613,-1.56376 0.5677,-2.45144 0.5832,-2.66304 0.016,-0.0568 0.052,-0.0877 0.1084,-0.0877 0.057,0 0.088,0.031 0.093,0.0877 0.015,0.23224 0.093,0.61415 0.2322,1.14057 0.191,0.73801 0.3149,1.24894 0.3716,1.52247 l 0.083,0.40256 z m 10.1464,1.57408 h -2.5546 c -0.4903,0 -0.738,-0.25288 -0.738,-0.7535 v -5.62026 h -1.8012 v 5.50672 c 0,1.34701 0.6451,2.43081 2.1057,2.43081 h 2.9881 z m 5.7958,0 h -2.5547 c -0.4903,0 -0.738,-0.25288 -0.738,-0.7535 v -5.62026 h -1.8012 v 5.50672 c 0,1.34701 0.6452,2.43081 2.1057,2.43081 h 2.9882 z m 3.1946,-6.37376 -0.5574,1.23863 c -0.4232,0.93413 -0.6761,1.6773 -0.7535,2.23985 0,0.0568 -0.031,0.0826 -0.093,0.0826 -0.057,0 -0.088,-0.0258 -0.098,-0.0826 -0.046,-0.32514 -0.1703,-0.74318 -0.3665,-1.24895 -0.088,-0.22192 -0.227,-0.55222 -0.4232,-0.9909 l -0.5522,-1.23863 h -1.8166 l 2.2501,4.83064 c 0.088,0.18579 0.1084,0.35611 0.1084,0.48513 v 2.62176 h 1.796 v -2.58047 c 0,-0.13419 0.036,-0.28385 0.1136,-0.45417 l 2.2553,-4.90289 z"
       id="path1295"
       style="font-size:10.5696px;line-height:0.9;font-family:'WRC Clean Bold 2022';-inkscape-font-specification:'WRC Clean Bold 2022, Normal';font-variant-ligatures:none;letter-spacing:0px;word-spacing:0px;fill:#ffffff;stroke-width:0.426165;stroke-linecap:round"
       aria-label="EUROPEAN RALLY" /></g></svg>
