<?xml version="1.0" encoding="UTF-8" standalone="no"?>
<!-- Created with Inkscape (http://www.inkscape.org/) -->

<svg
   width="431.13913"
   height="50"
   viewBox="0 0 114.07223 13.229167"
   version="1.1"
   id="svg1"
   xml:space="preserve"
   sodipodi:docname="f1.svg"
   inkscape:version="1.4-beta (62f545ba5e, 2024-04-22)"
   xmlns:inkscape="http://www.inkscape.org/namespaces/inkscape"
   xmlns:sodipodi="http://sodipodi.sourceforge.net/DTD/sodipodi-0.dtd"
   xmlns="http://www.w3.org/2000/svg"
   xmlns:svg="http://www.w3.org/2000/svg"><sodipodi:namedview
     id="namedview1"
     pagecolor="#505050"
     bordercolor="#ffffff"
     borderopacity="1"
     inkscape:showpageshadow="0"
     inkscape:pageopacity="0"
     inkscape:pagecheckerboard="1"
     inkscape:deskcolor="#505050"
     inkscape:zoom="1.4073183"
     inkscape:cx="23.804138"
     inkscape:cy="-2.4869995"
     inkscape:window-width="2560"
     inkscape:window-height="1351"
     inkscape:window-x="-9"
     inkscape:window-y="-9"
     inkscape:window-maximized="1"
     inkscape:current-layer="svg1" /><defs
     id="defs1" /><path
     id="path1269"
     style="font-weight:900;font-size:10.5833px;line-height:0.9;font-family:Formula1;-inkscape-font-specification:'Formula1, Heavy';font-variant-ligatures:none;letter-spacing:0px;word-spacing:0px;fill:#ffffff;stroke-width:0.669831;stroke-linecap:round"
     d="m 18.571,0 c -0.9378,0 -1.8251,0.16738 -2.6624,0.50229 -0.8372,0.32375 -1.5631,0.77598 -2.1771,1.35651 -0.614,0.58051 -1.1054,1.27845 -1.4738,2.09341 -0.3573,0.8038 -0.5359,1.67449 -0.5359,2.61225 0,0.94892 0.1786,1.83087 0.5359,2.64583 0.3684,0.8038 0.8598,1.49584 1.4738,2.07636 0.614,0.58051 1.3399,1.03275 2.1771,1.35651 0.8373,0.32375 1.7246,0.48575 2.6624,0.48575 0.9377,0 1.8256,-0.162 2.6629,-0.48575 0.8373,-0.32376 1.5625,-0.776 2.1766,-1.35651 0.6139,-0.58052 1.1,-1.27256 1.4572,-2.07636 0.3684,-0.81496 0.5525,-1.69691 0.5525,-2.64583 0,-0.93776 -0.1841,-1.80845 -0.5525,-2.61225 C 24.5105,3.13725 24.0244,2.43931 23.4105,1.8588 22.7964,1.27827 22.0712,0.82604 21.2339,0.50229 20.3966,0.16738 19.5087,0 18.571,0 Z m 73.9159,0.0672 c -0.9156,0 -1.7138,0.27896 -2.3947,0.83716 -0.6698,0.55819 -1.2277,1.38972 -1.6743,2.49494 l -3.7678,9.4449 h 4.5377 l 1.0052,-2.71302 h 4.4374 l 1.0217,2.71302 h 4.6048 L 96.5393,3.3993 C 96.1039,2.29408 95.546,1.46255 94.865,0.90436 94.1952,0.34616 93.4023,0.0672 92.4869,0.0672 Z M 44.0748,0.1173 c -0.7032,0 -1.3508,0.12285 -1.9425,0.36845 -0.5806,0.23444 -1.0827,0.56382 -1.5069,0.98805 -0.4242,0.41306 -0.7536,0.90983 -0.988,1.49035 -0.2345,0.56935 -0.3519,1.18307 -0.3519,1.84175 v 8.03827 h 4.5217 V 4.3036 h 0.5358 v 4.23695 c 0,0.681 0.1003,1.31136 0.3013,1.89188 0.2121,0.56936 0.5137,1.06074 0.9044,1.47381 0.3907,0.41306 0.8703,0.73708 1.4397,0.97152 0.5694,0.23444 1.2169,0.3514 1.9425,0.3514 0.7256,0 1.3736,-0.11696 1.943,-0.3514 0.5805,-0.23444 1.066,-0.55308 1.4568,-0.95498 0.4019,-0.41306 0.7034,-0.90982 0.9043,-1.49035 0.2121,-0.58052 0.3178,-1.21088 0.3178,-1.89188 V 4.3036 h 0.5359 v 8.54057 h 4.5212 V 4.8059 c 0,-0.65868 -0.117,-1.2724 -0.3514,-1.84175 C 58.0352,2.38363 57.7171,1.88686 57.304,1.4738 56.891,1.04957 56.3996,0.72019 55.8302,0.48575 55.2721,0.24015 54.6583,0.1173 53.9884,0.1173 53.1958,0.1173 52.4979,0.24015 51.895,0.48575 51.3034,0.73136 50.8066,1.07738 50.4047,1.52393 50.014,1.95932 49.7184,2.48398 49.5174,3.09799 49.3165,3.70084 49.2156,4.35961 49.2156,5.0741 V 9.04285 H 48.6797 V 5.0741 c 0,-0.72565 -0.1003,-1.39568 -0.3012,-2.0097 C 48.1775,2.4504 47.8818,1.92573 47.4912,1.49034 47.1116,1.05495 46.6314,0.72019 46.0509,0.48575 45.4815,0.24015 44.8228,0.1173 44.0748,0.1173 Z M 0,0.28473 V 12.84417 H 4.3537 V 8.54055 h 6.8658 V 4.68859 H 4.3537 V 4.13617 h 6.8658 V 0.28473 Z m 25.9225,0 v 12.55944 h 4.3537 V 8.08839 l 3.4329,4.75578 h 5.1578 L 35.3167,8.1721 c 0.5805,-0.0781 1.094,-0.24014 1.5405,-0.48576 0.4466,-0.2456 0.8152,-0.54172 1.1054,-0.8878 0.3014,-0.35725 0.5245,-0.75317 0.6697,-1.18856 0.1562,-0.44655 0.2346,-0.89879 0.2346,-1.3565 0,-0.49122 -0.095,-0.97671 -0.2847,-1.45676 C 38.4036,2.31668 38.1299,1.89234 37.7615,1.52393 37.4043,1.15552 36.9526,0.85941 36.4055,0.63613 35.8585,0.40169 35.2276,0.28473 34.5131,0.28473 Z m 33.3576,0 v 6.61458 c 0,1.01591 0.1788,1.91449 0.5359,2.69596 0.3573,0.77031 0.8374,1.41245 1.4402,1.92598 0.6029,0.51353 1.3062,0.90409 2.11,1.17202 0.8038,0.26794 1.6466,0.40204 2.5285,0.40204 0.882,0 1.7247,-0.1341 2.5285,-0.40204 0.8038,-0.26793 1.5071,-0.65849 2.11,-1.17202 0.6028,-0.51353 1.083,-1.15567 1.4402,-1.92598 0.3573,-0.78147 0.5359,-1.68005 0.5359,-2.69596 V 0.28473 h -4.5217 v 6.36343 c 0,0.63634 -0.1894,1.16101 -0.569,1.57407 -0.3796,0.41306 -0.8876,0.6196 -1.5239,0.6196 -0.6363,0 -1.1443,-0.20654 -1.5239,-0.6196 C 63.9912,7.80917 63.8013,7.2845 63.8013,6.64816 V 0.28473 Z m 13.8989,0 V 12.84417 H 84.231 V 8.99272 H 77.5327 V 0.28473 Z m 30.8457,0 V 4.3036 h 2.8468 v 4.45451 h -2.8468 v 4.08606 h 10.0474 V 8.75811 h -2.8468 V 3.63388 c 0,-0.98243 -0.3122,-1.78605 -0.9374,-2.41123 -0.6251,-0.62517 -1.4293,-0.93792 -2.4118,-0.93792 z M 18.571,4.00233 c 0.748,0 1.3563,0.2457 1.8252,0.73691 0.4688,0.48004 0.7033,1.08839 0.7033,1.82521 0,0.73681 -0.2345,1.35053 -0.7033,1.84175 -0.4689,0.48004 -1.0772,0.72036 -1.8252,0.72036 -0.748,0 -1.3564,-0.24032 -1.8252,-0.72036 C 16.288,7.91498 16.059,7.30126 16.059,6.56445 c 0,-0.73682 0.229,-1.34517 0.6868,-1.82521 0.4688,-0.49121 1.0772,-0.73691 1.8252,-0.73691 z m 73.8156,0.23409 0.8372,2.19419 H 91.566 Z m -62.2778,0.0171 h 4.2705 v 0.55242 h -4.2705 z" /></svg>
