<?xml version="1.0" encoding="UTF-8" standalone="no"?>
<!-- Created with Inkscape (http://www.inkscape.org/) -->

<svg
   width="275.68018"
   height="31.600096"
   viewBox="0 0 72.940378 8.3608587"
   version="1.1"
   id="svg1"
   xml:space="preserve"
   sodipodi:docname="f2.svg"
   inkscape:version="1.4-beta (62f545ba5e, 2024-04-22)"
   xmlns:inkscape="http://www.inkscape.org/namespaces/inkscape"
   xmlns:sodipodi="http://sodipodi.sourceforge.net/DTD/sodipodi-0.dtd"
   xmlns="http://www.w3.org/2000/svg"
   xmlns:svg="http://www.w3.org/2000/svg"><sodipodi:namedview
     id="namedview1"
     pagecolor="#505050"
     bordercolor="#ffffff"
     borderopacity="1"
     inkscape:showpageshadow="0"
     inkscape:pageopacity="0"
     inkscape:pagecheckerboard="1"
     inkscape:deskcolor="#505050"
     inkscape:zoom="0.77814271"
     inkscape:cx="23.774559"
     inkscape:cy="-120.15791"
     inkscape:window-width="2560"
     inkscape:window-height="1351"
     inkscape:window-x="-9"
     inkscape:window-y="-9"
     inkscape:window-maximized="1"
     inkscape:current-layer="svg1" /><defs
     id="defs1" /><path
     d="M 2.75164,8.1174 H -3e-5 V 0.17991 H 7.0908 V 2.61408 H 2.75164 V 2.96333 H 7.0908 V 5.3975 H 2.75164 Z m 8.98523,0.17992 q -0.889,0 -1.68275,-0.30692 Q 9.26038,7.68349 8.67828,7.13316 8.0962,6.58283 7.74695,5.82083 7.40829,5.04824 7.40829,4.14866 q 0,-0.889 0.33866,-1.651 0.34925,-0.77259 0.93133,-1.32292 0.5821,-0.55033 1.37584,-0.85725 0.79375,-0.3175 1.68275,-0.3175 0.889,0 1.68275,0.3175 0.79375,0.30692 1.37583,0.85725 0.58208,0.55033 0.92075,1.32292 0.34925,0.762 0.34925,1.651 0,0.89958 -0.34925,1.67217 -0.33867,0.762 -0.92075,1.31233 -0.58208,0.55033 -1.37583,0.85724 -0.79375,0.30692 -1.68275,0.30692 z m 0,-2.52941 q 0.70908,0 1.15359,-0.45509 0.4445,-0.46567 0.4445,-1.16416 0,-0.6985 -0.4445,-1.15358 -0.44451,-0.46567 -1.15359,-0.46567 -0.70908,0 -1.15358,0.46567 -0.43392,0.45508 -0.43392,1.15358 0,0.69849 0.43392,1.16416 0.4445,0.45509 1.15358,0.45509 z M 24.56386,8.1174 H 21.30419 L 19.13461,5.11174 V 8.1174 H 16.38295 V 0.17991 h 5.42924 q 0.67733,0 1.19591,0.22225 0.5186,0.21166 0.85726,0.56091 0.34925,0.34925 0.51858,0.80433 0.17992,0.4551 0.17992,0.92076 0,0.43392 -0.14817,0.85725 Q 24.27811,3.95816 23.99236,4.29682 23.7172,4.6249 23.29385,4.85774 22.87052,5.09057 22.32019,5.16465 Z M 19.02877,2.68816 v 0.34925 h 2.69875 V 2.68816 Z M 37.0416,8.1174 H 34.18411 V 2.71991 H 33.84544 V 5.3975 q 0,0.64558 -0.20109,1.19591 -0.1905,0.55033 -0.57149,0.94191 -0.37042,0.381 -0.92075,0.60325 -0.53975,0.22225 -1.22766,0.22225 -0.68793,0 -1.22768,-0.22225 Q 29.15702,7.91632 28.78661,7.52474 28.41619,7.13316 28.21511,6.59341 28.02461,6.04308 28.02461,5.3975 V 2.71991 H 27.68595 V 8.1174 H 24.82844 V 3.03741 q 0,-0.62441 0.22225,-1.16416 0.22225,-0.55034 0.62442,-0.94193 0.40216,-0.40216 0.9525,-0.62441 0.56092,-0.23283 1.22767,-0.23283 0.70908,0 1.24883,0.23283 0.55033,0.22225 0.91016,0.635 0.37042,0.41275 0.56093,0.99484 0.1905,0.58208 0.1905,1.26999 v 2.50825 h 0.33866 V 3.20674 q 0,-0.67733 0.1905,-1.24883 0.1905,-0.58209 0.56092,-0.99484 0.38099,-0.42333 0.94191,-0.65616 0.5715,-0.23283 1.32291,-0.23283 0.63501,0 1.16418,0.23283 0.53974,0.22225 0.93133,0.62441 0.39158,0.39159 0.60324,0.94193 0.22225,0.53975 0.22225,1.16416 z m 4.60376,0.15875 q -0.83609,0 -1.59809,-0.254 Q 39.28528,7.76815 38.71378,7.28132 38.14228,6.79449 37.80361,6.06424 37.46494,5.3234 37.46494,4.36032 V 0.17991 h 2.8575 v 4.02166 q 0,0.60325 0.35983,0.99483 0.35983,0.39159 0.96309,0.39159 0.60325,0 0.96308,-0.39159 0.35983,-0.39158 0.35983,-0.99483 V 0.17991 h 2.8575 v 4.18041 q 0,0.96308 -0.33866,1.70392 -0.33867,0.73025 -0.91017,1.21708 -0.5715,0.48683 -1.3335,0.74083 -0.762,0.254 -1.59808,0.254 z M 53.2341,8.1174 H 46.24911 V 0.17991 h 2.75166 v 5.50333 h 4.23333 z m 10.12826,0 H 60.45194 L 59.80636,6.40291 h -2.80458 l -0.635,1.71449 h -2.86809 l 2.38126,-5.96899 q 0.42333,-1.04775 1.05833,-1.57692 0.64558,-0.52916 1.51341,-0.52916 0.86783,0 1.50284,0.52916 0.64558,0.52917 1.05833,1.57692 z M 57.86961,4.06399 h 1.04774 L 58.38819,2.67758 Z M 72.83443,8.1174 H 65.7436 V 5.96899 q 0,-0.68792 0.254,-1.23825 0.254,-0.56092 0.69851,-0.94192 0.45508,-0.39158 1.09008,-0.60324 0.635,-0.21167 1.38641,-0.21167 h 1.13242 V 2.61408 H 65.7436 V 0.17991 h 4.15925 q 0.65617,0 1.2065,0.1905 0.56092,0.1905 0.96308,0.52916 0.41275,0.32809 0.635,0.80433 0.23284,0.46568 0.23284,1.01601 0,0.56092 -0.20109,1.03716 -0.20108,0.47625 -0.58208,0.8255 -0.37041,0.34925 -0.92075,0.55033 -0.55033,0.1905 -1.24884,0.1905 h -1.49224 v 0.35984 h 4.33916 z"
     id="text152"
     style="font-weight:900;font-size:10.5833px;line-height:0.9;font-family:Formula1;-inkscape-font-specification:'Formula1, Heavy';font-variant-ligatures:none;letter-spacing:0px;word-spacing:0px;fill:#ffffff;stroke-width:0.423333;stroke-linecap:round"
     aria-label="FORMULA 2 " /></svg>
