<?xml version="1.0" encoding="UTF-8" standalone="no"?>
<!-- Created with Inkscape (http://www.inkscape.org/) -->

<svg
   width="272.6792"
   height="31.599855"
   viewBox="0 0 72.14637 8.3607951"
   version="1.1"
   id="svg1"
   xml:space="preserve"
   xmlns="http://www.w3.org/2000/svg"
   xmlns:svg="http://www.w3.org/2000/svg"><defs
     id="defs1" /><g
     id="g301"
     style="display:inline"
     transform="translate(-1861.3715,-310.66369)"><g
       id="g219"
       transform="translate(761.99999)"><path
         d="M 563.51082,227.49981 V 417.9998 H 902.17748 V 227.49981 Z m 13.22968,7.9375 h 312.20782 c 2.93158,0 5.29166,2.36008 5.29166,5.29166 v 164.04167 c 0,2.93158 -2.36008,5.29166 -5.29166,5.29166 H 576.7405 c -2.93158,0 -5.29167,-2.36008 -5.29167,-5.29166 V 240.72897 c 0,-2.93158 2.36009,-5.29166 5.29167,-5.29166 z"
         style="fill:#1a1a25;fill-opacity:1;stroke-width:4.97266;stroke-linecap:round"
         id="path170" /><path
         d="m 576.7405,235.43731 c -2.93158,0 -5.29167,2.36008 -5.29167,5.29166 v 164.04167 c 0,2.93158 2.36009,5.29166 5.29167,5.29166 h 312.20782 c 2.93158,0 5.29166,-2.36008 5.29166,-5.29166 V 240.72897 c 0,-2.93158 -2.36008,-5.29166 -5.29166,-5.29166 z m -5.2e-4,2.64583 h 312.20834 c 1.46579,0 2.64583,1.18004 2.64583,2.64583 v 164.04167 c 0,1.46579 -1.18004,2.64583 -2.64583,2.64583 H 576.73998 c -1.46579,0 -2.64583,-1.18004 -2.64583,-2.64583 V 240.72897 c 0,-1.46579 1.18004,-2.64583 2.64583,-2.64583 z"
         style="fill:#e90300;fill-opacity:1;stroke-width:3.58187;stroke-linejoin:round;paint-order:stroke fill markers"
         id="path171" /><g
         id="g188"
         transform="translate(863.11652,247.78665)"><path
           d="m 239.00659,70.994407 h -2.75166 v -7.93747 h 7.09081 v 2.43416 h -4.33915 v 0.34925 h 4.33915 v 2.43416 h -4.33915 z m 8.98521,0.17992 q -0.889,0 -1.68275,-0.30692 -0.79374,-0.30691 -1.37583,-0.85724 -0.58208,-0.55033 -0.93133,-1.31233 -0.33866,-0.77258 -0.33866,-1.67216 0,-0.889 0.33866,-1.651 0.34925,-0.77258 0.93133,-1.32291 0.58209,-0.55033 1.37583,-0.85725 0.79375,-0.3175 1.68275,-0.3175 0.88899,0 1.68274,0.3175 0.79375,0.30692 1.37583,0.85725 0.58208,0.55033 0.92075,1.32291 0.34925,0.762 0.34925,1.651 0,0.89958 -0.34925,1.67216 -0.33867,0.762 -0.92075,1.31233 -0.58208,0.55033 -1.37583,0.85724 -0.79375,0.30692 -1.68274,0.30692 z m 0,-2.52941 q 0.70908,0 1.15358,-0.45508 0.4445,-0.46567 0.4445,-1.16416 0,-0.6985 -0.4445,-1.15358 -0.4445,-0.46567 -1.15358,-0.46567 -0.70908,0 -1.15358,0.46567 -0.43392,0.45508 -0.43392,1.15358 0,0.69849 0.43392,1.16416 0.4445,0.45508 1.15358,0.45508 z m 12.82695,2.34949 h -3.25966 l -2.16957,-3.00565 v 3.00565 h -2.75166 v -7.93747 h 5.42923 q 0.67733,0 1.19591,0.22225 0.51859,0.21166 0.85725,0.56091 0.34925,0.34925 0.51858,0.80433 0.17992,0.45509 0.17992,0.92075 0,0.43392 -0.14817,0.85725 -0.13758,0.41275 -0.42333,0.75141 -0.27516,0.32808 -0.6985,0.56092 -0.42333,0.23283 -0.97366,0.30691 z m -5.53507,-5.42923 v 0.34925 h 2.69874 v -0.34925 z m 18.01278,5.42923 h -2.85749 v -5.39748 h -0.33866 v 2.67758 q 0,0.64558 -0.20109,1.19591 -0.1905,0.55033 -0.57149,0.94191 -0.37042,0.381 -0.92075,0.60325 -0.53975,0.22225 -1.22766,0.22225 -0.68792,0 -1.22767,-0.22225 -0.53975,-0.22225 -0.91016,-0.61383 -0.37042,-0.39158 -0.5715,-0.93133 -0.1905,-0.55033 -0.1905,-1.19591 v -2.67758 h -0.33866 v 5.39748 h -2.8575 v -5.07998 q 0,-0.62441 0.22225,-1.16416 0.22225,-0.55033 0.62442,-0.94192 0.40216,-0.40216 0.9525,-0.62441 0.56091,-0.23283 1.22766,-0.23283 0.70908,0 1.24883,0.23283 0.55033,0.22225 0.91016,0.635 0.37042,0.41275 0.56092,0.99483 0.1905,0.58208 0.1905,1.26999 v 2.50824 h 0.33866 v -2.50824 q 0,-0.67733 0.1905,-1.24883 0.1905,-0.58208 0.56092,-0.99483 0.38099,-0.42333 0.94191,-0.65616 0.5715,-0.23283 1.32291,-0.23283 0.635,0 1.16417,0.23283 0.53974,0.22225 0.93133,0.62441 0.39158,0.39159 0.60324,0.94192 0.22225,0.53975 0.22225,1.16416 z m 4.60374,0.15875 q -0.83608,0 -1.59808,-0.254 -0.76199,-0.254 -1.33349,-0.74083 -0.5715,-0.48683 -0.91017,-1.21708 -0.33866,-0.74083 -0.33866,-1.70391 v -4.1804 h 2.85749 v 4.02165 q 0,0.60325 0.35983,0.99483 0.35983,0.39158 0.96308,0.39158 0.60325,0 0.96308,-0.39158 0.35983,-0.39158 0.35983,-0.99483 v -4.02165 h 2.85749 v 4.1804 q 0,0.96308 -0.33866,1.70391 -0.33867,0.73025 -0.91016,1.21708 -0.5715,0.48683 -1.3335,0.74083 -0.762,0.254 -1.59808,0.254 z m 11.58871,-0.15875 h -6.98497 v -7.93747 h 2.75165 v 5.50331 h 4.23332 z m 10.12823,0 h -2.91041 l -0.64558,-1.71449 h -2.80457 l -0.635,1.71449 h -2.86808 l 2.38125,-5.96898 q 0.42333,-1.04774 1.05833,-1.57691 0.64558,-0.52916 1.51341,-0.52916 0.86783,0 1.50283,0.52916 0.64558,0.52917 1.05833,1.57691 z m -5.49273,-4.0534 h 1.04774 l -0.52916,-1.38641 z m 11.55696,4.0534 h -3.68299 v -2.43416 h 3.55599 v -0.35983 h -3.55599 v -2.34949 h 3.55599 v -0.35983 h -3.55599 v -2.43416 h 3.57716 q 0.62441,0 1.14299,0.13758 0.52917,0.127 0.89958,0.39158 0.37042,0.254 0.5715,0.65617 0.21167,0.39158 0.21167,0.92075 0,0.68791 -0.30692,1.19591 -0.30691,0.49741 -0.97366,0.65616 0.66675,0.1905 0.97366,0.71967 0.30692,0.51858 0.30692,1.09008 0,1.01599 -0.71967,1.59808 -0.71966,0.57149 -2.00024,0.57149 z"
           id="text172"
           style="font-weight:900;font-size:10.5833px;line-height:0.9;font-family:Formula1;-inkscape-font-specification:'Formula1, Heavy';font-variant-ligatures:none;letter-spacing:0px;word-spacing:0px;fill:#ffffff;stroke-width:0.423332;stroke-linecap:round"
           aria-label="FORMULA 3 " /><text
           xml:space="preserve"
           style="font-style:normal;font-variant:normal;font-weight:normal;font-stretch:normal;font-size:10.4835px;line-height:0.9;font-family:Formula1;-inkscape-font-specification:'Formula1, Normal';font-variant-ligatures:none;font-variant-caps:normal;font-variant-numeric:normal;font-variant-east-asian:normal;text-align:start;letter-spacing:-0.269576px;word-spacing:0px;writing-mode:lr-tb;direction:ltr;text-anchor:start;display:none;fill:#ffffff;fill-opacity:1;stroke:none;stroke-width:0.423332;stroke-linecap:round"
           x="-128.90656"
           y="153.01524"
           id="text173"><tspan
             id="tspan173"
             style="font-style:normal;font-variant:normal;font-weight:normal;font-stretch:normal;font-size:10.4835px;font-family:Formula1;-inkscape-font-specification:'Formula1, Normal';font-variant-ligatures:none;font-variant-caps:normal;font-variant-numeric:normal;font-variant-east-asian:normal;letter-spacing:-0.269576px;fill:#ffffff;stroke:none;stroke-width:0.423332"
             x="0"
             y="0">GRAND PRIX</tspan></text><path
           id="path188"
           style="font-size:10.4835px;line-height:0.9;font-family:Formula1;-inkscape-font-specification:'Formula1, Normal';font-variant-ligatures:none;letter-spacing:-0.269576px;word-spacing:0px;display:inline;fill:#ffffff;stroke-width:0.423332;stroke-linecap:round"
           d="m -107.81855,145.01625 c -0.40536,0 -0.70555,0.12229 -0.90124,0.36691 -0.1887,0.23762 -0.36711,0.54501 -0.53485,0.92242 l -2.96675,6.70967 h 1.28933 l 0.90175,-2.1177 h 4.40284 l 0.90175,2.1177 h 1.31051 l -2.99826,-6.82491 c -0.13978,-0.32149 -0.31099,-0.59722 -0.51367,-0.82785 -0.19569,-0.23064 -0.49304,-0.34624 -0.89141,-0.34624 z m 6.62853,0 c -0.51718,0 -0.88739,0.1573 -1.11104,0.47181 -0.22365,0.30751 -0.33538,0.68493 -0.33538,1.13223 v 6.39496 h 1.20561 v -6.45801 c 0,-0.11881 0.0211,-0.21278 0.063,-0.28267 0.0489,-0.0699 0.12564,-0.1049 0.23047,-0.1049 0.0839,0 0.15002,0.035 0.19896,0.1049 0.0489,0.0629 0.10839,0.15018 0.17828,0.262 l 3.428207,5.50354 c 0.20968,0.33548 0.4298,0.60451 0.66043,0.80719 0.23763,0.20269 0.54888,0.30437 0.93328,0.30437 0.45428,0 0.79668,-0.14005 1.02732,-0.41961 0.23763,-0.27956 0.35605,-0.64976 0.35605,-1.11104 v -6.46834 h -1.20561 v 6.49986 c 0,0.11179 -0.0244,0.19907 -0.0734,0.262 -0.0489,0.0559 -0.11508,0.0837 -0.19895,0.0837 -0.0629,0 -0.12569,-0.0311 -0.18862,-0.0941 -0.0629,-0.0629 -0.12575,-0.14348 -0.18862,-0.24132 l -3.35483,-5.41983 c -0.24462,-0.39837 -0.485847,-0.70241 -0.723467,-0.91209 -0.23763,-0.20966 -0.53833,-0.31471 -0.90176,-0.31471 z m -23.68072,0.13643 c -0.61504,0 -1.14255,0.0801 -1.58285,0.24081 -0.44031,0.16075 -0.79996,0.39142 -1.07952,0.69195 -0.27258,0.30053 -0.47545,0.66404 -0.60823,1.09037 -0.12581,0.41934 -0.18862,0.89125 -0.18862,1.41542 v 1.12189 c 0,0.52418 0.0662,0.99943 0.19895,1.42576 0.13279,0.41934 0.33901,0.77899 0.61857,1.07952 0.27956,0.30052 0.63252,0.5312 1.05885,0.69194 0.43332,0.16076 0.94358,0.24133 1.53065,0.24133 h 0.83871 c 0.58708,0 1.09013,-0.035 1.50947,-0.1049 0.41934,-0.0629 0.7584,-0.18184 1.01699,-0.35657 0.26559,-0.17472 0.46125,-0.4193 0.58705,-0.7338 0.1258,-0.31451 0.18862,-0.71973 0.18862,-1.21595 v -2.13889 h -3.84731 v 1.04852 h 2.6417 v 1.27899 c 0,0.45429 -0.13619,0.76503 -0.40877,0.93276 -0.27256,0.16075 -0.78282,0.24133 -1.53065,0.24133 h -1.1529 c -0.7059,0 -1.2056,-0.17455 -1.49914,-0.524 -0.29354,-0.34945 -0.44028,-0.87747 -0.44028,-1.58337 v -1.69808 c 0,-0.7059 0.15009,-1.23006 0.45062,-1.57252 0.30053,-0.34944 0.81413,-0.524 1.54099,-0.524 h 3.92069 v -1.04851 z m 4.16047,0 v 1.04851 h 3.34346 2.33268 c 0.45428,0 0.76888,0.0662 0.94361,0.19896 0.18171,0.13279 0.27285,0.38792 0.27285,0.76533 v 0.32504 c 0,0.3774 -0.0911,0.63588 -0.27285,0.77566 -0.17473,0.13978 -0.48933,0.20981 -0.94361,0.20981 h -0.47129 -1.34204 -1.47846 -1.20561 v 1.02733 3.51193 h 1.20561 v -3.51193 h 0.92501 c 0.0326,0.0512 0.0697,0.10039 0.11317,0.14676 l 3.08198,3.36517 h 1.4888 l -3.22926,-3.51193 h 0.4408 0.15709 c 0.87363,0 1.55123,-0.13954 2.03347,-0.4191 0.48923,-0.27956 0.73381,-0.81814 0.73381,-1.61489 v -0.28267 c 0,-0.39837 -0.0695,-0.72688 -0.20929,-0.98547 -0.13279,-0.26558 -0.32176,-0.47566 -0.56638,-0.62942 -0.24461,-0.15379 -0.53475,-0.26166 -0.87023,-0.32452 -0.32848,-0.0629 -0.68479,-0.0946 -1.06918,-0.0946 h -2.07068 z m 27.972967,0 v 7.86257 h 3.51193 c 1.23006,0 2.1561,-0.29015 2.77812,-0.87023 0.62901,-0.58009 0.94361,-1.39054 0.94361,-2.4319 v -1.25832 c 0,-1.04136 -0.31794,-1.8518 -0.95394,-2.43189 -0.636,-0.58009 -1.54093,-0.87023 -2.71508,-0.87023 z m 10.73061,0 v 7.86257 h 1.20561 v -3.04013 h 2.79931 c 0.37741,0 0.73758,-0.0316 1.08004,-0.0946 0.34944,-0.0699 0.65684,-0.18497 0.92242,-0.34572 0.26558,-0.16774 0.47514,-0.39172 0.6289,-0.67128 0.16075,-0.28654 0.24133,-0.64286 0.24133,-1.06918 v -0.46096 c 0,-0.42632 -0.0806,-0.77929 -0.24133,-1.05885 -0.15376,-0.28654 -0.36332,-0.51053 -0.6289,-0.67127 -0.26558,-0.16771 -0.57298,-0.28278 -0.92242,-0.34572 -0.34246,-0.0699 -0.70263,-0.1049 -1.08004,-0.1049 z m 7.97057,0 v 7.86257 h 1.20561 v -6.81406 h 3.29179 c 0.45429,0 0.76889,0.0662 0.94361,0.19896 0.18172,0.13279 0.27234,0.38792 0.27234,0.76533 v 0.32504 c 0,0.3774 -0.0906,0.63588 -0.27234,0.77566 -0.17472,0.13978 -0.48932,0.20981 -0.94361,0.20981 h -1.81333 c -0.17472,0 -0.32147,0.0417 -0.44028,0.12557 -0.11184,0.0769 -0.18572,0.17137 -0.22066,0.28319 -0.0349,0.11881 -0.0349,0.24831 0,0.38809 0.0419,0.13978 0.11582,0.26541 0.22066,0.37724 l 3.08198,3.36517 h 1.4888 l -3.22926,-3.51193 h 0.5979 c 0.87362,0 1.55122,-0.13954 2.03346,-0.4191 0.48924,-0.27956 0.73381,-0.81814 0.73381,-1.61489 v -0.28267 c 0,-0.39837 -0.0695,-0.72688 -0.20929,-0.98547 -0.13279,-0.26558 -0.32176,-0.47566 -0.56637,-0.62942 -0.24462,-0.15379 -0.53476,-0.26166 -0.87023,-0.32452 -0.32849,-0.0629 -0.6848,-0.0946 -1.06919,-0.0946 z m 8.25376,0 v 7.86257 h 1.20561 v -7.86257 z m 2.14147,0 2.84117,3.98374 -2.73627,3.87883 h 1.41542 l 1.94975,-2.89337 c 0.11882,-0.17472 0.2133,-0.30035 0.28319,-0.37723 0.0699,-0.0769 0.17827,-0.11576 0.32504,-0.11576 0.1468,0 0.25133,0.0389 0.3142,0.11576 0.0699,0.0769 0.16772,0.20251 0.29352,0.37723 l 1.99213,2.89337 h 1.48828 l -2.84066,-3.9734 2.73627,-3.88917 h -1.40508 l -1.97094,2.88303 c -0.1258,0.17472 -0.22363,0.30036 -0.29352,0.37724 -0.0629,0.0769 -0.16743,0.11523 -0.3142,0.11523 -0.14677,0 -0.25515,-0.0383 -0.32504,-0.11523 -0.0629,-0.0769 -0.15738,-0.20252 -0.28319,-0.37724 l -1.98127,-2.88303 z m -44.187997,0.98547 c 0.0629,0 0.11902,0.0245 0.16795,0.0734 0.0489,0.0419 0.0978,0.12586 0.14676,0.25166 l 1.4149,3.32331 h -3.45922 l 1.4149,-3.33416 c 0.0559,-0.1328 0.10483,-0.21621 0.14676,-0.25115 0.049,-0.0419 0.10508,-0.063 0.16795,-0.063 z m 16.297197,0.063 h 2.51612 c 0.70589,0 1.24782,0.1501 1.62523,0.45062 0.38439,0.30053 0.57619,0.80358 0.57619,1.50947 v 1.83451 c 0,0.7059 -0.19566,1.21281 -0.58705,1.52032 -0.38439,0.30053 -0.93971,0.45062 -1.66656,0.45062 h -2.46393 z m 10.73061,0 h 2.98793 c 0.53815,0 0.90888,0.0906 1.11156,0.27234 0.20967,0.18171 0.31419,0.4613 0.31419,0.83871 v 0.50333 c 0,0.3774 -0.10452,0.65699 -0.31419,0.8387 -0.20268,0.18172 -0.57341,0.27234 -1.11156,0.27234 h -2.98793 z" /></g><path
         id="rect188"
         style="fill:#ffffff;stroke-width:2.24194;stroke-linecap:round"
         transform="rotate(90)"
         d="m 244.63159,-711.4101 h 10.71562 c 0.10994,0 0.19844,0.0885 0.19844,0.19844 0,0.10994 -0.0885,0.19844 -0.19844,0.19844 h -10.71562 c -0.10994,0 -0.19844,-0.0885 -0.19844,-0.19844 0,-0.10993 0.0885,-0.19844 0.19844,-0.19844 z" /><g
         id="text189"
         style="font-weight:900;font-size:6.7324px;line-height:0.9;font-family:Formula1;-inkscape-font-specification:'Formula1, Heavy';font-variant-ligatures:none;letter-spacing:0px;word-spacing:0px;fill:#e90300;stroke-width:0.471269;stroke-linejoin:round;paint-order:stroke fill markers"
         aria-label="MAZESPIN.LIVE"><path
           d="m 737.42032,252.48038 h -1.81775 v -3.43353 h -0.21544 v 1.7033 q 0,0.41068 -0.12791,0.76076 -0.12119,0.35009 -0.36355,0.59919 -0.23564,0.24236 -0.58572,0.38374 -0.34335,0.14138 -0.78096,0.14138 -0.43761,0 -0.78096,-0.14138 -0.34335,-0.14138 -0.57898,-0.39048 -0.23564,-0.2491 -0.36355,-0.59245 -0.12119,-0.35008 -0.12119,-0.76076 v -1.7033 h -0.21543 v 3.43353 h -1.81775 v -3.23155 q 0,-0.39722 0.14138,-0.74057 0.14138,-0.35008 0.39721,-0.59918 0.25583,-0.25583 0.60592,-0.39721 0.35681,-0.14812 0.78095,-0.14812 0.45107,0 0.79443,0.14812 0.35008,0.14138 0.57898,0.40394 0.23564,0.26256 0.35682,0.63285 0.12118,0.37028 0.12118,0.80788 v 1.59558 h 0.21544 v -1.59558 q 0,-0.43087 0.12118,-0.79442 0.12119,-0.37028 0.35682,-0.63285 0.24237,-0.26929 0.59918,-0.4174 0.36355,-0.14812 0.84155,-0.14812 0.40395,0 0.74057,0.14812 0.34335,0.14138 0.59245,0.39721 0.2491,0.2491 0.38375,0.59918 0.14138,0.34335 0.14138,0.74057 z m 6.44291,0 h -1.85141 l -0.41068,-1.09065 h -1.78409 l -0.40394,1.09065 h -1.82448 l 1.51479,-3.79708 q 0.26929,-0.6665 0.67324,-1.00312 0.41068,-0.33662 0.96273,-0.33662 0.55206,0 0.956,0.33662 0.41068,0.33662 0.67324,1.00312 z m -3.49412,-2.57851 h 0.66651 l -0.33662,-0.88195 z m 8.17312,2.57851 h -3.56144 q -0.59245,0 -0.94253,-0.30969 -0.34335,-0.30969 -0.34335,-0.7675 0,-0.28276 0.15484,-0.58572 0.16158,-0.30295 0.54533,-0.58571 l 1.71676,-1.25223 h -2.36981 v -1.54845 h 3.70955 q 0.54533,0 0.86848,0.27603 0.32989,0.26929 0.32989,0.69343 0,0.25583 -0.15484,0.54533 -0.14812,0.28949 -0.55879,0.57898 l -2.00626,1.40708 h 2.61217 z m 4.98872,0 h -4.67902 v -5.0493 h 4.67902 v 1.54845 h -2.89494 v 0.2289 h 2.89494 v 1.49459 h -2.89494 v 0.22891 h 2.89494 z m 3.09017,0 h -2.82087 v -1.54845 h 3.08344 v -0.22891 h -1.48113 q -0.32989,0 -0.63958,-0.11445 -0.30296,-0.12118 -0.53186,-0.33662 -0.22217,-0.22217 -0.36355,-0.53186 -0.13465,-0.30969 -0.13465,-0.69343 0,-0.32989 0.12792,-0.61938 0.13465,-0.29623 0.36355,-0.51167 0.2289,-0.21543 0.54532,-0.33662 0.31642,-0.12791 0.67324,-0.12791 h 3.06324 v 1.54845 h -2.96898 v 0.2289 h 1.19163 q 0.40394,0 0.7473,0.10099 0.34335,0.0943 0.58572,0.29622 0.24236,0.19524 0.37701,0.4982 0.13465,0.29623 0.13465,0.69344 0,0.75403 -0.5184,1.21856 -0.51839,0.46454 -1.434,0.46454 z m 3.83747,0 h -1.6831 v -5.0493 h 3.3662 q 0.43087,0 0.7473,0.14138 0.31642,0.13465 0.52512,0.36355 0.20871,0.2289 0.30969,0.52512 0.10099,0.2895 0.10099,0.59246 0,0.30295 -0.10099,0.60591 -0.10098,0.30296 -0.30969,0.54533 -0.2087,0.23563 -0.52512,0.38374 -0.31643,0.14812 -0.7473,0.14812 h -1.6831 z m 0,-3.29215 h 1.64944 v -0.2087 h -1.64944 z m 5.3186,3.29215 h -1.75042 v -5.0493 h 1.75042 z m 5.0493,0.0875 q -0.44434,0 -0.76076,-0.22217 -0.30969,-0.2289 -0.67998,-0.64631 l -1.58884,-1.79082 v 2.57178 h -1.75043 v -3.87113 q 0,-0.30969 0.0943,-0.53859 0.10098,-0.23564 0.25583,-0.38375 0.16158,-0.15485 0.37701,-0.2289 0.21544,-0.0808 0.44434,-0.0808 0.36355,0 0.62611,0.16158 0.2693,0.15484 0.56553,0.49819 l 1.70329,1.96586 v -2.57177 h 1.75043 v 4.10676 q 0,0.28276 -0.0943,0.48473 -0.0942,0.19524 -0.24236,0.31643 -0.14812,0.12118 -0.33662,0.17504 -0.18851,0.0539 -0.36355,0.0539 z"
           id="path1263" /><path
           style="fill:#ffffff"
           d="m 773.68102,252.48038 h -1.54845 v -1.54845 h 1.54845 z m 4.71268,0 h -4.44338 v -5.0493 h 1.75042 v 3.50085 h 2.69296 z m 2.01973,0 H 778.663 v -5.0493 h 1.75043 z m 3.36619,0.0875 q -0.42414,0 -0.81462,-0.2289 -0.39048,-0.23564 -0.60592,-0.7473 l -1.77735,-4.16062 h 2.01299 l 1.1849,3.17769 1.1849,-3.17769 h 1.9726 l -1.76389,4.15389 q -0.22217,0.51166 -0.60592,0.74729 -0.38375,0.23564 -0.78769,0.23564 z m 8.00483,-0.0875 h -4.67902 v -5.0493 h 4.67902 v 1.54845 h -2.89493 v 0.2289 h 2.89493 v 1.49459 h -2.89493 v 0.22891 h 2.89493 z"
           id="path1264" /></g><g
         id="g199"
         transform="translate(861.85716,283.7475)"><path
           id="path190"
           style="fill:#ffffff;stroke-width:0.127597;stroke-miterlimit:10"
           d="m -142.80033,-38.800369 v 0.438733 h 5.53609 c 1.10688,0 1.99936,0.892998 1.99936,1.999878 v 6.937044 c 0,0.16299 -0.12744,0.290422 -0.29042,0.290422 h -0.75809 v 0.438732 h 0.75809 c 0.40015,0 0.72916,-0.329004 0.72916,-0.729154 v -6.937044 c 0,-1.3441 -1.09402,-2.438611 -2.4381,-2.438611 h -1.06143 -0.58653 -3.17345 z m -1.97611,5.17e-4 c -0.23519,0 -0.43047,0.195771 -0.43047,0.430981 v 7.735962 c 0,1.06759 0.8701,1.937866 1.93735,1.937866 h 5.99964 v -0.438733 h -5.99964 c -0.83006,0 -1.49861,-0.668763 -1.49861,-1.499133 v -7.72821 h 0.97513 v -0.438733 z m 1.56166,1.194242 c -0.39751,0 -0.72399,0.327344 -0.72399,0.724504 v 2.440161 h 0.43874 v -2.440161 c 0,-0.15989 0.12506,-0.285254 0.28525,-0.285254 h 0.79323 v 2.725415 h 0.43874 v -2.725415 h 0.79375 c 0.15989,0 0.28577,0.125054 0.28577,0.285254 v 2.440161 h 0.43873 v -2.440161 c 0,-0.39753 -0.32736,-0.724504 -0.7245,-0.724504 z m 4.47053,0 c -0.3903,0 -0.72915,0.299757 -0.72915,0.687297 v 2.532145 h 0.43873 v -1.255221 h 2.5926 v 1.255221 h 0.43925 v -2.532145 c 0,-0.38754 -0.33883,-0.687297 -0.72915,-0.687297 z m 0,0.43925 h 2.01228 c 0.1728,0 0.2899,0.119057 0.2899,0.248047 v 0.838191 h -2.5926 v -0.838191 c 0,-0.12899 0.11763,-0.248047 0.29042,-0.248047 z m -5.25549,3.884 v 0.438733 h 2.88457 c 0.11933,0 0.21188,0.09258 0.21188,0.211874 v 0.557588 c 0,0.12722 -0.0986,0.224793 -0.22583,0.224793 h -2.06861 c -0.40649,0 -0.74104,0.334707 -0.74104,0.741557 v 0.60358 c 0,0.29606 0.24461,0.541569 0.54106,0.541569 h 2.88509 v -0.439249 h -2.88509 c -0.0593,0 -0.10232,-0.04319 -0.10232,-0.10232 v -0.60358 c 0,-0.16976 0.13284,-0.302307 0.3023,-0.302307 h 2.06861 c 0.36431,0 0.66456,-0.300219 0.66456,-0.664559 v -0.557072 c 0,-0.3567 -0.29392,-0.650607 -0.65061,-0.650607 z m 4.42557,0 v 3.319178 h 3.43028 v -0.438733 h -2.99155 v -1.00149 h 2.99155 v -0.438732 h -2.99155 v -1.00149 h 2.99155 v -0.438733 z" /><path
           d="m -138.58095,-40.794563 v 5.17e-4 c -0.2706,0 -0.49145,0.226367 -0.49145,0.495577 0,0.0454 0.007,0.08968 0.0181,0.131775 l -0.71675,0.615983 c -0.15672,-0.0416 -0.3267,-0.06356 -0.50385,-0.06356 -0.13159,0 -0.2587,0.01236 -0.37982,0.03566 l -0.22686,-0.286804 c 0.0439,-0.0756 0.0692,-0.162952 0.0692,-0.255282 0,-0.2774 -0.22726,-0.510563 -0.50591,-0.510563 -0.27867,0 -0.50592,0.233163 -0.50592,0.510563 0,0.27738 0.22725,0.510047 0.50592,0.510047 0.0253,0 0.05,-0.0017 0.0744,-0.0057 l 0.14728,0.186552 c -0.0395,0.0201 -0.0777,0.04088 -0.11421,0.06408 -0.21139,0.13403 -0.37795,0.33079 -0.42633,0.56534 h 2.7249 c -0.0473,-0.22916 -0.20779,-0.422318 -0.41238,-0.556038 l 0.56173,-0.482658 c 0.0562,0.023 0.11772,0.03566 0.1819,0.03566 0.2706,0 0.49144,-0.226347 0.49144,-0.495577 0,-0.26922 -0.22084,-0.495577 -0.49144,-0.495577 z"
           style="fill:#e90300;fill-opacity:1;stroke-width:0.127597;stroke-miterlimit:10"
           id="path199" /></g><g
         id="g207"
         transform="matrix(0.41998771,0,0,0.41998771,207.41476,104.46208)"
         style="display:inline"><path
           d="m 1186.2922,334.55868 c -0.049,-0.0622 -0.3731,-0.55307 -1.5676,-0.59561 l -22.8527,-0.01 c 0,0 -4.2152,-0.0491 -6.2965,3.0828 l -1.9636,3.12208 h 21.6222 l -1.7967,2.90936 h -21.6484 l -4.0613,6.21797 h 21.9266 l -1.7247,2.82427 h -22.0182 l -4.1366,6.54524 h 26.0566 c 5.2068,-0.0556 7.4256,-3.90096 7.4256,-3.90096 0,0 3.5704,-5.77945 3.5999,-5.83835 0.5694,-0.98179 0.9817,-1.56759 0.7919,-2.29084 -0.1374,-0.52361 -0.8901,-0.87378 -0.8901,-0.87378 0.6545,-0.108 2.2515,-0.30109 3.0632,-1.69522 0.4548,-0.70034 2.4871,-4.12023 4.1202,-6.77105 -0.01,0.007 1.2174,-1.65921 0.3502,-2.72609 z m -18.69,18.1663 h -21.2949 l -3.5541,5.57982 h -0.3632 l 3.7406,-5.86453 h 21.6484 z m 5.5373,-9.0946 h -20.9644 l -3.4919,5.35727 h -0.3796 l 3.6653,-5.6289 h 21.3244 z m -10.5738,-9.18297 c -4.4017,0 -5.9856,2.26138 -6.2442,2.58537 -0.2585,0.32399 -1.7639,2.785 -1.7639,2.785 h -0.3796 l 1.8032,-2.81772 c 2.3203,-3.0959 6.6041,-2.76864 6.6041,-2.76864 h 21.8349 a 3.4329758,3.4329758 0 0 1 1.2436,0.22254 z"
           id="path203"
           style="fill:#e90300;fill-opacity:1;stroke-width:0.327262" /><path
           d="m 1150.0872,340.18431 4.0417,-6.28015 h -21.4749 c -6.9642,0 -10.2597,6.05434 -10.2597,6.05434 l -7.1638,11.92542 -4.5096,7.21939 c 4.3198,0 7.1801,-0.79524 9.1895,-1.86539 a 10.639279,10.639279 0 0 0 3.8257,-3.69806 l 2.8341,-4.2904 h 14.3995 c 2.7457,0 4.7616,-2.30719 4.7616,-2.30719 l 3.0337,-4.2544 h -18.2055 l 1.669,-2.50028 z m -1.8392,2.82427 -0.2422,0.29126 h -26.7471 l -9.4415,15.47621 h -0.4647 l 9.6248,-15.77729 z m -25.2286,-2.66718 -1.4334,2.34319 h -0.4255 c -0.043,0 1.4367,-2.41519 1.4367,-2.41519 0,0 3.037,-5.64526 9.4611,-6.01507 h 21.439 l -0.203,0.32726 -21.2032,-0.0229 a 11.801059,11.801059 0 0 0 -9.0717,5.78272 z"
           id="path207"
           style="fill:#666666;fill-opacity:1;stroke-width:0.327262" /></g><path
         d="m 585.15342,392.89592 -3.96875,3.96875 h -0.47594 v 3.12177 l 3.12178,-3.12177 h 2.64635 l 3.96875,-3.96875 z m 10.58385,0 -3.96875,3.96875 h -2.64583 l -3.96875,3.96875 h 5.29167 l 3.96875,-3.96875 h 2.64583 l 3.96875,-3.96875 z m 10.58334,0 -3.96875,3.96875 h -2.64584 l -3.96875,3.96875 h 5.29167 l 3.96875,-3.96875 h 2.64583 l 3.96875,-3.96875 z m 10.58333,0 -3.96875,3.96875 h -2.64583 l -3.96875,3.96875 h 5.29166 l 3.96875,-3.96875 h 2.64584 l 3.96875,-3.96875 z m 10.58333,0 -3.96875,3.96875 h -2.64583 l -3.96875,3.96875 h 5.29167 l 3.96875,-3.96875 h 2.64583 l 3.96875,-3.96875 z m 10.58334,0 -3.96875,3.96875 h -2.64584 l -3.96875,3.96875 h 5.29167 l 3.96875,-3.96875 h 2.64583 l 3.96875,-3.96875 z m 10.58333,0 -3.96875,3.96875 h -2.64583 l -3.96875,3.96875 h 5.29166 l 3.96875,-3.96875 h 2.64584 l 1.45521,-1.45521 v -2.51354 z m 2.77813,5.15937 -2.77813,2.77813 h 2.77813 z"
         style="display:inline;fill:#e90300;stroke-width:0.529167;stroke-linejoin:round;paint-order:stroke fill markers"
         id="path215" /><path
         d="m 817.98727,392.89592 -3.73052,3.73052 v 2.64583 l 2.40761,-2.4076 h 2.64583 l 3.96875,-3.96875 z m 10.58334,0 -3.96875,3.96875 h -2.64584 l -3.96875,3.96875 h 5.29167 l 3.96875,-3.96875 h 2.64583 l 3.96875,-3.96875 z m 10.58333,0 -3.96875,3.96875 h -2.64583 l -3.96875,3.96875 h 5.29166 l 3.96875,-3.96875 h 2.64584 l 3.96875,-3.96875 z m 10.58333,0 -3.96875,3.96875 h -2.64583 l -3.96875,3.96875 h 5.29167 l 3.96875,-3.96875 h 2.64583 l 3.96875,-3.96875 z m 10.58334,0 -3.96875,3.96875 h -2.64584 l -3.96875,3.96875 h 5.29167 l 3.96875,-3.96875 h 2.64583 l 3.96875,-3.96875 z m 10.58333,0 -3.96875,3.96875 h -2.64583 l -3.96875,3.96875 h 5.29166 l 3.96875,-3.96875 h 2.64584 l 3.96874,-3.96875 z m 10.58333,0 -3.96875,3.96875 h -2.64583 l -3.96875,3.96875 h 5.29166 l 3.96875,-3.96875 h 2.64584 l 2.16937,-2.16938 v -1.79937 z m 3.49229,4.44521 -3.49229,3.49229 h 3.49229 z"
         style="display:inline;fill:#e90300;stroke-width:0.529167;stroke-linejoin:round;paint-order:stroke fill markers"
         id="path219" /></g></g></svg>
