<?xml version="1.0" encoding="UTF-8" standalone="no"?>
<!-- Created with Inkscape (http://www.inkscape.org/) -->

<svg
   width="223.896"
   height="30.001953"
   viewBox="0 0 59.239148 7.9380168"
   version="1.1"
   id="svg1"
   xml:space="preserve"
   xmlns="http://www.w3.org/2000/svg"
   xmlns:svg="http://www.w3.org/2000/svg"><defs
     id="defs1" /><g
     id="g1067"
     transform="translate(-1741.2232,-3389.4057)"><path
       d="m 1718.1034,3446.3793 q 0,0.078 -0.078,0.078 h -1.5375 q -0.078,0 -0.078,-0.078 v -7.8958 q 0,-0.078 0.078,-0.078 h 4.847 q 0.078,0 0.078,0.078 v 1.4853 q 0,0.078 -0.078,0.078 h -3.1532 q -0.078,0 -0.078,0.078 v 1.2508 q 0,0.078 0.078,0.078 h 2.632 q 0.078,0 0.078,0.078 v 1.4072 q 0,0.078 -0.078,0.078 h -2.632 q -0.078,0 -0.078,0.078 z m 10.1692,-1.342 q 0,0.5863 -0.417,1.0033 -0.4169,0.4169 -1.0032,0.4169 h -3.1271 q -0.5863,0 -1.0033,-0.4169 -0.4169,-0.417 -0.4169,-1.0033 v -5.2118 q 0,-0.5863 0.4169,-1.0033 0.417,-0.4169 1.0033,-0.4169 h 3.1271 q 0.5863,0 1.0032,0.4169 0.417,0.417 0.417,1.0033 z m -1.6938,-4.6124 q 0,-0.1564 -0.1173,-0.2606 -0.1042,-0.1173 -0.2606,-0.1173 h -1.8241 q -0.1564,0 -0.2736,0.1173 -0.1043,0.1042 -0.1043,0.2606 v 4.013 q 0,0.1564 0.1043,0.2737 0.1172,0.1042 0.2736,0.1042 h 1.8241 q 0.1564,0 0.2606,-0.1042 0.1173,-0.1173 0.1173,-0.2737 z m 4.7358,3.974 q -0.065,0 -0.065,0.065 v 1.9153 q 0,0.078 -0.078,0.078 h -1.5375 q -0.078,0 -0.078,-0.078 v -7.8958 q 0,-0.078 0.078,-0.078 h 4.4691 q 0.065,0 0.1173,0.078 l 1.9805,2.8404 q 0.052,0.065 0,0.1433 l -1.5766,2.2672 q -0.039,0.065 0,0.1433 l 1.3551,2.4626 q 0.013,0.013 0.013,0.052 0,0.065 -0.1042,0.065 h -1.746 q -0.065,0 -0.1172,-0.078 l -1.0424,-1.9023 q -0.039,-0.078 -0.1042,-0.078 z m 2.8665,-2.9317 q 0.052,-0.078 0,-0.1433 l -0.8469,-1.1987 q -0.052,-0.078 -0.1173,-0.078 h -1.8893 q -0.078,0 -0.078,0.078 v 2.5538 q 0,0.078 0.078,0.078 h 1.8893 q 0.039,0 0.065,-0.013 0.026,-0.026 0.052,-0.065 z m 7.0551,2.6059 q 0,0.013 -0.026,0.052 -0.026,0.026 -0.078,0.026 h -0.886 q -0.052,0 -0.078,-0.026 -0.026,-0.039 -0.026,-0.052 l -1.2638,-1.8371 q 0,-0.013 -0.026,-0.039 -0.026,-0.039 -0.078,-0.039 h -0.026 q -0.091,0 -0.091,0.078 v 4.1433 q 0,0.078 -0.078,0.078 h -1.4463 q -0.078,0 -0.078,-0.078 v -7.8958 q 0,-0.078 0.078,-0.078 h 0.9903 q 0.078,0 0.1302,0.078 l 2.3193,3.3225 q 0,0.013 0.026,0.052 0.026,0.026 0.078,0.026 h 0.026 q 0.052,0 0.078,-0.026 0.026,-0.039 0.026,-0.052 l 2.3193,-3.3225 q 0.065,-0.078 0.1303,-0.078 h 0.9902 q 0.078,0 0.078,0.078 v 7.8958 q 0,0.078 -0.078,0.078 h -1.4463 q -0.078,0 -0.078,-0.078 v -4.1433 q 0,-0.078 -0.091,-0.078 h -0.026 q -0.052,0 -0.078,0.039 -0.026,0.026 -0.026,0.039 z m 8.5796,-5.5896 q 0,-0.078 0.078,-0.078 h 1.5375 q 0.078,0 0.078,0.078 v 6.5538 q 0,0.5863 -0.417,1.0033 -0.4169,0.4169 -1.0032,0.4169 h -3.0098 q -0.5864,0 -1.0033,-0.4169 -0.417,-0.417 -0.417,-1.0033 v -6.5538 q 0,-0.078 0.078,-0.078 h 1.5375 q 0.078,0 0.078,0.078 v 5.9544 q 0,0.1564 0.1042,0.2737 0.1173,0.1042 0.2736,0.1042 h 1.7069 q 0.1564,0 0.2606,-0.1042 0.1173,-0.1173 0.1173,-0.2737 z m 3.0289,0 q 0,-0.078 0.078,-0.078 h 1.5375 q 0.078,0 0.078,0.078 v 6.2541 q 0,0.078 0.078,0.078 h 3.2444 q 0.078,0 0.078,0.078 v 1.4853 q 0,0.078 -0.078,0.078 h -4.9382 q -0.078,0 -0.078,-0.078 z m 10.7034,7.1271 q -0.026,-0.078 -0.1173,-0.078 h -2.4365 q -0.1042,0 -0.1172,0.078 l -0.2215,0.7687 q -0.013,0.078 -0.1173,0.078 h -1.6417 q -0.1303,0 -0.091,-0.1172 l 2.5147,-7.8568 q 0.026,-0.078 0.1172,-0.078 h 1.5636 q 0.091,0 0.1172,0.078 l 2.5147,7.8568 0.013,0.052 q 0,0.065 -0.1043,0.065 H 1763.9 q -0.091,0 -0.1173,-0.078 z m -2.1368,-1.7199 q 0,0.078 0.091,0.078 h 1.4202 q 0.039,0 0.065,-0.026 0.039,-0.039 0.026,-0.078 l -0.7557,-2.228 q -0.026,-0.078 -0.1043,-0.078 h -0.026 q -0.091,0 -0.1042,0.078 l -0.6124,2.228 z m 12.8724,-0.9511 q 0,0.078 -0.078,0.078 h -2.9056 q -0.078,0 -0.078,0.078 v 1.6417 q 0,0.078 0.078,0.078 h 3.4268 q 0.078,0 0.078,0.078 v 1.4853 q 0,0.078 -0.078,0.078 h -5.1206 q -0.078,0 -0.078,-0.078 v -7.8958 q 0,-0.078 0.078,-0.078 h 5.1206 q 0.078,0 0.078,0.078 v 1.4853 q 0,0.078 -0.078,0.078 h -3.4268 q -0.078,0 -0.078,0.078 v 1.2508 q 0,0.078 0.078,0.078 h 2.9056 q 0.078,0 0.078,0.078 z"
       id="text9-5"
       style="font-weight:600;font-size:13.0295px;line-height:0.9;font-family:'Formula E Title';-inkscape-font-specification:'Formula E Title, Semi-Bold';font-variant-ligatures:none;letter-spacing:0.29279px;word-spacing:0px;fill:#ffffff;stroke-width:0.665434;stroke-miterlimit:5"
       transform="scale(1.0144565,0.98574951)"
       aria-label="FORMULA e" /></g></svg>
