<?xml version="1.0" encoding="UTF-8" standalone="no"?>
<!-- Created with Inkscape (http://www.inkscape.org/) -->

<svg
   width="181.37158"
   height="30"
   viewBox="0 0 47.987897 7.9375"
   version="1.1"
   id="svg1"
   xml:space="preserve"
   xmlns="http://www.w3.org/2000/svg"
   xmlns:svg="http://www.w3.org/2000/svg"><defs
     id="defs1" /><g
     id="g739"
     style="display:inline"
     transform="translate(-1726.9462,-369.61253)"><path
       style="font-style:italic;font-weight:900;font-size:11.3393px;line-height:0.9;font-family:Industry;-inkscape-font-specification:'Industry, Heavy Italic';font-variant-ligatures:none;letter-spacing:0px;word-spacing:0px;fill:#ffffff;stroke-width:0.453571;stroke-linecap:round"
       d="m 1726.9463,377.55007 h 2.1318 l 1.3947,-7.93751 h -2.1318 z m 3.4585,0 h 2.0637 l 0.8051,-4.54705 2.0298,4.54705 h 1.7916 l 1.3947,-7.93751 h -2.0638 l -0.737,4.21822 -1.8596,-4.21822 h -2.0298 z m 8.0169,0 h 4.6491 c 1.0205,0 1.5988,-0.49892 1.7803,-1.54214 l 0.8504,-4.85322 c 0.1928,-1.04322 -0.2154,-1.54215 -1.236,-1.54215 h -4.6491 z m 2.4493,-1.76893 0.771,-4.39964 h 1.7009 c 0.1588,0 0.1815,0.0453 0.1588,0.2041 l -0.703,3.99144 c -0.034,0.15875 -0.068,0.2041 -0.2268,0.2041 z m 6.5994,1.76893 h 2.1318 l 0.4309,-2.46062 3.4358,-5.47689 h -2.3586 l -1.8256,3.36778 -0.6463,-3.36778 h -2.2452 l 1.5081,5.47689 z m 5.2955,0 h 2.0637 l 0.8051,-4.54705 2.0298,4.54705 h 1.7916 l 1.3947,-7.93751 h -2.0638 l -0.737,4.21822 -1.8597,-4.21822 h -2.0297 z m 7.3705,0 h 2.3813 l 1.7009,-2.27919 0.9185,2.27919 h 2.2452 l -1.7236,-3.99143 3.0616,-3.94608 h -2.3813 l -1.6442,2.26786 -0.8504,-2.26786 h -2.2452 l 1.7349,3.87805 z m 9.3436,0 h 2.1318 l 1.0772,-6.12322 h 1.9277 l 0.3175,-1.81429 h -5.9871 l -0.3175,1.81429 h 1.9277 z"
       id="text395"
       aria-label="INDYNXT " /></g></svg>
