<?xml version="1.0" encoding="UTF-8" standalone="no"?>
<!-- Created with Inkscape (http://www.inkscape.org/) -->

<svg
   width="178.84668"
   height="30"
   viewBox="0 0 47.31985 7.9375"
   version="1.1"
   id="svg1"
   xml:space="preserve"
   sodipodi:docname="indycar.svg"
   inkscape:version="1.4-beta (62f545ba5e, 2024-04-22)"
   xmlns:inkscape="http://www.inkscape.org/namespaces/inkscape"
   xmlns:sodipodi="http://sodipodi.sourceforge.net/DTD/sodipodi-0.dtd"
   xmlns="http://www.w3.org/2000/svg"
   xmlns:svg="http://www.w3.org/2000/svg"><sodipodi:namedview
     id="namedview1"
     pagecolor="#505050"
     bordercolor="#ffffff"
     borderopacity="1"
     inkscape:showpageshadow="0"
     inkscape:pageopacity="0"
     inkscape:pagecheckerboard="1"
     inkscape:deskcolor="#505050"
     inkscape:zoom="3.3925707"
     inkscape:cx="94.176373"
     inkscape:cy="-13.116897"
     inkscape:window-width="2560"
     inkscape:window-height="1351"
     inkscape:window-x="-9"
     inkscape:window-y="-9"
     inkscape:window-maximized="1"
     inkscape:current-layer="svg1" /><defs
     id="defs1"><clipPath
       clipPathUnits="userSpaceOnUse"
       id="clipPath2-3"><path
         d="M 0,595.276 H 841.89 V 0 H 0 Z"
         transform="translate(-198.0142,-188.1193)"
         id="path2-8" /></clipPath><clipPath
       clipPathUnits="userSpaceOnUse"
       id="clipPath4-9"><path
         d="M 0,595.276 H 841.89 V 0 H 0 Z"
         transform="translate(-434.25101,-81.539202)"
         id="path4-3" /></clipPath><clipPath
       clipPathUnits="userSpaceOnUse"
       id="clipPath6"><path
         d="M 0,595.276 H 841.89 V 0 H 0 Z"
         transform="translate(-630.96482,-177.7736)"
         id="path6-4" /></clipPath><clipPath
       clipPathUnits="userSpaceOnUse"
       id="clipPath8"><path
         d="M 0,595.276 H 841.89 V 0 H 0 Z"
         transform="translate(-419.98051,-537.51431)"
         id="path8-4" /></clipPath><clipPath
       clipPathUnits="userSpaceOnUse"
       id="clipPath10"><path
         d="M 0,595.276 H 841.89 V 0 H 0 Z"
         transform="translate(-615.73931,-334.27511)"
         id="path10-6" /></clipPath><clipPath
       clipPathUnits="userSpaceOnUse"
       id="clipPath12-0"><path
         d="M 0,595.276 H 841.89 V 0 H 0 Z"
         transform="translate(-470.43161,-166.79221)"
         id="path12-6" /></clipPath><clipPath
       clipPathUnits="userSpaceOnUse"
       id="clipPath14-6"><path
         d="M 0,595.276 H 841.89 V 0 H 0 Z"
         transform="translate(-470.80371,-166.633)"
         id="path14-1" /></clipPath><clipPath
       clipPathUnits="userSpaceOnUse"
       id="clipPath16-8"><path
         d="M 0,595.276 H 841.89 V 0 H 0 Z"
         transform="translate(-472.12991,-165.0422)"
         id="path16-4" /></clipPath><clipPath
       clipPathUnits="userSpaceOnUse"
       id="clipPath18-9"><path
         d="M 0,595.276 H 841.89 V 0 H 0 Z"
         transform="translate(-469.21191,-167.16421)"
         id="path18-6" /></clipPath><clipPath
       clipPathUnits="userSpaceOnUse"
       id="clipPath20-3"><path
         d="M 0,595.276 H 841.89 V 0 H 0 Z"
         transform="translate(-470.06051,-166.9514)"
         id="path20-7" /></clipPath><clipPath
       clipPathUnits="userSpaceOnUse"
       id="clipPath22-8"><path
         d="M 0,595.276 H 841.89 V 0 H 0 Z"
         transform="translate(-468.62791,-167.21701)"
         id="path22-8" /></clipPath><clipPath
       clipPathUnits="userSpaceOnUse"
       id="clipPath24-2"><path
         d="M 0,595.276 H 841.89 V 0 H 0 Z"
         transform="translate(-469.63571,-167.11051)"
         id="path24-9" /></clipPath><clipPath
       clipPathUnits="userSpaceOnUse"
       id="clipPath26-1"><path
         d="M 0,595.276 H 841.89 V 0 H 0 Z"
         transform="translate(-471.91701,-165.4133)"
         id="path26-3" /></clipPath><clipPath
       clipPathUnits="userSpaceOnUse"
       id="clipPath28-5"><path
         d="M 0,595.276 H 841.89 V 0 H 0 Z"
         transform="translate(-472.34181,-164.2463)"
         id="path28-9" /></clipPath><clipPath
       clipPathUnits="userSpaceOnUse"
       id="clipPath30-8"><path
         d="M 0,595.276 H 841.89 V 0 H 0 Z"
         transform="translate(-472.44821,-163.3976)"
         id="path30-4" /></clipPath><clipPath
       clipPathUnits="userSpaceOnUse"
       id="clipPath32-0"><path
         d="M 0,595.276 H 841.89 V 0 H 0 Z"
         transform="translate(-472.23541,-164.6701)"
         id="path32-76" /></clipPath><clipPath
       clipPathUnits="userSpaceOnUse"
       id="clipPath34-3"><path
         d="M 0,595.276 H 841.89 V 0 H 0 Z"
         transform="translate(-471.91701,-165.466)"
         id="path34-6" /></clipPath><clipPath
       clipPathUnits="userSpaceOnUse"
       id="clipPath36-1"><path
         d="M 0,595.276 H 841.89 V 0 H 0 Z"
         transform="translate(-469.05271,-167.21701)"
         id="path36-5" /></clipPath><clipPath
       clipPathUnits="userSpaceOnUse"
       id="clipPath38"><path
         d="M 0,595.276 H 841.89 V 0 H 0 Z"
         transform="translate(-469.90141,-167.0051)"
         id="path38" /></clipPath><clipPath
       clipPathUnits="userSpaceOnUse"
       id="clipPath40"><path
         d="M 0,595.276 H 841.89 V 0 H 0 Z"
         transform="translate(-469.53031,-167.11051)"
         id="path40" /></clipPath><clipPath
       clipPathUnits="userSpaceOnUse"
       id="clipPath42"><path
         d="M 0,595.276 H 841.89 V 0 H 0 Z"
         transform="translate(-472.34181,-164.35171)"
         id="path42" /></clipPath><clipPath
       clipPathUnits="userSpaceOnUse"
       id="clipPath44"><path
         d="M 0,595.276 H 841.89 V 0 H 0 Z"
         transform="translate(-472.23541,-164.7766)"
         id="path44-4" /></clipPath><clipPath
       clipPathUnits="userSpaceOnUse"
       id="clipPath46"><path
         d="M 0,595.276 H 841.89 V 0 H 0 Z"
         transform="translate(-471.91701,-165.466)"
         id="path46-2" /></clipPath><clipPath
       clipPathUnits="userSpaceOnUse"
       id="clipPath48"><path
         d="M 0,595.276 H 841.89 V 0 H 0 Z"
         transform="translate(-472.07621,-165.14761)"
         id="path48-0" /></clipPath><clipPath
       clipPathUnits="userSpaceOnUse"
       id="clipPath50"><path
         d="M 0,595.276 H 841.89 V 0 H 0 Z"
         transform="translate(-470.32621,-166.84591)"
         id="path50-9" /></clipPath><clipPath
       clipPathUnits="userSpaceOnUse"
       id="clipPath52"><path
         d="M 0,595.276 H 841.89 V 0 H 0 Z"
         transform="translate(-472.39451,-163.8752)"
         id="path52-7" /></clipPath><clipPath
       clipPathUnits="userSpaceOnUse"
       id="clipPath54"><path
         d="M 0,595.276 H 841.89 V 0 H 0 Z"
         transform="translate(-470.69731,-166.6867)"
         id="path54-3" /></clipPath><clipPath
       clipPathUnits="userSpaceOnUse"
       id="clipPath56"><path
         d="M 0,595.276 H 841.89 V 0 H 0 Z"
         transform="translate(-471.06841,-166.42111)"
         id="path56-7" /></clipPath><clipPath
       clipPathUnits="userSpaceOnUse"
       id="clipPath58"><path
         d="M 0,595.276 H 841.89 V 0 H 0 Z"
         transform="translate(-462.73931,-116.9777)"
         id="path58" /></clipPath><clipPath
       clipPathUnits="userSpaceOnUse"
       id="clipPath60"><path
         d="M 0,595.276 H 841.89 V 0 H 0 Z"
         transform="translate(-472.44821,-163.8752)"
         id="path60-2" /></clipPath><clipPath
       clipPathUnits="userSpaceOnUse"
       id="clipPath62"><path
         d="M 0,595.276 H 841.89 V 0 H 0 Z"
         transform="translate(-472.23541,-163.29121)"
         id="path62-6" /></clipPath><clipPath
       clipPathUnits="userSpaceOnUse"
       id="clipPath64"><path
         d="M 0,595.276 H 841.89 V 0 H 0 Z"
         transform="translate(-447.30181,-115.8635)"
         id="path64-0" /></clipPath><clipPath
       clipPathUnits="userSpaceOnUse"
       id="clipPath66"><path
         d="M 0,595.276 H 841.89 V 0 H 0 Z"
         transform="translate(-468.09771,-106.68571)"
         id="path66" /></clipPath><clipPath
       clipPathUnits="userSpaceOnUse"
       id="clipPath68"><path
         d="M 0,595.276 H 841.89 V 0 H 0 Z"
         transform="translate(-229.15531,-334.54021)"
         id="path68" /></clipPath><clipPath
       clipPathUnits="userSpaceOnUse"
       id="clipPath70"><path
         d="M 0,595.276 H 841.89 V 0 H 0 Z"
         transform="translate(-435.62991,-442.39321)"
         id="path70-1" /></clipPath><clipPath
       clipPathUnits="userSpaceOnUse"
       id="clipPath72"><path
         d="M 0,595.276 H 841.89 V 0 H 0 Z"
         transform="translate(-527.25001,-416.55731)"
         id="path72-6" /></clipPath><clipPath
       clipPathUnits="userSpaceOnUse"
       id="clipPath74"><path
         d="M 0,595.276 H 841.89 V 0 H 0 Z"
         transform="translate(-588.84181,-416.61051)"
         id="path74-5" /></clipPath><clipPath
       clipPathUnits="userSpaceOnUse"
       id="clipPath76"><path
         d="M 0,595.276 H 841.89 V 0 H 0 Z"
         transform="translate(-307.67091,-361.80881)"
         id="path76" /></clipPath><clipPath
       clipPathUnits="userSpaceOnUse"
       id="clipPath78"><path
         d="M 0,595.276 H 841.89 V 0 H 0 Z"
         transform="translate(-296.26461,-210.82541)"
         id="path78" /></clipPath><clipPath
       clipPathUnits="userSpaceOnUse"
       id="clipPath80"><path
         d="M 0,595.276 H 841.89 V 0 H 0 Z"
         transform="translate(-347.24711,-237.5627)"
         id="path80" /></clipPath><clipPath
       clipPathUnits="userSpaceOnUse"
       id="clipPath82"><path
         d="M 0,595.276 H 841.89 V 0 H 0 Z"
         transform="translate(-406.34621,-232.36351)"
         id="path82" /></clipPath><clipPath
       clipPathUnits="userSpaceOnUse"
       id="clipPath84"><path
         d="M 0,595.276 H 841.89 V 0 H 0 Z"
         transform="translate(-437.43461,-237.5627)"
         id="path84" /></clipPath><clipPath
       clipPathUnits="userSpaceOnUse"
       id="clipPath86"><path
         d="M 0,595.276 H 841.89 V 0 H 0 Z"
         transform="translate(-466.66501,-237.5627)"
         id="path86" /></clipPath><clipPath
       clipPathUnits="userSpaceOnUse"
       id="clipPath88"><path
         d="M 0,595.276 H 841.89 V 0 H 0 Z"
         transform="translate(-504.22561,-210.82541)"
         id="path88" /></clipPath><clipPath
       clipPathUnits="userSpaceOnUse"
       id="clipPath90"><path
         d="M 0,595.276 H 841.89 V 0 H 0 Z"
         transform="translate(-222.25831,-311.14471)"
         id="path90" /></clipPath><clipPath
       clipPathUnits="userSpaceOnUse"
       id="clipPath92"><path
         d="M 0,595.276 H 841.89 V 0 H 0 Z"
         transform="translate(-254.51371,-311.14471)"
         id="path92-7" /></clipPath><clipPath
       clipPathUnits="userSpaceOnUse"
       id="clipPath94"><path
         d="M 0,595.276 H 841.89 V 0 H 0 Z"
         transform="translate(-347.88381,-261.7541)"
         id="path94" /></clipPath><clipPath
       clipPathUnits="userSpaceOnUse"
       id="clipPath96"><path
         d="M 0,595.276 H 841.89 V 0 H 0 Z"
         transform="translate(-395.78911,-267.32441)"
         id="path96" /></clipPath><clipPath
       clipPathUnits="userSpaceOnUse"
       id="clipPath98"><path
         d="M 0,595.276 H 841.89 V 0 H 0 Z"
         transform="translate(-439.76861,-259.95041)"
         id="path98" /></clipPath><clipPath
       clipPathUnits="userSpaceOnUse"
       id="clipPath100"><path
         d="M 0,595.276 H 841.89 V 0 H 0 Z"
         transform="translate(-535.89751,-274.2746)"
         id="path100" /></clipPath><clipPath
       clipPathUnits="userSpaceOnUse"
       id="clipPath102"><path
         d="M 0,595.276 H 841.89 V 0 H 0 Z"
         transform="translate(-603.27251,-282.28531)"
         id="path102" /></clipPath><clipPath
       clipPathUnits="userSpaceOnUse"
       id="clipPath104"><path
         d="M 0,595.276 H 841.89 V 0 H 0 Z"
         transform="translate(-626.29592,-251.9396)"
         id="path104" /></clipPath></defs><path
     id="text235"
     style="font-style:italic;font-weight:900;font-size:11.3393px;line-height:0.9;font-family:Industry;-inkscape-font-specification:'Industry, Heavy Italic';font-variant-ligatures:none;letter-spacing:0px;word-spacing:0px;fill:#ffffff;stroke-width:0.453571;stroke-linecap:round;fill-opacity:1"
     d="M 1.3947469 0 L 0 7.9374999 L 2.1316528 7.9374999 L 3.5263997 0 L 1.3947469 0 z M 4.8534505 0 L 3.4587036 7.9374999 L 5.5221435 7.9374999 L 6.3272623 3.3904907 L 8.3571126 7.9374999 L 10.148734 7.9374999 L 11.543481 0 L 9.4795247 0 L 8.7426188 4.2183471 L 6.882784 0 L 4.8534505 0 z M 12.870015 0 L 11.475268 7.9374999 L 16.124597 7.9374999 C 17.145127 7.9374999 17.72342 7.4386952 17.90485 6.3954752 L 18.755444 1.5420247 C 18.948214 0.49881476 18.539884 -4.6999441e-16 17.519344 0 L 12.870015 0 z M 19.446875 0 L 20.954793 5.4766683 L 20.524328 7.9374999 L 22.655981 7.9374999 L 23.086963 5.4766683 L 26.522412 0 L 24.1639 0 L 22.338688 3.3677531 L 21.692216 0 L 19.446875 0 z M 28.473197 0 C 27.452657 0 26.862977 0.49881476 26.670207 1.5420247 L 25.819612 6.3954752 C 25.638182 7.4386952 26.035183 7.9374999 27.055713 7.9374999 L 30.060697 7.9374999 C 31.069897 7.9374999 31.65952 7.4386952 31.84095 6.3954752 L 32.1014 4.9097778 L 29.969747 4.9097778 L 29.788362 5.9644938 C 29.754362 6.1232438 29.708864 6.1686157 29.550134 6.1686157 L 28.189494 6.1686157 C 28.042084 6.1686157 27.996837 6.1232038 28.030847 5.9644938 L 28.733646 1.9730062 C 28.756346 1.8142562 28.813116 1.7688843 28.960506 1.7688843 L 30.321146 1.7688843 C 30.479896 1.7688843 30.513842 1.8142962 30.491162 1.9730062 L 30.298409 3.0277221 L 32.430578 3.0277221 L 32.691028 1.5420247 C 32.883798 0.49881476 32.498205 -4.6999441e-16 31.477665 0 L 28.473197 0 z M 35.605578 0 L 31.863688 7.9374999 L 34.097143 7.9374999 L 34.789091 6.3045247 L 37.045284 6.3045247 L 37.158972 7.9374999 L 39.370206 7.9374999 L 38.395072 0 L 35.605578 0 z M 41.445015 0 L 40.050268 7.9374999 L 42.182438 7.9374999 L 42.647009 5.2839152 L 43.543078 5.2839152 L 44.404524 7.9374999 L 46.468481 7.9374999 L 45.606518 5.1025309 C 46.332228 4.9664609 46.763421 4.4791114 46.910831 3.6059814 L 47.2736 1.5420247 C 47.46636 0.49881476 47.05804 -4.6999441e-16 46.0375 0 L 41.445015 0 z M 43.282112 1.723409 L 44.926456 1.723409 C 45.073866 1.723409 45.107754 1.7688209 45.073734 1.9275309 L 44.824137 3.4018595 C 44.790137 3.5606095 44.733339 3.6059814 44.585909 3.6059814 L 42.942081 3.6059814 L 43.282112 1.723409 z M 36.716622 1.7347778 L 36.920744 4.6038533 L 35.503259 4.6038533 L 36.716622 1.7347778 z M 14.695744 1.7688843 L 16.396415 1.7688843 C 16.555165 1.7688843 16.578258 1.8142962 16.555578 1.9730062 L 15.852262 5.9644938 C 15.818262 6.1232438 15.784183 6.1686157 15.625403 6.1686157 L 13.924731 6.1686157 L 14.695744 1.7688843 z " /></svg>
