<?xml version="1.0" encoding="UTF-8" standalone="no"?>
<!-- Created with Inkscape (http://www.inkscape.org/) -->

<svg
   width="127.48096"
   height="30"
   viewBox="0 0 33.729336 7.9375"
   version="1.1"
   id="svg1"
   xml:space="preserve"
   xmlns="http://www.w3.org/2000/svg"
   xmlns:svg="http://www.w3.org/2000/svg"><defs
     id="defs1" /><g
     id="layer16"
     transform="translate(-1730.7857,-7200.8056)"><path
       d="m 1730.7857,7206.9601 v -6.0683 h 1.6869 v 6.2119 h 2.9809 v 1.5526 h -3.6889 l -0.6637,-0.8096 c -0.2253,-0.2885 -0.3152,-0.5542 -0.3152,-0.8878 m 5.5789,0.4334 1.8222,-6.5005 h 1.9344 c 0.3601,0 0.5848,0.1656 0.6858,0.5216 l 1.6758,5.9789 c 0.079,0.2663 0.09,0.444 0.09,0.7873 v 0.4773 h -1.4954 l -0.596,-2.3633 -2.4182,1.2207 -0.2924,1.142 h -1.4954 v -0.4771 c 0,-0.3435 0.011,-0.5212 0.09,-0.7869 m 4.0373,-1.3984 -0.8883,-3.5496 h -0.1804 l -0.8884,3.5502 h 1.9571 z m 2.9354,0.9662 v -6.0683 h 1.6869 v 6.2119 h 2.9808 v 1.5526 h -3.6894 l -0.6637,-0.8096 c -0.2247,-0.2885 -0.3146,-0.5542 -0.3146,-0.8878 m 7.3107,-6.0665 h -1.6869 v 7.7649 h 1.6869 z m 1.1469,5.2997 v -2.8351 c 0,-1.6529 0.9112,-2.5512 2.5869,-2.5512 h 0.7386 c 1.6536,0 2.5869,0.8324 2.5869,2.3071 h -1.6869 v -0.3106 c 0,-0.2881 -0.1575,-0.4439 -0.45,-0.4439 h -1.6381 c -0.2924,0 -0.4499,0.1551 -0.4499,0.4439 v 3.9452 c 0,0.2881 0.1574,0.4432 0.4494,0.4432 h 1.6386 c 0.2924,0 0.4495,-0.1551 0.4495,-0.4437 v -0.976 h -1.1692 v -1.5539 h 1.8783 l 0.6637,0.8102 c 0.2247,0.2774 0.3146,0.5326 0.3146,0.888 v 0.2774 c 0,1.6524 -0.9111,2.5506 -2.5869,2.5506 h -0.738 c -1.6758,0 -2.5875,-0.8988 -2.5875,-2.5512 z m 6.5106,1.2002 1.8222,-6.5005 h 1.9349 c 0.3601,0 0.5849,0.1656 0.6858,0.5216 l 1.6758,5.9789 c 0.079,0.2663 0.09,0.444 0.09,0.7873 v 0.4773 h -1.4954 l -0.5965,-2.3633 -2.4182,1.2207 -0.2924,1.142 h -1.4949 v -0.4771 c 0,-0.3435 0.01,-0.5212 0.09,-0.7869 m 4.0374,-1.3984 -0.889,-3.5496 h -0.1803 l -0.8884,3.5502 h 1.9571 z"
       fill="#00001b"
       id="path2684"
       style="fill:#ffffff;fill-opacity:1;stroke-width:0.554889" /></g></svg>
