<?xml version="1.0" encoding="UTF-8" standalone="no"?>
<!-- Created with Inkscape (http://www.inkscape.org/) -->

<svg
   width="85.736328"
   height="30"
   viewBox="0 0 22.684403 7.9375"
   version="1.1"
   id="svg1"
   xml:space="preserve"
   xmlns="http://www.w3.org/2000/svg"
   xmlns:svg="http://www.w3.org/2000/svg"><defs
     id="defs1" /><g
     id="layer19"
     transform="translate(-1693.1784,-8069.726)"><path
       id="path3640"
       style="fill:#ffffff;stroke-width:0.0075802"
       class="cls-1"
       d="m 1715.8628,8069.726 -2.1485,0.767 -0.1985,0.842 h 1.0766 v 6.2434 h 1.2704 z m -14.9296,0.05 c -0.3382,0 -0.6391,0.066 -0.9029,0.1995 -0.2638,0.1328 -0.4655,0.3195 -0.6032,0.5613 -0.1521,0.2622 -0.2589,0.5895 -0.321,0.983 -0.062,0.3936 -0.093,0.9645 -0.093,1.7133 v 0.9727 c 0,0.5072 0.014,0.9275 0.041,1.2601 0.028,0.333 0.07,0.6116 0.1293,0.8357 0.058,0.2246 0.1398,0.4249 0.2434,0.6006 0.1377,0.2418 0.3394,0.4285 0.6031,0.5613 0.2638,0.1329 0.5647,0.1995 0.903,0.1995 h 0.339 c 0.3346,0 0.6355,-0.062 0.903,-0.1866 0.2673,-0.124 0.5201,-0.3203 0.6786,-0.5897 0.235,-0.4103 0.3923,-1.0247 0.3923,-1.842 0,-0.7177 0,-1.2956 0,-1.7547 h -2.0297 l -0.2584,0.9727 h 1.1215 c 0.01,0.2417 0.01,0.4369 0.01,0.5851 0,0.4314 -0.019,0.764 -0.057,0.9985 -0.038,0.2345 -0.095,0.409 -0.171,0.523 -0.059,0.082 -0.1347,0.1429 -0.228,0.1809 -0.093,0.038 -0.2138,0.057 -0.3623,0.057 h -0.2041 c -0.1589,0 -0.2916,-0.023 -0.3985,-0.067 -0.1069,-0.045 -0.1897,-0.1185 -0.2481,-0.2222 -0.069,-0.1205 -0.1212,-0.3543 -0.1556,-0.7014 -0.034,-0.3466 -0.051,-0.9236 -0.051,-1.7309 v -0.3313 c 0,-0.8073 0.017,-1.3833 0.051,-1.7283 0.034,-0.3451 0.086,-0.578 0.1556,-0.6988 0.1101,-0.1966 0.3256,-0.2951 0.6466,-0.2951 h 0.1137 c 0.1517,0 0.2737,0.019 0.3654,0.057 0.091,0.038 0.1659,0.098 0.2248,0.1809 0.066,0.09 0.1099,0.2045 0.1323,0.3442 0.022,0.1398 0.034,0.3288 0.034,0.567 v 0.4212 l 1.1474,-0.6698 c 0,-0.2622 -0.021,-0.4854 -0.062,-0.6698 -0.042,-0.1845 -0.1143,-0.3669 -0.2176,-0.5463 -0.2866,-0.4935 -0.8,-0.7401 -1.5417,-0.7401 z m 3.1042,0.1028 v 5.6822 c 0,1.1823 0.204,1.5457 0.5194,1.8467 0.3907,0.3726 1.4581,0.2543 1.7226,0.1612 l 0.6249,-1.1608 v 1.151 c 10e-4,9e-4 0.043,4e-4 0.044,0 h 1.1851 v -7.6793 h -1.229 v 6.4048 c 0,0 -0.3441,0.2563 -0.797,0.2563 h -0.053 c -0.2073,0 -0.3691,-0.028 -0.4864,-0.083 -0.1172,-0.055 -0.2011,-0.1472 -0.2511,-0.2765 -0.05,-0.1297 -0.05,-0.2715 -0.05,-0.4993 v -5.8021 z m -10.859,0 v 7.6793 h 2.8856 l 0.3153,-1.1045 h -1.9718 v -6.5748 z m 3.7415,0 v 7.6793 h 1.1887 v -7.6793 z m 12.1867,0 v 7.6798 h 3.0029 l 0.2754,-1.0647 h -2.0601 v -5e-4 -2.4291 h 1.274 l 0.275,-1.1051 h -1.549 v -2.0157 h 1.9568 l -0.2755,-1.0647 z" /></g></svg>
