<?xml version="1.0" encoding="UTF-8" standalone="no"?>
<!-- Created with Inkscape (http://www.inkscape.org/) -->

<svg
   width="132.84912"
   height="30.742186"
   viewBox="0 0 35.149663 8.1338699"
   version="1.1"
   id="svg1"
   xml:space="preserve"
   xmlns="http://www.w3.org/2000/svg"
   xmlns:svg="http://www.w3.org/2000/svg"><defs
     id="defs1" /><g
     id="g380"
     style="display:inline"
     transform="translate(-1745.607,-431.03268)"><path
       style="font-size:12.2682px;line-height:0.9;font-family:'MotoGP Display';-inkscape-font-specification:'MotoGP Display, Normal';font-variant-ligatures:none;letter-spacing:-0.208328px;word-spacing:0px;fill:#ffffff;stroke-width:0.490726;stroke-linecap:round"
       d="m 1752.8207,439.09291 -0.6748,-5.09131 -1.2759,4.18346 h -1.7175 l -1.2391,-4.13439 -0.6502,5.04224 h -1.6563 l 1.1042,-7.42227 q 0.074,-0.51526 0.7238,-0.51526 h 0.7116 q 0.3067,0 0.4662,0.12268 0.1717,0.11042 0.2576,0.38032 l 1.1777,4.53923 1.2269,-4.53923 q 0.074,-0.2699 0.2453,-0.38032 0.1718,-0.12268 0.4785,-0.12268 h 0.7115 q 0.6503,0 0.7239,0.51526 l 1.0796,7.42227 z m 4.8952,0.0736 q -1.4108,0 -2.0978,-0.66248 -0.822,-0.73609 -0.822,-2.09786 v -2.56405 q 0,-0.71156 0.2085,-1.23909 0.2209,-0.52754 0.6625,-0.92012 0.3313,-0.29443 0.8588,-0.44165 0.5275,-0.15949 1.19,-0.15949 1.3372,0 2.0365,0.60114 0.8711,0.72383 0.8711,2.15921 v 2.56405 q 0,0.72382 -0.2209,1.25136 -0.2085,0.52753 -0.6502,0.89557 -0.3435,0.29444 -0.871,0.45393 -0.5153,0.15948 -1.1655,0.15948 z m 0,-1.47218 q 0.4785,0 0.7729,-0.20856 0.2086,-0.13495 0.319,-0.40485 0.1104,-0.28217 0.1104,-0.66248 v -2.58859 q 0,-0.65022 -0.319,-0.96919 -0.3067,-0.30671 -0.8833,-0.30671 -0.319,0 -0.5275,0.0736 -0.2086,0.0736 -0.3803,0.24537 -0.3067,0.3067 -0.3067,0.95692 v 2.58859 q 0,0.33124 0.086,0.60114 0.086,0.25763 0.2453,0.39258 0.1718,0.14722 0.3803,0.22083 0.2086,0.0613 0.503,0.0613 z m 8.5635,-5.11584 h -1.7912 v 6.51442 h -1.693 v -6.51442 h -2.012 v -1.42311 h 5.7415 z m 3.3126,6.58802 q -1.4108,0 -2.0979,-0.66248 -0.8219,-0.73609 -0.8219,-2.09786 v -2.56405 q 0,-0.71156 0.2085,-1.23909 0.2209,-0.52754 0.6625,-0.92012 0.3313,-0.29443 0.8588,-0.44165 0.5275,-0.15949 1.19,-0.15949 1.3372,0 2.0365,0.60114 0.8711,0.72383 0.8711,2.15921 v 2.56405 q 0,0.72382 -0.2209,1.25136 -0.2085,0.52753 -0.6502,0.89557 -0.3435,0.29444 -0.871,0.45393 -0.5153,0.15948 -1.1655,0.15948 z m 0,-1.47218 q 0.4785,0 0.7729,-0.20856 0.2086,-0.13495 0.319,-0.40485 0.1104,-0.28217 0.1104,-0.66248 v -2.58859 q 0,-0.65022 -0.319,-0.96919 -0.3067,-0.30671 -0.8833,-0.30671 -0.319,0 -0.5275,0.0736 -0.2086,0.0736 -0.3803,0.24537 -0.3067,0.3067 -0.3067,0.95692 v 2.58859 q 0,0.33124 0.086,0.60114 0.086,0.25763 0.2453,0.39258 0.1718,0.14722 0.3803,0.22083 0.2086,0.0613 0.503,0.0613 z m 5.7788,-0.0613 q 0,-0.93238 0.368,-1.50899 0.3803,-0.5766 1.2391,-0.94465 l 0.3558,-0.15949 q 0.9078,-0.39258 1.2391,-0.72382 0.3312,-0.33124 0.3312,-0.82197 0,-0.46619 -0.2453,-0.73609 -0.2331,-0.28217 -0.6257,-0.28217 -0.503,0 -0.7729,0.35578 -0.2576,0.35577 -0.2576,1.04279 v 0.12269 h -1.7299 v -0.13495 q 0,-2.80942 2.8095,-2.80942 1.2145,0 1.9138,0.65021 0.7116,0.63795 0.7116,1.76662 0,0.90785 -0.454,1.52126 -0.4539,0.60114 -1.4599,1.0428 l -0.3067,0.13495 q -0.7852,0.33124 -1.0796,0.63794 -0.2822,0.29444 -0.2822,0.78517 v 0.11041 h 3.6314 l -0.2453,1.41085 h -5.1404 z"
       id="text680"
       aria-label="MOTO 2 " /></g></svg>
