<?xml version="1.0" encoding="UTF-8" standalone="no"?>
<!-- Created with Inkscape (http://www.inkscape.org/) -->

<svg
   width="133.17332"
   height="30.927246"
   viewBox="0 0 35.235441 8.1828339"
   version="1.1"
   id="svg1"
   xml:space="preserve"
   xmlns="http://www.w3.org/2000/svg"
   xmlns:svg="http://www.w3.org/2000/svg"><defs
     id="defs1" /><g
     id="g722"
     style="display:inline"
     transform="translate(-1767.8264,-343.03162)"><path
       style="font-size:12.2682px;line-height:0.9;font-family:'MotoGP Display';-inkscape-font-specification:'MotoGP Display, Normal';font-variant-ligatures:none;letter-spacing:-0.208328px;word-spacing:0px;fill:#ffffff;stroke-width:0.490726;stroke-linecap:round"
       d="m 1775.0402,351.09177 -0.6748,-5.09131 -1.2759,4.18346 h -1.7175 l -1.2391,-4.13439 -0.6502,5.04224 h -1.6563 l 1.1042,-7.42227 q 0.074,-0.51526 0.7238,-0.51526 h 0.7116 q 0.3067,0 0.4662,0.12268 0.1717,0.11042 0.2576,0.38032 l 1.1777,4.53923 1.2269,-4.53923 q 0.074,-0.2699 0.2453,-0.38032 0.1718,-0.12268 0.4785,-0.12268 h 0.7115 q 0.6503,0 0.7239,0.51526 l 1.0796,7.42227 z m 4.8952,0.0736 q -1.4108,0 -2.0978,-0.66248 -0.822,-0.73609 -0.822,-2.09786 v -2.56405 q 0,-0.71156 0.2085,-1.23909 0.2209,-0.52754 0.6625,-0.92012 0.3313,-0.29443 0.8588,-0.44165 0.5275,-0.15949 1.19,-0.15949 1.3372,0 2.0365,0.60114 0.8711,0.72383 0.8711,2.15921 v 2.56405 q 0,0.72382 -0.2209,1.25136 -0.2085,0.52753 -0.6502,0.89557 -0.3435,0.29444 -0.871,0.45393 -0.5153,0.15948 -1.1655,0.15948 z m 0,-1.47218 q 0.4785,0 0.7729,-0.20856 0.2086,-0.13495 0.319,-0.40485 0.1104,-0.28217 0.1104,-0.66248 v -2.58859 q 0,-0.65022 -0.319,-0.96919 -0.3067,-0.30671 -0.8833,-0.30671 -0.319,0 -0.5275,0.0736 -0.2086,0.0736 -0.3803,0.24537 -0.3067,0.3067 -0.3067,0.95692 v 2.58859 q 0,0.33124 0.086,0.60114 0.086,0.25763 0.2453,0.39258 0.1718,0.14722 0.3803,0.22083 0.2086,0.0613 0.503,0.0613 z m 8.5635,-5.11584 h -1.7912 v 6.51442 h -1.693 v -6.51442 h -2.012 v -1.42311 h 5.7415 z m 3.3126,6.58802 q -1.4108,0 -2.0979,-0.66248 -0.8219,-0.73609 -0.8219,-2.09786 v -2.56405 q 0,-0.71156 0.2085,-1.23909 0.2209,-0.52754 0.6625,-0.92012 0.3313,-0.29443 0.8588,-0.44165 0.5275,-0.15949 1.19,-0.15949 1.3372,0 2.0365,0.60114 0.8711,0.72383 0.8711,2.15921 v 2.56405 q 0,0.72382 -0.2209,1.25136 -0.2085,0.52753 -0.6502,0.89557 -0.3435,0.29444 -0.871,0.45393 -0.5153,0.15948 -1.1655,0.15948 z m 0,-1.47218 q 0.4785,0 0.7729,-0.20856 0.2086,-0.13495 0.319,-0.40485 0.1104,-0.28217 0.1104,-0.66248 v -2.58859 q 0,-0.65022 -0.319,-0.96919 -0.3067,-0.30671 -0.8833,-0.30671 -0.319,0 -0.5275,0.0736 -0.2086,0.0736 -0.3803,0.24537 -0.3067,0.3067 -0.3067,0.95692 v 2.58859 q 0,0.33124 0.086,0.60114 0.086,0.25763 0.2453,0.39258 0.1718,0.14722 0.3803,0.22083 0.2086,0.0613 0.503,0.0613 z m 8.3551,1.52126 q -1.3495,0 -2.061,-0.66249 -0.6993,-0.67475 -0.6993,-1.96291 h 1.7298 q 0,0.58888 0.2821,0.89558 0.2822,0.30671 0.822,0.30671 0.4662,0 0.7484,-0.29444 0.2821,-0.29444 0.2821,-0.79743 0,-0.98146 -1.2145,-0.98146 h -0.7238 v -1.28816 h 0.5643 q 0.5521,0 0.8465,-0.2699 0.2944,-0.2699 0.2944,-0.78517 0,-0.44165 -0.2208,-0.67475 -0.2208,-0.24536 -0.6379,-0.24536 -0.5276,0 -0.7729,0.31897 -0.2454,0.30671 -0.2454,0.95692 v 0.0245 h -1.7298 v -0.0368 q 0,-1.33723 0.687,-2.01198 0.6993,-0.67475 2.0733,-0.67475 1.1901,0 1.8771,0.60114 0.6993,0.58887 0.6993,1.59487 0,0.60114 -0.2331,1.01826 -0.2331,0.40485 -0.7116,0.66248 0.638,0.23309 0.9324,0.68702 0.3067,0.44165 0.3067,1.15321 0,0.73609 -0.3558,1.30043 -0.3558,0.55207 -1.0182,0.85877 -0.6503,0.30671 -1.5213,0.30671 z"
       id="text700"
       aria-label="MOTO 3 " /></g></svg>
