<?xml version="1.0" encoding="UTF-8" standalone="no"?>
<!-- Created with Inkscape (http://www.inkscape.org/) -->

<svg
   width="157.05371"
   height="30.556641"
   viewBox="0 0 41.553794 8.0847778"
   version="1.1"
   id="svg1"
   xml:space="preserve"
   xmlns="http://www.w3.org/2000/svg"
   xmlns:svg="http://www.w3.org/2000/svg"><defs
     id="defs1" /><g
     id="g239"
     style="display:inline"
     transform="translate(-1704.4185,-352.60553)"><path
       style="font-size:12.2682px;line-height:0.9;font-family:'MotoGP Display';-inkscape-font-specification:'MotoGP Display, Normal';font-variant-ligatures:none;letter-spacing:-0.208328px;word-spacing:0px;fill:#ffffff;stroke-width:0.490726;stroke-linecap:round"
       d="m 1711.6323,360.61677 -0.6748,-5.09131 -1.2759,4.18346 h -1.7175 l -1.2391,-4.13439 -0.6502,5.04224 h -1.6562 l 1.1041,-7.42227 q 0.074,-0.51526 0.7238,-0.51526 h 0.7116 q 0.3067,0 0.4662,0.12268 0.1717,0.11042 0.2576,0.38032 l 1.1777,4.53923 1.2269,-4.53923 q 0.074,-0.2699 0.2453,-0.38032 0.1718,-0.12268 0.4785,-0.12268 h 0.7115 q 0.6503,0 0.7239,0.51526 l 1.0796,7.42227 z m 4.8952,0.0736 q -1.4108,0 -2.0978,-0.66248 -0.822,-0.73609 -0.822,-2.09786 v -2.56405 q 0,-0.71156 0.2085,-1.23909 0.2209,-0.52754 0.6625,-0.92012 0.3313,-0.29443 0.8588,-0.44165 0.5275,-0.15949 1.19,-0.15949 1.3373,0 2.0365,0.60114 0.8711,0.72383 0.8711,2.15921 v 2.56405 q 0,0.72382 -0.2208,1.25136 -0.2086,0.52753 -0.6503,0.89557 -0.3435,0.29444 -0.871,0.45393 -0.5153,0.15948 -1.1655,0.15948 z m 0,-1.47218 q 0.4785,0 0.7729,-0.20856 0.2086,-0.13495 0.319,-0.40485 0.1104,-0.28217 0.1104,-0.66248 v -2.58859 q 0,-0.65022 -0.319,-0.96919 -0.3067,-0.30671 -0.8833,-0.30671 -0.319,0 -0.5275,0.0736 -0.2086,0.0736 -0.3803,0.24537 -0.3067,0.3067 -0.3067,0.95692 v 2.58859 q 0,0.33124 0.086,0.60114 0.086,0.25763 0.2453,0.39258 0.1718,0.14722 0.3803,0.22083 0.2086,0.0613 0.503,0.0613 z m 8.5635,-5.11584 h -1.7912 v 6.51442 h -1.693 v -6.51442 h -2.012 v -1.42311 h 5.7415 z m 3.3126,6.58802 q -1.4108,0 -2.0979,-0.66248 -0.8219,-0.73609 -0.8219,-2.09786 v -2.56405 q 0,-0.71156 0.2085,-1.23909 0.2209,-0.52754 0.6625,-0.92012 0.3313,-0.29443 0.8588,-0.44165 0.5275,-0.15949 1.19,-0.15949 1.3372,0 2.0365,0.60114 0.8711,0.72383 0.8711,2.15921 v 2.56405 q 0,0.72382 -0.2209,1.25136 -0.2085,0.52753 -0.6502,0.89557 -0.3435,0.29444 -0.871,0.45393 -0.5153,0.15948 -1.1655,0.15948 z m 0,-1.47218 q 0.4785,0 0.7729,-0.20856 0.2086,-0.13495 0.319,-0.40485 0.1104,-0.28217 0.1104,-0.66248 v -2.58859 q 0,-0.65022 -0.319,-0.96919 -0.3067,-0.30671 -0.8833,-0.30671 -0.319,0 -0.5275,0.0736 -0.2086,0.0736 -0.3803,0.24537 -0.3067,0.3067 -0.3067,0.95692 v 2.58859 q 0,0.33124 0.086,0.60114 0.086,0.25763 0.2453,0.39258 0.1718,0.14722 0.3803,0.22083 0.2086,0.0613 0.503,0.0613 z m 11.3363,-2.73581 v 1.52126 q 0,1.32496 -0.7238,2.01198 -0.7239,0.67475 -2.1224,0.67475 -0.6993,0 -1.2759,-0.18402 -0.5644,-0.19629 -0.9324,-0.55207 -0.7116,-0.72382 -0.7116,-2.02425 v -2.56405 q 0,-1.5826 1.0183,-2.26962 0.7116,-0.49073 1.9016,-0.49073 1.3863,0 2.0856,0.67475 0.6992,0.66248 0.6992,1.99972 v 0.14722 h -1.7052 v -0.11042 q 0,-0.67475 -0.2577,-0.95692 -0.2453,-0.28217 -0.8219,-0.28217 -0.2945,0 -0.503,0.0736 -0.1963,0.0613 -0.3681,0.20856 -0.1595,0.12269 -0.2576,0.39259 -0.086,0.25763 -0.086,0.60114 v 2.58859 q 0,0.67475 0.319,0.95692 0.2821,0.31897 0.8955,0.31897 0.5889,0 0.8588,-0.29444 0.2822,-0.29443 0.2822,-0.93238 v -0.13495 h -1.1041 l 0.2453,-1.37404 z m 0.7608,1.25136 q 0,-0.62568 0.3313,-0.94465 0.3435,-0.33124 0.9937,-0.33124 h 1.1041 q 0.7607,0 1.0428,-0.25764 0.2822,-0.25763 0.2822,-0.94465 0,-0.47846 -0.1472,-0.72382 -0.1472,-0.24537 -0.4539,-0.33124 -0.2945,-0.0981 -0.8097,-0.0981 h -0.6502 v 1.32497 h -1.6931 v -2.74808 h 2.4046 q 1.5949,0 2.331,0.62568 0.7361,0.61341 0.7361,1.97518 0,0.94465 -0.319,1.50899 -0.3067,0.56433 -0.9937,0.82197 -0.6748,0.25763 -1.8035,0.25763 h -0.3435 q -0.1595,0 -0.2453,0.11041 -0.074,0.0982 -0.074,0.2699 v 2.36777 h -1.693 z"
       id="text675"
       aria-label="MOTO GP " /></g></svg>
