<?xml version="1.0" encoding="UTF-8" standalone="no"?>
<!-- Created with Inkscape (http://www.inkscape.org/) -->

<svg
   width="368.78906"
   height="32.113281"
   viewBox="0 0 97.575438 8.496639"
   version="1.1"
   id="svg1"
   xml:space="preserve"
   xmlns="http://www.w3.org/2000/svg"
   xmlns:svg="http://www.w3.org/2000/svg"><defs
     id="defs1" /><g
     id="layer21"
     transform="translate(-1743.7667,-8316.8642)"><path
       d="m 1743.7667,8325.0814 h 1.8335 v -4.36 l 5.5339,4.6395 h 0.1118 v -8.217 h -1.8335 v 4.36 l -5.5339,-4.6395 h -0.1118 z m 14.1646,0 h 1.9117 l -3.8682,-8.217 h -0.1118 l -3.8457,8.217 h 1.867 l 0.5142,-1.1291 h 3.0185 z m -2.8173,-2.6719 0.8049,-1.7552 0.7938,1.7552 z m 6.3277,2.6719 h 1.8334 v -6.3947 h 2.3813 v -1.5428 h -6.596 v 1.5428 h 2.3813 z m 4.9861,0 h 1.8334 v -7.9375 h -1.8334 z m 7.1996,0.1453 c 1.2186,0 2.236,-0.3913 3.0409,-1.1738 0.8049,-0.7826 1.2074,-1.7664 1.2074,-2.9626 0,-1.1627 -0.4137,-2.1353 -1.2298,-2.9179 -0.8161,-0.7826 -1.8222,-1.1739 -3.0185,-1.1739 -1.2074,0 -2.2247,0.3913 -3.0408,1.1739 -0.8161,0.7826 -1.2186,1.7552 -1.2186,2.9179 0,1.1962 0.4025,2.18 1.2074,2.9626 0.8049,0.7825 1.8223,1.1738 3.052,1.1738 z m 0.011,-1.5651 c -0.6931,0 -1.2745,-0.2348 -1.7328,-0.7267 -0.4696,-0.4919 -0.6932,-1.1068 -0.6932,-1.8446 0,-0.7155 0.2236,-1.308 0.6932,-1.7999 0.4583,-0.4808 1.0285,-0.7267 1.7216,-0.7267 0.682,0 1.2522,0.2459 1.7105,0.7267 0.4584,0.4919 0.6932,1.0956 0.6932,1.8111 0,0.7378 -0.2348,1.3415 -0.6932,1.8334 -0.4583,0.4919 -1.0285,0.7267 -1.6993,0.7267 z m 5.3439,1.4198 h 1.8334 v -4.36 l 5.5339,4.6395 h 0.1118 v -8.217 h -1.8334 v 4.36 l -5.5339,-4.6395 h -0.1118 z m 11.7944,-8.0717 c -0.8943,0 -1.621,0.2124 -2.1912,0.6373 -0.5701,0.4248 -0.8496,1.0061 -0.8496,1.744 0,0.436 0.1006,0.8049 0.313,1.1179 0.2013,0.3131 0.4584,0.5367 0.7714,0.682 0.313,0.1565 0.6484,0.2907 1.0062,0.4136 0.3577,0.123 0.6931,0.2236 1.0061,0.2907 0.3131,0.078 0.5702,0.1901 0.7826,0.3354 0.2013,0.1453 0.313,0.3242 0.313,0.5254 0,0.3131 -0.1117,0.5478 -0.3353,0.7155 -0.2236,0.1677 -0.5367,0.246 -0.9279,0.246 -0.4249,0 -0.7714,-0.067 -1.0621,-0.2124 -0.2907,-0.1342 -0.5702,-0.3466 -0.8385,-0.6373 l -1.1403,1.1292 c 0.7379,0.8273 1.7552,1.2297 3.0632,1.2297 0.9167,0 1.6546,-0.2236 2.2248,-0.6931 0.5701,-0.4584 0.8608,-1.0732 0.8608,-1.8335 0,-0.4248 -0.1118,-0.8049 -0.313,-1.1291 -0.2125,-0.313 -0.4696,-0.559 -0.7826,-0.7155 -0.313,-0.1565 -0.6484,-0.3018 -1.0062,-0.436 -0.3577,-0.123 -0.6931,-0.2236 -1.0061,-0.3018 -0.3131,-0.078 -0.5702,-0.1789 -0.7714,-0.3131 -0.2125,-0.1341 -0.3131,-0.2906 -0.3131,-0.4807 0,-0.2236 0.09,-0.4136 0.2683,-0.559 0.1789,-0.1453 0.4584,-0.2236 0.8385,-0.2236 0.4137,0 0.7602,0.078 1.0509,0.2124 0.2907,0.1454 0.5702,0.3578 0.8385,0.6373 l 1.1403,-1.1292 c -0.7602,-0.8272 -1.7329,-1.2521 -2.9403,-1.2521 z m 6.9649,8.0717 h 5.4221 v -1.5428 h -3.5886 v -6.3947 h -1.8335 z m 6.2494,0 h 5.7016 v -1.5428 h -3.8681 v -1.8334 h 3.6445 v -1.5428 h -3.6445 v -1.4757 h 3.8346 v -1.5428 h -5.6681 z m 12.1075,0 h 1.9117 l -3.8681,-8.217 h -0.1118 l -3.8458,8.217 h 1.867 l 0.5143,-1.1291 h 3.0185 z m -2.8172,-2.6719 0.8049,-1.7552 0.7938,1.7552 z m 9.2567,-5.411 c -1.2074,0 -2.2024,0.3802 -2.9962,1.118 -0.8049,0.749 -1.1962,1.744 -1.1962,2.9961 0,1.2074 0.3578,2.1912 1.0733,2.9626 0.7155,0.7826 1.7663,1.1627 3.1414,1.1627 0.7491,0 1.4422,-0.1341 2.0683,-0.4248 0.626,-0.2795 1.1179,-0.6708 1.4757,-1.185 v -2.7949 h -3.1415 v 1.5427 h 1.4422 v 0.682 c -0.1901,0.2012 -0.4584,0.3577 -0.805,0.4584 -0.3577,0.1118 -0.6819,0.1565 -0.9838,0.1565 -0.7714,0 -1.3751,-0.2348 -1.7999,-0.7043 -0.4248,-0.4696 -0.6372,-1.0845 -0.6372,-1.8559 0,-0.7714 0.2236,-1.3862 0.6819,-1.8558 0.4584,-0.4583 1.0174,-0.6931 1.677,-0.6931 0.8049,0 1.5316,0.3354 2.1688,0.995 l 1.1403,-1.1403 c -0.9391,-0.9391 -2.0347,-1.4199 -3.3091,-1.4199 z m 8.2393,8.2394 c 1.1627,0 2.0683,-0.313 2.6943,-0.9391 0.6261,-0.626 0.9503,-1.4421 0.9503,-2.4371 v -4.7178 h -1.8335 v 4.5165 c 0,1.3416 -0.6037,2.0124 -1.7999,2.0124 -0.5366,0 -0.9502,-0.1677 -1.2185,-0.5255 -0.2795,-0.3465 -0.4137,-0.8161 -0.4137,-1.4198 v -4.5836 h -1.8334 v 4.8072 c 0,1.0174 0.3353,1.8223 1.0173,2.4036 0.682,0.5925 1.4981,0.8832 2.4371,0.8832 z m 4.8632,-0.1565 h 5.7016 v -1.5428 h -3.8682 v -1.8334 h 3.6446 v -1.5428 h -3.6446 v -1.4757 h 3.8347 v -1.5428 h -5.6681 z"
       id="text3322"
       style="font-weight:bold;font-size:11.1796px;line-height:0.9;font-family:'UEFA Nations';-inkscape-font-specification:'UEFA Nations, Bold';font-variant-ligatures:none;letter-spacing:0px;word-spacing:0px;fill:#ffffff;stroke-width:1.10656;stroke-linejoin:round;paint-order:stroke fill markers"
       aria-label="NATIONS LEAGUE" /></g></svg>
