<?xml version="1.0" encoding="UTF-8" standalone="no"?>
<!-- Created with Inkscape (http://www.inkscape.org/) -->

<svg
   width="379.38968"
   height="30.617188"
   viewBox="0 0 100.38018 8.1007975"
   version="1.1"
   id="svg1"
   xml:space="preserve"
   xmlns="http://www.w3.org/2000/svg"
   xmlns:svg="http://www.w3.org/2000/svg"><defs
     id="defs1" /><g
     id="layer5"
     transform="translate(-1709.4313,-4684.2749)"><path
       d="m 1709.4313,4684.4 h 3.652 q 0.9671,0 1.6839,0.3641 0.7167,0.3527 1.1035,1.0239 0.3868,0.6599 0.3868,1.57 0,0.8988 -0.3868,1.5701 -0.3868,0.6712 -1.1149,1.0353 -0.7168,0.3641 -1.6725,0.3641 h -1.6269 v 1.9227 h -2.0251 z m 3.5497,3.9934 q 0.5916,0 0.9101,-0.2731 0.33,-0.273 0.33,-0.7623 0,-0.4892 -0.33,-0.7622 -0.3185,-0.2731 -0.9101,-0.2731 h -1.5246 v 2.0707 z m 8.7831,3.8568 -1.6497,-2.2527 h -0.7736 v 2.2527 h -2.0252 V 4684.4 h 3.6862 q 0.9216,0 1.5928,0.3413 0.6826,0.3299 1.0467,0.9671 0.3641,0.6371 0.3641,1.5017 0,0.9102 -0.421,1.5701 -0.4096,0.6485 -1.1718,0.967 l 1.8317,2.503 z m -2.4233,-4.0503 h 1.5017 q 0.512,0 0.8192,-0.2616 0.3185,-0.2617 0.3185,-0.7054 0,-0.4665 -0.3071,-0.7054 -0.3072,-0.2503 -0.8306,-0.2503 h -1.5017 z m 7.9753,-1.9341 v 1.0809 h 3.3449 v 1.8317 h -3.3449 v 1.206 h 3.7658 v 1.8658 h -5.7909 V 4684.4 h 5.7909 v 1.8658 z m 13.846,-1.8658 v 7.8502 h -2.0024 v -4.9946 l -2.3323,2.7647 h -0.068 l -2.321,-2.7533 v 4.9832 h -2.0137 V 4684.4 h 2.173 l 2.1958,2.6054 2.1958,-2.6054 z m 1.7293,7.8502 V 4684.4 h 2.0251 v 7.8502 z m 5.7795,-5.9844 v 1.0809 h 3.3449 v 1.8317 h -3.3449 v 1.206 h 3.7659 v 1.8658 h -5.791 V 4684.4 h 5.791 v 1.8658 z m 9.5568,5.9844 -1.6497,-2.2527 h -0.7736 v 2.2527 h -2.0251 V 4684.4 h 3.6861 q 0.9216,0 1.5928,0.3413 0.6827,0.3299 1.0467,0.9671 0.3641,0.6371 0.3641,1.5017 0,0.9102 -0.421,1.5701 -0.4095,0.6485 -1.1718,0.967 l 1.8317,2.503 z m -2.4233,-4.0503 h 1.5018 q 0.5119,0 0.8191,-0.2616 0.3186,-0.2617 0.3186,-0.7054 0,-0.4665 -0.3072,-0.7054 -0.3072,-0.2503 -0.8305,-0.2503 h -1.5018 z m 8.6807,-3.7999 h 2.0251 v 5.9275 h 3.4814 v 1.9227 h -5.5065 z m 8.5101,1.8658 v 1.0809 h 3.3449 v 1.8317 h -3.3449 v 1.206 h 3.7658 v 1.8658 h -5.7909 V 4684.4 h 5.7909 v 1.8658 z m 10.1256,4.5623 h -3.1059 l -0.512,1.4221 h -2.2072 l 2.9922,-7.8502 h 2.5485 l 3.0035,7.8502 h -2.2071 z m -0.6826,-1.8545 -0.8647,-2.4006 -0.876,2.4006 z m 11.6729,-1.4904 q 0.068,0.4551 0.068,0.9329 0,1.2174 -0.5348,2.1162 -0.5347,0.8987 -1.4335,1.3766 -0.8874,0.4664 -1.9455,0.4664 -1.1945,0 -2.1275,-0.5119 -0.9329,-0.5234 -1.4562,-1.4449 -0.5234,-0.9216 -0.5234,-2.0934 0,-1.1718 0.5234,-2.0934 0.5233,-0.9215 1.4562,-1.4335 0.933,-0.5234 2.1275,-0.5234 0.8988,0 1.6156,0.2845 0.7168,0.273 1.3197,0.8533 l -1.2287,1.479 q -0.3413,-0.3641 -0.785,-0.5461 -0.4323,-0.1934 -0.9329,-0.1934 -0.5916,0 -1.0695,0.273 -0.4778,0.2617 -0.7509,0.7623 -0.2616,0.4892 -0.2616,1.1377 0,0.6485 0.2616,1.1491 0.2731,0.4892 0.7395,0.7622 0.4779,0.2617 1.0695,0.2617 0.6257,0 1.0694,-0.2958 0.4437,-0.2958 0.6258,-0.8874 h -1.7862 v -1.8317 z m 4.767,4.8808 q -1.0467,0 -1.8431,-0.421 -0.785,-0.4209 -1.2174,-1.1946 -0.4323,-0.785 -0.4323,-1.8203 V 4684.4 h 2.0251 v 4.3802 q 0,0.8305 0.3869,1.2856 0.3982,0.4437 1.0808,0.4437 0.694,0 1.0808,-0.4437 0.3982,-0.4551 0.3982,-1.2856 V 4684.4 h 2.0251 v 4.5281 q 0,1.0353 -0.4323,1.8203 -0.4323,0.7737 -1.2287,1.1946 -0.7964,0.421 -1.8431,0.421 z m 7.1675,-6.0982 v 1.0809 h 3.3449 v 1.8317 h -3.3449 v 1.206 h 3.7659 v 1.8658 h -5.791 V 4684.4 h 5.791 v 1.8658 z"
       id="text1406"
       style="font-weight:800;font-size:11.3771px;line-height:0.9;font-family:PremierLeagueW01-Heavy;-inkscape-font-specification:'PremierLeagueW01-Heavy, Ultra-Bold';font-variant-ligatures:none;letter-spacing:0px;word-spacing:0px;fill:#ffffff;stroke-width:0.474905;stroke-linecap:round"
       aria-label="PREMIER LEAGUE " /></g></svg>
