<?xml version="1.0" encoding="UTF-8" standalone="no"?>
<!-- Created with Inkscape (http://www.inkscape.org/) -->

<svg
   width="360.34326"
   height="29.996094"
   viewBox="0 0 95.340819 7.9364665"
   version="1.1"
   id="svg1"
   xml:space="preserve"
   xmlns="http://www.w3.org/2000/svg"
   xmlns:svg="http://www.w3.org/2000/svg"><defs
     id="defs1" /><g
     id="layer15"
     transform="translate(-1700.9135,-16443.742)"><path
       d="m 1703.2947,16447.348 v -1.656 h 1.8597 v 1.656 z m 2.8462,1.78 c 0.8051,0 1.3834,-0.578 1.3834,-1.383 v -2.62 c 0,-0.805 -0.5783,-1.383 -1.3834,-1.383 h -5.2274 v 7.937 h 2.3812 v -2.551 z m 8.9581,-4.003 c 0,-0.805 -0.5784,-1.383 -1.3834,-1.383 h -5.3409 v 7.937 h 2.3813 v -5.987 h 1.9617 v 1.701 h -1.7009 l 2.1205,4.286 h 2.4492 l -1.7462,-3.311 h 0.102 c 0.6691,0 1.1567,-0.487 1.1567,-1.156 z m 3.3224,4.604 v -4.037 h 2.0864 v 4.037 z m -0.9979,-5.987 c -0.8051,0 -1.3834,0.578 -1.3834,1.383 v 5.171 c 0,0.805 0.5783,1.383 1.3834,1.383 h 4.0822 c 0.805,0 1.3833,-0.578 1.3833,-1.383 v -5.171 c 0,-0.805 -0.5783,-1.383 -1.3833,-1.383 z m 19.8778,1.383 c 0,-0.805 -0.5783,-1.383 -1.3834,-1.383 h -9.457 v 7.937 h 2.3813 v -5.987 h 1.8483 v 5.987 h 2.3812 v -5.987 h 1.8483 v 5.987 h 2.3813 z m 3.2884,4.604 v -4.037 h 2.0864 v 4.037 z m -0.9979,-5.987 c -0.8051,0 -1.3834,0.578 -1.3834,1.383 v 5.171 c 0,0.805 0.5783,1.383 1.3834,1.383 h 4.0822 c 0.8051,0 1.3834,-0.578 1.3834,-1.383 v -5.171 c 0,-0.805 -0.5783,-1.383 -1.3834,-1.383 z m 8.2664,7.937 h 2.3812 v -5.987 h 2.1205 v -1.95 h -6.282 l -0.6803,1.95 h 2.4606 z m 7.5633,-1.95 v -4.037 h 2.0864 v 4.037 z m -0.9979,-5.987 c -0.805,0 -1.3833,0.578 -1.3833,1.383 v 5.171 c 0,0.805 0.5783,1.383 1.3833,1.383 h 4.0822 c 0.8051,0 1.3834,-0.578 1.3834,-1.383 v -5.171 c 0,-0.805 -0.5783,-1.383 -1.3834,-1.383 z m 7.7561,0 c -0.8051,0 -1.3834,0.578 -1.3834,1.383 v 5.171 c 0,0.805 0.5783,1.383 1.3834,1.383 h 3.8781 l 0.6803,-1.95 h -3.5605 v -4.037 h 2.8802 l 0.6803,-1.95 z m 12.0197,1.383 c 0,-0.805 -0.5783,-1.383 -1.3834,-1.383 h -5.3408 v 7.937 h 2.3812 v -5.987 h 1.9617 v 1.701 h -1.7009 l 2.1205,4.286 h 2.4493 l -1.7463,-3.311 h 0.1021 c 0.669,0 1.1566,-0.487 1.1566,-1.156 z m 3.3224,4.604 v -4.037 h 2.0864 v 4.037 z m -0.9979,-5.987 c -0.8051,0 -1.3834,0.578 -1.3834,1.383 v 5.171 c 0,0.805 0.5783,1.383 1.3834,1.383 h 4.0822 c 0.8051,0 1.3834,-0.578 1.3834,-1.383 v -5.171 c 0,-0.805 -0.5783,-1.383 -1.3834,-1.383 z m 11.1579,7.937 c 0.8051,0 1.3834,-0.578 1.3834,-1.383 v -2.041 c 0,-0.805 -0.5783,-1.383 -1.3834,-1.383 h -2.4039 v -1.18 h 3.2203 l 0.6804,-1.95 h -4.8986 c -0.8051,0 -1.3834,0.578 -1.3834,1.383 v 2.041 c 0,0.806 0.5783,1.384 1.3834,1.384 h 2.4039 v 1.179 h -3.4471 l -0.6804,1.95 z m 7.0757,0 c 0.8051,0 1.3834,-0.578 1.3834,-1.383 v -2.041 c 0,-0.805 -0.5783,-1.383 -1.3834,-1.383 h -2.4039 v -1.18 h 3.2204 l 0.6803,-1.95 h -4.8986 c -0.805,0 -1.3834,0.578 -1.3834,1.383 v 2.041 c 0,0.806 0.5784,1.384 1.3834,1.384 h 2.404 v 1.179 h -3.4472 l -0.6803,1.95 z"
       id="text2714"
       style="font-size:11.3393px;line-height:0.9;font-family:'Robofan Free';-inkscape-font-specification:'Robofan Free, Normal';font-variant-ligatures:none;letter-spacing:0px;word-spacing:0px;fill:#ffffff;stroke-width:0.515132;stroke-linecap:round"
       aria-label="PRO MOTOCROSS" /></g></svg>
