<?xml version="1.0" encoding="UTF-8" standalone="no"?>
<!-- Created with Inkscape (http://www.inkscape.org/) -->

<svg
   width="142.59766"
   height="30"
   viewBox="0 0 37.728962 7.9375"
   version="1.1"
   id="svg1"
   xml:space="preserve"
   xmlns="http://www.w3.org/2000/svg"
   xmlns:svg="http://www.w3.org/2000/svg"><defs
     id="defs1" /><g
     id="layer17"
     transform="translate(-1692.1653,-7440.9996)"><g
       transform="matrix(0.18632629,0,0,0.18632629,1684.9457,7386.4248)"
       id="g3136"
       style="fill:#ffffff">
	<path
   id="path3128"
   d="m 39,329.8 c -0.2,-0.2 -0.4,-0.7 -0.1,-1 l 4.6,-5.3 c 0.2,-0.3 0.6,-0.3 0.9,-0.1 2.7,2.2 6.4,4.2 10.8,4.2 4.3,0 6.7,-2 6.7,-4.9 0,-2.4 -1.5,-3.9 -6.4,-4.6 l -2.2,-0.3 c -8.4,-1.2 -13,-5.1 -13,-12.3 0,-7.6 5.7,-12.6 14.6,-12.6 5.4,0 10.5,1.6 14,4.3 0.4,0.2 0.4,0.5 0.1,0.9 l -3.7,5.5 c -0.2,0.3 -0.5,0.4 -0.8,0.2 -3.1,-2.1 -6.2,-3.1 -9.6,-3.1 -3.6,0 -5.5,1.9 -5.5,4.5 0,2.4 1.7,3.9 6.4,4.5 L 58,310 c 8.5,1.2 13,5 13,12.5 0,7.4 -5.5,13 -16.2,13 -6.4,-0.1 -12.6,-2.6 -15.8,-5.7 z"
   class="st5"
   style="fill:#ffffff" />
	<path
   id="path3129"
   d="m 75.8,294.2 c 0,-0.4 0.2,-0.6 0.6,-0.6 h 26.4 c 0.4,0 0.6,0.2 0.6,0.6 v 6.5 c 0,0.4 -0.2,0.6 -0.6,0.6 H 85 c -0.2,0 -0.4,0.1 -0.4,0.4 v 8.2 c 0,0.2 0.1,0.4 0.4,0.4 h 14.8 c 0.4,0 0.6,0.2 0.6,0.6 v 6.4 c 0,0.4 -0.2,0.6 -0.6,0.6 H 85 c -0.2,0 -0.4,0.1 -0.4,0.4 v 8.5 c 0,0.2 0.1,0.4 0.4,0.4 h 17.7 c 0.4,0 0.6,0.2 0.6,0.6 v 6.5 c 0,0.4 -0.2,0.6 -0.6,0.6 H 76.4 c -0.4,0 -0.6,-0.2 -0.6,-0.6 z"
   class="st5"
   style="fill:#ffffff" />
	<path
   id="path3130"
   d="m 131.5,334.7 c -0.5,0 -0.7,-0.2 -0.9,-0.6 L 123.5,319 H 118 c -0.2,0 -0.4,0.1 -0.4,0.4 v 14.7 c 0,0.4 -0.2,0.6 -0.6,0.6 h -7.7 c -0.4,0 -0.6,-0.2 -0.6,-0.6 v -40 c 0,-0.4 0.2,-0.6 0.6,-0.6 h 16.4 c 8.4,0 14,5.3 14,12.8 0,5.3 -2.8,9.4 -7.3,11.4 l 8.1,16.2 c 0.2,0.4 0,0.7 -0.4,0.7 h -8.6 z m -0.6,-28.3 c 0,-3.1 -2.2,-5.1 -5.6,-5.1 H 118 c -0.2,0 -0.4,0.1 -0.4,0.4 v 9.5 c 0,0.2 0.1,0.4 0.4,0.4 h 7.3 c 3.4,-0.1 5.6,-2.1 5.6,-5.2 z"
   class="st5"
   style="fill:#ffffff" />
	<path
   id="path3131"
   d="m 145.3,294.2 c 0,-0.4 0.2,-0.6 0.6,-0.6 h 7.7 c 0.4,0 0.6,0.2 0.6,0.6 v 40 c 0,0.4 -0.2,0.6 -0.6,0.6 H 146 c -0.4,0 -0.6,-0.2 -0.6,-0.6 v -40 z"
   class="st5"
   style="fill:#ffffff" />
	<path
   id="path3132"
   d="m 160.9,294.2 c 0,-0.4 0.2,-0.6 0.6,-0.6 h 26.4 c 0.4,0 0.6,0.2 0.6,0.6 v 6.5 c 0,0.4 -0.2,0.6 -0.6,0.6 h -17.7 c -0.2,0 -0.4,0.1 -0.4,0.4 v 8.2 c 0,0.2 0.1,0.4 0.4,0.4 H 185 c 0.4,0 0.6,0.2 0.6,0.6 v 6.4 c 0,0.4 -0.2,0.6 -0.6,0.6 h -14.8 c -0.2,0 -0.4,0.1 -0.4,0.4 v 8.5 c 0,0.2 0.1,0.4 0.4,0.4 h 17.7 c 0.4,0 0.6,0.2 0.6,0.6 v 6.5 c 0,0.4 -0.2,0.6 -0.6,0.6 h -26.4 c -0.4,0 -0.6,-0.2 -0.6,-0.6 z"
   class="st5"
   style="fill:#ffffff" />
	<path
   id="path3136"
   d="m 218.1,294.2 c 0.1,-0.4 0.4,-0.6 0.8,-0.6 h 7.6 c 0.4,0 0.7,0.2 0.8,0.6 l 13.9,40 c 0.1,0.4 0,0.6 -0.4,0.6 h -7.9 c -0.4,0 -0.7,-0.2 -0.8,-0.6 l -2.4,-7.2 h -14.4 l -2.3,7.2 c -0.1,0.4 -0.4,0.6 -0.8,0.6 h -7.9 c -0.4,0 -0.5,-0.2 -0.4,-0.6 z m 9.2,25.2 -4.7,-14.4 h -0.2 l -4.7,14.4 z"
   class="st5"
   style="fill:#ffffff" />
</g></g></svg>
