<?xml version="1.0" encoding="UTF-8" standalone="no"?>
<!-- Created with Inkscape (http://www.inkscape.org/) -->

<svg
   width="561.59961"
   height="30"
   viewBox="0 0 148.58989 7.9375"
   version="1.1"
   id="svg1"
   xml:space="preserve"
   xmlns="http://www.w3.org/2000/svg"
   xmlns:svg="http://www.w3.org/2000/svg"><defs
     id="defs1" /><g
     id="layer24"
     transform="translate(-1696.4675,-9136.3095)"><g
       id="g3404"
       transform="matrix(1.5543914,0,0,1.5543914,741.08739,-4965.3513)"
       style="fill:#ffffff"><path
         style="display:inline;fill:#ffffff;fill-opacity:1;stroke-width:0.981835"
         d="m 681.06646,9072.2417 c -1.57092,0 -2.39849,0.2945 -2.88938,1.6691 l -0.35059,0.9818 c -0.44675,1.3402 0.0372,2.2581 1.66913,2.2581 h 2.90337 l 0.49098,-1.3745 h -2.85884 c -0.39275,0 -0.61603,-0.2988 -0.40718,-0.8836 l 0.21045,-0.5892 c 0.20886,-0.5848 0.4913,-0.6873 0.88404,-0.6873 h 3.40833 l 0.49084,-1.3745 z"
         id="path3389" /><path
         style="display:inline;fill:#ffffff;fill-opacity:1;stroke-width:0.981835"
         d="m 706.82356,9072.2415 c -1.53412,0 -2.24198,0.3089 -2.55907,1.2273 l -0.038,0.1023 c -0.4091,1.0227 -0.13833,1.7359 1.19124,1.7359 h 1.84096 c 0.35647,0 0.45504,0.1097 0.35649,0.3068 -0.0838,0.1676 -0.15194,0.2045 -0.56104,0.2045 h -3.5704 l -0.51369,1.3324 h 3.75121 c 1.43184,0 2.21144,-0.2021 2.62054,-1.3271 l 0.0394,-0.1047 c 0.39168,-1.0228 0.1015,-1.7387 -1.33034,-1.7387 h -1.84096 c -0.19614,0 -0.31207,-0.071 -0.24549,-0.2046 0.10227,-0.2045 0.14322,-0.2045 0.45004,-0.2045 h 3.30066 l 0.51138,-1.3296 z"
         id="path3390" /><path
         style="display:inline;fill:#ffffff;fill-opacity:1;stroke-width:0.981835"
         d="m 700.44043,9072.2415 c -1.53412,0 -2.24198,0.3089 -2.55907,1.2273 l -0.038,0.1023 c -0.4091,1.0227 -0.1382,1.7359 1.19137,1.7359 h 1.84096 c 0.35647,0 0.45505,0.1097 0.35649,0.3068 -0.0838,0.1676 -0.15194,0.2045 -0.56104,0.2045 h -3.5704 l -0.51369,1.3324 h 3.75109 c 1.43184,0 2.21143,-0.2021 2.62053,-1.3271 l 0.0394,-0.1047 c 0.39167,-1.0228 0.10149,-1.7387 -1.33035,-1.7387 h -1.84096 c -0.19614,0 -0.31194,-0.071 -0.24536,-0.2046 0.10227,-0.2045 0.14309,-0.2045 0.44991,-0.2045 h 3.30066 l 0.51138,-1.3296 z"
         id="path3394" /><path
         style="display:inline;fill:#ffffff;fill-opacity:1;stroke-width:0.981835"
         d="m 689.0551,9072.2415 -3.91227,2e-4 -1.80335,4.9092 h 1.83582 l 0.60121,-1.7033 h 0.90456 l 1.19215,1.703 -1.3e-4,10e-5 h 2.04294 l -1.21511,-1.7356 c 0.95547,-0.091 1.3333,-0.413 1.73277,-1.3718 l 0.0388,-0.09 c 0.40075,-1.1021 -0.0944,-1.712 -1.41736,-1.712 z m -3.06647,1.2694 h 0.95756 1.34203 c 0.40075,0 0.43268,0.2004 0.33249,0.4007 -0.10018,0.2004 -0.23237,0.3006 -0.53293,0.3006 h -1.87522 l 0.0889,-0.2523 z"
         id="path3395" /><path
         style="display:inline;fill:#ffffff;fill-opacity:1;stroke-width:0.981835"
         d="m 693.71483,9072.1429 c -1.47301,0 -2.14519,0.3928 -2.6362,1.6694 l -0.40807,1.1785 c -0.1207,0.3379 -0.19686,0.6463 -0.19596,0.919 0.003,0.8369 0.59144,1.3396 1.85046,1.3396 h 1.83557 c 1.473,0 2.14314,-0.3928 2.63414,-1.6694 l 0.41013,-1.1784 c 0.491,-1.3748 1e-5,-2.2587 -1.66939,-2.2587 z m -1.28108,1.3519 h 1.26619 1.27632 c 0.47846,0 0.63621,0.2126 0.46095,0.8085 l -0.29451,0.7856 c -0.1964,0.5892 -0.46826,0.8299 -0.86106,0.8299 h -1.42903 c -0.39281,0 -0.64061,-0.2559 -0.42938,-0.8299 l 0.44067,-1.164 z"
         id="path3396" /><path
         style="display:inline;fill:#ffffff;fill-opacity:1;stroke-width:0.981835"
         d="m 665.28184,9072.2787 -0.49393,1.3468 h 2.26367 l -1.30649,3.5624 h 1.80349 l 1.02994,-2.808 -0.71323,-0.7544 h 0.98567 2.2702 l 0.49419,-1.3468 z"
         id="path3397" /><path
         style="display:inline;fill:#ffffff;fill-opacity:1;stroke-width:0.981835"
         d="m 650.19006,9072.2787 -1.76729,4.9092 h 1.79193 l 1.27941,-3.57 h 0.27102 l -0.0246,1.5055 c -0.006,0.3927 0.32177,0.6873 0.71451,0.6873 h 1.74933 l 1.57417,-2.1928 h 0.27397 l -1.32599,3.57 h 1.79387 l 1.80335,-4.9092 h -2.59178 c -0.39274,0 -0.78559,0.1964 -0.98195,0.491 l -1.15904,1.6859 h -0.24895 l 0.0246,-2.1769 z"
         id="path3398" /><path
         style="display:inline;fill:#ffffff;fill-opacity:1;stroke-width:0.981835"
         d="m 674.07459,9072.1429 c -1.473,0 -2.14518,0.3928 -2.63619,1.6694 l -0.40807,1.1784 c -0.1207,0.338 -0.19686,0.6463 -0.19595,0.9191 0.003,0.8369 0.59143,1.3396 1.85045,1.3396 h 1.83557 c 1.473,0 2.14314,-0.3928 2.63414,-1.6694 l 0.41012,-1.1784 c 0.49101,-1.3748 2e-5,-2.2587 -1.66938,-2.2587 z m -1.28107,1.3518 h 1.26619 1.27633 c 0.47845,0 0.6362,0.2128 0.46094,0.8087 l -0.29451,0.7855 c -0.1964,0.5892 -0.46826,0.8299 -0.86106,0.8299 h -1.42904 c -0.3928,0 -0.6406,-0.256 -0.42937,-0.8299 l 0.44067,-1.164 z"
         id="path3399" /><path
         style="display:inline;fill:#ffffff;fill-opacity:1;stroke-width:0.981835"
         d="m 660.91564,9072.1429 c -1.47301,0 -2.14519,0.3928 -2.6362,1.6694 l -0.40807,1.1784 c -0.1207,0.338 -0.19686,0.6463 -0.19595,0.9191 0.003,0.8369 0.59143,1.3396 1.85045,1.3396 h 1.83557 c 1.473,0 2.14314,-0.3928 2.63414,-1.6694 l 0.41013,-1.1784 c 0.491,-1.3748 10e-6,-2.2587 -1.66939,-2.2587 z m -1.28108,1.3518 h 1.26619 1.27633 c 0.47845,0 0.6362,0.2128 0.46094,0.8087 l -0.2945,0.7855 c -0.19641,0.5892 -0.46827,0.8299 -0.86107,0.8299 h -1.42903 c -0.3928,0 -0.64061,-0.256 -0.42938,-0.8299 l 0.44067,-1.164 z"
         id="path3400" /><path
         style="display:inline;fill:#ffffff;fill-opacity:1;stroke-width:0.981835"
         d="m 643.4074,9072.2416 -1.80336,4.9092 h 1.83582 l 0.60121,-1.7032 h 0.90457 l 1.19214,1.703 -2e-4,2e-4 h 2.04295 l -1.21512,-1.7356 c 0.95548,-0.091 1.33331,-0.4131 1.73278,-1.3718 l 0.0388,-0.09 c 0.40075,-1.102 -0.0944,-1.712 -1.41736,-1.712 z m 0.84579,1.2691 h 0.95757 1.34203 c 0.40074,0 0.43267,0.2004 0.33249,0.4008 -0.10019,0.2004 -0.23238,0.3005 -0.53294,0.3005 h -1.87522 l 0.0889,-0.2523 z"
         id="path3401" /><path
         style="display:inline;fill:#ffffff;fill-opacity:1;stroke-width:0.981835"
         d="m 636.88384,9072.2416 -1.80336,4.9092 h 5.82534 l 0.50099,-1.3025 h -4.03443 l 0.21533,-0.5596 h 3.01167 l 0.51459,-1.3058 h -3.02399 l 0.16875,-0.4388 h 4.03532 l 0.50086,-1.3025 z"
         id="path3402" /><path
         style="display:inline;fill:#ffffff;fill-opacity:1;stroke-width:0.981835"
         d="m 630.10194,9072.2416 -1.80336,4.9092 h 1.83596 l 0.6012,-1.7032 h 2.37184 c 1.61616,0 2.07995,-0.2019 2.58089,-1.4042 l 0.0388,-0.09 c 0.40075,-1.1021 -0.0944,-1.712 -1.41735,-1.712 z m 1.00184,1.2691 h 0.80152 1.63795 c 0.40075,0 0.43268,0.2004 0.33249,0.4008 -0.10019,0.2004 -0.23238,0.3005 -0.53294,0.3005 h -2.17101 l 0.14155,-0.4007 z"
         id="path3403" /><path
         style="display:inline;fill:#ffffff;fill-opacity:1;stroke-width:0.981835"
         d="m 618.48628,9072.2416 c -1.53412,0 -2.24198,0.3089 -2.55907,1.2273 l -0.038,0.1023 c -0.4091,1.0227 -0.1382,1.7359 1.19137,1.7359 h 1.84096 c 0.35647,0 0.45504,0.1097 0.35649,0.3068 -0.0838,0.1676 -0.15194,0.2045 -0.56104,0.2045 h -2.65916 l -1.42493,1.3324 h 3.75108 c 1.43184,0 2.21144,-0.2021 2.62054,-1.3271 l 0.0394,-0.1047 c 0.39167,-1.0228 0.10149,-1.7387 -1.33035,-1.7387 h -1.84096 c -0.19614,0 -0.31195,-0.071 -0.24536,-0.2046 0.10227,-0.2045 0.14308,-0.2045 0.44991,-0.2045 h 4.3528 l -0.52665,1.4747 c -0.50078,1.4022 0.10007,2.2035 1.80272,2.2035 h 1.60253 c 1.50234,0 2.20342,-0.4006 2.7042,-1.7026 l 1.2019,-3.3052 h -1.80284 l -1.00146,2.8043 c -0.20031,0.6009 -0.50086,0.8013 -0.90148,0.8013 h -1.2019 c -0.50078,0 -0.70104,-0.2004 -0.50073,-0.8013 l 0.70104,-2.003 c 0.10016,-0.4006 -0.20032,-0.8013 -0.60094,-0.8013 h -0.81782 z"
         id="path3404" /></g></g><style
     type="text/css"
     id="style1">
	.st0{fill:#FFFFFF;}
	.st1{fill:#B69B40;}
	.st2{fill:#283271;}
	.st3{fill:url(#Plinth_00000024719996797075204420000012647641536287814807_);}
	.st4{opacity:0.4;fill:url(#p40_00000106113143120193750130000016072925933129080735_);enable-background:new    ;}
	.st5{fill:url(#Sky_x5F_Logo_00000061460388762851295990000018372894465928754855_);}
	.st6{opacity:0.25;fill:url(#s25_00000182524357250295268150000002348907512278735291_);enable-background:new    ;}
</style><style
     type="text/css"
     id="style1-4">
	.st0{fill:#008F5E;}
	.st1{fill:#FCEB20;}
	.st2{fill:#E2231A;}
	.st3{fill:#100C08;}
	.st4{fill:#FFFFFF;}
	.st5{fill:none;stroke:#100C08;stroke-width:0.174;stroke-miterlimit:10;}
	.st6{fill:none;stroke:#FFFFFF;stroke-miterlimit:10;}
</style></svg>
