<?xml version="1.0" encoding="UTF-8" standalone="no"?>
<!-- Created with Inkscape (http://www.inkscape.org/) -->

<svg
   width="254.44582"
   height="30"
   viewBox="0 0 67.322121 7.9375"
   version="1.1"
   id="svg1"
   xml:space="preserve"
   xmlns="http://www.w3.org/2000/svg"
   xmlns:svg="http://www.w3.org/2000/svg"><defs
     id="defs1" /><g
     id="g325"
     style="display:inline"
     transform="translate(-1756.1622,-373.8053)"><path
       d="m 1762.6339,376.3028 0.012,-0.35174 c 0,-0.65657 -0.129,-1.12555 -0.4221,-1.47728 -0.3987,-0.50416 -1.067,-0.6683 -2.7084,-0.6683 -1.5242,0 -2.1808,0.11725 -2.6966,0.48071 -0.4456,0.31656 -0.6449,0.90278 -0.6449,1.85247 0,1.39521 0.3518,1.96971 1.3249,2.21593 0.3986,0.0938 1.0435,0.16414 2.3214,0.23449 0.8208,0.0469 0.9849,0.17586 0.9849,0.72692 0,0.31656 -0.07,0.49242 -0.2228,0.62139 -0.1758,0.15242 -0.2814,0.16415 -0.9614,0.16415 -0.9614,0 -1.0552,-0.0117 -1.231,-0.15242 -0.1642,-0.11725 -0.2345,-0.31656 -0.2345,-0.64485 v -0.15242 h -1.9932 c 0,0.94969 0.07,1.37177 0.3166,1.75868 0.3986,0.63312 1.149,0.83244 3.1421,0.83244 1.5477,0 2.1808,-0.1407 2.6967,-0.58623 0.3986,-0.35173 0.551,-0.89106 0.551,-1.94626 0,-1.25453 -0.2814,-1.7704 -1.1373,-2.04007 -0.4924,-0.15242 -0.5158,-0.15242 -2.4152,-0.29311 -0.6683,-0.0469 -0.7387,-0.0586 -0.8676,-0.17587 -0.1173,-0.0938 -0.1759,-0.28139 -0.1759,-0.53932 0,-0.6214 0.2462,-0.7621 1.2663,-0.7621 0.891,0 1.1021,0.1407 1.1021,0.7621 v 0.14069 z m 5.9325,-2.4387 v 4.99464 c 0,0.92624 -0.1876,1.09038 -1.1959,1.09038 -1.1959,0 -1.4069,-0.1407 -1.4069,-0.98486 v -5.10016 h -2.0987 v 5.10016 c 0,0.42208 0,0.50415 0.023,0.73864 0.059,0.91452 0.3517,1.39522 1.0435,1.72351 0.5159,0.23449 1.1255,0.31656 2.3683,0.31656 1.3249,0 1.8291,-0.0821 2.3449,-0.36346 0.5276,-0.29312 0.8677,-0.82072 0.9497,-1.46556 0.012,-0.10553 0.07,-0.99659 0.07,-1.11383 v -4.93602 z m 3.365,7.82024 h 2.0987 v -2.00488 h 1.2545 l 0.34,-0.0117 c 1.0435,-0.0235 1.0435,-0.0235 1.1842,-0.0352 0.4924,-0.0704 0.9731,-0.30484 1.2193,-0.60968 0.3752,-0.45725 0.5159,-1.04348 0.5159,-2.18075 0,-1.50074 -0.2697,-2.20421 -0.9966,-2.62629 -0.4924,-0.29311 -0.7973,-0.35174 -1.6883,-0.35174 h -0.3869 -0.4807 -3.0601 z m 2.0987,-3.81046 v -2.28628 h 1.3248 c 0.4338,0 0.4925,0.0117 0.6683,0.0821 0.2814,0.12897 0.3752,0.39863 0.3752,1.06693 0,1.0083 -0.1172,1.13727 -1.0552,1.13727 z m 7.4216,-2.28628 h 3.5642 v -1.7235 h -5.6629 v 7.82024 h 5.7333 v -1.7235 h -3.6346 v -1.52418 h 3.3297 v -1.44212 h -3.3297 z m 4.7015,6.09674 h 2.0987 v -2.07523 h 1.5593 c 0.6214,-0.0235 0.9028,0.30484 0.8794,1.03175 v 1.04348 h 2.1338 v -1.43038 c 0.024,-0.96141 -0.4455,-1.47729 -1.4069,-1.52419 v -0.0821 c 0.551,-0.14069 0.7386,-0.21104 0.9379,-0.37518 0.3869,-0.30484 0.5276,-0.83244 0.5276,-1.96972 0,-1.05521 -0.1875,-1.60626 -0.6917,-1.98144 -0.4573,-0.35174 -0.9614,-0.45726 -2.087,-0.45726 h -3.9511 z m 2.0987,-3.84563 v -2.18076 h 1.5593 c 0.7738,0 0.9263,0.16414 0.9263,0.93796 0,1.05521 -0.129,1.2428 -0.8208,1.2428 z m 10.2237,0.89106 c 0.012,0.0938 0.012,0.19932 0.012,0.22277 0,0.79726 -0.2696,0.99658 -1.3014,0.99658 -1.1373,0 -1.3717,-0.25794 -1.3717,-1.48901 0,-1.62971 0.023,-2.04007 0.1172,-2.30973 0.129,-0.39863 0.4455,-0.53933 1.1842,-0.53933 0.7621,0 1.0669,0.0821 1.2076,0.32829 0.082,0.15242 0.094,0.23449 0.1172,0.72692 h 2.0753 c -0.012,-0.6683 -0.024,-0.87934 -0.059,-1.149 -0.1055,-0.72692 -0.4104,-1.18418 -0.9849,-1.45384 -0.4572,-0.21104 -0.8324,-0.25794 -1.9931,-0.25794 -1.8525,0 -2.4505,0.14069 -3.0836,0.75037 -0.5393,0.5276 -0.7269,1.16072 -0.7269,2.52077 0,1.30142 0.047,2.39179 0.129,2.7787 0.1524,0.7621 0.5862,1.31315 1.2545,1.62971 0.4807,0.22276 0.8207,0.25794 2.2511,0.25794 0.7152,0 1.2311,-0.0235 1.4656,-0.0704 0.3869,-0.0704 0.8089,-0.25794 1.0903,-0.49243 0.5511,-0.45725 0.6801,-0.86761 0.6918,-2.21593 v -0.23449 z m 7.6913,1.60626 0.4104,1.34831 h 2.1338 l -2.38,-7.82024 h -3.1774 l -2.3449,7.82024 h 2.1808 l 0.3752,-1.34831 z m -0.4103,-1.51246 h -1.9463 l 0.9614,-3.40011 z m 3.5056,2.86077 h 2.0987 v -2.07523 h 1.5593 c 0.6214,-0.0235 0.9028,0.30484 0.8794,1.03175 v 1.04348 h 2.1338 v -1.43038 c 0.023,-0.96141 -0.4455,-1.47729 -1.4069,-1.52419 v -0.0821 c 0.551,-0.14069 0.7386,-0.21104 0.9379,-0.37518 0.3869,-0.30484 0.5276,-0.83244 0.5276,-1.96972 0,-1.05521 -0.1876,-1.60626 -0.6917,-1.98144 -0.4573,-0.35174 -0.9614,-0.45726 -2.087,-0.45726 h -3.9511 z m 2.0987,-3.84563 v -2.18076 h 1.5593 c 0.7738,0 0.9263,0.16414 0.9263,0.93796 0,1.05521 -0.129,1.2428 -0.8208,1.2428 z m 11.8886,-1.53591 0.012,-0.35174 c 0,-0.65657 -0.129,-1.12555 -0.4221,-1.47728 -0.3986,-0.50416 -1.0669,-0.6683 -2.7083,-0.6683 -1.5242,0 -2.1808,0.11725 -2.6967,0.48071 -0.4455,0.31656 -0.6448,0.90278 -0.6448,1.85247 0,1.39521 0.3517,1.96971 1.3249,2.21593 0.3986,0.0938 1.0434,0.16414 2.3214,0.23449 0.8207,0.0469 0.9849,0.17586 0.9849,0.72692 0,0.31656 -0.07,0.49242 -0.2228,0.62139 -0.1759,0.15242 -0.2814,0.16415 -0.9614,0.16415 -0.9614,0 -1.0552,-0.0117 -1.2311,-0.15242 -0.1641,-0.11725 -0.2345,-0.31656 -0.2345,-0.64485 v -0.15242 h -1.9931 c 0,0.94969 0.07,1.37177 0.3165,1.75868 0.3987,0.63312 1.149,0.83244 3.1422,0.83244 1.5476,0 2.1807,-0.1407 2.6966,-0.58623 0.3987,-0.35173 0.5511,-0.89106 0.5511,-1.94626 0,-1.25453 -0.2814,-1.7704 -1.1373,-2.04007 -0.4924,-0.15242 -0.5159,-0.15242 -2.4152,-0.29311 -0.6683,-0.0469 -0.7387,-0.0586 -0.8677,-0.17587 -0.1172,-0.0938 -0.1758,-0.28139 -0.1758,-0.53932 0,-0.6214 0.2462,-0.7621 1.2662,-0.7621 0.8911,0 1.1021,0.1407 1.1021,0.7621 v 0.14069 z"
       id="text732"
       style="font-weight:900;font-size:11.7245px;line-height:0.9;font-family:Eurostile;-inkscape-font-specification:'Eurostile, Heavy';font-variant-ligatures:none;letter-spacing:0px;word-spacing:0px;fill:#ffffff;stroke-width:0.484223;stroke-linecap:round"
       aria-label="SUPERCARS" /></g></svg>
