<?xml version="1.0" encoding="UTF-8" standalone="no"?>
<!-- Created with Inkscape (http://www.inkscape.org/) -->

<svg
   width="346.53271"
   height="30.824221"
   viewBox="0 0 91.686779 8.155575"
   version="1.1"
   id="svg1"
   xml:space="preserve"
   xmlns="http://www.w3.org/2000/svg"
   xmlns:svg="http://www.w3.org/2000/svg"><defs
     id="defs1" /><g
     id="g1371"
     transform="translate(-1734.4439,-3388.7586)"><path
       d="m 1738.7888,3394.6954 q 0,-0.4197 -0.2998,-0.6542 -0.2944,-0.2344 -1.0412,-0.4852 -0.7469,-0.2507 -1.2212,-0.4851 -1.5428,-0.7578 -1.5428,-2.0825 0,-0.6597 0.3816,-1.1612 0.3871,-0.507 1.0903,-0.785 0.7033,-0.2835 1.581,-0.2835 0.8559,0 1.5319,0.3053 0.6814,0.3052 1.0576,0.8722 0.3761,0.5615 0.3761,1.2866 h -1.908 q 0,-0.4852 -0.2998,-0.7523 -0.2944,-0.2672 -0.8014,-0.2672 -0.5125,0 -0.8123,0.229 -0.2944,0.2235 -0.2944,0.5724 0,0.3053 0.3271,0.5561 0.3271,0.2453 1.1503,0.5124 0.8232,0.2617 1.352,0.567 1.2865,0.7414 1.2865,2.0443 0,1.0413 -0.785,1.6355 -0.785,0.5942 -2.1534,0.5942 -0.9649,0 -1.7499,-0.3434 -0.7796,-0.3489 -1.1775,-0.9486 -0.3926,-0.6051 -0.3926,-1.3902 h 1.919 q 0,0.6379 0.3271,0.9432 0.3325,0.2998 1.0739,0.2998 0.4743,0 0.7469,-0.2017 0.278,-0.2072 0.278,-0.5779 z m 9.2843,-5.8277 v 5.1953 q 0,0.8832 -0.3762,1.5319 -0.3762,0.6433 -1.0794,0.9813 -0.7033,0.338 -1.6627,0.338 -1.4502,0 -2.2842,-0.7523 -0.8341,-0.7523 -0.8505,-2.0607 v -5.2335 h 1.9244 v 5.2717 q 0.033,1.3029 1.2103,1.3029 0.5942,0 0.8995,-0.3271 0.3053,-0.3271 0.3053,-1.0631 v -5.1844 z m 3.2711,5.2444 v 2.6931 h -1.9135 v -7.9375 h 3.1674 q 0.9104,0 1.6082,0.338 0.7031,0.3325 1.0848,0.954 0.3871,0.616 0.3871,1.4011 0,1.1612 -0.8341,1.859 -0.8287,0.6923 -2.2789,0.6923 z m 0,-1.4774 h 1.2539 q 0.556,0 0.845,-0.278 0.2943,-0.278 0.2943,-0.785 0,-0.5561 -0.2998,-0.8886 -0.2998,-0.3326 -0.8177,-0.338 h -1.2757 z m 10.4399,0.8069 h -3.0092 v 1.8917 h 3.5544 v 1.4719 h -5.4679 v -7.9375 h 5.4788 v 1.4774 h -3.5653 v 1.6736 h 3.0092 z m 4.4378,0.5615 h -1.0358 v 2.8021 h -1.9135 v -7.9375 h 3.1238 q 1.4119,0 2.2079,0.6269 0.7959,0.627 0.7959,1.7718 0,0.8286 -0.338,1.3738 -0.3326,0.5451 -1.0467,0.8831 l 1.6573,3.2001 v 0.082 h -2.0498 z m -1.0358,-1.4774 h 1.2103 q 0.5451,0 0.8177,-0.2835 0.278,-0.2889 0.278,-0.8014 0,-0.5124 -0.278,-0.8013 -0.278,-0.2944 -0.8177,-0.2944 h -1.2103 z m 13.4767,1.1176 h -3.0857 v 3.1619 h -1.9135 v -7.9375 h 5.3098 v 1.4774 h -3.3963 v 1.8262 h 3.0856 z m 7.9921,-0.6433 q 0,1.1612 -0.4306,2.0552 -0.4307,0.8941 -1.2266,1.3793 -0.7905,0.4797 -1.8044,0.4797 -1.014,0 -1.7991,-0.4634 -0.785,-0.4688 -1.2266,-1.3356 -0.4361,-0.8668 -0.4579,-1.9898 v -0.4471 q 0,-1.1666 0.4252,-2.0552 0.4306,-0.8941 1.2265,-1.3792 0.8015,-0.4852 1.8208,-0.4852 1.0086,0 1.7991,0.4797 0.7904,0.4797 1.2266,1.3683 0.4415,0.8832 0.447,2.028 z m -1.9462,-0.3326 q 0,-1.1829 -0.398,-1.7935 -0.3924,-0.6161 -1.1285,-0.6161 -1.4392,0 -1.5209,2.1589 l -0.01,0.5833 q 0,1.1666 0.3871,1.7935 0.387,0.627 1.1503,0.627 0.725,0 1.1175,-0.616 0.3925,-0.6161 0.398,-1.7718 z m 6.046,1.3357 h -1.0358 v 2.8021 h -1.9135 v -7.9375 h 3.1237 q 1.412,0 2.2079,0.6269 0.7959,0.627 0.7959,1.7718 0,0.8286 -0.3379,1.3738 -0.3325,0.5451 -1.0468,0.8831 l 1.6574,3.2001 v 0.082 h -2.0499 z m -1.0358,-1.4774 h 1.2102 q 0.5452,0 0.8178,-0.2835 0.278,-0.2889 0.278,-0.8014 0,-0.5124 -0.278,-0.8013 -0.2781,-0.2944 -0.8178,-0.2944 h -1.2102 z m 8.0467,-3.658 1.7717,5.5224 1.7664,-5.5224 h 2.5187 v 7.9375 h -1.9191 v -1.8536 l 0.1854,-3.7942 -1.919,5.6478 h -1.2647 l -1.9244,-5.6533 0.1853,3.7997 v 1.8536 h -1.9135 v -7.9375 z m 13.6619,0 v 5.1953 q 0,0.8832 -0.3761,1.5319 -0.3762,0.6433 -1.0795,0.9813 -0.7032,0.338 -1.6628,0.338 -1.4501,0 -2.2842,-0.7523 -0.8341,-0.7523 -0.8504,-2.0607 v -5.2335 h 1.9244 v 5.2717 q 0.033,1.3029 1.2102,1.3029 0.5942,0 0.8995,-0.3271 0.3053,-0.3271 0.3053,-1.0631 v -5.1844 z m 3.2711,6.4656 h 3.3309 v 1.4719 h -5.2444 v -7.9375 h 1.9135 z m 8.9136,-0.011 h -2.6222 l -0.4581,1.4828 h -2.0443 l 2.9111,-7.9375 h 1.799 l 2.933,7.9375 h -2.0553 z m -2.1643,-1.4774 h 1.7063 l -0.8559,-2.7531 z"
       id="text1380"
       style="font-weight:900;font-size:11.1648px;line-height:0.9;font-family:Roboto;-inkscape-font-specification:'Roboto, Heavy';font-variant-ligatures:none;letter-spacing:0.163752px;word-spacing:0px;fill:#ffffff;stroke-width:0;stroke-linecap:round;stroke-linejoin:round;stroke-miterlimit:5"
       aria-label="SUPER FORMULA " /></g></svg>
