<?xml version="1.0" encoding="UTF-8" standalone="no"?>
<!-- Created with Inkscape (http://www.inkscape.org/) -->

<svg
   width="226.19922"
   height="31.210936"
   viewBox="0 0 59.848542 8.2578934"
   version="1.1"
   id="svg1"
   xml:space="preserve"
   xmlns="http://www.w3.org/2000/svg"
   xmlns:svg="http://www.w3.org/2000/svg"><defs
     id="defs1" /><path
     d="m 6.7861388,5.5963432 q 0,1.172 -0.9969,1.908 -0.9915,0.73 -2.6973,0.73 -0.9862,0 -1.7219,-0.17 -0.73029995,-0.176 -1.36999995008,-0.443 v -1.903 H 0.22393885 q 0.6344,0.507 1.41799995,0.779 0.7889,0.271 1.5139,0.271 0.1866,0 0.4905,-0.03 0.3038,-0.03 0.4957,-0.107 0.2346,-0.1 0.3838,-0.24 0.1546,-0.144 0.1546,-0.426 0,-0.262 -0.2239,-0.448 -0.2185,-0.192 -0.645,-0.293 -0.4478,-0.107 -0.9489,-0.198 -0.4957,-0.1 -0.9329,-0.24 -1.00209995,-0.325 -1.44459995,-0.879 -0.4371,-0.56 -0.4371,-1.386 0,-1.109 0.99149995,-1.80700001 0.9969,-0.704 2.5588,-0.704 0.7836,0 1.5459,0.155 0.7676,0.149 1.3273,0.378 V 2.3723432 h -0.2185 q -0.4798,-0.384 -1.1781,-0.64 -0.693,-0.261 -1.418,-0.261 -0.2559,0 -0.5117,0.04 -0.2506,0.03 -0.4851,0.128 -0.2079,0.08 -0.3572,0.245 -0.1493,0.16 -0.1493,0.368 0,0.315 0.2399,0.485 0.2399,0.165 0.9063,0.304 0.4371,0.09 0.8369,0.176 0.4051,0.09 0.8689,0.234 0.9116,0.299 1.3434,0.816 0.4371,0.512 0.4371,1.333 z m 8.3533002,-0.379 q 0,1.472 -0.8956,2.255 -0.8956,0.784 -2.6387,0.784 -1.7432002,0 -2.6387002,-0.784 -0.8903,-0.783 -0.8903,-2.249 V 0.15334319 H 10.133839 V 5.1053432 q 0,0.827 0.3465,1.232 0.3465,0.405 1.1248,0.405 0.7676,0 1.1194,-0.389 0.3572,-0.389 0.3572,-1.248 V 0.15334319 h 2.0577 z m 8.4652,-2.559 q 0,0.534 -0.1866,1.045 -0.1865,0.507 -0.533,0.853 -0.4745,0.469 -1.0609,0.709 -0.581,0.24 -1.4499,0.24 h -1.2741 v 2.586 h -2.047 V 0.15334319 h 3.3691 q 0.7569,0 1.274,0.133 0.5224,0.128 0.9222,0.389 0.4798,0.315 0.7303,0.80500001 0.2559,0.491 0.2559,1.178 z m -2.1163,0.05 q 0,-0.335 -0.1812,-0.575 -0.1813,-0.245 -0.4212,-0.341 -0.3198,-0.128 -0.6237,-0.139 -0.3038,-0.02 -0.8102,-0.02 h -0.3519 v 2.377 h 0.5864 q 0.5224,0 0.8583,-0.06 0.3411,-0.06 0.5704,-0.256 0.1972,-0.171 0.2825,-0.405 0.091,-0.24 0.091,-0.582 z m 9.3075,5.385 h -5.7412 V 0.15534319 h 5.7412 V 1.6903432 h -3.7049 v 1.37 h 3.4384 v 1.536 h -3.4384 v 1.961 h 3.7049 z m 6.1677,-5.507 q 0,-0.299 -0.1226,-0.512 -0.1226,-0.213 -0.4211,-0.336 -0.2079,-0.09 -0.4851,-0.101 -0.2772,-0.02 -0.645,-0.02 h -0.741 v 2.137 h 0.629 q 0.4904,0 0.8209,-0.05 0.3306,-0.05 0.5544,-0.218 0.2133,-0.166 0.3092,-0.363 0.1013,-0.202 0.1013,-0.538 z m 3.1931,5.507 h -2.5001 l -2.1643,-2.911 h -0.9435 v 2.911 h -2.0364 V 0.15534319 h 3.433 q 0.7037,0 1.2101,0.08 0.5064,0.08 0.9489,0.346 0.4478,0.267 0.709,0.69300001 0.2665,0.422 0.2665,1.061 0,0.88 -0.4104,1.434 -0.4052,0.555 -1.1621,0.922 z m 11.6477,-0.454 q -0.533,0.208 -1.4126,0.416 -0.8796,0.203 -1.7538,0.203 -2.0257,0 -3.1718,-1.098 -1.1461,-1.104 -1.1461,-3.044 0,-1.85 1.1567,-2.98 1.1568,-1.13600001218 3.2251,-1.13600001218 0.7837,0 1.4927,0.14400000218 0.709,0.139 1.5779,0.56 V 2.5653432 h -0.2293 q -0.1492,-0.112 -0.4371,-0.315 -0.2878,-0.208 -0.5544,-0.352 -0.3092,-0.17 -0.725,-0.293 -0.4104,-0.123 -0.8742,-0.123 -0.5437,0 -0.9862,0.16 -0.4425,0.16 -0.7943,0.491 -0.3358,0.32 -0.5331,0.815 -0.1919,0.491 -0.1919,1.136 0,1.316 0.6984,2.015 0.6983,0.698 2.063,0.698 0.1173,0 0.2559,0 0.1439,0 0.2612,-0.02 v -1.557 h -1.5833 v -1.498 h 3.6622 z m 8.0442,-5.949 h -2.4788 v 6.403 h -2.047 v -6.403 h -2.4788 V 0.15534319 h 7.0046 z"
     id="text2373"
     style="font-weight:bold;font-size:10.9174px;line-height:0.9;font-family:Verdana;-inkscape-font-specification:'Verdana, Bold';font-variant-ligatures:none;letter-spacing:0px;word-spacing:0px;fill:#ffffff;stroke-width:0.487111;stroke-linecap:round"
     aria-label="SUPER GT" /></svg>
