<?xml version="1.0" encoding="UTF-8" standalone="no"?>
<!-- Created with Inkscape (http://www.inkscape.org/) -->

<svg
   width="285.97803"
   height="30.574219"
   viewBox="0 0 75.665018 8.0894287"
   version="1.1"
   id="svg1"
   xml:space="preserve"
   xmlns="http://www.w3.org/2000/svg"
   xmlns:svg="http://www.w3.org/2000/svg"><defs
     id="defs1" /><path
     d="m 2.389214,7.9326173 v -6.034 H 1.4009522e-5 V 0.15461729 H 6.967614 V 1.8986173 h -2.3781 v 6.034 z m 7.4232,-4.767 h 3.6115 v 1.645 h -3.6115 z m 0.1555,3.067 h 4.0672 v 1.7 h -6.2452 V 0.15461729 h 6.1008 V 1.8546173 h -3.9228 z m 5.2896,1.7 V 0.15461729 h 1.8113 l 3.2227,5.28900001 h -0.9557 l 3.1337,-5.28900001 h 1.8113 l 0.022,7.77800001 h -2.0225 l -0.022,-4.7 h 0.3445 l -2.3448,3.934 h -0.9779 l -2.4114,-3.934 h 0.4223 v 4.7 z m 10.6013,0 V 0.15461729 h 3.556 q 1.0668,0 1.8336,0.344 0.7779,0.345 1.2001,1.00000001 0.4223,0.645 0.4223,1.534 0,0.878 -0.4223,1.522 -0.4222,0.645 -1.2001,1 -0.7668,0.345 -1.8336,0.345 h -2.3336 l 0.9779,-0.956 v 2.989 z m 2.2003,-2.756 -0.9779,-1.011 h 2.2003 q 0.689,0 1.0223,-0.3 0.3445,-0.3 0.3445,-0.833 0,-0.545 -0.3445,-0.845 -0.3333,-0.3 -1.0223,-0.3 h -2.2003 l 0.9779,-1.01100001 z m 9.9124,2.912 q -0.9335,0 -1.7225,-0.3 -0.789,-0.3 -1.3779,-0.845 -0.5779,-0.555 -0.9001,-1.289 -0.3223,-0.733 -0.3223,-1.611 0,-0.878 0.3223,-1.611 0.3222,-0.734 0.9001,-1.278 0.5889,-0.55600001 1.3779,-0.85600001 0.789,-0.3 1.7225,-0.3 0.9445,0 1.7224,0.3 0.789,0.3 1.3668,0.85600001 0.5779,0.544 0.9001,1.278 0.3334,0.733 0.3334,1.611 0,0.878 -0.3334,1.622 -0.3222,0.734 -0.9001,1.278 -0.5778,0.545 -1.3668,0.845 -0.7779,0.3 -1.7224,0.3 z m 0,-1.823 q 0.4445,0 0.8223,-0.155 0.3889,-0.156 0.6667,-0.445 0.289,-0.3 0.4445,-0.711 0.1667,-0.411 0.1667,-0.911 0,-0.511 -0.1667,-0.911 -0.1555,-0.411 -0.4445,-0.7 -0.2778,-0.3 -0.6667,-0.456 -0.3778,-0.156 -0.8223,-0.156 -0.4445,0 -0.8335,0.156 -0.3778,0.156 -0.6667,0.456 -0.2778,0.289 -0.4445,0.7 -0.1556,0.4 -0.1556,0.911 0,0.5 0.1556,0.911 0.1667,0.411 0.4445,0.711 0.2889,0.289 0.6667,0.445 0.389,0.155 0.8335,0.155 z m 5.4784,1.667 V 0.15461729 h 3.556 q 1.0668,0 1.8336,0.344 0.7779,0.345 1.2001,1.00000001 0.4223,0.645 0.4223,1.534 0,0.878 -0.4223,1.522 -0.4222,0.634 -1.2001,0.978 -0.7668,0.333 -1.8336,0.333 h -2.3336 l 0.9779,-0.922 v 2.989 z m 4.8117,0 -1.9335,-2.833 h 2.3447 l 1.9447,2.833 z m -2.6114,-2.756 -0.9779,-1.011 h 2.2003 q 0.6889,0 1.0223,-0.3 0.3445,-0.3 0.3445,-0.833 0,-0.545 -0.3445,-0.845 -0.3334,-0.3 -1.0223,-0.3 h -2.2003 l 0.9779,-1.01100001 z m 5.0895,2.756 3.4338,-7.77800001 h 2.1669 l 3.4449,7.77800001 h -2.2892 l -2.6892,-6.701 h 0.8668 l -2.6893,6.701 z m 1.878,-1.511 0.5668,-1.622 h 3.8004 l 0.5668,1.622 z m 7.7899,1.511 V 0.15461729 h 3.556 q 1.0668,0 1.8335,0.344 0.7779,0.345 1.2002,1.00000001 0.4223,0.645 0.4223,1.534 0,0.878 -0.4223,1.522 -0.4223,0.634 -1.2002,0.978 -0.7667,0.333 -1.8335,0.333 h -2.3336 l 0.9779,-0.922 v 2.989 z m 4.8117,0 -1.9336,-2.833 h 2.3448 l 1.9446,2.833 z m -2.6114,-2.756 -0.9779,-1.011 h 2.2002 q 0.689,0 1.0224,-0.3 0.3445,-0.3 0.3445,-0.833 0,-0.545 -0.3445,-0.845 -0.3334,-0.3 -1.0224,-0.3 h -2.2002 l 0.9779,-1.01100001 z m 7.8787,2.756 v -3.289 l 0.5112,1.322 -3.4782,-5.81100001 h 2.3225 l 2.5114,4.21100001 h -1.3446 l 2.5225,-4.21100001 h 2.1336 l -3.4671,5.81100001 0.489,-1.322 v 3.289 z"
     id="text2571"
     style="font-weight:800;font-size:11.1125px;line-height:0.9;font-family:Montserrat;-inkscape-font-specification:'Montserrat, Ultra-Bold';font-variant-ligatures:none;letter-spacing:0px;word-spacing:0px;fill:#ffffff;stroke-width:0.515132;stroke-linecap:round"
     aria-label="TEMPORARY" /></svg>
