<?xml version="1.0" encoding="UTF-8" standalone="no"?>
<!-- Created with Inkscape (http://www.inkscape.org/) -->

<svg
   width="294.97949"
   height="30.601562"
   viewBox="0 0 78.046656 8.0966634"
   version="1.1"
   id="svg1"
   xml:space="preserve"
   xmlns="http://www.w3.org/2000/svg"
   xmlns:svg="http://www.w3.org/2000/svg"><defs
     id="defs1" /><g
     id="g405"
     transform="translate(-1790.2542,-3380.7704)"><path
       d="m 1795.2547,3380.8893 v 1.5717 h -1.6312 v 6.2864 h -1.7383 v -6.2864 h -1.6311 v -1.5717 z m 3.4108,7.9772 q -1.2621,0 -2.0479,-0.9763 -0.7739,-0.9882 -0.7739,-3.179 0,-2.1431 0.7501,-3.0361 0.7501,-0.9048 2.0717,-0.9048 1.3216,0 2.0716,0.9048 0.7501,0.893 0.7501,3.0361 0,2.1908 -0.7858,3.179 -0.7739,0.9763 -2.0359,0.9763 z m 0,-1.524 q 1.0715,0 1.0715,-2.6075 0,-1.3335 -0.2738,-1.8692 -0.2739,-0.5358 -0.7977,-0.5358 -0.5239,0 -0.7978,0.5358 -0.2738,0.5357 -0.2738,1.8692 0,2.6075 1.0716,2.6075 z m 6.7683,1.524 q -1.3335,0 -2.0121,-0.7025 -0.6787,-0.7024 -0.6787,-2.0597 v -5.215 h 1.7978 v 5.2388 q 0,1.0953 0.893,1.0953 0.9049,0 0.9049,-1.0953 v -5.2388 h 1.7264 v 5.2388 q 0,2.7384 -2.6313,2.7384 z m 7.6494,-3.8933 1.4526,3.7742 h -1.8455 l -1.4764,-4.1195 v 4.1195 h -1.6906 v -7.8581 h 2.5479 q 1.1668,0 1.8454,0.5239 0.6787,0.5239 0.6787,1.5716 0,0.8216 -0.3929,1.3216 -0.381,0.5001 -1.0716,0.6549 z m -1.0358,-1.0716 q 0.881,0 0.881,-0.7858 0,-0.4167 -0.2262,-0.5953 -0.2262,-0.1786 -0.6548,-0.1786 h -0.8335 v 1.5597 z m 7.8098,-3.0123 q 1.7978,0 2.7027,0.8216 0.9167,0.8096 0.9167,2.786 v 0.2381 q 0,2.2027 -0.9048,3.1076 -0.9049,0.9048 -2.6551,0.9048 h -1.6312 v -7.8581 z m 0.4405,6.3699 q 0.6905,0 1.0715,-0.5358 0.3929,-0.5477 0.3929,-2.0479 v -0.1786 q 0,-1.2263 -0.3929,-1.6668 -0.3929,-0.4525 -1.143,-0.4525 h -0.25 v 4.8816 z m 8.6495,-4.7982 h -2.4765 v 1.524 h 2.3455 v 1.5716 h -2.3455 v 1.6192 h 2.4765 v 1.5716 h -4.2148 v -7.8581 h 4.2148 z m 7.7502,0.036 h -2.286 v 1.4883 h 2.286 v 1.5478 h -2.286 v 3.2146 h -1.7383 v -7.8581 h 4.0243 z m 4.78,2.4765 1.4526,3.7742 h -1.8455 l -1.4764,-4.1195 v 4.1195 h -1.6906 v -7.8581 h 2.5479 q 1.1668,0 1.8455,0.5239 0.6786,0.5239 0.6786,1.5716 0,0.8216 -0.3929,1.3216 -0.381,0.5001 -1.0715,0.6549 z m -1.0358,-1.0716 q 0.881,0 0.881,-0.7858 0,-0.4167 -0.2262,-0.5953 -0.2262,-0.1786 -0.6548,-0.1786 h -0.8335 v 1.5597 z m 7.7327,4.8458 -0.4881,-2.5717 h -1.6193 l -0.5119,2.5717 h -1.6431 l 1.5716,-7.8581 h 2.798 l 1.5954,7.8581 z m -1.8097,-4.0838 h 1.0358 l -0.5119,-2.667 z m 9.3163,-3.7743 h 1.6192 v 7.8581 h -2.9527 l -1.6907,-6.7627 v 6.7627 h -1.6193 v -7.8581 h 2.9528 l 1.6907,6.7628 z m 5.8872,7.9772 q -0.8691,0 -1.5478,-0.4405 -0.6667,-0.4525 -1.0596,-1.3812 -0.3929,-0.9405 -0.3929,-2.3455 0,-2.024 0.8453,-2.9765 0.8573,-0.9525 2.2027,-0.9525 0.3929,0 0.7143,0.095 0.3334,0.083 0.5596,0.2262 v 1.7026 q -0.3929,-0.3333 -0.9406,-0.3333 -0.762,0 -1.1906,0.5238 -0.4167,0.512 -0.4167,1.7621 0,1.274 0.4167,1.8574 0.4167,0.5834 1.143,0.5834 0.3096,0 0.5239,-0.071 0.2143,-0.072 0.4286,-0.2262 v 1.5597 q -0.1667,0.2024 -0.5239,0.3095 -0.3452,0.1072 -0.762,0.1072 z m 6.7327,-6.4055 h -2.4765 v 1.524 h 2.3455 v 1.5716 h -2.3455 v 1.6192 h 2.4765 v 1.5716 h -4.2148 v -7.8581 h 4.2148 z"
       id="text1176"
       style="font-weight:800;font-stretch:semi-condensed;font-size:11.9062px;line-height:0.9;font-family:Galibier;-inkscape-font-specification:'Galibier, Ultra-Bold Semi-Condensed';font-variant-ligatures:none;letter-spacing:0.267548px;word-spacing:0px;fill:#ffffff;stroke-width:0.608065;stroke-miterlimit:5"
       aria-label="TOUR DE FRANCE" /></g></svg>
