<?xml version="1.0" encoding="UTF-8" standalone="no"?>
<!-- Created with Inkscape (http://www.inkscape.org/) -->

<svg
   width="97.030762"
   height="30"
   viewBox="0 0 25.672722 7.9375"
   version="1.1"
   id="svg1"
   xml:space="preserve"
   xmlns="http://www.w3.org/2000/svg"
   xmlns:svg="http://www.w3.org/2000/svg"><defs
     id="defs1" /><g
     id="layer18"
     transform="translate(-1749.4115,-7852.1713)"><g
       id="g6312"
       transform="matrix(0.55686123,0,0,0.55686123,1748.9073,7849.5929)"><path
         d="M 40.548,5.053 C 40.012,5.057 39.345,5.047 39.058,5.798 38.763,6.524 34.69,18.752 34.69,18.752 h 2.6 l 3.19,-9.452 1.744,4.508 h -1.397 l -0.89,2.573 3.204,-0.006 0.958,2.374 2.909,0.004 C 45.343,14.491 41.93,5.796 41.93,5.796 41.56,5.051 41.083,5.049 40.547,5.053 Z"
         id="path6306"
         style="fill:#ffffff" /><path
         d="m 35.551,4.987 c 0,0 -3.305,0.012 -4.957,0 -0.628,0 -1.26,0.052 -1.87,0.226 -1.39,0.34 -2.438,1.741 -2.53,3.327 -0.294,2.966 -0.147,8.656 -0.147,8.656 -0.026,0.578 -0.015,1.368 0.592,1.565 0.672,0.176 1.37,0.053 2.053,0.084 l 0.054,-5.674 6.126,0.09 0.02,-2.528 -6.129,-0.078 c 0.023,-0.85 -0.103,-1.77 0.25,-2.558 0.363,-0.623 1.1,-0.62 1.692,-0.63 1.61,0.015 4.83,0.055 4.83,0.055 l 0.016,-2.536 z"
         id="path6308"
         style="fill:#ffffff" /><path
         d="m 24.354,4.877 c 0,0 -5.63,-0.003 -8.447,0.003 -0.531,-0.022 -0.996,0.488 -0.968,1.09 -0.02,2.97 -0.04,5.943 -0.046,8.916 -0.019,1.106 0.364,2.252 1.16,2.94 0.93,0.822 2.16,0.986 3.307,1.017 1.622,0.01 3.244,0.024 4.864,0.041 l 0.024,-2.57 c -1.682,-0.028 -3.366,-0.04 -5.049,-0.069 -0.523,-0.02 -1.177,-0.102 -1.446,-0.686 -0.316,-0.774 -0.154,-1.65 -0.192,-2.472 l 6.133,0.053 0.047,-2.506 -6.132,-0.07 0.023,-3.126 6.72,0.015 z"
         id="path6310"
         style="fill:#ffffff" /><path
         d="m 0.976,4.631 c -0.03,2.773 -0.049,5.545 -0.07,8.319 -0.017,1.33 0.355,2.698 1.17,3.688 0.923,1.166 2.265,1.849 3.638,2.015 1.765,0.224 3.69,-0.094 5.113,-1.366 1.09,-0.923 1.721,-2.428 1.733,-3.95 0.038,-2.822 0.047,-5.878 0.082,-8.702 h -2.627 c 0,0 -0.053,5.597 -0.12,8.293 C 9.883,13.972 9.413,15.071 8.54,15.531 7.204,16.287 5.387,16.179 4.298,14.947 3.738,14.325 3.571,13.41 3.583,12.553 A 1228.7,1228.7 0 0 1 3.6,4.637 L 0.976,4.63 Z"
         id="path6312"
         style="fill:#ffffff" /></g></g></svg>
