<?xml version="1.0" encoding="UTF-8" standalone="no"?>
<!-- Created with Inkscape (http://www.inkscape.org/) -->

<svg
   width="236.07666"
   height="30.412109"
   viewBox="0 0 62.461948 8.0465373"
   version="1.1"
   id="svg1"
   xml:space="preserve"
   xmlns="http://www.w3.org/2000/svg"
   xmlns:svg="http://www.w3.org/2000/svg"><defs
     id="defs1" /><g
     id="layer3"
     transform="translate(-1724.4924,-3370.3462)"><path
       d="m 1727.8006,3378.3928 q -1.5777,0 -2.4457,-0.7533 -0.8625,-0.7588 -0.8625,-2.2492 v -4.935 h 1.8997 v 4.935 q 0,0.7043 0.3221,1.0482 0.3276,0.3384 1.0864,0.3384 h 0.027 q 0.7643,0 1.0918,-0.3384 0.3275,-0.3439 0.3275,-1.0482 v -4.935 h 1.8998 v 4.935 q 0,1.4904 -0.868,2.2492 -0.868,0.7533 -2.4511,0.7533 z m 6.907,-1.7305 h 3.805 v 1.6213 h -5.7048 v -7.8283 h 5.7048 v 1.6214 h -3.805 v 1.4193 h 3.6903 v 1.6214 h -3.6903 z m 7.2072,-2.8496 h 3.4556 v 1.6213 h -3.4556 v 2.8496 h -1.8998 v -7.8283 h 5.4701 v 1.6214 h -3.5703 z m 6.7487,1.2719 h 1.7087 l -0.8134,-2.8824 h -0.055 z m -2.8933,3.199 2.4456,-7.8283 h 2.604 l 2.4511,7.8283 h -1.9598 l -0.4804,-1.6431 h -2.6258 l -0.4804,1.6431 z m 12.7712,-1.6213 h 3.805 v 1.6213 h -5.7047 v -7.8283 h 5.7047 v 1.6214 h -3.805 v 1.4193 h 3.6904 v 1.6214 h -3.6904 z m 8.6157,1.7305 q -1.5776,0 -2.4456,-0.7533 -0.8626,-0.7588 -0.8626,-2.2492 v -4.935 h 1.8998 v 4.935 q 0,0.7043 0.3221,1.0482 0.3275,0.3384 1.0863,0.3384 h 0.027 q 0.7643,0 1.0919,-0.3384 0.3275,-0.3439 0.3275,-1.0482 v -4.935 h 1.8998 v 4.935 q 0,1.4904 -0.868,2.2492 -0.868,0.7533 -2.4512,0.7533 z m 5.0073,-0.1092 v -7.8283 h 3.532 q 1.2774,0 2.0089,0.666 0.7315,0.6606 0.7315,1.7415 v 0.098 q 0,0.7261 -0.333,1.2502 -0.3275,0.5186 -0.9608,0.797 v 0.055 q 1.2065,1.2774 1.8889,3.2208 h -2.0362 q -0.546,-1.5885 -1.8015,-2.9206 h -1.1301 v 2.9206 z m 1.8997,-4.4382 h 1.4358 q 0.4585,0 0.726,-0.2238 0.2675,-0.2238 0.2675,-0.6496 v -0.022 q 0,-0.4258 -0.2675,-0.6551 -0.2675,-0.2293 -0.726,-0.2293 h -1.4358 z m 9.2599,4.5474 q -1.1847,0 -2.009,-0.4913 -0.8188,-0.4968 -1.2119,-1.3648 -0.393,-0.868 -0.393,-2.0526 v -0.2238 q 0,-0.8844 0.2238,-1.5995 0.2293,-0.7152 0.6715,-1.2338 0.4421,-0.5186 1.13,-0.797 0.6933,-0.2839 1.5886,-0.2839 h 0.022 q 0.8953,0 1.5831,0.2839 0.6933,0.2784 1.13,0.797 0.4422,0.5186 0.666,1.2338 0.2293,0.7151 0.2293,1.5995 v 0.2238 q 0,0.8844 -0.2293,1.5995 -0.2238,0.7097 -0.666,1.2283 -0.4367,0.5186 -1.13,0.8025 -0.6878,0.2784 -1.5831,0.2784 z m -1.6651,-3.9578 q 0,1.1737 0.3931,1.7578 0.3985,0.5841 1.272,0.5841 h 0.022 q 0.8734,0 1.2665,-0.5841 0.3985,-0.5841 0.3985,-1.7578 v -0.131 q 0,-1.1792 -0.3931,-1.7579 -0.393,-0.5786 -1.2719,-0.5786 h -0.022 q -0.8789,0 -1.272,0.5786 -0.3931,0.5787 -0.3931,1.7579 z"
       id="text891"
       style="font-weight:800;font-size:11.1802px;line-height:0.9;font-family:'UEFA Euro';-inkscape-font-specification:'UEFA Euro, Ultra-Bold';font-variant-ligatures:none;letter-spacing:0.246907px;word-spacing:0px;fill:#ffffff;stroke-width:0.561154;stroke-miterlimit:5"
       aria-label="UEFA EURO" /></g></svg>
