<?xml version="1.0" encoding="UTF-8" standalone="no"?>
<!-- Created with Inkscape (http://www.inkscape.org/) -->

<svg
   width="496.33398"
   height="31.200195"
   viewBox="0 0 131.3217 8.2550517"
   version="1.1"
   id="svg1"
   xml:space="preserve"
   xmlns="http://www.w3.org/2000/svg"
   xmlns:svg="http://www.w3.org/2000/svg"><defs
     id="defs1" /><g
     id="g1317"
     transform="translate(-1714.6264,-3335.9497)"><path
       style="font-weight:900;font-size:11.5032px;line-height:0.9;font-family:ModernaW01-Black;-inkscape-font-specification:'ModernaW01-Black, Heavy';font-variant-ligatures:none;letter-spacing:0.185208px;word-spacing:0px;fill:#ffffff;stroke-width:0.590425;stroke-miterlimit:5"
       d="m 1714.6265,3336.1085 h 2.0072 l 1.9255,5.681 1.8321,-5.681 h 1.8554 l 1.8555,5.6696 1.9021,-5.6696 h 2.0072 l -3.0224,7.9375 h -1.8322 l -1.8555,-5.3861 -1.8204,5.3861 h -1.8321 z m 14.0629,2.4719 c 0,-0.4081 0.097,-0.7748 0.2918,-1.0999 0.2023,-0.325 0.4745,-0.6009 0.8168,-0.8277 0.3423,-0.2268 0.743,-0.4007 1.2021,-0.5216 0.459,-0.1209 0.9491,-0.1814 1.4703,-0.1814 0.5212,0 1.0074,0.061 1.4587,0.1814 0.459,0.1209 0.8596,0.2948 1.2019,0.5216 0.3423,0.2268 0.6107,0.5027 0.8052,0.8277 0.2023,0.3251 0.3034,0.6918 0.3034,1.0999 v 2.9823 c 0,0.4083 -0.1011,0.7749 -0.3034,1.0999 -0.1945,0.3251 -0.4629,0.6048 -0.8052,0.8391 -0.3423,0.2268 -0.7429,0.4007 -1.2019,0.5216 -0.4513,0.1209 -0.9375,0.1814 -1.4587,0.1814 -0.5212,0 -1.0113,-0.06 -1.4703,-0.1814 -0.4591,-0.1209 -0.8598,-0.2948 -1.2021,-0.5216 -0.3423,-0.2343 -0.6145,-0.514 -0.8168,-0.8391 -0.1945,-0.325 -0.2918,-0.6916 -0.2918,-1.0999 z m 1.8671,2.8462 c 0,0.1965 0.051,0.3704 0.1518,0.5216 0.1011,0.1513 0.2373,0.2798 0.4084,0.3856 0.1712,0.098 0.3735,0.1738 0.6069,0.2268 0.2334,0.053 0.4823,0.08 0.7468,0.08 0.2645,0 0.5096,-0.027 0.7352,-0.08 0.2334,-0.053 0.4356,-0.1289 0.6067,-0.2268 0.1712,-0.1058 0.3073,-0.2343 0.4084,-0.3856 0.1012,-0.1512 0.1518,-0.3251 0.1518,-0.5216 v -2.71 c 0,-0.1966 -0.051,-0.3705 -0.1518,-0.5217 -0.1011,-0.1511 -0.2372,-0.2759 -0.4084,-0.3742 -0.1711,-0.1058 -0.3733,-0.1852 -0.6067,-0.2381 -0.2256,-0.053 -0.4707,-0.08 -0.7352,-0.08 -0.2645,0 -0.5134,0.027 -0.7468,0.08 -0.2334,0.053 -0.4357,0.1327 -0.6069,0.2381 -0.1711,0.098 -0.3073,0.2231 -0.4084,0.3742 -0.1012,0.1512 -0.1518,0.3251 -0.1518,0.5217 z m 9.3952,2.6194 h -1.8554 v -7.9375 h 3.8392 c 0.529,0 1.0036,0.057 1.4237,0.1701 0.4201,0.1058 0.778,0.2683 1.0736,0.4876 0.2956,0.2117 0.5212,0.4763 0.6768,0.7938 0.1634,0.3099 0.2451,0.669 0.2451,1.0772 v 0.4082 c 0,0.5141 -0.1673,0.9676 -0.5018,1.3607 -0.3267,0.3855 -0.8052,0.6577 -1.4354,0.8164 l 2.2756,2.8235 h -2.3689 l -2.2172,-2.8235 v -1.1792 h 0.8285 c 0.5135,0 0.9024,-0.091 1.1669,-0.2722 0.2646,-0.1815 0.3969,-0.465 0.3969,-0.8505 v -0.1474 c 0,-0.3855 -0.1323,-0.6652 -0.3969,-0.839 -0.2645,-0.1739 -0.6534,-0.2609 -1.1669,-0.2609 h -1.9838 z m 7.2479,-7.9375 h 1.8554 v 6.3841 h 4.3411 v 1.5534 h -6.1965 z m 7.4463,0 h 3.8277 c 0.529,0 1.0036,0.064 1.4237,0.1928 0.4278,0.1209 0.7895,0.2948 1.0852,0.5216 0.2956,0.2267 0.5212,0.5027 0.6768,0.8278 0.1634,0.325 0.2451,0.6878 0.2451,1.0885 v 2.676 c 0,0.4007 -0.082,0.7636 -0.2451,1.0887 -0.1556,0.3251 -0.3812,0.601 -0.6768,0.8277 -0.2957,0.2268 -0.6574,0.4044 -1.0852,0.5329 -0.4201,0.121 -0.8947,0.1815 -1.4237,0.1815 h -3.8277 z m 3.8277,6.3841 c 0.5134,0 0.9024,-0.1021 1.1669,-0.3062 0.2723,-0.2041 0.4084,-0.5065 0.4084,-0.9072 v -2.4039 c 0,-0.4007 -0.1361,-0.6993 -0.4084,-0.8958 -0.2645,-0.2041 -0.6535,-0.3062 -1.1669,-0.3062 h -1.9722 v 4.8193 z m 8.9177,-6.3841 h 6.1965 v 1.5648 h -4.341 v 1.5762 h 3.6175 v 1.5422 h -3.6175 v 1.7009 h 4.4461 v 1.5534 h -6.3016 z m 7.8548,0 h 1.8905 l 3.8392,5.08 -0.058,-5.08 h 1.8438 v 7.9375 h -1.9255 l -3.8043,-5.0233 0.047,5.0233 h -1.8321 z m 9.4418,0 h 3.8276 c 0.5291,0 1.0036,0.064 1.4237,0.1928 0.4279,0.1209 0.7896,0.2948 1.0852,0.5216 0.2956,0.2267 0.5212,0.5027 0.6769,0.8278 0.1634,0.325 0.2451,0.6878 0.2451,1.0885 v 2.676 c 0,0.4007 -0.082,0.7636 -0.2451,1.0887 -0.1557,0.3251 -0.3813,0.601 -0.6769,0.8277 -0.2956,0.2268 -0.6573,0.4044 -1.0852,0.5329 -0.4201,0.121 -0.8946,0.1815 -1.4237,0.1815 h -3.8276 z m 3.8276,6.3841 c 0.5135,0 0.9025,-0.1021 1.167,-0.3062 0.2723,-0.2041 0.4084,-0.5065 0.4084,-0.9072 v -2.4039 c 0,-0.4007 -0.1361,-0.6993 -0.4084,-0.8958 -0.2645,-0.2041 -0.6535,-0.3062 -1.167,-0.3062 h -1.9721 v 4.8193 z m 5.2641,-6.3841 h 1.8672 v 5.3181 c 0,0.4007 0.1556,0.7068 0.4668,0.9185 0.3189,0.2041 0.7468,0.3062 1.2835,0.3062 0.5447,0 0.9726,-0.1021 1.2837,-0.3062 0.319,-0.2117 0.4785,-0.5178 0.4785,-0.9185 v -5.3181 h 1.8554 v 5.4655 c 0,0.4007 -0.089,0.7636 -0.2683,1.0886 -0.1712,0.3251 -0.4163,0.601 -0.7353,0.8277 -0.3112,0.2268 -0.6885,0.4045 -1.1319,0.533 -0.4434,0.1209 -0.9374,0.1814 -1.4821,0.1814 -0.5367,0 -1.0307,-0.06 -1.482,-0.1814 -0.4435,-0.1285 -0.8247,-0.3062 -1.1436,-0.533 -0.3111,-0.2267 -0.5562,-0.5026 -0.7351,-0.8277 -0.1712,-0.325 -0.2568,-0.6879 -0.2568,-1.0886 z m 10.9939,7.9375 h -1.8555 v -7.9375 h 3.8393 c 0.529,0 1.0035,0.057 1.4236,0.1701 0.4201,0.1058 0.778,0.2683 1.0736,0.4876 0.2957,0.2117 0.5213,0.4763 0.6769,0.7938 0.1634,0.3099 0.2451,0.669 0.2451,1.0772 v 0.4082 c 0,0.5141 -0.1673,0.9676 -0.5018,1.3607 -0.3268,0.3855 -0.8053,0.6577 -1.4354,0.8164 l 2.2756,2.8235 h -2.369 l -2.2172,-2.8235 v -1.1792 h 0.8286 c 0.5135,0 0.9025,-0.091 1.167,-0.2722 0.2645,-0.1815 0.3967,-0.465 0.3967,-0.8505 v -0.1474 c 0,-0.3855 -0.1322,-0.6652 -0.3967,-0.839 -0.2645,-0.1739 -0.6535,-0.2609 -1.167,-0.2609 h -1.9838 z m 12.6275,-1.6329 h -3.5008 l -0.6885,1.6329 h -2.0422 l 3.6176,-7.9375 h 1.7154 l 3.6409,7.9375 h -2.0422 z m -2.8824,-1.4627 h 2.2523 l -1.132,-2.6534 z m 6.7112,-4.8419 h 1.8905 l 3.8392,5.08 -0.059,-5.08 h 1.8438 v 7.9375 h -1.9255 l -3.8043,-5.0233 0.047,5.0233 h -1.8321 z m 9.3718,2.4719 c 0,-0.4006 0.089,-0.7634 0.2683,-1.0885 0.179,-0.3251 0.428,-0.601 0.7469,-0.8278 0.3268,-0.2268 0.708,-0.4006 1.1436,-0.5215 0.4435,-0.1285 0.9297,-0.1928 1.4587,-0.1928 0.5291,0 1.0114,0.061 1.447,0.1814 0.4435,0.1134 0.8247,0.2759 1.1437,0.4876 0.3189,0.2041 0.5679,0.4498 0.7468,0.737 0.1789,0.2797 0.2684,0.5897 0.2684,0.9299 v 0.771 h -1.8438 v -0.635 c 0,-0.2797 -0.1634,-0.5027 -0.4901,-0.669 -0.3189,-0.1663 -0.7429,-0.2495 -1.272,-0.2495 -0.5213,0 -0.9453,0.1058 -1.272,0.3175 -0.3189,0.2041 -0.4784,0.5028 -0.4784,0.8959 v 2.71 c 0,0.4007 0.1595,0.7031 0.4784,0.9072 0.3267,0.2041 0.7507,0.3061 1.272,0.3061 0.5291,0 0.9531,-0.083 1.272,-0.2495 0.3267,-0.1662 0.4901,-0.3892 0.4901,-0.669 v -0.703 h 1.8438 v 0.8391 c 0,0.3402 -0.09,0.6539 -0.2684,0.9411 -0.1789,0.2798 -0.4279,0.5255 -0.7468,0.7371 -0.319,0.2117 -0.7002,0.378 -1.1437,0.499 -0.4356,0.1133 -0.9179,0.17 -1.447,0.17 -0.529,0 -1.0152,-0.06 -1.4587,-0.1814 -0.4356,-0.1285 -0.8168,-0.3062 -1.1436,-0.533 -0.3189,-0.2343 -0.5679,-0.514 -0.7469,-0.839 -0.1789,-0.3251 -0.2683,-0.6879 -0.2683,-1.0886 z m 9.045,-2.4719 h 6.1965 v 1.5648 h -4.341 v 1.5762 h 3.6175 v 1.5422 h -3.6175 v 1.7009 h 4.446 v 1.5534 h -6.3015 z"
       id="text1210"
       aria-label="WORLD ENDURANCE CHAMPIONSHIP" /></g></svg>
