<?xml version="1.0" encoding="UTF-8" standalone="no"?>
<!-- Created with Inkscape (http://www.inkscape.org/) -->

<svg
   width="304.64844"
   height="29.996094"
   viewBox="0 0 80.604898 7.9364665"
   version="1.1"
   id="svg1"
   xml:space="preserve"
   xmlns="http://www.w3.org/2000/svg"
   xmlns:svg="http://www.w3.org/2000/svg"><defs
     id="defs1" /><g
     id="layer14"
     transform="translate(-1706.7676,-16247.128)"><path
       d="m 1706.7677,16254.953 v -7.825 h 5.1985 v 1.229 l -0.6149,0.615 h -2.5713 v 1.51 h 2.0682 v 1.844 h -2.0682 v 2.627 z m 6.2046,0 v -7.825 h 2.0124 v 7.825 z m 3.1303,0 v -1.006 l 0.7267,-6.819 h 2.2918 l 1.4534,3.913 h 0.1117 l 1.4534,-3.913 h 2.2918 l 0.7267,6.819 v 1.006 h -2.18 l -0.1677,-4.583 h -0.1118 l -1.1739,3.465 h -1.7887 l -1.1739,-3.465 h -0.1118 l -0.1677,4.583 z m 12.8006,0 v -1.844 h 3.4098 q 0.4472,0 0.4472,-0.447 v -0.168 q 0,-0.38 -0.3354,-0.447 l -2.0123,-0.392 q -0.6484,-0.134 -1.0844,-0.603 -0.4249,-0.47 -0.4249,-1.129 v -1.118 q 0,-0.761 0.4584,-1.219 0.4584,-0.458 1.2186,-0.458 h 3.9687 v 1.229 l -0.6148,0.615 h -2.5713 q -0.2013,0 -0.3243,0.112 -0.1229,0.112 -0.1229,0.28 v 0.111 q 0,0.381 0.3354,0.448 l 2.0123,0.391 q 0.6484,0.134 1.0732,0.604 0.436,0.469 0.436,1.129 v 1.229 q 0,0.761 -0.4695,1.219 -0.4696,0.458 -1.2409,0.458 z m 6.9314,-1.565 v -6.26 h 2.0123 v 5.645 q 0,0.448 0.4472,0.448 h 1.2298 q 0.4472,0 0.4472,-0.448 v -5.645 h 2.0123 v 6.26 q 0,0.76 -0.4584,1.219 -0.4583,0.458 -1.2186,0.458 h -2.7949 q -0.7602,0 -1.2185,-0.458 -0.4584,-0.459 -0.4584,-1.219 z m 7.5462,1.565 v -7.825 h 4.3601 q 0.7602,0 1.2186,0.458 0.4583,0.458 0.4583,1.219 v 2.236 q 0,0.76 -0.4583,1.218 -0.4584,0.459 -1.2186,0.459 h -2.3477 v 2.235 z m 2.0124,-4.08 h 1.5651 q 0.4472,0 0.4472,-0.447 v -1.006 q 0,-0.448 -0.4472,-0.448 h -1.5651 z m 5.1985,4.08 v -7.825 h 5.2544 v 1.229 l -0.6149,0.615 h -2.6272 v 1.174 h 2.1241 v 1.789 h -2.1241 v 1.174 h 3.2421 v 1.844 z m 6.3723,0 v -7.825 h 4.3601 q 0.7602,0 1.2186,0.458 0.4583,0.458 0.4583,1.219 v 1.788 q 0,0.705 -0.503,1.118 -0.2348,0.202 -0.5031,0.28 l 1.2297,1.956 v 1.006 h -2.0123 l -1.1739,-2.683 h -1.062 v 2.683 z m 2.0124,-4.527 h 1.5651 q 0.4472,0 0.4472,-0.447 v -0.548 q 0,-0.459 -0.4472,-0.459 h -1.5651 z m 5.3662,4.527 v -7.825 h 3.9687 q 0.7603,0 1.2186,0.458 0.4584,0.458 0.4584,1.219 v 0.559 q 0,0.849 -0.5366,1.229 -0.2124,0.168 -0.5255,0.224 v 0.112 q 0.3466,0.04 0.6373,0.235 0.6484,0.424 0.6484,1.33 v 0.782 q 0,0.75 -0.4807,1.219 -0.4696,0.458 -1.1963,0.458 z m 2.0123,-1.677 h 1.3975 q 0.4471,0 0.4471,-0.447 v -0.559 q 0,-0.447 -0.4471,-0.447 h -1.3975 z m 0,-3.13 h 1.1739 q 0.4472,0 0.4472,-0.447 v -0.447 q 0,-0.447 -0.4472,-0.447 h -1.1739 z m 5.0308,4.807 v -7.825 h 2.0124 v 7.825 z m 3.4657,0 v -7.825 h 2.0123 v 2.906 h 0.9503 l 1.3974,-2.906 h 1.7888 v 1.006 l -1.3975,2.683 1.5093,3.13 v 1.006 h -1.9006 l -1.3974,-2.962 h -0.9503 v 2.962 z m 7.2667,0 v -7.825 h 5.2544 v 1.229 l -0.6148,0.615 h -2.6272 v 1.174 h 2.1241 v 1.789 h -2.1241 v 1.174 h 3.242 v 1.844 z"
       id="text3029"
       style="font-weight:800;font-size:11.1796px;line-height:0.9;font-family:'TT Supermolot Neue';-inkscape-font-specification:'TT Supermolot Neue, Ultra-Bold';font-variant-ligatures:none;letter-spacing:0px;word-spacing:0px;fill:#ffffff;stroke-width:0.504829;stroke-linecap:round"
       aria-label="FIM SUPERBIKE " /></g></svg>
