<?xml version="1.0" encoding="UTF-8" standalone="no"?>
<!-- Created with Inkscape (http://www.inkscape.org/) -->

<svg
   width="260.83252"
   height="30.955564"
   viewBox="0 0 69.011936 8.1903264"
   version="1.1"
   id="svg1"
   xml:space="preserve"
   xmlns="http://www.w3.org/2000/svg"
   xmlns:svg="http://www.w3.org/2000/svg"><defs
     id="defs1" /><g
     id="g117"
     style="display:inline"
     transform="translate(-1722.2199,-392.6408)"><path
       d="m 1729.2387,392.78007 -0.3303,1.82697 c -0.2219,1.21798 -0.351,2.23469 -0.3974,3.04495 0,0.0671 -0.041,0.0981 -0.098,0.0981 -0.057,0 -0.093,-0.031 -0.1032,-0.0981 -0.041,-0.76382 -0.1807,-1.78052 -0.4232,-3.04495 -0.1445,-0.7535 -0.578,-1.13025 -1.3006,-1.13025 -0.7173,0 -1.1457,0.37675 -1.2902,1.13025 -0.2426,1.26443 -0.3871,2.28113 -0.4232,3.04495 -0.01,0.0671 -0.046,0.0981 -0.1032,0.0981 -0.062,0 -0.093,-0.031 -0.098,-0.0981 -0.046,-0.81026 -0.1858,-1.82697 -0.4026,-3.04495 l -0.3251,-1.82697 h -1.7238 l 1.4503,7.12209 c 0.129,0.62964 0.516,0.92897 1.1715,0.92897 0.5522,0 1.0631,-0.37159 1.1612,-0.92897 0.2838,-1.53796 0.4438,-2.6424 0.4851,-3.30816 0,-0.0619 0.041,-0.0929 0.098,-0.0929 0.057,0 0.093,0.031 0.1032,0.0929 0.057,0.78446 0.2168,1.8889 0.4852,3.30816 0.1083,0.56254 0.6038,0.92897 1.1663,0.92897 0.6555,0 1.0426,-0.29933 1.1716,-0.92897 l 1.4502,-7.12209 z m 8.0252,2.35855 c 0,-0.68641 -0.2425,-1.27475 -0.7276,-1.76504 -0.48,-0.49029 -1.0684,-0.73286 -1.7548,-0.73286 h -0.5832 c -1.3831,0 -2.4824,1.11993 -2.4824,2.4979 v 3.22042 c 0,0.68641 0.2426,1.27475 0.7277,1.75988 0.4852,0.48513 1.0683,0.71221 1.7547,0.71221 h 0.5832 c 0.6864,0 1.2748,-0.22708 1.7548,-0.71221 0.4851,-0.48513 0.7276,-1.07347 0.7276,-1.75988 z m -1.796,3.27719 c 0,0.46449 -0.3612,0.86188 -0.836,0.86188 h -0.2839 c -0.4748,0 -0.8361,-0.39223 -0.8361,-0.86188 v -3.33396 c 0,-0.46449 0.3613,-0.86704 0.8361,-0.86704 h 0.2839 c 0.4696,0 0.836,0.40771 0.836,0.86704 z m 9.2484,2.30178 c -1.058,-1.66698 -1.6979,-2.7353 -1.9147,-3.20494 -0.052,-0.10838 -0.077,-0.17547 -0.077,-0.2116 0,-0.0568 0.046,-0.10322 0.1394,-0.14451 0.9186,-0.39739 1.3779,-1.09928 1.3779,-2.10566 v -0.10322 c 0,-1.50699 -1.3057,-2.30694 -2.6888,-2.30694 h -0.3252 c -1.4502,0 -2.5391,0.95478 -2.5391,2.44113 v 5.63574 h 1.8011 v -5.57897 c 0,-0.53674 0.3665,-0.92381 0.9084,-0.92381 h 0.1445 c 0.4902,0 0.898,0.3561 0.898,0.85671 v 0.14967 c 0,0.40772 -0.3149,0.76382 -0.9445,1.05799 l -0.1548,0.0723 c -0.3716,0.17031 -0.5574,0.38707 -0.5574,0.64511 0,0.44384 0.6038,1.68247 1.8167,3.72104 z m 5.8474,-1.56376 h -2.5547 c -0.4903,0 -0.738,-0.25289 -0.738,-0.7535 v -5.62026 h -1.8012 v 5.50672 c 0,1.347 0.6452,2.4308 2.1057,2.4308 h 2.9882 z m 6.5028,-3.89135 c 0,-1.38313 -1.1045,-2.48241 -2.4876,-2.48241 h -3.0656 v 7.93752 h 3.0656 c 1.3831,0 2.4876,-1.09928 2.4876,-2.48241 z m -1.8012,3.05527 c 0,0.5419 -0.4335,0.95994 -0.9703,0.95994 h -0.9806 v -5.06288 h 0.9806 c 0.5368,0 0.9703,0.42836 0.9703,0.96509 z m 12.2108,2.39984 c -1.058,-1.66698 -1.698,-2.7353 -1.9147,-3.20494 -0.052,-0.10838 -0.077,-0.17547 -0.077,-0.2116 0,-0.0568 0.047,-0.10322 0.1393,-0.14451 0.9187,-0.39739 1.378,-1.09928 1.378,-2.10566 v -0.10322 c 0,-1.50699 -1.3057,-2.30694 -2.6889,-2.30694 h -0.3251 c -1.4502,0 -2.5392,0.95478 -2.5392,2.44113 v 5.63574 h 1.8012 v -5.57897 c 0,-0.53674 0.3664,-0.92381 0.9083,-0.92381 h 0.1445 c 0.4903,0 0.898,0.3561 0.898,0.85671 v 0.14967 c 0,0.40772 -0.3148,0.76382 -0.9444,1.05799 l -0.1549,0.0723 c -0.3716,0.17031 -0.5573,0.38707 -0.5573,0.64511 0,0.44384 0.6038,1.68247 1.8166,3.72104 z m 5.2074,-6.80728 c -0.191,-0.77414 -0.8413,-1.26959 -1.6361,-1.26959 -0.7638,0 -1.4141,0.53158 -1.5999,1.26959 l -1.6876,6.80728 h 1.7444 l 0.3923,-1.64634 h 2.2501 l 0.3768,1.64634 h 1.8424 z m -2.4515,3.66943 0.093,-0.40255 c 0.3613,-1.56377 0.5677,-2.45145 0.5832,-2.66305 0.015,-0.0568 0.052,-0.0877 0.1084,-0.0877 0.057,0 0.088,0.031 0.093,0.0877 0.015,0.23225 0.093,0.61415 0.2322,1.14057 0.191,0.73801 0.3148,1.24895 0.3716,1.52248 l 0.083,0.40255 z m 10.1464,1.57409 h -2.5546 c -0.4903,0 -0.7381,-0.25289 -0.7381,-0.7535 v -5.62026 h -1.8011 v 5.50672 c 0,1.347 0.6451,2.4308 2.1056,2.4308 h 2.9882 z m 5.7957,0 h -2.5546 c -0.4903,0 -0.738,-0.25289 -0.738,-0.7535 v -5.62026 h -1.8012 v 5.50672 c 0,1.347 0.6451,2.4308 2.1057,2.4308 h 2.9881 z m 3.1947,-6.37376 -0.5574,1.23862 c -0.4232,0.93413 -0.6761,1.67731 -0.7535,2.23985 0,0.0568 -0.031,0.0826 -0.093,0.0826 -0.057,0 -0.088,-0.0258 -0.098,-0.0826 -0.046,-0.32514 -0.1703,-0.74317 -0.3664,-1.24895 -0.088,-0.22192 -0.2271,-0.55222 -0.4232,-0.9909 l -0.5523,-1.23862 h -1.8166 l 2.2502,4.83064 c 0.088,0.18579 0.1084,0.3561 0.1084,0.48512 v 2.62176 h 1.796 v -2.58047 c 0,-0.13418 0.036,-0.28385 0.1135,-0.45416 l 2.2553,-4.90289 z"
       id="path1292"
       style="font-size:10.5696px;line-height:0.9;font-family:'WRC Clean Bold 2022';-inkscape-font-specification:'WRC Clean Bold 2022, Normal';font-variant-ligatures:none;letter-spacing:0px;word-spacing:0px;fill:#ffffff;stroke-width:0.426165;stroke-linecap:round"
       aria-label="WORLD RALLY" /></g></svg>
