<?xml version="1.0" encoding="UTF-8" standalone="no"?>
<!-- Created with Inkscape (http://www.inkscape.org/) -->

<svg
   width="393.70654"
   height="30.955078"
   viewBox="0 0 104.16819 8.1901978"
   version="1.1"
   id="svg1"
   xml:space="preserve"
   xmlns="http://www.w3.org/2000/svg"
   xmlns:svg="http://www.w3.org/2000/svg"><defs
     id="defs1" /><path
     d="m 7.0187279,0.13922287 -0.3303,1.82690003 c -0.2219,1.218 -0.3509,2.2347 -0.3974,3.045 -0.01,0.067 -0.041,0.098 -0.098,0.098 -0.057,0 -0.093,-0.031 -0.1032,-0.098 -0.041,-0.7638 -0.1807,-1.7805 -0.4232,-3.045 -0.1445,-0.7535 -0.5781,-1.13020003 -1.3006,-1.13020003 -0.7174,0 -1.1457,0.37670003 -1.2902,1.13020003 -0.2426,1.2645 -0.3871,2.2812 -0.4232,3.045 -0.01,0.067 -0.046,0.098 -0.1032,0.098 -0.062,0 -0.093,-0.031 -0.098,-0.098 -0.046,-0.8103 -0.1858,-1.827 -0.4025,-3.045 l -0.3252,-1.82690003 H 2.78806e-5 L 1.4502279,7.2613229 c 0.129,0.6296 0.5161,0.9289 1.1715,0.9289 0.5522,0 1.0632,-0.3716 1.1612,-0.9289 0.2839,-1.538 0.4439,-2.6424 0.4852,-3.3082 0.01,-0.062 0.041,-0.093 0.098,-0.093 0.057,0 0.093,0.031 0.1032,0.093 0.057,0.7845 0.2168,1.8889 0.4852,3.3082 0.1083,0.5625 0.6038,0.9289 1.1663,0.9289 0.6555,0 1.0425,-0.2993 1.1716,-0.9289 l 1.4502,-7.12210003 z M 15.044028,2.4977229 c 0,-0.6864 -0.2426,-1.2747 -0.7277,-1.76500003 -0.48,-0.4903 -1.0683,-0.73289999501 -1.7547,-0.73289999501 h -0.5832 c -1.3831,0 -2.4824001,1.11990002501 -2.4824001,2.49790002501 v 3.2204 c 0,0.6864 0.2425,1.2748 0.7277001,1.7599 0.4851,0.4851 1.0683,0.7122 1.7547,0.7122 h 0.5832 c 0.6864,0 1.2747,-0.2271 1.7547,-0.7122 0.4851,-0.4851 0.7277,-1.0735 0.7277,-1.7599 z m -1.796,3.2772 c 0,0.4645 -0.3613,0.8619 -0.8361,0.8619 h -0.2838 c -0.4748,0 -0.8361,-0.3923 -0.8361,-0.8619 v -3.334 c 0,-0.4644 0.3613,-0.867 0.8361,-0.867 h 0.2838 c 0.4697,0 0.8361,0.4077 0.8361,0.867 z m 9.2484,2.3018 c -1.058,-1.667 -1.698,-2.7353 -1.9147,-3.205 -0.052,-0.1083 -0.077,-0.1754 -0.077,-0.2116 0,-0.057 0.046,-0.1032 0.1393,-0.1445 0.9187,-0.3974 1.378,-1.0992 1.378,-2.1056 v -0.1032 c 0,-1.50700003 -1.3057,-2.30700002501 -2.6889,-2.30700002501 h -0.3251 c -1.4502,0 -2.5392,0.95479999501 -2.5392,2.44110002501 v 5.6358 h 1.8012 v -5.579 c 0,-0.5367 0.3664,-0.9238 0.9083,-0.9238 h 0.1445 c 0.4903,0 0.898,0.3561 0.898,0.8567 v 0.1497 c 0,0.4077 -0.3148,0.7638 -0.9444,1.058 l -0.1549,0.072 c -0.3716,0.1703 -0.5573,0.3871 -0.5573,0.6451 0,0.4439 0.6038,1.6825 1.8166,3.7211 z m 5.8473,-1.5638 h -2.5546 c -0.4903,0 -0.7381,-0.2529 -0.7381,-0.7535 V 0.13922287 h -1.8011 V 5.6459229 c 0,1.347 0.6451,2.4308 2.1056,2.4308 h 2.9882 z m 6.5028,-3.8913 c 0,-1.3832 -1.1044,-2.48240003 -2.4876,-2.48240003 h -3.0656 V 8.0767229 h 3.0656 c 1.3832,0 2.4876,-1.0993 2.4876,-2.4824 z m -1.8012,3.0552 c 0,0.5419 -0.4335,0.96 -0.9702,0.96 h -0.9806 v -5.0629 h 0.9806 c 0.5367,0 0.9702,0.4284 0.9702,0.9651 z m 12.2108,2.3999 c -1.058,-1.667 -1.6979,-2.7353 -1.9147,-3.205 -0.052,-0.1083 -0.077,-0.1754 -0.077,-0.2116 0,-0.057 0.046,-0.1032 0.1393,-0.1445 0.9187,-0.3974 1.378,-1.0992 1.378,-2.1056 v -0.1032 c 0,-1.50700003 -1.3057,-2.30700002501 -2.6888,-2.30700002501 h -0.3252 c -1.4502,0 -2.5392,0.95479999501 -2.5392,2.44110002501 v 5.6358 h 1.8012 v -5.579 c 0,-0.5367 0.3664,-0.9238 0.9083,-0.9238 h 0.1445 c 0.4903,0 0.898,0.3561 0.898,0.8567 v 0.1497 c 0,0.4077 -0.3148,0.7638 -0.9444,1.058 l -0.1548,0.072 c -0.3716,0.1703 -0.5574,0.3871 -0.5574,0.6451 0,0.4439 0.6038,1.6825 1.8166,3.7211 z m 5.2074,-6.8073 c -0.1909,-0.77410003 -0.8412,-1.26960002501 -1.636,-1.26960002501 -0.7638,0 -1.4141,0.53159999501 -1.5999,1.26960002501 l -1.6876,6.8073 h 1.7444 l 0.3922,-1.6464 h 2.2502 l 0.3767,1.6464 h 1.8425 z m -2.4514,3.6694 0.093,-0.4025 c 0.3612,-1.5638 0.5677,-2.4515 0.5831,-2.6631 0.015,-0.057 0.052,-0.088 0.1084,-0.088 0.057,0 0.088,0.031 0.093,0.088 0.015,0.2323 0.093,0.6142 0.2323,1.1406 0.1909,0.738 0.3148,1.2489 0.3716,1.5225 l 0.082,0.4025 z m 10.1464,1.5741 h -2.5547 c -0.4903,0 -0.738,-0.2529 -0.738,-0.7535 V 0.13922287 h -1.8012 V 5.6459229 c 0,1.347 0.6451,2.4308 2.1057,2.4308 h 2.9882 z m 5.7957,0 h -2.5547 c -0.4903,0 -0.738,-0.2529 -0.738,-0.7535 V 0.13922287 h -1.8011 V 5.6459229 c 0,1.347 0.6451,2.4308 2.1056,2.4308 h 2.9882 z m 3.1946,-6.37370003 -0.5574,1.23860003 c -0.4232,0.9341 -0.676,1.6773 -0.7535,2.2398 0,0.057 -0.031,0.083 -0.093,0.083 -0.057,0 -0.088,-0.026 -0.098,-0.083 -0.046,-0.3251 -0.1703,-0.7431 -0.3664,-1.2489 -0.088,-0.2219 -0.2271,-0.5522 -0.4232,-0.9909 l -0.5523,-1.23860003 h -1.8166 l 2.2502,4.83060003 c 0.088,0.1858 0.1083,0.3561 0.1083,0.4851 v 2.6218 h 1.796 v -2.5805 c 0,-0.1342 0.036,-0.2838 0.1136,-0.4542 l 2.2553,-4.90280003 z m 9.9503,6.19310003 c -0.3716,0.2013 -0.8567,0.3045 -1.4554,0.3045 h -0.5832 c -0.4645,0 -0.836,-0.3613 -0.836,-0.8309 v -3.3959 c 0,-0.4645 0.3715,-0.8361 0.836,-0.8361 h 0.5832 c 0.5987,0 1.0838,0.1032 1.4554,0.3097 l 0.5213,-1.46060003 c -0.5213,-0.2838 -1.1819,-0.42319999501 -1.9767,-0.42319999501 h -0.7328 c -1.3832,0 -2.4824,1.11990002501 -2.4824,2.49790002501 v 3.2204 c 0,1.4451 1.0425,2.4721 2.4824,2.4721 h 0.7328 c 0.8103,0 1.4657,-0.1238 1.9767,-0.3974 z m 7.6227,1.7444 c -1.058,-1.667 -1.6979,-2.7353 -1.9147,-3.205 -0.052,-0.1083 -0.077,-0.1754 -0.077,-0.2116 0,-0.057 0.046,-0.1032 0.1393,-0.1445 0.9187,-0.3974 1.378,-1.0992 1.378,-2.1056 v -0.1032 c 0,-1.50700003 -1.3057,-2.30700002501 -2.6888,-2.30700002501 h -0.3252 c -1.4502,0 -2.5392,0.95479999501 -2.5392,2.44110002501 v 5.6358 h 1.8012 v -5.579 c 0,-0.5367 0.3664,-0.9238 0.9083,-0.9238 h 0.1445 c 0.4903,0 0.898,0.3561 0.898,0.8567 v 0.1497 c 0,0.4077 -0.3148,0.7638 -0.9444,1.058 l -0.1548,0.072 c -0.3716,0.1703 -0.5574,0.3871 -0.5574,0.6451 0,0.4439 0.6038,1.6825 1.8166,3.7211 z m 6.2499,-5.579 c 0,-0.6864 -0.2426,-1.2747 -0.7277,-1.76500003 -0.48,-0.4903 -1.0683,-0.73289999501 -1.7547,-0.73289999501 h -0.5832 c -1.3831,0 -2.4824,1.11990002501 -2.4824,2.49790002501 v 3.2204 c 0,0.6864 0.2426,1.2748 0.7277,1.7599 0.4851,0.4851 1.0683,0.7122 1.7547,0.7122 h 0.5832 c 0.6864,0 1.2747,-0.2271 1.7547,-0.7122 0.4851,-0.4851 0.7277,-1.0735 0.7277,-1.7599 z m -1.796,3.2772 c 0,0.4645 -0.3613,0.8619 -0.8361,0.8619 h -0.2838 c -0.4748,0 -0.8361,-0.3923 -0.8361,-0.8619 v -3.334 c 0,-0.4644 0.3613,-0.867 0.8361,-0.867 h 0.2838 c 0.4697,0 0.8361,0.4077 0.8361,0.867 z m 8.5052,-0.2787 c 0,-1.0373 -0.6141,-1.7237 -1.8373,-2.0489 -0.7844,-0.2116 -1.285,-0.3664 -1.4966,-0.4748 -0.2839,-0.1393 -0.4284,-0.3406 -0.4284,-0.5935 v -0.062 c 0,-0.4439 0.3819,-0.7432 0.8051,-0.7432 h 0.7174 c 0.5935,0 1.0735,0.1032 1.4502,0.3097 l 0.5161,-1.48120003 c -0.4851,-0.2684 -1.1561,-0.40259999501 -2.0179,-0.40259999501 h -0.7484 c -1.3263,0 -2.5185,0.90319999501 -2.5185,2.29660002501 v 0.1445 c 0,1.0993 0.6451,1.8322 1.9353,2.1986 0.7432,0.2116 1.218,0.3767 1.4245,0.4903 0.2683,0.1497 0.4025,0.3458 0.4025,0.5987 v 0.077 c 0,0.4696 -0.2787,0.707 -0.8361,0.707 h -2.6424 v 1.5638 h 2.7921 c 1.4244,0 2.4824,-0.8 2.4824,-2.2915 z m 6.487302,0 c 0,-1.0373 -0.6141,-1.7237 -1.8373,-2.0489 -0.7844,-0.2116 -1.285,-0.3664 -1.4966,-0.4748 -0.2839,-0.1393 -0.4284,-0.3406 -0.4284,-0.5935 v -0.062 c 0,-0.4439 0.3819,-0.7432 0.8051,-0.7432 h 0.7174 c 0.5935,0 1.0734,0.1032 1.4502,0.3097 l 0.5161,-1.48120003 c -0.4851,-0.2684 -1.1561,-0.40259999501 -2.0179,-0.40259999501 h -0.7484 c -1.326302,0 -2.518502,0.90319999501 -2.518502,2.29660002501 v 0.1445 c 0,1.0993 0.6451,1.8322 1.935302,2.1986 0.7432,0.2116 1.218,0.3767 1.4245,0.4903 0.2683,0.1497 0.4025,0.3458 0.4025,0.5987 v 0.077 c 0,0.4696 -0.2787,0.707 -0.8361,0.707 h -2.642402 v 1.5638 h 2.792102 c 1.4244,0 2.4824,-0.8 2.4824,-2.2915 z"
     id="text1532"
     style="font-size:10.5696px;line-height:0.9;font-family:'WRC Clean Bold 2022';-inkscape-font-specification:'WRC Clean Bold 2022, Normal';font-variant-ligatures:none;letter-spacing:0px;word-spacing:0px;fill:#ffffff;stroke-width:0.426165;stroke-linecap:round"
     aria-label="WORLD RALLY CROSS" /></svg>
