<?xml version="1.0" encoding="UTF-8" standalone="no"?>
<!-- Created with Inkscape (http://www.inkscape.org/) -->

<svg
   width="606.42676"
   height="31.285154"
   viewBox="0 0 160.45041 8.2775304"
   version="1.1"
   id="svg1"
   xml:space="preserve"
   xmlns="http://www.w3.org/2000/svg"
   xmlns:svg="http://www.w3.org/2000/svg"><defs
     id="defs1" /><g
     id="layer25"
     transform="translate(-1701.8423,-9356.1093)"><path
       d="m 1708.9592,9357.9993 c 0.1292,0 0.2114,0.059 0.2584,0.2349 l 1.1389,4.3797 c 0.317,1.1977 1.045,1.773 2.2427,1.773 1.4325,0 2.137,-0.7162 2.3249,-1.7613 l 1.0568,-5.9648 c 0.024,-0.1644 0.035,-0.2584 0.035,-0.3758 h -2.2192 c 0,0.07 0,0.1879 -0.024,0.3053 l -0.9041,5.4248 c -0.035,0.1878 -0.1174,0.27 -0.2818,0.27 -0.1409,0 -0.2349,-0.059 -0.2818,-0.2466 l -1.186,-4.321 c -0.2935,-1.0802 -0.8923,-1.6086 -2.1605,-1.6086 -1.2798,0 -1.9139,0.5284 -2.2427,1.6673 l -1.2094,4.2623 c -0.047,0.1879 -0.1409,0.2466 -0.2818,0.2466 -0.1644,0 -0.2583,-0.082 -0.2818,-0.27 l -0.8337,-5.4248 c -0.012,-0.1057 -0.024,-0.2231 -0.024,-0.3053 h -2.2427 c 0,0.1174 0.012,0.2231 0.035,0.3758 l 0.9863,5.9531 c 0.1644,1.0098 0.8571,1.773 2.3014,1.773 1.2212,0 1.9609,-0.5518 2.3014,-1.773 l 1.2329,-4.3797 c 0.047,-0.1762 0.1292,-0.2349 0.2583,-0.2349 z m 13.4732,6.2232 c 1.4208,0 2.4658,-0.4931 3.1938,-1.2916 0.6341,-0.6927 1.0216,-1.6321 1.0216,-2.6771 0,-1.1507 -0.4932,-2.1958 -1.2799,-2.9238 -0.7045,-0.6458 -1.6556,-1.045 -2.9355,-1.045 h -1.6673 c -1.2799,0 -2.231,0.3992 -2.9355,1.045 -0.7867,0.728 -1.2799,1.7731 -1.2799,2.9238 0,1.045 0.3875,1.9844 1.0216,2.6771 0.728,0.7985 1.773,1.2916 3.1938,1.2916 z m 0,-5.8357 c 0.7163,0 1.1625,0.1996 1.503,0.5167 0.364,0.3405 0.5871,0.8336 0.5871,1.362 0,0.4814 -0.1879,0.9276 -0.4932,1.2564 -0.3405,0.3757 -0.8454,0.6106 -1.5969,0.6106 h -1.6673 c -0.7515,0 -1.2564,-0.2349 -1.5969,-0.6106 -0.3053,-0.3288 -0.4932,-0.775 -0.4932,-1.2564 0,-0.5284 0.2231,-1.0215 0.5871,-1.362 0.3405,-0.3171 0.7867,-0.5167 1.503,-0.5167 z m 7.6492,3.0177 h 3.6987 c 0.6223,0 0.8689,0.1996 0.8689,0.7045 v 1.5851 c 0,0.1762 0.012,0.3523 0.035,0.5284 h 2.1488 c -0.024,-0.2231 -0.035,-0.4109 -0.035,-0.7514 v -1.5852 c 0,-0.9041 -0.2349,-1.3268 -0.7633,-1.6439 0.5636,-0.4109 0.7515,-1.0098 0.7515,-1.6438 0,-0.5989 -0.2466,-1.1507 -0.634,-1.5617 -0.4345,-0.4579 -1.0568,-0.7515 -2.0314,-0.7515 h -5.6361 c -0.3523,0 -0.5284,0.1644 -0.5284,0.4932 v 7.4443 h 2.1253 z m 0,-1.8083 v -1.1507 c 0,-0.1057 0.059,-0.1761 0.1761,-0.1761 h 3.5813 c 0.2701,0 0.4579,0.082 0.5754,0.2113 0.1174,0.1175 0.1761,0.2819 0.1761,0.4462 0,0.1527 -0.059,0.2936 -0.1527,0.411 -0.1291,0.1526 -0.3053,0.2583 -0.5988,0.2583 z m 16.3499,4.6263 v -2.0313 h -5.5069 c -0.5519,0 -0.7045,-0.1761 -0.7045,-0.7515 v -5.1547 h -2.137 v 5.3543 c 0,1.7261 0.634,2.5832 2.5832,2.5832 z m 1.6257,-7.9375 c -0.3406,0 -0.5167,0.1644 -0.5167,0.4932 v 6.9394 c 0,0.3405 0.1761,0.5049 0.5167,0.5049 h 4.2857 c 1.4208,0 2.4658,-0.4931 3.1938,-1.2916 0.6341,-0.6927 1.0216,-1.6321 1.0216,-2.6771 0,-1.1507 -0.4932,-2.1958 -1.2799,-2.9238 -0.7045,-0.6458 -1.6556,-1.045 -2.9355,-1.045 z m 4.2857,2.1018 c 0.7163,0 1.1625,0.1996 1.503,0.5167 0.364,0.3405 0.5871,0.8336 0.5871,1.362 0,0.4814 -0.1879,0.9276 -0.4932,1.2564 -0.3405,0.3757 -0.8454,0.6106 -1.5969,0.6106 h -2.5245 c -0.1056,0 -0.1526,-0.047 -0.1526,-0.1644 v -3.4169 c 0,-0.1174 0.047,-0.1644 0.1526,-0.1644 z m 18.8445,-2.1018 h -5.824 c -1.0568,0 -1.6556,0.2818 -2.0783,0.7163 -0.4227,0.4344 -0.6811,1.0215 -0.6811,1.6556 0,0.6458 0.2466,1.2211 0.6693,1.6556 0.4227,0.4344 1.0333,0.7162 2.0901,0.7162 h 3.229 c 0.3053,0 0.458,0.059 0.5636,0.1762 0.1057,0.1056 0.1644,0.2583 0.1644,0.4227 0,0.1409 -0.047,0.27 -0.1291,0.364 -0.1057,0.1291 -0.2701,0.1996 -0.5989,0.1996 h -5.777 v 2.0313 h 6.1528 c 0.9393,0 1.5734,-0.317 2.0078,-0.8219 0.364,-0.4227 0.5871,-0.9746 0.5871,-1.5499 0,-0.6224 -0.2583,-1.2094 -0.681,-1.6439 -0.4227,-0.4344 -1.0216,-0.7163 -1.9139,-0.7163 h -3.4874 c -0.2466,0 -0.364,-0.035 -0.4579,-0.1174 -0.1174,-0.094 -0.1996,-0.2466 -0.1996,-0.4227 0,-0.1644 0.059,-0.3053 0.1644,-0.4109 0.094,-0.094 0.2348,-0.1527 0.4931,-0.1527 h 5.7066 z m 7.8136,7.9375 c 1.9961,0 2.7828,-0.7632 2.7828,-2.5362 v -5.4013 h -2.137 v 5.1664 c 0,0.5049 -0.2584,0.7398 -0.7867,0.7398 h -3.2995 c -0.5284,0 -0.7632,-0.2466 -0.7632,-0.7398 v -5.1664 h -2.1371 v 5.4013 c 0,1.773 0.7867,2.5362 2.7829,2.5362 z m 4.7137,-7.9375 c -0.3405,0 -0.5167,0.1644 -0.5167,0.4932 v 7.4443 h 2.1253 v -1.9961 h 3.6517 c 1.2212,0 2.0314,-0.4227 2.5715,-1.0685 0.4345,-0.5284 0.6928,-1.1977 0.6928,-1.9022 0,-0.7984 -0.3288,-1.5617 -0.8806,-2.1135 -0.5284,-0.5284 -1.2564,-0.8572 -2.3837,-0.8572 z m 1.6086,3.9923 v -1.7261 c 0,-0.1174 0.059,-0.1644 0.1527,-0.1644 h 3.546 c 0.4579,0 0.728,0.1409 0.9041,0.3523 0.1292,0.1644 0.1997,0.364 0.1997,0.5988 0,0.2231 -0.071,0.411 -0.1879,0.5636 -0.1761,0.2349 -0.4462,0.3758 -0.9159,0.3758 z m 9.1757,-3.9923 c -0.7515,0 -1.1273,0.3523 -1.1273,1.0685 v 5.7653 c 0,0.7397 0.3758,1.1037 1.1155,1.1037 h 7.233 v -2.0313 h -6.0353 c -0.1292,0 -0.1879,-0.07 -0.1879,-0.2114 v -0.9628 h 6.188 v -1.5265 h -6.188 v -0.9041 c 0,-0.1291 0.059,-0.1996 0.1879,-0.1996 h 6.0353 v -2.1018 z m 10.6316,5.1195 h 3.6987 c 0.6223,0 0.8689,0.1996 0.8689,0.7045 v 1.5851 c 0,0.1762 0.012,0.3523 0.035,0.5284 h 2.1488 c -0.024,-0.2231 -0.035,-0.4109 -0.035,-0.7514 v -1.5852 c 0,-0.9041 -0.2349,-1.3268 -0.7633,-1.6439 0.5637,-0.4109 0.7515,-1.0098 0.7515,-1.6438 0,-0.5989 -0.2466,-1.1507 -0.634,-1.5617 -0.4345,-0.4579 -1.0568,-0.7515 -2.0314,-0.7515 h -5.6361 c -0.3523,0 -0.5284,0.1644 -0.5284,0.4932 v 7.4443 h 2.1253 z m 0,-1.8083 v -1.1507 c 0,-0.1057 0.059,-0.1761 0.1761,-0.1761 h 3.5813 c 0.2701,0 0.4579,0.082 0.5754,0.2113 0.1174,0.1175 0.1761,0.2819 0.1761,0.4462 0,0.1527 -0.059,0.2936 -0.1527,0.411 -0.1291,0.1526 -0.3052,0.2583 -0.5988,0.2583 z m 16.1034,2.5363 h -4.1567 c -0.7514,0 -1.2563,-0.2349 -1.5968,-0.6106 -0.3053,-0.3288 -0.4932,-0.775 -0.4932,-1.2564 0,-0.5284 0.2231,-1.0215 0.5871,-1.362 0.3405,-0.3171 0.7867,-0.5167 1.5029,-0.5167 h 4.1567 v -2.1018 h -4.1567 c -1.2798,0 -2.2309,0.3992 -2.9354,1.045 -0.7867,0.728 -1.2799,1.7731 -1.2799,2.9238 0,1.045 0.3875,1.9844 1.0216,2.6771 0.7279,0.7985 1.773,1.2916 3.1937,1.2916 h 4.1567 z m 3.4104,-0.728 h 3.6987 c 0.6223,0 0.8689,0.1996 0.8689,0.7045 v 1.5851 c 0,0.1762 0.012,0.3523 0.035,0.5284 h 2.1488 c -0.024,-0.2231 -0.035,-0.4109 -0.035,-0.7514 v -1.5852 c 0,-0.9041 -0.2348,-1.3268 -0.7632,-1.6439 0.5636,-0.4109 0.7515,-1.0098 0.7515,-1.6438 0,-0.5989 -0.2466,-1.1507 -0.6341,-1.5617 -0.4344,-0.4579 -1.0567,-0.7515 -2.0313,-0.7515 h -5.6361 c -0.3523,0 -0.5284,0.1644 -0.5284,0.4932 v 7.4443 h 2.1253 z m 0,-1.8083 v -1.1507 c 0,-0.1057 0.059,-0.1761 0.1761,-0.1761 h 3.5813 c 0.27,0 0.4579,0.082 0.5753,0.2113 0.1174,0.1175 0.1762,0.2819 0.1762,0.4462 0,0.1527 -0.059,0.2936 -0.1527,0.411 -0.1292,0.1526 -0.3053,0.2583 -0.5988,0.2583 z m 13.6258,4.6263 c 1.4208,0 2.4658,-0.4931 3.1938,-1.2916 0.6341,-0.6927 1.0215,-1.6321 1.0215,-2.6771 0,-1.1507 -0.4931,-2.1958 -1.2798,-2.9238 -0.7045,-0.6458 -1.6556,-1.045 -2.9355,-1.045 h -1.6674 c -1.2798,0 -2.2309,0.3992 -2.9354,1.045 -0.7867,0.728 -1.2799,1.7731 -1.2799,2.9238 0,1.045 0.3875,1.9844 1.0215,2.6771 0.728,0.7985 1.7731,1.2916 3.1938,1.2916 z m 0,-5.8357 c 0.7163,0 1.1624,0.1996 1.503,0.5167 0.364,0.3405 0.5871,0.8336 0.5871,1.362 0,0.4814 -0.1879,0.9276 -0.4932,1.2564 -0.3405,0.3757 -0.8454,0.6106 -1.5969,0.6106 h -1.6674 c -0.7514,0 -1.2563,-0.2349 -1.5969,-0.6106 -0.3052,-0.3288 -0.4931,-0.775 -0.4931,-1.2564 0,-0.5284 0.2231,-1.0215 0.5871,-1.362 0.3405,-0.3171 0.7867,-0.5167 1.5029,-0.5167 z m 13.8254,-2.1018 h -5.824 c -1.0567,0 -1.6556,0.2818 -2.0783,0.7163 -0.4227,0.4344 -0.681,1.0215 -0.681,1.6556 0,0.6458 0.2466,1.2211 0.6693,1.6556 0.4227,0.4344 1.0333,0.7162 2.09,0.7162 h 3.2291 c 0.3053,0 0.4579,0.059 0.5636,0.1762 0.1057,0.1056 0.1644,0.2583 0.1644,0.4227 0,0.1409 -0.047,0.27 -0.1292,0.364 -0.1057,0.1291 -0.2701,0.1996 -0.5988,0.1996 h -5.7771 v 2.0313 h 6.1528 c 0.9394,0 1.5734,-0.317 2.0079,-0.8219 0.364,-0.4227 0.5871,-0.9746 0.5871,-1.5499 0,-0.6224 -0.2584,-1.2094 -0.6811,-1.6439 -0.4227,-0.4344 -1.0215,-0.7163 -1.9139,-0.7163 h -3.4873 c -0.2466,0 -0.364,-0.035 -0.458,-0.1174 -0.1174,-0.094 -0.1996,-0.2466 -0.1996,-0.4227 0,-0.1644 0.059,-0.3053 0.1644,-0.4109 0.094,-0.094 0.2348,-0.1527 0.4932,-0.1527 h 5.7065 z m 9.8215,0 h -5.824 c -1.0568,0 -1.6556,0.2818 -2.0783,0.7163 -0.4227,0.4344 -0.6811,1.0215 -0.6811,1.6556 0,0.6458 0.2466,1.2211 0.6693,1.6556 0.4227,0.4344 1.0333,0.7162 2.0901,0.7162 h 3.229 c 0.3053,0 0.4579,0.059 0.5636,0.1762 0.1057,0.1056 0.1644,0.2583 0.1644,0.4227 0,0.1409 -0.047,0.27 -0.1292,0.364 -0.1056,0.1291 -0.27,0.1996 -0.5988,0.1996 h -5.777 v 2.0313 h 6.1527 c 0.9394,0 1.5735,-0.317 2.0079,-0.8219 0.364,-0.4227 0.5871,-0.9746 0.5871,-1.5499 0,-0.6224 -0.2583,-1.2094 -0.681,-1.6439 -0.4227,-0.4344 -1.0216,-0.7163 -1.914,-0.7163 h -3.4873 c -0.2466,0 -0.364,-0.035 -0.4579,-0.1174 -0.1175,-0.094 -0.1996,-0.2466 -0.1996,-0.4227 0,-0.1644 0.059,-0.3053 0.1643,-0.4109 0.094,-0.094 0.2349,-0.1527 0.4932,-0.1527 h 5.7066 z"
       id="text3674"
       style="font-weight:bold;font-size:11.7419px;line-height:1.4;font-family:Nulshock;-inkscape-font-specification:'Nulshock, Bold';font-variant-ligatures:none;letter-spacing:0.287022px;word-spacing:0px;fill:#ffffff;stroke-width:1.61385;stroke-miterlimit:15;paint-order:fill markers stroke"
       aria-label="WORLD SUPERCROSS" /></g><style
     type="text/css"
     id="style1">
	.st0{fill:#FFFFFF;}
	.st1{fill:#B69B40;}
	.st2{fill:#283271;}
	.st3{fill:url(#Plinth_00000024719996797075204420000012647641536287814807_);}
	.st4{opacity:0.4;fill:url(#p40_00000106113143120193750130000016072925933129080735_);enable-background:new    ;}
	.st5{fill:url(#Sky_x5F_Logo_00000061460388762851295990000018372894465928754855_);}
	.st6{opacity:0.25;fill:url(#s25_00000182524357250295268150000002348907512278735291_);enable-background:new    ;}
</style><style
     type="text/css"
     id="style1-4">
	.st0{fill:#008F5E;}
	.st1{fill:#FCEB20;}
	.st2{fill:#E2231A;}
	.st3{fill:#100C08;}
	.st4{fill:#FFFFFF;}
	.st5{fill:none;stroke:#100C08;stroke-width:0.174;stroke-miterlimit:10;}
	.st6{fill:none;stroke:#FFFFFF;stroke-miterlimit:10;}
</style></svg>
