<?xml version="1.0" encoding="UTF-8" standalone="no"?>
<!-- Created with Inkscape (http://www.inkscape.org/) -->

<svg
   width="284.66406"
   height="30"
   viewBox="0 0 75.317365 7.9375"
   version="1.1"
   id="svg1"
   xml:space="preserve"
   xmlns="http://www.w3.org/2000/svg"
   xmlns:svg="http://www.w3.org/2000/svg"><defs
     id="defs1" /><g
     id="g226"
     style="display:inline"
     transform="translate(-1730.0424,-370.67195)"><path
       d="m 1732.9685,375.37774 -0.8962,3.23169 h -2.0298 l 2.2013,-7.93748 h 2.1566 l 0.4992,3.23169 0.8962,-3.23169 h 2.0298 l -2.2013,7.93748 h -2.1566 z m 5.9815,0.96384 -0.6289,2.26785 h -2.0297 l 1.8868,-6.80355 1.3293,-1.13393 h 3.0446 l 0.7004,1.13393 -1.8868,6.80355 h -2.0297 l 0.6289,-2.26785 z m 1.4866,-1.70089 0.6289,-2.26785 h -1.0148 l -0.629,2.26785 z m 3.483,-2.83481 1.3293,-1.13393 h 3.0446 l 0.7004,1.13393 -0.3145,1.13392 h -2.0297 l 0.1572,-0.56696 h -1.0148 l -0.3931,1.41741 h 2.0297 l 0.7004,1.13393 -0.7075,2.55133 -1.3293,1.13392 h -3.0446 l -0.7004,-1.13392 0.3144,-1.13393 h 2.0298 l -0.1573,0.56697 h 1.0149 l 0.3931,-1.41741 h -2.0298 l -0.7004,-1.13393 z m 8.6288,0.56696 h -1.0149 l -1.2579,4.53571 h 1.0149 l 0.1572,-0.56697 h 2.0298 l -0.3145,1.13393 -1.3293,1.13392 h -3.0446 l -0.7004,-1.13392 1.5723,-5.66963 1.3293,-1.13393 h 3.0446 l 0.7004,1.13393 -0.3144,1.13392 h -2.0298 z m 3.6259,3.96874 -0.629,2.26785 h -2.0297 l 1.8868,-6.80355 1.3293,-1.13393 h 3.0446 l 0.7004,1.13393 -1.8868,6.80355 h -2.0297 l 0.6289,-2.26785 z m 1.4865,-1.70089 0.629,-2.26785 h -1.0149 l -0.6289,2.26785 z m 6.3704,-2.26785 h -1.0149 l -0.4717,1.70089 h 1.0149 z m -1.9126,3.40177 h -0.046 l -0.7862,2.83482 h -2.0297 l 2.2012,-7.93748 h 4.0595 l 0.7004,1.13393 -0.7862,2.83481 -1.1764,1.00353 0.4564,2.96521 h -2.1566 z m 9.1287,2.83482 h -2.0298 l 0.8648,-3.11829 0.997,-0.85045 -0.5253,-0.85044 0.8648,-3.1183 h 2.0297 l -0.8648,3.1183 h 1.0149 l 0.8648,-3.1183 h 2.0297 l -0.8648,3.1183 -0.997,0.85044 0.5253,0.85045 -0.8647,3.11829 h -2.0298 l 0.8648,-3.11829 h -1.0149 z m 7.4709,-6.23659 -0.393,1.41741 h 3.0445 l -0.4717,1.70089 h -3.0445 l -0.8648,3.11829 h -2.0297 l 1.8867,-6.80355 1.3294,-1.13393 h 4.0594 l -0.4717,1.70089 z m 1.9822,6.23659 2.2012,-7.93748 h 2.0297 l -2.2012,7.93748 z m 5.6227,-3.23169 -0.8962,3.23169 h -2.0297 l 2.2012,-7.93748 h 2.1566 l 0.4992,3.23169 0.8963,-3.23169 h 2.0297 l -2.2013,7.93748 h -2.1566 z m 3.3229,3.23169 2.2013,-7.93748 h 2.0297 l -2.2013,7.93748 z m 9.9724,-7.93748 -0.4717,1.70089 h -1.5223 l -1.7295,6.23659 h -2.0298 l 1.7296,-6.23659 h -1.5223 l 0.4717,-1.70089 z m 0.8529,4.81919 h -0.5074 l -0.7004,-1.13393 1.022,-3.68526 h 2.0297 l -0.8648,3.1183 h 1.0149 l 0.8648,-3.1183 h 2.0297 l -1.022,3.68526 -1.3293,1.13393 h -0.5075 l -0.8647,3.11829 h -2.0348 z"
       id="text848"
       style="font-size:10.9849px;line-height:0.9;font-family:Hauser;-inkscape-font-specification:'Hauser, Normal';font-variant-ligatures:none;letter-spacing:0.168764px;word-spacing:0px;fill:#ffffff;stroke-width:0.0255703;stroke-linecap:round;stroke-linejoin:round;paint-order:stroke fill markers"
       aria-label="NASCAR XFINITY" /></g></svg>
