<?xml version="1.0" encoding="UTF-8" standalone="no"?>
<svg
   id="Layer_1"
   data-name="Layer 1"
   viewBox="0 0 6.2437229 10"
   version="1.1"
   width="6.2437229"
   height="10"
   sodipodi:docname="arrow.svg"
   inkscape:version="1.4-beta (62f545ba5e, 2024-04-22)"
   xmlns:inkscape="http://www.inkscape.org/namespaces/inkscape"
   xmlns:sodipodi="http://sodipodi.sourceforge.net/DTD/sodipodi-0.dtd"
   xmlns="http://www.w3.org/2000/svg"
   xmlns:svg="http://www.w3.org/2000/svg">
  <sodipodi:namedview
     id="namedview1"
     pagecolor="#505050"
     bordercolor="#ffffff"
     borderopacity="1"
     inkscape:showpageshadow="0"
     inkscape:pageopacity="0"
     inkscape:pagecheckerboard="1"
     inkscape:deskcolor="#505050"
     inkscape:zoom="56.95"
     inkscape:cx="0.88674276"
     inkscape:cy="5.1360843"
     inkscape:window-width="2560"
     inkscape:window-height="1351"
     inkscape:window-x="-9"
     inkscape:window-y="-9"
     inkscape:window-maximized="1"
     inkscape:current-layer="Layer_1" />
  <defs
     id="defs2" />
  <title
     id="title1">Trade_Icons</title>
  <path
     id="path10"
     d="M 6.1519258,8.5420095 2.8322618,5.2223461 a 0.31444496,0.31444496 0 0 1 0,-0.4446923 l 3.319664,-3.319663 A 0.31341568,0.31341568 0 0 0 6.1511978,1.0140286 L 5.2227718,0.09167098 a 0.31547761,0.31547761 0 0 0 -0.44542,7.3023e-4 L 0.09209878,4.7776538 a 0.31444496,0.31444496 0 0 0 0,0.4446923 L 4.7773518,9.907599 a 0.31547761,0.31547761 0 0 0 0.44542,7.296e-4 l 0.928426,-0.922357 a 0.31341568,0.31341568 0 0 0 7.28e-4,-0.4439621 z"
     style="fill:#f0f0ff;stroke-width:0.898414;fill-opacity:1" />
</svg>
