<?xml version="1.0" encoding="UTF-8" standalone="no"?>
<svg
   shape-rendering="geometricPrecision"
   text-rendering="geometricPrecision"
   image-rendering="optimizeQuality"
   fill-rule="evenodd"
   clip-rule="evenodd"
   viewBox="0 0 512 367.8"
   version="1.1"
   id="svg1"
   sodipodi:docname="desktop-pc-icon.svg"
   inkscape:version="1.4-beta (62f545ba5e, 2024-04-22)"
   xmlns:inkscape="http://www.inkscape.org/namespaces/inkscape"
   xmlns:sodipodi="http://sodipodi.sourceforge.net/DTD/sodipodi-0.dtd"
   xmlns="http://www.w3.org/2000/svg"
   xmlns:svg="http://www.w3.org/2000/svg">
  <defs
     id="defs1" />
  <sodipodi:namedview
     id="namedview1"
     pagecolor="#505050"
     bordercolor="#ffffff"
     borderopacity="1"
     inkscape:showpageshadow="0"
     inkscape:pageopacity="0"
     inkscape:pagecheckerboard="1"
     inkscape:deskcolor="#505050"
     inkscape:zoom="1.5483959"
     inkscape:cx="135.62423"
     inkscape:cy="186.96768"
     inkscape:window-width="2560"
     inkscape:window-height="1351"
     inkscape:window-x="-9"
     inkscape:window-y="-9"
     inkscape:window-maximized="1"
     inkscape:current-layer="svg1" />
  <path
     id="path3"
     d="M 11.791016 0 C 5.2950156 0 0 5.2969688 0 11.792969 L 0 291.61328 C 2.3684758e-15 298.10928 5.2950156 303.40625 11.791016 303.40625 L 318.91016 303.40625 L 318.91016 263.62109 L 54.466797 263.62109 C 49.768768 263.62109 45.910156 259.76218 45.910156 255.0625 L 45.910156 48.34375 C 45.881395 43.620248 49.761373 39.785156 54.466797 39.785156 L 379.33984 39.785156 L 433.80664 39.785156 L 433.80664 11.792969 C 433.80664 5.2969688 428.51162 0 422.01562 0 L 11.791016 0 z M 371.7793 55.816406 C 362.9653 55.816406 355.75977 63.023844 355.75977 71.839844 L 355.75977 351.7793 C 355.75977 360.5943 362.9653 367.80078 371.7793 367.80078 L 495.98047 367.80078 C 504.79547 367.80078 512 360.5943 512 351.7793 L 512 71.839844 C 512 63.023844 504.79547 55.816406 495.98047 55.816406 L 371.7793 55.816406 z M 377.44727 108.20312 L 490.3125 108.20312 C 492.15397 108.20812 493.64544 109.69955 493.65039 111.54102 L 493.65039 132.12695 C 493.65039 133.95295 492.1375 135.46484 490.3125 135.46484 L 377.44727 135.46484 C 375.60541 135.45984 374.11379 133.96881 374.10938 132.12695 L 374.10938 111.54102 C 374.11338 109.69932 375.60557 108.20751 377.44727 108.20312 z M 468.18945 120.70312 L 468.18945 128.76367 L 486.75781 128.76367 L 486.75781 120.70312 L 468.18945 120.70312 z M 433.86719 301.48242 C 443.47519 301.48242 451.28125 309.28848 451.28125 318.89648 C 451.28125 328.50448 443.47519 336.31055 433.86719 336.31055 C 424.26119 336.31055 416.45508 328.50448 416.45508 318.89648 C 416.47808 309.28848 424.26119 301.48242 433.86719 301.48242 z M 163.41992 319.67969 L 134.85938 367.80078 L 298.94922 367.80078 L 270.38867 319.67969 L 163.41992 319.67969 z " />
</svg>
