<?xml version="1.0" encoding="UTF-8" standalone="no"?>
<!-- Created with Inkscape (http://www.inkscape.org/) -->

<svg
   width="512"
   height="512"
   viewBox="0 0 135.46666 135.46667"
   version="1.1"
   id="svg1"
   xml:space="preserve"
   sodipodi:docname="Faivicon-Mazespin.svg"
   inkscape:version="1.4-beta (62f545ba5e, 2024-04-22)"
   xmlns:inkscape="http://www.inkscape.org/namespaces/inkscape"
   xmlns:sodipodi="http://sodipodi.sourceforge.net/DTD/sodipodi-0.dtd"
   xmlns="http://www.w3.org/2000/svg"
   xmlns:svg="http://www.w3.org/2000/svg"><sodipodi:namedview
     id="namedview1"
     pagecolor="#505050"
     bordercolor="#ffffff"
     borderopacity="1"
     inkscape:showpageshadow="0"
     inkscape:pageopacity="0"
     inkscape:pagecheckerboard="1"
     inkscape:deskcolor="#505050"
     inkscape:zoom="0.71187533"
     inkscape:cx="-37.92799"
     inkscape:cy="76.55835"
     inkscape:window-width="2560"
     inkscape:window-height="1351"
     inkscape:window-x="-9"
     inkscape:window-y="-9"
     inkscape:window-maximized="1"
     inkscape:current-layer="svg1" /><defs
     id="defs1" /><rect
     style="fill:none;stroke-width:0.396875;stroke-miterlimit:5"
     id="rect1"
     width="135.46667"
     height="135.46667"
     x="-2.8421709e-14"
     y="0" /><path
     id="path55"
     style="fill:#ffffff;stroke-width:1.18075;stroke-miterlimit:10;fill-opacity:1"
     d="m 81.017488,3.036276 c -2.50409,0 -4.5451,2.093464 -4.5451,4.5847159 0,0.4197932 0.0652,0.8294299 0.1675,1.2186695 l -6.63625,5.7024986 c -1.45026,-0.385092 -3.01932,-0.588218 -4.65862,-0.588218 -1.21772,0 -2.39618,0.112566 -3.517,0.328387 l -2.10024,-2.656122 c 0.40626,-0.699937 0.64036,-1.506854 0.64036,-2.3612512 0,-2.5670008 -2.10255,-4.7234339 -4.68112,-4.7234339 -2.57874,0 -4.67944,2.1564331 -4.67944,4.7234339 0,2.5668302 2.1007,4.7226712 4.67944,4.7226712 0.23411,0 0.46456,-0.01692 0.69038,-0.05925 l 1.36373,1.724961 c -0.36555,0.186198 -0.72177,0.381706 -1.05928,0.595835 -1.95617,1.240336 -3.49581,3.058226 -3.94351,5.228709 h -10.76769 v 4.060652 h 51.2293 c 10.242832,0 18.502212,8.261798 18.502212,18.504664 v 64.194058 c 0,1.50822 -1.17847,2.6866 -2.68667,2.6866 h -7.01334 v 4.06132 h 7.01334 c 3.70292,0 6.74972,-3.0451 6.74972,-6.74792 V 44.043203 c 0,-12.438063 -10.12743,-22.565316 -22.565262,-22.565316 h -15.24884 c -0.43773,-2.120547 -1.9197,-3.903907 -3.81293,-5.141365 l 5.19869,-4.468765 c 0.52009,0.212436 1.08777,0.331772 1.68169,0.331772 2.50408,0 4.54573,-2.095749 4.54573,-4.5871699 0,-2.4913365 -2.04165,-4.5848852 -4.54573,-4.5848852 z m -57.33099,18.449736 c -2.17639,0 -3.98504,1.810273 -3.98504,3.986933 V 97.0629 c 0,9.87927 8.05199,17.9305 17.92809,17.9305 h 55.52057 v -4.06142 h -55.52057 c -7.68118,0 -13.86678,-6.185 -13.86678,-13.86908 V 25.546579 h 9.02142 v -4.060567 z m 14.45062,11.053337 c -3.67847,0 -6.70205,3.02615 -6.70205,6.701455 v 22.57979 h 4.06131 v -22.57979 c 0,-1.479685 1.15838,-2.64021 2.64074,-2.64021 h 7.34038 v 25.22 h 4.0613 v -25.22 h 7.34529 c 1.47959,0 2.6401,1.157732 2.6401,2.64021 v 22.57979 h 4.06131 v -22.57979 c 0,-3.678691 -3.02637,-6.701455 -6.70141,-6.701455 z m 41.36765,0 c -3.61175,0 -6.74767,2.771566 -6.74767,6.357834 v 23.433003 h 4.0612 V 50.713681 h 23.993022 v 11.616505 h 4.0614 V 38.897183 c 0,-3.586268 -3.13602,-6.357834 -6.747962,-6.357834 z m 0,4.061245 h 18.61999 c 1.59906,0 2.686562,1.102887 2.686562,2.296589 v 7.756016 H 76.818298 v -7.756016 c 0,-1.193702 1.0875,-2.296589 2.68647,-2.296589 z m -7.68128,35.942667 V 103.25908 H 103.56987 V 99.197836 H 75.884678 V 89.932511 H 103.5694 V 85.871014 H 75.884678 v -9.266509 h 27.685192 v -4.061244 z m -40.95095,5.07e-4 v 4.061244 h 26.69114 c 1.10426,0 1.96051,0.854228 1.96051,1.958047 v 5.158969 c 0,1.177197 -0.90965,2.084409 -2.08673,2.084409 h -19.1434 c -3.76156,0 -6.85899,3.094027 -6.85899,6.858877 v 5.587988 c 0,2.739658 2.26626,5.008828 5.00953,5.008828 h 26.698 v -4.061248 h -26.698 c -0.54878,0 -0.94786,-0.400327 -0.94786,-0.947835 v -5.587903 c 0,-1.570923 1.22955,-2.795263 2.79769,-2.795263 h 19.14357 c 3.37126,0 6.14804,-2.776558 6.14804,-6.148022 v -5.15897 c 0,-3.300876 -2.72098,-6.01929 -6.02171,-6.01929 z" /></svg>
