<?xml version="1.0" encoding="UTF-8" standalone="no"?>
<!-- Created with Inkscape (http://www.inkscape.org/) -->

<svg
   width="42.898682"
   height="49.999977"
   viewBox="0 0 11.350276 13.229161"
   version="1.1"
   id="svg1"
   xml:space="preserve"
   sodipodi:docname="Logo-Mazespin.svg"
   inkscape:version="1.4-beta (62f545ba5e, 2024-04-22)"
   inkscape:export-filename="Faivicon-Mazespin.svg"
   inkscape:export-xdpi="96"
   inkscape:export-ydpi="96"
   xmlns:inkscape="http://www.inkscape.org/namespaces/inkscape"
   xmlns:sodipodi="http://sodipodi.sourceforge.net/DTD/sodipodi-0.dtd"
   xmlns="http://www.w3.org/2000/svg"
   xmlns:svg="http://www.w3.org/2000/svg"><sodipodi:namedview
     id="namedview1"
     pagecolor="#505050"
     bordercolor="#ffffff"
     borderopacity="1"
     inkscape:showpageshadow="0"
     inkscape:pageopacity="0"
     inkscape:pagecheckerboard="1"
     inkscape:deskcolor="#505050"
     showguides="false"
     inkscape:zoom="8.0539496"
     inkscape:cx="11.795455"
     inkscape:cy="50.720457"
     inkscape:window-width="2560"
     inkscape:window-height="1351"
     inkscape:window-x="-9"
     inkscape:window-y="-9"
     inkscape:window-maximized="1"
     inkscape:current-layer="svg1" /><defs
     id="defs1" /><rect
     style="fill:none;stroke-width:0.396875;stroke-miterlimit:5"
     id="rect1"
     width="135.46667"
     height="135.46667"
     x="-220.0786"
     y="-11.010683" /><path
     id="path55"
     style="fill:#cc0000;stroke-width:0.13951;stroke-miterlimit:10;fill-opacity:1"
     d="m 7.2446631,0.0010369 c -0.29586,0 -0.53702,0.2473501 -0.53702,0.5417002 0,0.0496 0.008,0.098 0.0198,0.1439901 l -0.78409,0.6737702 c -0.17135,-0.0455 -0.35674,-0.0695 -0.55043,-0.0695 -0.14388,0 -0.28312,0.0133 -0.41555,0.0388 l -0.24815,-0.3138301 c 0.048,-0.0827 0.0757,-0.1780401 0.0757,-0.2789901 0,-0.3033001 -0.24842,-0.5580902 -0.55309,-0.5580902 -0.30469,0 -0.55289,0.2547901 -0.55289,0.5580902 0,0.3032801 0.2482,0.5580002 0.55289,0.5580002 0.0277,0 0.0549,-0.002 0.0816,-0.007 l 0.16113,0.2038101 c -0.0432,0.022 -0.0853,0.0451 -0.12516,0.0704 -0.23113,0.1465501 -0.41304,0.3613402 -0.46594,0.6177903 h -1.27224 v 0.4797803 h 6.05292 c 1.21023,0 2.1860999,0.9761604 2.1860999,2.1863909 v 7.584753 c 0,0.178201 -0.13924,0.317431 -0.31743,0.317431 H 9.7241531 v 0.479859 h 0.8286599 c 0.43751,0 0.7975,-0.359789 0.7975,-0.79729 V 4.8461491 c 0,-1.4696007 -1.19659,-2.6661711 -2.6661699,-2.6661711 h -1.8017 c -0.0517,-0.2505502 -0.22682,-0.4612603 -0.45051,-0.6074704 l 0.61424,-0.5280002 c 0.0614,0.0251 0.12853,0.0392 0.1987,0.0392 0.29587,0 0.53709,-0.2476201 0.53709,-0.5419902 0,-0.2943601 -0.24122,-0.5417202009299 -0.53709,-0.5417202009299 z M 0.47081313,2.1809378 c -0.25715,0 -0.470850000506,0.2138901 -0.470850000506,0.4710701 v 8.4586041 c 0,1.16727 0.951370000506,2.118552 2.118269970506,2.118552 h 6.55995 v -0.479872 h -6.55995 c -0.90756,0 -1.63840997,-0.73078 -1.63840997,-1.63868 V 2.6607081 H 1.5457331 V 2.1809378 Z M 2.1782031,3.4869283 c -0.43463,0 -0.79187,0.3575503 -0.79187,0.7918004 V 6.94661 h 0.47986 V 4.2787287 c 0,-0.1748299 0.13686,-0.31195 0.31201,-0.31195 h 0.86729 V 6.94661 h 0.47986 V 3.9667787 h 0.86787 c 0.17482,0 0.31194,0.1367901 0.31194,0.31195 V 6.94661 h 0.47985 V 4.2787287 c 0,-0.4346502 -0.35757,-0.7918004 -0.79179,-0.7918004 z m 4.88773,0 c -0.42674,0 -0.79726,0.3274703 -0.79726,0.7512004 v 2.7686914 h 0.47984 V 5.6342893 h 2.83486 V 7.0068201 H 10.063243 V 4.2381287 c 0,-0.4237301 -0.3705299,-0.7512004 -0.7972899,-0.7512004 z m 0,0.4798504 h 2.20002 c 0.18893,0 0.31742,0.1303099 0.31742,0.27135 v 0.9164005 h -2.83486 V 4.2381287 c 0,-0.1410401 0.1285,-0.27135 0.31742,-0.27135 z m -0.90757,4.246752 v 3.6291813 h 3.75095 v -0.47985 h -3.27111 v -1.094731 h 3.27105 V 9.7882514 h -3.27105 V 8.6933809 h 3.27111 V 8.2135307 Z m -4.8385,5.99e-5 v 0.4798502 h 3.15365 c 0.13048,0 0.23165,0.10093 0.23165,0.2313501 v 0.6095503 c 0,0.1390899 -0.10748,0.2462802 -0.24656,0.2462802 h -2.26186 c -0.44444,0 -0.81041,0.3655696 -0.81041,0.8104006 v 0.66024 c 0,0.3237 0.26776,0.59181 0.59189,0.59181 h 3.15446 v -0.47985 h -3.15446 c -0.0648,0 -0.11199,-0.0473 -0.11199,-0.11199 v -0.66023 c 0,-0.18561 0.14527,-0.330271 0.33055,-0.330271 h 2.26188 c 0.39833,0 0.72642,-0.3280595 0.72642,-0.7264098 V 8.9247708 c 0,-0.3900101 -0.3215,-0.7112002 -0.71149,-0.7112002 z" /></svg>
