<?xml version="1.0" encoding="UTF-8" standalone="no"?>
<svg
   viewBox="0 0 999.99969 600.00096"
   version="1.1"
   id="svg4100"
   sodipodi:docname="australia.svg"
   inkscape:export-filename="..\PNGs\Australia.png"
   inkscape:export-xdpi="11520"
   inkscape:export-ydpi="11520"
   inkscape:version="1.4-beta (62f545ba5e, 2024-04-22)"
   width="999.99969"
   height="600.00098"
   xmlns:inkscape="http://www.inkscape.org/namespaces/inkscape"
   xmlns:sodipodi="http://sodipodi.sourceforge.net/DTD/sodipodi-0.dtd"
   xmlns:xlink="http://www.w3.org/1999/xlink"
   xmlns="http://www.w3.org/2000/svg"
   xmlns:svg="http://www.w3.org/2000/svg">
  <sodipodi:namedview
     id="namedview4102"
     pagecolor="#505050"
     bordercolor="#ffffff"
     borderopacity="1"
     inkscape:showpageshadow="0"
     inkscape:pageopacity="0"
     inkscape:pagecheckerboard="1"
     inkscape:deskcolor="#505050"
     showgrid="false"
     inkscape:zoom="0.35564496"
     inkscape:cx="545.48784"
     inkscape:cy="178.54885"
     inkscape:window-width="2560"
     inkscape:window-height="1351"
     inkscape:window-x="-9"
     inkscape:window-y="-9"
     inkscape:window-maximized="1"
     inkscape:current-layer="g5586"
     showguides="false" />
  <defs
     id="defs3924">
    <linearGradient
       id="a"
       x1="-409.46869"
       y1="-415.7691"
       x2="-409.48511"
       y2="-415.8078"
       gradientTransform="matrix(25.7398,-409.123,-409.123,0,-159551.04,-167518.67)"
       gradientUnits="userSpaceOnUse">
      <stop
         offset="0.022"
         stop-color="#170a34"
         id="stop3831" />
      <stop
         offset="0.0232"
         stop-color="#170a34"
         id="stop3833" />
      <stop
         offset="0.1911"
         stop-color="#221852"
         id="stop3835" />
      <stop
         offset="0.3569"
         stop-color="#2a2167"
         id="stop3837" />
      <stop
         offset="0.5183"
         stop-color="#2f2774"
         id="stop3839" />
      <stop
         offset="0.6703"
         stop-color="#312978"
         id="stop3841" />
    </linearGradient>
    <linearGradient
       id="b"
       x1="-409.47839"
       y1="-415.76511"
       x2="-409.49469"
       y2="-415.80371"
       xlink:href="#a" />
    <linearGradient
       id="c"
       x1="7.5254002"
       y1="8.3353996"
       x2="19.865801"
       y2="13.5736"
       gradientTransform="matrix(1,0,-0.0629,1,1.0818,0)"
       gradientUnits="userSpaceOnUse">
      <stop
         offset="0"
         id="stop3845" />
      <stop
         offset="0.0638"
         stop-color="#2a2a2a"
         id="stop3847" />
      <stop
         offset="0.15"
         stop-color="#5b5b5b"
         id="stop3849" />
      <stop
         offset="0.2408"
         stop-color="#878787"
         id="stop3851" />
      <stop
         offset="0.3345"
         stop-color="#acacac"
         id="stop3853" />
      <stop
         offset="0.4318"
         stop-color="#cacaca"
         id="stop3855" />
      <stop
         offset="0.5338"
         stop-color="#e2e2e2"
         id="stop3857" />
      <stop
         offset="0.6428"
         stop-color="#f2f2f2"
         id="stop3859" />
      <stop
         offset="0.7634"
         stop-color="#fcfcfc"
         id="stop3861" />
      <stop
         offset="0.9188"
         stop-color="#fff"
         id="stop3863" />
    </linearGradient>
    <linearGradient
       id="d"
       x1="-409.46631"
       y1="-415.7702"
       x2="-409.4827"
       y2="-415.80881"
       xlink:href="#a" />
    <linearGradient
       id="e"
       x1="9.6110001"
       y1="3.4221001"
       x2="21.951401"
       y2="8.6603003"
       xlink:href="#c" />
    <linearGradient
       id="f"
       x1="-409.4845"
       y1="-415.76239"
       x2="-409.50089"
       y2="-415.80099"
       xlink:href="#a" />
    <linearGradient
       id="g"
       x1="6.4562998"
       y1="10.8541"
       x2="18.7967"
       y2="16.0923"
       xlink:href="#c" />
    <linearGradient
       id="h"
       x1="-409.46811"
       y1="-415.76941"
       x2="-409.4845"
       y2="-415.80801"
       xlink:href="#a" />
    <linearGradient
       id="i"
       x1="9.3044996"
       y1="4.1440001"
       x2="21.645"
       y2="9.3822002"
       xlink:href="#c" />
    <linearGradient
       id="j"
       x1="-409.45609"
       y1="-415.77451"
       x2="-409.4725"
       y2="-415.81311"
       xlink:href="#a" />
    <linearGradient
       id="k"
       x1="11.3892"
       y1="-0.76719999"
       x2="23.7297"
       y2="4.4710002"
       xlink:href="#c" />
    <linearGradient
       id="l"
       x1="7.9419999"
       y1="-0.3565"
       x2="7.9419999"
       y2="20.789801"
       gradientTransform="matrix(1,0,-0.0629,1,1.0818,0)"
       gradientUnits="userSpaceOnUse">
      <stop
         offset="0.6593"
         stop-color="#312978"
         id="stop3874" />
      <stop
         offset="0.8329"
         stop-color="#241955"
         id="stop3876" />
      <stop
         offset="0.978"
         stop-color="#170a34"
         id="stop3878" />
    </linearGradient>
    <linearGradient
       id="m"
       x1="4.2335"
       y1="-0.3565"
       x2="4.2335"
       y2="20.789801"
       xlink:href="#l"
       gradientTransform="matrix(33.333312,0,0,33.333312,-119.59087,-288.50157)" />
    <linearGradient
       id="n"
       x1="14.5148"
       y1="-0.3565"
       x2="14.5148"
       y2="20.789801"
       xlink:href="#l"
       gradientTransform="matrix(33.333312,0,0,33.333312,-119.59087,-288.50157)" />
    <linearGradient
       id="o"
       x1="-409.46051"
       y1="-415.77261"
       x2="-409.4769"
       y2="-415.81119"
       xlink:href="#a"
       gradientTransform="matrix(33.333312,0,0,33.333312,-119.59087,-288.50157)" />
    <linearGradient
       id="p"
       x1="12.4767"
       y1="-0.3565"
       x2="12.4767"
       y2="20.789801"
       xlink:href="#l"
       gradientTransform="matrix(33.333312,0,0,33.333312,-119.59087,-288.50157)" />
    <linearGradient
       id="q"
       x1="5.0882001"
       y1="-0.3565"
       x2="5.0882001"
       y2="20.7899"
       xlink:href="#l"
       gradientTransform="matrix(33.333312,0,0,33.333312,-119.59087,-288.50157)" />
    <linearGradient
       id="r"
       x1="2.8113999"
       y1="-0.3565"
       x2="2.8113999"
       y2="20.789801"
       xlink:href="#l" />
    <linearGradient
       id="s"
       x1="-409.4935"
       y1="-415.75861"
       x2="-409.50989"
       y2="-415.79721"
       xlink:href="#a"
       gradientTransform="matrix(33.333312,0,0,33.333312,-119.59087,-288.50157)" />
    <linearGradient
       id="t"
       x1="7.5580001"
       y1="-0.3565"
       x2="7.5580001"
       y2="20.789801"
       xlink:href="#l"
       gradientTransform="matrix(33.333312,0,0,33.333312,-119.59087,-288.50157)" />
    <linearGradient
       id="u"
       x1="-409.4899"
       y1="-415.76019"
       x2="-409.50629"
       y2="-415.7988"
       xlink:href="#a"
       gradientTransform="matrix(33.333312,0,0,33.333312,-119.59087,-288.50157)" />
    <linearGradient
       id="v"
       x1="7.3295999"
       y1="-0.3565"
       x2="7.3295999"
       y2="20.789801"
       xlink:href="#l"
       gradientTransform="matrix(33.333312,0,0,33.333312,-119.59087,-288.50157)" />
    <linearGradient
       id="w"
       x1="-409.4848"
       y1="-415.7623"
       x2="-409.50119"
       y2="-415.8009"
       xlink:href="#a"
       gradientTransform="matrix(33.333312,0,0,33.333312,-119.59087,-288.50157)" />
    <linearGradient
       id="x"
       x1="7.3713999"
       y1="-0.3565"
       x2="7.3713999"
       y2="20.789801"
       xlink:href="#l"
       gradientTransform="matrix(33.333312,0,0,33.333312,-119.59087,-288.50157)" />
    <linearGradient
       id="y"
       x1="-409.49289"
       y1="-415.75891"
       x2="-409.50931"
       y2="-415.79749"
       xlink:href="#a"
       gradientTransform="matrix(33.333312,0,0,33.333312,-119.59087,-288.50157)" />
    <linearGradient
       id="z"
       x1="7.4436998"
       y1="-0.3565"
       x2="7.4436998"
       y2="20.789801"
       xlink:href="#l"
       gradientTransform="matrix(33.333312,0,0,33.333312,-119.59087,-288.50157)" />
    <linearGradient
       id="aa"
       x1="-409.49481"
       y1="-415.75809"
       x2="-409.5112"
       y2="-415.79669"
       xlink:href="#a"
       gradientTransform="matrix(33.333312,0,0,33.333312,-119.59087,-288.50157)" />
    <linearGradient
       id="ab"
       x1="9.8900003"
       y1="-0.3565"
       x2="9.8900003"
       y2="20.789801"
       xlink:href="#l"
       gradientTransform="matrix(33.333312,0,0,33.333312,-119.59087,-288.50157)" />
    <linearGradient
       id="ac"
       x1="-409.45361"
       y1="-415.77551"
       x2="-409.47"
       y2="-415.81421"
       xlink:href="#a"
       gradientTransform="matrix(33.333312,0,0,33.333312,-119.59087,-288.50157)" />
    <linearGradient
       id="ad"
       x1="16.1014"
       y1="-0.3565"
       x2="16.1014"
       y2="20.789801"
       xlink:href="#l"
       gradientTransform="matrix(33.333312,0,0,33.333312,-119.59087,-288.50157)" />
    <linearGradient
       id="ae"
       x1="-409.4938"
       y1="-415.75851"
       x2="-409.51019"
       y2="-415.79709"
       xlink:href="#a" />
    <linearGradient
       id="af"
       x1="7.6389999"
       y1="-0.3565"
       x2="7.6389999"
       y2="20.789801"
       xlink:href="#l" />
    <linearGradient
       id="ag"
       x1="-409.45419"
       y1="-415.7753"
       x2="-409.47061"
       y2="-415.8139"
       xlink:href="#a"
       gradientTransform="matrix(33.333312,0,0,33.333312,-119.59087,-288.50157)" />
    <linearGradient
       id="ah"
       x1="15.6142"
       y1="-0.3565"
       x2="15.6142"
       y2="20.789801"
       xlink:href="#l"
       gradientTransform="matrix(33.333312,0,0,33.333312,-119.59087,-288.50157)" />
    <linearGradient
       id="ai"
       x1="-409.4812"
       y1="-415.76379"
       x2="-409.49759"
       y2="-415.8024"
       xlink:href="#a"
       gradientTransform="matrix(33.333312,0,0,33.333312,-119.59087,-288.50157)" />
    <linearGradient
       id="aj"
       x1="7.9106998"
       y1="-0.3565"
       x2="7.9106998"
       y2="20.789801"
       xlink:href="#l"
       gradientTransform="matrix(33.333312,0,0,33.333312,-119.59087,-288.50157)" />
    <linearGradient
       id="ak"
       x1="-409.4595"
       y1="-415.77301"
       x2="-409.47589"
       y2="-415.81161"
       xlink:href="#a"
       gradientTransform="matrix(33.333312,0,0,33.333312,-119.59087,-288.50157)" />
    <linearGradient
       id="al"
       x1="12.8411"
       y1="-0.3565"
       x2="12.8411"
       y2="20.789801"
       xlink:href="#l"
       gradientTransform="matrix(33.333312,0,0,33.333312,-119.59087,-288.50157)" />
    <linearGradient
       id="am"
       x1="-409.49429"
       y1="-415.7583"
       x2="-409.51071"
       y2="-415.79691"
       xlink:href="#a"
       gradientTransform="matrix(33.333312,0,0,33.333312,-119.59087,-288.50157)" />
    <linearGradient
       id="an"
       x1="7.8632002"
       y1="-0.3565"
       x2="7.8632002"
       y2="20.789801"
       xlink:href="#l"
       gradientTransform="matrix(33.333312,0,0,33.333312,-119.59087,-288.50157)" />
    <linearGradient
       id="ao"
       x1="-409.45511"
       y1="-415.7749"
       x2="-409.4715"
       y2="-415.81351"
       xlink:href="#a"
       gradientTransform="matrix(33.333312,0,0,33.333312,-119.59087,-288.50157)" />
    <linearGradient
       id="ap"
       x1="15.0015"
       y1="-0.3565"
       x2="15.0015"
       y2="20.789801"
       xlink:href="#l"
       gradientTransform="matrix(33.333312,0,0,33.333312,-119.59087,-288.50157)" />
    <linearGradient
       id="aq"
       x1="-409.49509"
       y1="-415.7579"
       x2="-409.51151"
       y2="-415.79651"
       xlink:href="#a"
       gradientTransform="matrix(33.333312,0,0,33.333312,-119.59087,-288.50157)" />
    <linearGradient
       id="ar"
       x1="9.0309"
       y1="-0.3565"
       x2="9.0309"
       y2="20.789801"
       xlink:href="#l"
       gradientTransform="matrix(33.333312,0,0,33.333312,-119.59087,-288.50157)" />
    <linearGradient
       id="as"
       x1="-409.4949"
       y1="-415.758"
       x2="-409.5112"
       y2="-415.79669"
       xlink:href="#a"
       gradientTransform="matrix(33.333312,0,0,33.333312,-119.59087,-288.50157)" />
    <linearGradient
       id="at"
       x1="8.2494001"
       y1="-0.3565"
       x2="8.2494001"
       y2="20.789801"
       xlink:href="#l"
       gradientTransform="matrix(33.333312,0,0,33.333312,-119.59087,-288.50157)" />
    <linearGradient
       id="au"
       x1="-409.4946"
       y1="-415.75821"
       x2="-409.51099"
       y2="-415.79681"
       xlink:href="#a"
       gradientTransform="matrix(33.333312,0,0,33.333312,-119.59087,-288.50157)" />
    <linearGradient
       id="av"
       x1="8.0262003"
       y1="-0.3565"
       x2="8.0262003"
       y2="20.789801"
       xlink:href="#l"
       gradientTransform="matrix(33.333312,0,0,33.333312,-119.59087,-288.50157)" />
    <linearGradient
       id="aw"
       x1="6.7793002"
       y1="10.0931"
       x2="19.119699"
       y2="15.3313"
       xlink:href="#c"
       gradientTransform="matrix(33.333312,0,0,33.333312,-119.59087,-288.50157)" />
    <linearGradient
       id="ax"
       x1="6.9243999"
       y1="-0.3565"
       x2="6.9243999"
       y2="20.789801"
       xlink:href="#l"
       gradientTransform="matrix(33.333312,0,0,33.333312,-119.59087,-288.50157)" />
    <linearGradient
       id="ay"
       x1="5.9429998"
       y1="12.0633"
       x2="18.2834"
       y2="17.3015"
       xlink:href="#c"
       gradientTransform="matrix(33.333312,0,0,33.333312,-119.59087,-288.50157)" />
    <linearGradient
       id="az"
       x1="6.5950999"
       y1="-0.3565"
       x2="6.5950999"
       y2="20.789801"
       xlink:href="#l"
       gradientTransform="matrix(33.333312,0,0,33.333312,-119.59087,-288.50157)" />
    <linearGradient
       id="ba"
       x1="-409.48499"
       y1="-415.76221"
       x2="-409.5014"
       y2="-415.80081"
       xlink:href="#a"
       gradientTransform="matrix(33.333312,0,0,33.333312,-119.59087,-288.50157)" />
    <linearGradient
       id="bb"
       x1="6.3738999"
       y1="11.0481"
       x2="18.714399"
       y2="16.286301"
       xlink:href="#c"
       gradientTransform="matrix(33.333312,0,0,33.333312,-119.59087,-288.50157)" />
    <linearGradient
       id="bc"
       x1="7.6760001"
       y1="-0.3565"
       x2="7.6760001"
       y2="20.789801"
       xlink:href="#l"
       gradientTransform="matrix(33.333312,0,0,33.333312,-119.59087,-288.50157)" />
    <clipPath
       clipPathUnits="userSpaceOnUse"
       id="clipPath2029">
      <path
         style="fill:#009949;fill-opacity:1;stroke-width:8.49335;stroke-linecap:round;stroke-linejoin:round;paint-order:fill markers stroke"
         d="m 1583.1855,0 c -85.8698,0 -184.3434,69.13017 -220.7929,155 l -123.0977,290 c -36.4495,85.86982 3.3372,155 89.2071,155 h 243.5683 c -92.3516,0 -137.649,-68.43716 -101.5644,-153.44727 l 124.416,-293.10546 C 1631.0065,68.43715 1734.4043,0 1826.7559,0 Z"
         id="path2031" />
    </clipPath>
    <clipPath
       id="c1">
      <path
         d="M 0,0 H 6 V 3 H 0 Z"
         id="path54526" />
    </clipPath>
    <clipPath
       id="c2">
      <path
         d="M 0,0 V 1.5 H 6 V 3 3 Z M 6,0 H 3 V 3 H 0 v 0 z"
         id="path54529" />
    </clipPath>
    <clipPath
       clipPathUnits="userSpaceOnUse"
       id="clipPath2866">
      <path
         id="path2868"
         style="fill:#ffffff;fill-opacity:1;stroke-width:8.8525;stroke-linecap:round;stroke-linejoin:round;paint-order:fill markers stroke"
         d="m -506.05906,-318.12786 c -92.3516,0 -166.69945,74.34742 -166.6995,166.69903 l -1.1e-4,318.41817 c 1.5e-4,92.35161 74.3474,166.69903 166.699,166.69903 h 244.0254 c 85.8697,0 154.99935,-75.10037 154.99931,-168.38586 3.5e-4,-161.143162 -5.1e-4,-322.28736 -6e-4,-483.43037 -133.0078,0 -266.0157,0 -399.0235,0 z"
         sodipodi:nodetypes="cscssccc" />
    </clipPath>
    <clipPath
       clipPathUnits="userSpaceOnUse"
       id="clipPath3969">
      <path
         style="fill:#012169;fill-opacity:1;stroke-width:9.05957;stroke-linecap:round;stroke-linejoin:round;paint-order:fill markers stroke"
         d="m 1363.7485,-276.25981 c -91.5945,0 -165.3327,73.73886 -165.3326,165.33334 v 309.33335 c 10e-5,91.59447 73.7395,165.33334 165.3341,165.33334 h 259.8062 c -98.5084,0 -177.8121,-72.99964 -177.8122,-163.6771 l 10e-5,-312.64583 c 0,-90.67747 79.3045,-163.6771 177.8128,-163.6771 z"
         id="path3971" />
    </clipPath>
    <clipPath
       clipPathUnits="userSpaceOnUse"
       id="clipPath5045">
      <path
         id="path5047"
         style="fill:#012169;fill-opacity:1;stroke-width:8.49335;stroke-linecap:round;stroke-linejoin:round;paint-order:fill markers stroke"
         d="m 488.39039,-292.83823 c -92.3516,0 -195.7493,68.43716 -231.834,153.44727 l -124.416,293.10547 c -36.0845,85.0101 9.2129,153.44726 101.5645,153.44726 h 244.0254 c 85.8697,0 184.3434,-69.13025 220.7929,-155 62.96399,-148.333057 125.92724,-296.66708 188.89068,-445 -133.00782,0 -266.01568,0 -399.02348,0 z"
         sodipodi:nodetypes="cscssccc" />
    </clipPath>
    <clipPath
       id="c1-8">
      <path
         d="M 0,0 H 6 V 3 H 0 Z"
         id="path54526-2" />
    </clipPath>
    <clipPath
       id="c2-4">
      <path
         d="M 0,0 V 1.5 H 6 V 3 3 Z M 6,0 H 3 V 3 H 0 v 0 z"
         id="path54529-5" />
    </clipPath>
  </defs>
  <title
     id="title3926">flag-ar</title>
  <g
     id="g5586"
     inkscape:export-filename="..\PNGs\PNGs\Discord Emoji\Australia.png"
     inkscape:export-xdpi="144.00005"
     inkscape:export-ydpi="144.00005"
     transform="translate(982.73279,292.8392)">
    <g
       id="g5"
       transform="matrix(0.12698413,0,0,0.12698413,-982.73295,-292.83872)">
      <g
         transform="scale(656.25,787.5)"
         id="g54546">
        <rect
           width="12"
           height="6"
           fill="#012169"
           id="rect54536"
           x="0"
           y="0" />
        <path
           d="M 0,0 6,3 M 6,0 0,3"
           stroke="#ffffff"
           stroke-width="0.6"
           clip-path="url(#c1-8)"
           id="path54538-5" />
        <path
           d="M 0,0 6,3 M 6,0 0,3"
           stroke="#e4002b"
           stroke-width="0.4"
           clip-path="url(#c2-4)"
           id="path54540-1" />
        <path
           d="M 3,0 V 3 M 0,1.5 h 6"
           stroke="#ffffff"
           id="path54542-7" />
        <path
           d="M 3,0 V 3 M 0,1.5 h 6"
           stroke="#e4002b"
           stroke-width="0.6"
           id="path54544-1"
           sodipodi:nodetypes="cccc" />
      </g>
      <path
         id="Comwlth-1"
         d="m 1968.75,2835 136.6734,424.9448 417.4497,-158.0932 -247.0208,371.8043 383.8779,227.8058 -444.7033,38.6876 61.2382,442.1624 -307.5151,-323.5617 -307.5151,323.5617 61.2382,-442.1624 -444.7033,-38.6876 383.8779,-227.8058 -247.0208,-371.8043 417.4497,158.0932 z"
         style="fill:#ffffff;stroke-width:1.96875" />
      <g
         id="g4"
         transform="translate(-1115.625)">
        <path
           id="αCrucis"
           d="m 7087.5,3600 65.0826,202.3547 198.7855,-75.2825 -117.6289,177.0497 182.799,108.4789 -211.7635,18.4227 29.1611,210.5535 L 7087.5,4087.5 l -146.4358,154.077 29.1611,-210.5535 -211.7635,-18.4227 182.799,-108.4789 -117.6289,-177.0497 198.7855,75.2825 z"
           style="fill:#ffffff;stroke-width:0.9375" />
        <path
           id="βCrucis"
           d="m 5906.25,1729.6875 65.0826,202.3547 198.7855,-75.2825 -117.6289,177.0497 182.799,108.4789 -211.7635,18.4227 29.1611,210.5535 -146.4358,-154.077 -146.4358,154.077 29.1611,-210.5535 -211.7635,-18.4227 182.799,-108.4789 -117.6289,-177.0497 198.7855,75.2825 z"
           style="fill:#ffffff;stroke-width:0.9375" />
        <path
           id="γCrucis"
           d="m 7087.5,450 65.0826,202.35467 198.7855,-75.28248 -117.6289,177.04967 182.799,108.47895 -211.7635,18.42266 29.1611,210.55353 L 7087.5,937.5 l -146.4358,154.077 29.1611,-210.55353 -211.7635,-18.42266 182.799,-108.47895 -117.6289,-177.04967 198.7855,75.28248 z"
           style="fill:#ffffff;stroke-width:0.9375" />
        <path
           id="δCrucis"
           d="m 8137.5,1414.6875 65.0826,202.3547 198.7855,-75.2825 -117.6289,177.0497 182.799,108.4789 -211.7635,18.4227 29.1611,210.5535 -146.4358,-154.077 -146.4358,154.077 29.1611,-210.5535 -211.7635,-18.4227 182.799,-108.4789 -117.6289,-177.0497 198.7855,75.2825 z"
           style="fill:#ffffff;stroke-width:0.9375" />
        <path
           id="εCrucis"
           d="m 7560,2362.5 51.4312,126.086 135.8081,9.9513 -104.0219,87.8767 32.5028,132.2362 L 7560,2646.875 l -115.7202,71.7752 32.5028,-132.2362 -104.0219,-87.8767 135.8081,-9.9513 z"
           style="fill:#ffffff;stroke-width:0.9375" />
      </g>
    </g>
  </g>
</svg>
