<?xml version="1.0" encoding="UTF-8" standalone="no"?>
<svg
   viewBox="0 0 999.99969 600.001"
   version="1.1"
   id="svg20731"
   sodipodi:docname="brazil.svg"
   inkscape:export-filename="..\PNGs\Brazil.png"
   inkscape:export-xdpi="409.60001"
   inkscape:export-ydpi="409.60001"
   inkscape:version="1.4-beta (62f545ba5e, 2024-04-22)"
   width="999.99969"
   height="600.00098"
   xmlns:inkscape="http://www.inkscape.org/namespaces/inkscape"
   xmlns:sodipodi="http://sodipodi.sourceforge.net/DTD/sodipodi-0.dtd"
   xmlns="http://www.w3.org/2000/svg"
   xmlns:svg="http://www.w3.org/2000/svg">
  <sodipodi:namedview
     id="namedview20733"
     pagecolor="#505050"
     bordercolor="#ffffff"
     borderopacity="1"
     inkscape:showpageshadow="0"
     inkscape:pageopacity="0"
     inkscape:pagecheckerboard="1"
     inkscape:deskcolor="#505050"
     showgrid="false"
     inkscape:zoom="0.38272676"
     inkscape:cx="-120.19018"
     inkscape:cy="95.368299"
     inkscape:window-width="2560"
     inkscape:window-height="1351"
     inkscape:window-x="-9"
     inkscape:window-y="-9"
     inkscape:window-maximized="1"
     inkscape:current-layer="svg20731" />
  <defs
     id="defs20641">
    <linearGradient
       id="a"
       x1="-409.5"
       y1="-415.79099"
       x2="-409.45801"
       y2="-415.79099"
       gradientTransform="matrix(892.20104,-14181.04,-14181.04,0,-5530579.7,-5806539.7)"
       gradientUnits="userSpaceOnUse">
      <stop
         offset="0"
         stop-color="#329b32"
         id="stop20587" />
      <stop
         offset="0.228"
         stop-color="#319831"
         id="stop20589" />
      <stop
         offset="0.41"
         stop-color="#2c8e2c"
         id="stop20591" />
      <stop
         offset="0.578"
         stop-color="#257d25"
         id="stop20593" />
      <stop
         offset="0.736"
         stop-color="#1a651b"
         id="stop20595" />
      <stop
         offset="0.886"
         stop-color="#0d470e"
         id="stop20597" />
      <stop
         offset="1"
         stop-color="#002a02"
         id="stop20599" />
    </linearGradient>
    <linearGradient
       id="b"
       x1="5.3930001"
       y1="6.6700001"
       x2="21.875999"
       y2="12.669"
       gradientTransform="matrix(1,0,-0.063,1,1.082,0)"
       gradientUnits="userSpaceOnUse">
      <stop
         offset="0.194"
         stop-color="#3e3b00"
         id="stop20602" />
      <stop
         offset="0.291"
         stop-color="#686200"
         id="stop20604" />
      <stop
         offset="0.412"
         stop-color="#968c00"
         id="stop20606" />
      <stop
         offset="0.534"
         stop-color="#bcae00"
         id="stop20608" />
      <stop
         offset="0.654"
         stop-color="#d9c900"
         id="stop20610" />
      <stop
         offset="0.773"
         stop-color="#ed0"
         id="stop20612" />
      <stop
         offset="0.889"
         stop-color="#fbe800"
         id="stop20614" />
      <stop
         offset="1"
         stop-color="#ffec00"
         id="stop20616" />
    </linearGradient>
    <linearGradient
       id="c"
       x1="12.979"
       y1="1.53"
       x2="19.905001"
       y2="4.3530002"
       gradientTransform="matrix(34.038128,4.7140381,-6.8630849,34.350087,-342.81406,52.02773)"
       gradientUnits="userSpaceOnUse">
      <stop
         offset="0.332"
         stop-color="#00162e"
         id="stop20619" />
      <stop
         offset="0.811"
         stop-color="#005b94"
         id="stop20621" />
      <stop
         offset="1"
         stop-color="#0077be"
         id="stop20623" />
    </linearGradient>
    <linearGradient
       id="d"
       x1="8.2379999"
       y1="17.309999"
       x2="8.2379999"
       gradientTransform="matrix(34.662045,0,-2.1837088,34.662045,-176.81753,0)"
       gradientUnits="userSpaceOnUse">
      <stop
         offset="0"
         stop-color="#002a02"
         id="stop20626" />
      <stop
         offset="0.076"
         stop-color="#083b09"
         id="stop20628" />
      <stop
         offset="0.253"
         stop-color="#175e18"
         id="stop20630" />
      <stop
         offset="0.434"
         stop-color="#237823"
         id="stop20632" />
      <stop
         offset="0.617"
         stop-color="#2b8c2c"
         id="stop20634" />
      <stop
         offset="0.804"
         stop-color="#309730"
         id="stop20636" />
      <stop
         offset="1"
         stop-color="#329b32"
         id="stop20638" />
    </linearGradient>
    <clipPath
       clipPathUnits="userSpaceOnUse"
       id="clipPath2022">
      <path
         id="path2024"
         style="fill:#ffffff;fill-opacity:1;stroke-width:8.49335;stroke-linecap:round;stroke-linejoin:round;paint-order:fill markers stroke"
         d="m 1583.0512,599.99902 c 92.3516,0 195.7493,-68.43716 231.834,-153.44727 l 124.416,-293.10547 C 1975.3857,68.43618 1930.0883,-9.8e-4 1837.7367,-9.8e-4 h -244.0254 c -85.8697,0 -184.3434,69.13025 -220.7929,155 -62.964,148.33306 -125.9272,296.66708 -188.8907,445 133.0078,0 266.0157,0 399.0235,0 z"
         sodipodi:nodetypes="cscssccc" />
    </clipPath>
    <clipPath
       clipPathUnits="userSpaceOnUse"
       id="clipPath2029">
      <path
         style="fill:#009949;fill-opacity:1;stroke-width:8.49335;stroke-linecap:round;stroke-linejoin:round;paint-order:fill markers stroke"
         d="m 1583.1855,0 c -85.8698,0 -184.3434,69.13017 -220.7929,155 l -123.0977,290 c -36.4495,85.86982 3.3372,155 89.2071,155 h 243.5683 c -92.3516,0 -137.649,-68.43716 -101.5644,-153.44727 l 124.416,-293.10546 C 1631.0065,68.43715 1734.4043,0 1826.7559,0 Z"
         id="path2031" />
    </clipPath>
    <linearGradient
       id="a-5"
       x1="-409.5"
       y1="-415.79099"
       x2="-409.45801"
       y2="-415.79099"
       gradientTransform="matrix(892.20104,-14181.04,-14181.04,0,-5530427.1,-5806533.4)"
       gradientUnits="userSpaceOnUse">
      <stop
         offset="0"
         stop-color="#329b32"
         id="stop20587-5" />
      <stop
         offset="0.228"
         stop-color="#319831"
         id="stop20589-1" />
      <stop
         offset="0.41"
         stop-color="#2c8e2c"
         id="stop20591-8" />
      <stop
         offset="0.578"
         stop-color="#257d25"
         id="stop20593-8" />
      <stop
         offset="0.736"
         stop-color="#1a651b"
         id="stop20595-0" />
      <stop
         offset="0.886"
         stop-color="#0d470e"
         id="stop20597-7" />
      <stop
         offset="1"
         stop-color="#002a02"
         id="stop20599-1" />
    </linearGradient>
    <linearGradient
       id="c-0"
       x1="12.979"
       y1="1.53"
       x2="19.905001"
       y2="4.3530002"
       gradientTransform="matrix(34.038128,4.7140381,-6.8630849,34.350087,807.10074,58.229579)"
       gradientUnits="userSpaceOnUse">
      <stop
         offset="0.332"
         stop-color="#00162e"
         id="stop20619-8" />
      <stop
         offset="0.811"
         stop-color="#005b94"
         id="stop20621-5" />
      <stop
         offset="1"
         stop-color="#0077be"
         id="stop20623-5" />
    </linearGradient>
    <linearGradient
       id="d-7"
       x1="8.2379999"
       y1="17.309999"
       x2="8.2379999"
       gradientTransform="matrix(34.662045,0,-2.1837088,34.662045,-24.237097,6.20185)"
       gradientUnits="userSpaceOnUse">
      <stop
         offset="0"
         stop-color="#002a02"
         id="stop20626-6" />
      <stop
         offset="0.076"
         stop-color="#083b09"
         id="stop20628-1" />
      <stop
         offset="0.253"
         stop-color="#175e18"
         id="stop20630-8" />
      <stop
         offset="0.434"
         stop-color="#237823"
         id="stop20632-8" />
      <stop
         offset="0.617"
         stop-color="#2b8c2c"
         id="stop20634-7" />
      <stop
         offset="0.804"
         stop-color="#309730"
         id="stop20636-9" />
      <stop
         offset="1"
         stop-color="#329b32"
         id="stop20638-5" />
    </linearGradient>
    <clipPath
       clipPathUnits="userSpaceOnUse"
       id="clipPath4758-4">
      <ellipse
         cx="1662.01"
         cy="386.92999"
         style="fill:#d60711;fill-opacity:1;stroke-width:35.9993"
         id="circle4760-3"
         rx="176.03439"
         ry="205.31662"
         transform="matrix(1,0,0.36393629,0.93142384,0,0)" />
    </clipPath>
    <clipPath
       clipPathUnits="userSpaceOnUse"
       id="clipPath9513">
      <path
         d="M 1654.2125,298.79329 A 232.11446,153.63321 45 0 1 1516.52,455.0635 200.80765,132.91168 45 0 1 1304.0858,249.01276 232.20327,153.69199 45 0 1 1441.7637,92.704887 200.89646,132.97046 45 0 1 1654.2125,298.79329 Z"
         style="fill:#002277;fill-opacity:1;stroke-width:36.1277"
         id="path9515" />
    </clipPath>
  </defs>
  <title
     id="title20643">flag-br</title>
  <path
     fill="#ffffff"
     fill-rule="evenodd"
     d="m 440.56609,384.4099 1.44084,5.63489 -4.9152,-3.10999 -4.91369,3.10999 1.44083,-5.63489 -4.47825,-3.71323 5.8057,-0.37041 2.14541,-5.40657 2.14841,5.40657 5.80419,0.37041 z"
     id="path1"
     style="mix-blend-mode:normal;stroke:none;stroke-width:1.14384;stroke-linecap:butt;stroke-linejoin:miter;stroke-miterlimit:10;stroke-dashoffset:0" />
  <path
     fill="#ffffff"
     fill-rule="evenodd"
     d="m 393.80288,339.15406 1.44083,5.63941 -4.9152,-3.11451 -4.91369,3.11451 1.43933,-5.63941 -4.47675,-3.7087 5.8042,-0.37192 2.1469,-5.40506 2.14691,5.40506 5.80419,0.37192 z"
     id="path2"
     style="mix-blend-mode:normal;stroke:none;stroke-width:1.14384;stroke-linecap:butt;stroke-linejoin:miter;stroke-miterlimit:10;stroke-dashoffset:0" />
  <path
     fill="#ffffff"
     fill-rule="evenodd"
     d="m 381.47179,276.87868 1.44084,5.63488 -4.91369,-3.11149 -4.9152,3.11149 1.44083,-5.63488 -4.47825,-3.71172 5.8057,-0.37192 2.14691,-5.40657 2.1454,5.40657 5.80571,0.37192 z"
     id="path3"
     style="mix-blend-mode:normal;stroke:none;stroke-width:1.14384;stroke-linecap:butt;stroke-linejoin:miter;stroke-miterlimit:10;stroke-dashoffset:0" />
  <path
     fill="#009c37"
     fill-rule="evenodd"
     d="M 999.99969,4.9035556e-4 V 600.00049 H -1.8242187e-6 V 4.9035556e-4 Z"
     id="path4"
     style="mix-blend-mode:normal;stroke:none;stroke-width:1.23549;stroke-linecap:butt;stroke-linejoin:miter;stroke-miterlimit:10;stroke-dashoffset:0" />
  <path
     fill="#fee000"
     fill-rule="nonzero"
     d="M 855.71414,300.00049 499.99986,527.14335 144.28558,300.00049 499.99986,72.857628 Z"
     id="path5"
     style="mix-blend-mode:normal;stroke:none;stroke-width:1.14384;stroke-linecap:butt;stroke-linejoin:miter;stroke-miterlimit:10;stroke-dashoffset:0" />
  <path
     fill="#002277"
     fill-rule="nonzero"
     d="m 499.99909,150.00049 c 82.82945,0 150.00077,67.17052 150.00077,150.00076 0,82.83027 -67.17138,149.99924 -150.00077,149.99924 -82.82936,0 -149.99923,-67.1705 -149.99923,-149.99924 0,-82.82873 67.16985,-150.00076 149.99923,-150.00076 z"
     id="path6"
     style="mix-blend-mode:normal;stroke:none;stroke-width:1.14384;stroke-linecap:butt;stroke-linejoin:miter;stroke-miterlimit:10;stroke-dashoffset:0" />
  <path
     fill="#ffffff"
     fill-rule="evenodd"
     d="m 549.325,249.0944 1.44083,5.63489 -4.91218,-3.1115 -4.9152,3.1115 1.44235,-5.63489 -4.47979,-3.71172 5.80724,-0.37192 2.1454,-5.40657 2.14388,5.40657 5.8057,0.37192 z"
     id="path7"
     style="mix-blend-mode:normal;stroke:none;stroke-width:1.14384;stroke-linecap:butt;stroke-linejoin:miter;stroke-miterlimit:10;stroke-dashoffset:0" />
  <path
     fill="#ffffff"
     fill-rule="evenodd"
     d="m 537.65459,291.92667 1.03415,4.05342 -3.53333,-2.23762 -3.53635,2.23762 1.03869,-4.05342 -3.22337,-2.67002 4.17588,-0.2661 1.54517,-3.88862 1.54367,3.88862 4.17588,0.2661 z"
     id="path8"
     style="mix-blend-mode:normal;stroke:none;stroke-width:1.14384;stroke-linecap:butt;stroke-linejoin:miter;stroke-miterlimit:10;stroke-dashoffset:0" />
  <path
     fill="#ffffff"
     fill-rule="evenodd"
     d="m 381.47103,276.87868 1.44083,5.63488 -4.91218,-3.11149 -4.9152,3.11149 1.44235,-5.63488 -4.47979,-3.71172 5.80724,-0.37192 2.1454,-5.40657 2.14388,5.40657 5.8057,0.37192 z"
     id="path9"
     style="mix-blend-mode:normal;stroke:none;stroke-width:1.14384;stroke-linecap:butt;stroke-linejoin:miter;stroke-miterlimit:10;stroke-dashoffset:0" />
  <path
     fill="#ffffff"
     fill-rule="evenodd"
     d="m 444.4018,307.31937 1.21707,4.75494 -4.14868,-2.62467 -4.14714,2.62467 1.21707,-4.75494 -3.77976,-3.13568 4.89858,-0.31145 1.81125,-4.56141 1.81278,4.56141 4.89858,0.31145 z"
     id="path10"
     style="mix-blend-mode:normal;stroke:none;stroke-width:1.14384;stroke-linecap:butt;stroke-linejoin:miter;stroke-miterlimit:10;stroke-dashoffset:0" />
  <path
     fill="#ffffff"
     fill-rule="evenodd"
     d="m 405.94046,328.73854 0.7756,3.03138 -2.64431,-1.67367 -2.64281,1.67367 0.77409,-3.03138 -2.40846,-1.99723 3.12208,-0.19957 1.1551,-2.9089 1.15509,2.9089 3.1236,0.19957 z"
     id="path11"
     style="mix-blend-mode:normal;stroke:none;stroke-width:1.14384;stroke-linecap:butt;stroke-linejoin:miter;stroke-miterlimit:10;stroke-dashoffset:0" />
  <path
     fill="#ffffff"
     fill-rule="evenodd"
     d="m 393.80137,339.15859 1.44083,5.63488 -4.91218,-3.11149 -4.9152,3.11149 1.44235,-5.63488 -4.47979,-3.71172 5.80724,-0.37192 2.1454,-5.40657 2.14388,5.40657 5.8057,0.37192 z"
     id="path12"
     style="mix-blend-mode:normal;stroke:none;stroke-width:1.14384;stroke-linecap:butt;stroke-linejoin:miter;stroke-miterlimit:10;stroke-dashoffset:0" />
  <path
     fill="#ffffff"
     fill-rule="evenodd"
     d="m 377.5514,351.90696 1.21557,4.75494 -4.14715,-2.62468 -4.14715,2.62468 1.21557,-4.75494 -3.77823,-3.13115 4.89707,-0.31449 1.81278,-4.56443 1.81125,4.56443 4.89858,0.31449 z"
     id="path13"
     style="mix-blend-mode:normal;stroke:none;stroke-width:1.14384;stroke-linecap:butt;stroke-linejoin:miter;stroke-miterlimit:10;stroke-dashoffset:0" />
  <path
     fill="#ffffff"
     fill-rule="evenodd"
     d="m 423.58892,353.07416 1.21557,4.75795 -4.14564,-2.62769 -4.14715,2.62769 1.21557,-4.75795 -3.77824,-3.13267 4.89858,-0.31295 1.81126,-4.56292 1.81126,4.56292 4.89707,0.31295 z"
     id="path14"
     style="mix-blend-mode:normal;stroke:none;stroke-width:1.14384;stroke-linecap:butt;stroke-linejoin:miter;stroke-miterlimit:10;stroke-dashoffset:0" />
  <path
     fill="#ffffff"
     fill-rule="evenodd"
     d="m 417.73179,368.71181 1.03565,4.05342 -3.53484,-2.23914 -3.53483,2.23914 1.03565,-4.05342 -3.22035,-2.67002 4.17588,-0.2661 1.54367,-3.89165 1.54366,3.89165 4.17588,0.2661 z"
     id="path15"
     style="mix-blend-mode:normal;stroke:none;stroke-width:1.14384;stroke-linecap:butt;stroke-linejoin:miter;stroke-miterlimit:10;stroke-dashoffset:0" />
  <path
     fill="#ffffff"
     fill-rule="evenodd"
     d="m 440.56535,384.4099 1.44084,5.63489 -4.91219,-3.1115 -4.9152,3.1115 1.44235,-5.63489 -4.47979,-3.71172 5.80724,-0.37192 2.1454,-5.40657 2.14388,5.40657 5.8057,0.37192 z"
     id="path16"
     style="mix-blend-mode:normal;stroke:none;stroke-width:1.14384;stroke-linecap:butt;stroke-linejoin:miter;stroke-miterlimit:10;stroke-dashoffset:0" />
  <path
     fill="#ffffff"
     fill-rule="evenodd"
     d="m 502.07947,419.70987 0.55638,2.16504 -1.88989,-1.1959 -1.88686,1.1959 0.55335,-2.16504 -1.71904,-1.42422 2.22854,-0.14514 0.82399,-2.07736 0.8255,2.07736 2.23005,0.14514 z"
     id="path17"
     style="mix-blend-mode:normal;stroke:none;stroke-width:1.14384;stroke-linecap:butt;stroke-linejoin:miter;stroke-miterlimit:10;stroke-dashoffset:0" />
  <path
     fill="#ffffff"
     fill-rule="evenodd"
     d="m 504.06308,327.46704 1.21406,4.75645 -4.14715,-2.62619 -4.14714,2.62619 1.21557,-4.75645 -3.77824,-3.13266 4.89858,-0.31449 1.81126,-4.56141 1.81278,4.56141 4.89707,0.31449 z"
     id="path18"
     style="mix-blend-mode:normal;stroke:none;stroke-width:1.14384;stroke-linecap:butt;stroke-linejoin:miter;stroke-miterlimit:10;stroke-dashoffset:0" />
  <path
     fill="#ffffff"
     fill-rule="evenodd"
     d="m 517.78061,340.30159 1.21708,4.75644 -4.14563,-2.62769 -4.14715,2.62769 1.21406,-4.75644 -3.77824,-3.13116 4.89707,-0.31449 1.81429,-4.56141 1.81126,4.56141 4.89858,0.31449 z"
     id="path19"
     style="mix-blend-mode:normal;stroke:none;stroke-width:1.14384;stroke-linecap:butt;stroke-linejoin:miter;stroke-miterlimit:10;stroke-dashoffset:0" />
  <path
     fill="#ffffff"
     fill-rule="evenodd"
     d="m 493.16224,349.61191 0.77561,3.03137 -2.64432,-1.67216 -2.6428,1.67216 0.77409,-3.03137 -2.40998,-1.99572 3.1236,-0.19956 1.15509,-2.91042 1.1551,2.91042 3.12359,0.19956 z"
     id="path20"
     style="mix-blend-mode:normal;stroke:none;stroke-width:1.14384;stroke-linecap:butt;stroke-linejoin:miter;stroke-miterlimit:10;stroke-dashoffset:0" />
  <path
     fill="#ffffff"
     fill-rule="evenodd"
     d="m 482.85105,341.87548 1.03566,4.05343 -3.53484,-2.23914 -3.53484,2.23914 1.03565,-4.05343 -3.22035,-2.67305 4.17588,-0.2646 1.54367,-3.89014 1.54367,3.89014 4.17588,0.2646 z"
     id="path21"
     style="mix-blend-mode:normal;stroke:none;stroke-width:1.14384;stroke-linecap:butt;stroke-linejoin:miter;stroke-miterlimit:10;stroke-dashoffset:0" />
  <path
     fill="#ffffff"
     fill-rule="evenodd"
     d="m 503.72972,371.41508 1.44084,5.63489 -4.91218,-3.1115 -4.9152,3.1115 1.44234,-5.63489 -4.47978,-3.71172 5.80723,-0.37192 2.14541,-5.40657 2.14387,5.40657 5.8057,0.37192 z"
     id="path22"
     style="mix-blend-mode:normal;stroke:none;stroke-width:1.14384;stroke-linecap:butt;stroke-linejoin:miter;stroke-miterlimit:10;stroke-dashoffset:0" />
  <path
     fill="#ffffff"
     fill-rule="evenodd"
     d="m 533.68433,386.32549 1.03415,4.05644 -3.53333,-2.23913 -3.53484,2.23913 1.03565,-4.05644 -3.22186,-2.667 4.17588,-0.26761 1.54518,-3.88711 1.54366,3.88711 4.17438,0.26761 z"
     id="path23"
     style="mix-blend-mode:normal;stroke:none;stroke-width:1.14384;stroke-linecap:butt;stroke-linejoin:miter;stroke-miterlimit:10;stroke-dashoffset:0" />
  <path
     fill="#ffffff"
     fill-rule="evenodd"
     d="m 546.41307,404.98844 1.21557,4.75796 -4.14564,-2.62769 -4.14868,2.62769 1.21708,-4.75796 -3.77824,-3.12964 4.89707,-0.316 1.81278,-4.56141 1.80824,4.56141 4.90009,0.316 z"
     id="path24"
     style="mix-blend-mode:normal;stroke:none;stroke-width:1.14384;stroke-linecap:butt;stroke-linejoin:miter;stroke-miterlimit:10;stroke-dashoffset:0" />
  <path
     fill="#ffffff"
     fill-rule="evenodd"
     d="m 559.67398,390.10224 1.03717,4.05191 -3.53484,-2.23611 -3.53635,2.23611 1.03716,-4.05191 -3.22035,-2.66851 4.17286,-0.26761 1.54668,-3.89014 1.54213,3.89014 4.17588,0.26761 z"
     id="path25"
     style="mix-blend-mode:normal;stroke:none;stroke-width:1.14384;stroke-linecap:butt;stroke-linejoin:miter;stroke-miterlimit:10;stroke-dashoffset:0" />
  <path
     fill="#ffffff"
     fill-rule="evenodd"
     d="m 577.55981,416.93854 1.03565,4.05493 -3.53332,-2.23913 -3.53484,2.23913 1.03414,-4.05493 -3.22035,-2.66851 4.17739,-0.26761 1.54367,-3.88862 1.54062,3.88862 4.1789,0.26761 z"
     id="path26"
     style="mix-blend-mode:normal;stroke:none;stroke-width:1.14384;stroke-linecap:butt;stroke-linejoin:miter;stroke-miterlimit:10;stroke-dashoffset:0" />
  <path
     fill="#ffffff"
     fill-rule="evenodd"
     d="m 578.16761,401.35081 1.21557,4.75494 -4.14868,-2.62619 -4.14715,2.62619 1.21708,-4.75494 -3.77674,-3.13418 4.89707,-0.31144 1.80975,-4.56443 1.81126,4.56443 4.90009,0.31144 z"
     id="path27"
     style="mix-blend-mode:normal;stroke:none;stroke-width:1.14384;stroke-linecap:butt;stroke-linejoin:miter;stroke-miterlimit:10;stroke-dashoffset:0" />
  <path
     fill="#ffffff"
     fill-rule="evenodd"
     d="m 577.32396,386.62486 1.03869,4.05191 -3.53635,-2.23611 -3.53333,2.23611 1.03414,-4.05191 -3.21884,-2.67153 4.17437,-0.26761 1.54367,-3.88862 1.54518,3.88862 4.17588,0.26761 z"
     id="path28"
     style="mix-blend-mode:normal;stroke:none;stroke-width:1.14384;stroke-linecap:butt;stroke-linejoin:miter;stroke-miterlimit:10;stroke-dashoffset:0" />
  <path
     fill="#ffffff"
     fill-rule="evenodd"
     d="m 592.14063,386.76848 1.03566,4.05644 -3.53484,-2.23913 -3.53484,2.23913 1.03716,-4.05644 -3.22337,-2.667 4.17588,-0.26761 1.54518,-3.88862 1.54366,3.88862 4.17589,0.26761 z"
     id="path29"
     style="mix-blend-mode:normal;stroke:none;stroke-width:1.14384;stroke-linecap:butt;stroke-linejoin:miter;stroke-miterlimit:10;stroke-dashoffset:0" />
  <path
     fill="#ffffff"
     fill-rule="evenodd"
     d="m 606.58235,380.58176 1.21708,4.75193 -4.14715,-2.62314 -4.14868,2.62314 1.21708,-4.75193 -3.77824,-3.13568 4.89858,-0.31145 1.81126,-4.56292 1.80975,4.56292 4.89858,0.31145 z"
     id="path30"
     style="mix-blend-mode:normal;stroke:none;stroke-width:1.14384;stroke-linecap:butt;stroke-linejoin:miter;stroke-miterlimit:10;stroke-dashoffset:0" />
  <path
     fill="#ffffff"
     fill-rule="evenodd"
     d="m 613.6762,368.68004 1.21708,4.75343 -4.15019,-2.62314 -4.14715,2.62314 1.21708,-4.75343 -3.77674,-3.13417 4.89707,-0.31296 1.80975,-4.56141 1.81278,4.56141 4.89858,0.31296 z"
     id="path31"
     style="mix-blend-mode:normal;stroke:none;stroke-width:1.14384;stroke-linecap:butt;stroke-linejoin:miter;stroke-miterlimit:10;stroke-dashoffset:0" />
  <path
     fill="#ffffff"
     fill-rule="evenodd"
     d="m 608.27871,354.11057 1.44083,5.63488 -4.91218,-3.11149 -4.9152,3.11149 1.44235,-5.63488 -4.47979,-3.71173 5.80724,-0.37191 2.1454,-5.40658 2.14388,5.40658 5.8057,0.37191 z"
     id="path32"
     style="mix-blend-mode:normal;stroke:none;stroke-width:1.14384;stroke-linecap:butt;stroke-linejoin:miter;stroke-miterlimit:10;stroke-dashoffset:0" />
  <path
     fill="#ffffff"
     fill-rule="evenodd"
     d="m 629.26092,355.09407 1.03565,4.05342 -3.53484,-2.23762 -3.53634,2.23762 1.03868,-4.05342 -3.22186,-2.66699 4.17437,-0.27064 1.54518,-3.88861 1.54366,3.88861 4.17438,0.27064 z"
     id="path33"
     style="mix-blend-mode:normal;stroke:none;stroke-width:1.14384;stroke-linecap:butt;stroke-linejoin:miter;stroke-miterlimit:10;stroke-dashoffset:0" />
  <path
     fill="#ffffff"
     fill-rule="evenodd"
     d="m 410.39687,253.76165 c -18.46463,0 -36.60975,1.40456 -54.33702,4.11238 2.16669,-7.41588 4.89816,-14.5929 8.13835,-21.49022 15.15023,-1.85207 30.56241,-2.82576 46.20015,-2.82576 90.17608,0 173.16311,31.71524 238.37149,84.5276 -0.95237,7.6835 -2.48623,15.19313 -4.5681,22.47599 -62.89628,-54.05513 -144.64025,-86.8 -233.80489,-86.8 z"
     id="path34"
     style="mix-blend-mode:normal;stroke:none;stroke-width:1.14384;stroke-linecap:butt;stroke-linejoin:miter;stroke-miterlimit:10;stroke-dashoffset:0" />
  <path
     fill="#009c37"
     fill-rule="evenodd"
     d="m 371.80162,245.98291 c 0.12558,1.46503 0.55185,2.57477 1.2715,3.33071 0.71968,0.75596 1.66462,1.08103 2.83484,0.98123 1.18079,-0.10134 2.06525,-0.58512 2.65339,-1.45294 0.58814,-0.86631 0.81642,-2.0335 0.69094,-3.49853 -0.12558,-1.46203 -0.55034,-2.57175 -1.27754,-3.32621 -0.72724,-0.75594 -1.68124,-1.08101 -2.86204,-0.97973 -1.16871,0.10135 -2.04561,0.58361 -2.62618,1.44844 -0.58057,0.86176 -0.81039,2.02746 -0.6849,3.49704 z m -2.79095,0.23886 c -0.18449,-2.14993 0.25551,-3.90526 1.31837,-5.26747 1.06288,-1.36223 2.58837,-2.1318 4.57805,-2.30113 1.98665,-0.17079 3.62252,0.32507 4.91067,1.48922 1.28663,1.16418 2.02142,2.8182 2.20586,4.96208 0.18449,2.14538 -0.25701,3.90372 -1.32744,5.26899 -1.07045,1.36525 -2.59746,2.13479 -4.58412,2.30414 -1.98967,0.17079 -3.62403,-0.32506 -4.90462,-1.48924 -1.27907,-1.16415 -2.01235,-2.8197 -2.19679,-4.9666 z m 21.73966,-2.48711 3.23094,-0.1074 c 0.69851,-0.024 1.20801,-0.18452 1.53006,-0.47777 0.31748,-0.29632 0.46715,-0.7484 0.446,-1.35919 -0.0193,-0.57906 -0.19349,-1.01298 -0.52312,-1.30326 -0.32958,-0.28876 -0.81341,-0.42179 -1.44537,-0.40063 l -3.35642,0.11187 0.11786,3.53632 z m -2.49767,7.60492 -0.446,-13.35315 6.47702,-0.21618 c 1.45445,-0.0499 2.54454,0.22676 3.26572,0.8255 0.72419,0.59872 1.1052,1.54062 1.14753,2.82122 0.027,0.81341 -0.12086,1.5013 -0.4445,2.05619 -0.32203,0.5564 -0.80281,0.94344 -1.4363,1.16417 0.58814,0.18751 1.00995,0.48684 1.2715,0.9011 0.25855,0.41579 0.42035,1.07045 0.48684,1.96397 l 0.10889,1.57389 c 0,0.0128 0,0.0317 0.001,0.0559 0.0407,0.79525 0.2313,1.27452 0.56545,1.43026 l 0.0128,0.40972 -3.01322,0.10134 c -0.10135,-0.186 -0.18149,-0.41275 -0.24189,-0.6864 -0.0589,-0.27369 -0.10432,-0.60023 -0.12558,-0.98123 l -0.0846,-1.40305 c -0.0589,-0.82552 -0.2313,-1.38036 -0.52161,-1.65858 -0.29176,-0.28272 -0.80435,-0.40972 -1.53607,-0.3855 l -2.91195,0.0969 0.17379,5.19189 -2.74864,0.0921 z m 19.71677,-3.00115 2.20435,0.0424 c 1.27604,0.0245 2.20737,-0.29182 2.78947,-0.94947 0.58512,-0.65466 0.8905,-1.73566 0.91922,-3.23398 0.0287,-1.49224 -0.21771,-2.59591 -0.73479,-3.30654 -0.52009,-0.71361 -1.34408,-1.07798 -2.47649,-1.10065 l -2.53847,-0.0484 -0.16329,8.5967 z m -2.73957,2.3616 0.25397,-13.3577 5.23117,0.0984 c 2.04864,0.0395 3.56812,0.62289 4.55235,1.74623 0.98578,1.12486 1.45899,2.81216 1.41667,5.06186 -0.0228,1.22013 -0.2298,2.29357 -0.61836,3.21736 -0.39007,0.92378 -0.94646,1.66308 -1.6616,2.21645 -0.54126,0.41275 -1.14904,0.70607 -1.83092,0.87842 -0.68186,0.16928 -1.63133,0.24493 -2.85447,0.22072 l -4.48884,-0.0817 z m 16.95147,0.29785 0.71966,-13.33953 9.68828,0.52311 -0.12558,2.31925 -6.98196,-0.37645 -0.15279,2.84388 6.38476,0.3447 -0.12408,2.28146 -6.38476,-0.34475 -0.186,3.43202 7.30854,0.39462 -0.13307,2.46442 -10.01334,-0.54279 z m 15.72382,0.93438 1.41664,-13.2836 4.04283,0.4309 1.56331,10.39284 3.68604,-9.83345 4.05795,0.43393 -1.41664,13.2851 -2.56118,-0.27365 1.14149,-10.71336 -3.84023,10.42611 -2.79552,-0.29936 -1.59204,-11.00516 -1.14147,10.71334 -2.56116,-0.27365 z m 35.40127,4.55686 2.79852,-13.06286 9.48872,2.03202 -0.48684,2.27086 -6.83534,-1.46352 -0.59719,2.78494 6.25172,1.33804 -0.47777,2.23609 -6.25324,-1.33955 -0.71966,3.36095 7.15735,1.53306 -0.51707,2.41451 -9.80924,-2.10458 z m 35.36193,0.82552 2.56717,0.69244 c 0.69248,0.18751 1.23524,0.17528 1.63287,-0.0329 0.39471,-0.21173 0.68035,-0.64107 0.85576,-1.2957 0.16458,-0.61232 0.13458,-1.1173 -0.0879,-1.51796 -0.22672,-0.39762 -0.64406,-0.67886 -1.2564,-0.84516 l -2.70631,-0.72872 -1.00538,3.72836 z m -0.64708,2.33287 -1.23523,4.58862 -2.65492,-0.71513 3.47738,-12.89958 5.73466,1.54666 c 1.35466,0.36438 2.286,0.99483 2.79703,1.88536 0.50499,0.8905 0.57903,2.01536 0.21,3.3791 -0.35701,1.33047 -0.97673,2.26334 -1.85211,2.80005 -0.8769,0.53671 -1.95489,0.63499 -3.21582,0.29483 l -3.26117,-0.87993 z m 16.06246,2.10004 3.09034,0.94945 c 0.66677,0.20572 1.20348,0.22076 1.60414,0.0454 0.39773,-0.17528 0.68335,-0.55486 0.86482,-1.13998 0.16928,-0.55336 0.14528,-1.02053 -0.0711,-1.40154 -0.21943,-0.37945 -0.63352,-0.66372 -1.23673,-0.84968 l -3.2098,-0.98729 -1.04173,3.38366 z m -4.83657,6.37721 3.92641,-12.76955 6.19428,1.90347 c 1.39247,0.42783 2.33138,1.04321 2.81669,1.84452 0.48986,0.80281 0.54428,1.81579 0.16628,3.04196 -0.23741,0.77862 -0.60021,1.38036 -1.09007,1.79915 -0.48686,0.42031 -1.06589,0.63046 -1.73417,0.63197 0.49286,0.36893 0.79376,0.78922 0.90865,1.267 0.1089,0.47775 0.0467,1.14904 -0.17827,2.01535 l -0.40973,1.5225 c -0.008,0.0128 -0.0128,0.03 -0.0172,0.053 -0.21771,0.76502 -0.195,1.28059 0.0694,1.5376 l -0.11958,0.39158 -2.88472,-0.88599 c -0.0343,-0.20872 -0.0343,-0.44905 -0.005,-0.72722 0.0343,-0.27818 0.0969,-0.60174 0.20272,-0.96761 l 0.37628,-1.35619 c 0.213,-0.79828 0.22971,-1.37883 0.0454,-1.73717 -0.18472,-0.36134 -0.62742,-0.65012 -1.32442,-0.86329 l -2.78494,-0.85574 -1.527,4.96661 -2.6292,-0.8119 z m 20.34721,-0.0469 c -0.50499,1.38187 -0.58962,2.56722 -0.25542,3.55599 0.33558,0.98879 1.05231,1.68426 2.15297,2.08643 1.11428,0.40671 2.12122,0.34321 3.02079,-0.195 0.89958,-0.53822 1.6011,-1.49828 2.10458,-2.87864 0.50494,-1.37888 0.58814,-2.56422 0.24815,-3.55451 -0.33858,-0.9918 -1.06741,-1.69029 -2.17865,-2.097 -1.1022,-0.40366 -2.10155,-0.33716 -2.99207,0.201 -0.89352,0.53824 -1.59506,1.49828 -2.10004,2.8817 z m -2.63069,-0.9631 c 0.73934,-2.02596 1.88234,-3.43202 3.41993,-4.21672 1.54063,-0.78619 3.24759,-0.83757 5.12538,-0.15279 1.87176,0.68641 3.14628,1.82637 3.81755,3.42598 0.67432,1.59808 0.64411,3.40783 -0.0952,5.42925 -0.74083,2.02445 -1.88383,3.429 -3.43048,4.2152 -1.54518,0.78619 -3.25514,0.83758 -5.12838,0.15279 -1.87779,-0.6864 -3.14782,-1.82637 -3.81604,-3.42296 -0.66828,-1.59656 -0.635,-3.40629 0.10764,-5.43074 z m 24.7136,15.69054 c -0.7212,0.42334 -1.43183,0.65466 -2.13635,0.69851 -0.70303,0.0395 -1.44841,-0.10581 -2.23611,-0.44148 -1.716,-0.73177 -2.85297,-1.92163 -3.41087,-3.56809 -0.55638,-1.648 -0.42042,-3.44413 0.40842,-5.38391 0.83455,-1.95791 2.03499,-3.29897 3.59679,-4.01863 1.56179,-0.72119 3.22792,-0.70305 4.99838,0.05 1.54062,0.65616 2.63978,1.55878 3.30196,2.71083 0.65469,1.15207 0.80435,2.4145 0.43543,3.78128 l -2.57777,-1.09916 c 0.11658,-0.70454 0.008,-1.32594 -0.33128,-1.86419 -0.34158,-0.53824 -0.89807,-0.97519 -1.67065,-1.30325 -1.0266,-0.43846 -1.99573,-0.40672 -2.90438,0.0969 -0.91165,0.50346 -1.64493,1.41969 -2.2119,2.74865 -0.57,1.33655 -0.71062,2.51128 -0.42042,3.53031 0.28887,1.01599 0.96913,1.7523 2.03804,2.20736 0.7983,0.34166 1.57089,0.39004 2.31021,0.14807 0.74083,-0.24493 1.35466,-0.75141 1.82941,-1.51945 l -2.78494,-1.18535 0.89657,-2.10304 5.09058,2.16958 -2.83635,6.64935 -1.69333,-0.72268 0.30858,-1.58148 z m 12.70299,-0.35225 2.90289,1.42271 c 0.62893,0.3069 1.15359,0.40517 1.57693,0.29482 0.41873,-0.11186 0.762,-0.44147 1.03259,-0.9918 0.25542,-0.52009 0.30258,-0.98425 0.15128,-1.39549 -0.15727,-0.40972 -0.52311,-0.75443 -1.09006,-1.03265 l -3.01475,-1.4771 -1.5588,3.17951 z m -5.77393,5.54267 5.87375,-11.99847 5.82083,2.84994 c 1.30627,0.63953 2.14088,1.3955 2.49466,2.26334 0.35658,0.86784 0.25243,1.87779 -0.31158,3.02834 -0.35658,0.73177 -0.8119,1.2685 -1.35917,1.60716 -0.54582,0.34016 -1.15058,0.45659 -1.81126,0.35228 0.43089,0.44147 0.66223,0.90411 0.69848,1.39397 0.0343,0.48833 -0.13157,1.14147 -0.49135,1.96246 l -0.64406,1.44084 c -0.008,0.0103 -0.0128,0.027 -0.0214,0.0484 -0.33857,0.72269 -0.39772,1.23523 -0.17228,1.53004 l -0.18128,0.36586 -2.70934,-1.32442 c -0.002,-0.21173 0.0343,-0.44905 0.10752,-0.71966 0.0771,-0.2691 0.19028,-0.57906 0.351,-0.92529 l 0.58208,-1.27907 c 0.33857,-0.75597 0.446,-1.32745 0.31757,-1.70998 -0.12385,-0.38405 -0.51558,-0.73781 -1.17321,-1.05984 l -2.61411,-1.28209 -2.28599,4.66573 -2.46892,-1.20952 z m 14.92852,7.66685 6.49517,-11.67493 8.48027,4.71712 -1.12941,2.03049 -6.10808,-3.39876 -1.38489,2.48858 5.58647,3.10847 -1.11124,1.99724 -5.58647,-3.10848 -1.66917,3.00264 6.39387,3.55903 -1.19898,2.15596 -8.76754,-4.8774 z m 15.07521,4.14111 2.3223,1.4 c -0.28887,0.67886 -0.31158,1.29871 -0.0711,1.85813 0.24172,0.55789 0.76349,1.07799 1.56634,1.5618 0.68641,0.41425 1.27304,0.60021 1.76589,0.56697 0.49442,-0.0317 0.88294,-0.28877 1.17172,-0.76503 0.41571,-0.69546 -0.23273,-1.86871 -1.95489,-3.52727 -0.0214,-0.0214 -0.0429,-0.0407 -0.0587,-0.0574 -0.0454,-0.0424 -0.11358,-0.10889 -0.20742,-0.20099 -0.92829,-0.87842 -1.53305,-1.59657 -1.80973,-2.16052 -0.24942,-0.50194 -0.34628,-1.03868 -0.29486,-1.60263 0.0514,-0.56546 0.25542,-1.14451 0.61534,-1.74172 0.67128,-1.11277 1.5648,-1.73717 2.67904,-1.87626 1.11129,-0.13608 2.38283,0.22524 3.81155,1.08704 1.33651,0.80584 2.19227,1.75231 2.56418,2.83635 0.37028,1.08707 0.23142,2.21494 -0.42042,3.39271 l -2.26034,-1.36374 c 0.29186,-0.58057 0.33558,-1.12939 0.12558,-1.648 -0.21,-0.5216 -0.66823,-0.99634 -1.3758,-1.42268 -0.61838,-0.37197 -1.16266,-0.53977 -1.64499,-0.49893 -0.47926,0.0395 -0.84968,0.28123 -1.12027,0.72722 -0.36428,0.60629 0.0128,1.44843 1.12938,2.53397 0.30258,0.29482 0.53824,0.52613 0.70607,0.69093 0.70758,0.71362 1.20042,1.23975 1.47862,1.56633 0.27813,0.32957 0.50199,0.6471 0.67431,0.94946 0.30686,0.53825 0.45207,1.09311 0.42472,1.66007 -0.0214,0.56697 -0.216,1.15206 -0.576,1.74625 -0.71817,1.18835 -1.6722,1.86869 -2.87263,2.04258 -1.19593,0.17078 -2.52337,-0.18151 -3.98386,-1.06286 -1.44086,-0.86784 -2.36766,-1.88233 -2.78345,-3.04347 -0.41443,-1.16415 -0.28115,-2.37823 0.399,-3.6482 z m 14.08038,8.80533 2.24669,1.52098 c -0.32658,0.66071 -0.381,1.27908 -0.16928,1.85209 0.21342,0.56999 0.70607,1.11426 1.4817,1.64192 0.66218,0.44904 1.23973,0.66674 1.73263,0.65918 0.4959,-0.007 0.89657,-0.24038 1.21106,-0.70303 0.45507,-0.67278 -0.13628,-1.87779 -1.76442,-3.62403 -0.0214,-0.0244 -0.0429,-0.0424 -0.0562,-0.0634 -0.0454,-0.0424 -0.11061,-0.11336 -0.198,-0.21022 -0.87989,-0.92378 -1.4469,-1.67219 -1.69334,-2.25122 -0.22372,-0.51707 -0.29186,-1.05532 -0.21341,-1.61623 0.0819,-0.56093 0.31757,-1.12939 0.70607,-1.70696 0.72875,-1.07496 1.65703,-1.65402 2.77431,-1.73263 1.11579,-0.0771 2.36765,0.35079 3.75107,1.2851 1.29116,0.8769 2.097,1.86266 2.41148,2.96635 0.31159,1.10671 0.11658,2.22703 -0.59721,3.36852 l -2.18623,-1.48016 c 0.32059,-0.56545 0.39172,-1.11124 0.21301,-1.64042 -0.183,-0.53067 -0.6138,-1.02959 -1.30025,-1.49076 -0.59717,-0.40665 -1.13541,-0.6002 -1.61617,-0.58813 -0.47932,0.0171 -0.86482,0.23889 -1.15513,0.66674 -0.40072,0.58663 -0.0647,1.44841 0.99183,2.59292 0.28586,0.30841 0.51403,0.55185 0.66977,0.7242 0.66823,0.75141 1.13392,1.29871 1.39241,1.64344 0.26143,0.34321 0.46873,0.6713 0.62294,0.97973 0.27986,0.55639 0.39471,1.11428 0.34158,1.68123 -0.0544,0.56546 -0.27514,1.13845 -0.66528,1.71451 -0.78162,1.15057 -1.77042,1.78101 -2.97693,1.88838 -1.20496,0.10741 -2.51276,-0.31449 -3.92789,-1.2715 -1.38943,-0.94042 -2.26638,-2.00177 -2.61711,-3.18407 -0.35358,-1.18687 -0.15858,-2.39033 0.58963,-3.62255 z m 16.97565,9.01096 c -0.88748,1.17022 -1.31234,2.28298 -1.2851,3.32316 0.03,1.04322 0.51403,1.91861 1.44989,2.62619 0.94646,0.71513 1.92767,0.94796 2.9437,0.69848 1.01751,-0.25248 1.96851,-0.96912 2.856,-2.14236 0.88449,-1.1672 1.30934,-2.27693 1.27603,-3.32618 -0.0343,-1.04626 -0.52765,-1.92465 -1.47261,-2.63979 -0.93433,-0.71059 -1.91103,-0.93586 -2.91797,-0.68337 -1.01141,0.254 -1.96092,0.96761 -2.84992,2.1439 z m -2.23459,-1.69032 c 1.29724,-1.72203 2.8031,-2.73199 4.50399,-3.03286 1.70237,-0.30235 3.35041,0.14807 4.94392,1.35466 1.59207,1.20194 2.47351,2.66547 2.65192,4.38906 0.17828,1.72811 -0.38271,3.44864 -1.67824,5.16463 -1.30175,1.71904 -2.80457,2.72899 -4.51148,3.02987 -1.71,0.29782 -3.361,-0.15428 -4.94849,-1.35466 -1.59506,-1.2065 -2.47651,-2.66699 -2.64883,-4.38755 -0.17228,-1.72056 0.38872,-3.44413 1.68728,-5.16317 z"
     id="path35"
     style="mix-blend-mode:normal;stroke:none;stroke-width:1.14384;stroke-linecap:butt;stroke-linejoin:miter;stroke-miterlimit:10;stroke-dashoffset:0" />
</svg>
