<?xml version="1.0" encoding="UTF-8" standalone="no"?>
<svg
   viewBox="0 0 999.99982 600.00002"
   version="1.1"
   id="svg82"
   sodipodi:docname="canada.svg"
   inkscape:export-filename="..\PNGs\Canada.png"
   inkscape:export-xdpi="409.60001"
   inkscape:export-ydpi="409.60001"
   inkscape:version="1.4-beta (62f545ba5e, 2024-04-22)"
   width="999.99982"
   height="600"
   xmlns:inkscape="http://www.inkscape.org/namespaces/inkscape"
   xmlns:sodipodi="http://sodipodi.sourceforge.net/DTD/sodipodi-0.dtd"
   xmlns="http://www.w3.org/2000/svg"
   xmlns:svg="http://www.w3.org/2000/svg"
   xmlns:rdf="http://www.w3.org/1999/02/22-rdf-syntax-ns#"
   xmlns:cc="http://creativecommons.org/ns#"
   xmlns:dc="http://purl.org/dc/elements/1.1/">
  <sodipodi:namedview
     id="namedview84"
     pagecolor="#505050"
     bordercolor="#ffffff"
     borderopacity="1"
     inkscape:showpageshadow="0"
     inkscape:pageopacity="0"
     inkscape:pagecheckerboard="1"
     inkscape:deskcolor="#505050"
     showgrid="false"
     inkscape:zoom="0.35564705"
     inkscape:cx="-333.19551"
     inkscape:cy="575.00829"
     inkscape:window-width="2560"
     inkscape:window-height="1351"
     inkscape:window-x="-9"
     inkscape:window-y="-9"
     inkscape:window-maximized="1"
     inkscape:current-layer="svg82" />
  <defs
     id="defs70">
    <linearGradient
       id="a"
       x1="10.426"
       y1="6.598"
       x2="18.506001"
       y2="9.5389996"
       gradientTransform="matrix(33.333534,0,-2.1000126,33.333534,1164.2159,-11.498271)"
       gradientUnits="userSpaceOnUse">
      <stop
         offset="0.049"
         stop-color="#4d4d4d"
         id="stop2" />
      <stop
         offset="0.142"
         stop-color="#707070"
         id="stop4" />
      <stop
         offset="0.258"
         stop-color="#949494"
         id="stop6" />
      <stop
         offset="0.381"
         stop-color="#b2b2b2"
         id="stop8" />
      <stop
         offset="0.509"
         stop-color="#c9c9c9"
         id="stop10" />
      <stop
         offset="0.647"
         stop-color="#d9d9d9"
         id="stop12" />
      <stop
         offset="0.8"
         stop-color="#e3e3e3"
         id="stop14" />
      <stop
         offset="1"
         stop-color="#e6e6e6"
         id="stop16" />
    </linearGradient>
    <linearGradient
       id="b"
       x1="20.389999"
       x2="20.389999"
       y2="17.309999"
       gradientTransform="matrix(33.333534,0,-2.1000126,33.333534,18.960947,0)"
       gradientUnits="userSpaceOnUse">
      <stop
         offset="0"
         stop-color="#e40040"
         id="stop19" />
      <stop
         offset="0.204"
         stop-color="#e1003f"
         id="stop21" />
      <stop
         offset="0.368"
         stop-color="#d7003b"
         id="stop23" />
      <stop
         offset="0.518"
         stop-color="#c60135"
         id="stop25" />
      <stop
         offset="0.66"
         stop-color="#ae012c"
         id="stop27" />
      <stop
         offset="0.795"
         stop-color="#8f0220"
         id="stop29" />
      <stop
         offset="0.925"
         stop-color="#6a0212"
         id="stop31" />
      <stop
         offset="1"
         stop-color="#510309"
         id="stop33" />
    </linearGradient>
    <linearGradient
       id="c"
       x1="7.9310002"
       y1="6.6149998"
       x2="17.415001"
       y2="10.067"
       gradientTransform="matrix(33.333534,0,-2.1000126,33.333534,1164.2159,-11.498271)"
       gradientUnits="userSpaceOnUse">
      <stop
         offset="0.31"
         stop-color="#510309"
         id="stop36" />
      <stop
         offset="0.361"
         stop-color="#6a0212"
         id="stop38" />
      <stop
         offset="0.45"
         stop-color="#8f0220"
         id="stop40" />
      <stop
         offset="0.543"
         stop-color="#ae012c"
         id="stop42" />
      <stop
         offset="0.64"
         stop-color="#c60135"
         id="stop44" />
      <stop
         offset="0.743"
         stop-color="#d7003b"
         id="stop46" />
      <stop
         offset="0.855"
         stop-color="#e1003f"
         id="stop48" />
      <stop
         offset="0.995"
         stop-color="#e40040"
         id="stop50" />
    </linearGradient>
    <linearGradient
       id="d"
       x1="8.7510004"
       x2="8.7510004"
       y2="17.309999"
       gradientTransform="matrix(33.333534,0,-2.1000126,33.333534,18.960947,0)"
       gradientUnits="userSpaceOnUse">
      <stop
         offset="0.005"
         stop-color="#e40040"
         id="stop53" />
      <stop
         offset="0.208"
         stop-color="#e1003f"
         id="stop55" />
      <stop
         offset="0.371"
         stop-color="#d7003b"
         id="stop57" />
      <stop
         offset="0.52"
         stop-color="#c60135"
         id="stop59" />
      <stop
         offset="0.661"
         stop-color="#ae012c"
         id="stop61" />
      <stop
         offset="0.796"
         stop-color="#8f0220"
         id="stop63" />
      <stop
         offset="0.925"
         stop-color="#6a0212"
         id="stop65" />
      <stop
         offset="1"
         stop-color="#510309"
         id="stop67" />
    </linearGradient>
    <clipPath
       clipPathUnits="userSpaceOnUse"
       id="clipPath4550">
      <path
         id="path4552"
         style="fill:#ffffff;stroke-width:8.49335;stroke-linecap:round;stroke-linejoin:round;paint-order:fill markers stroke"
         d="m 1583.1857,0 c -85.8699,0 -184.3433,69.13008 -220.7929,155 l -123.0976,290 c -36.4496,85.86991 3.3371,155.00001 89.207,155.00001 h 487.5944 c 85.8699,0 184.3434,-69.1301 220.793,-155.00002 62.9641,-148.33336 125.927,-296.66679 188.8906,-445 z"
         sodipodi:nodetypes="cssssccc" />
    </clipPath>
    <clipPath
       clipPathUnits="userSpaceOnUse"
       id="clipPath1497">
      <path
         id="path1499"
         style="fill:#808000;stroke-width:7.04243;stroke-linecap:round;stroke-linejoin:round;paint-order:fill markers stroke"
         d="M 1826.7565,0 C 1734.4048,0 1660.057,74.347321 1660.057,166.69903 l -10e-5,318.41817 c 10e-5,92.35171 74.3472,166.69903 166.6989,166.69903 92.3517,0 166.7016,-74.34732 166.7015,-166.69903 0,-161.70607 0,-323.41179 0,-485.1172 z"
         sodipodi:nodetypes="ssssccs" />
    </clipPath>
  </defs>
  <title
     id="title72">flag-ca</title>
  <g
     id="g2646"
     transform="matrix(0.10416665,0,0,0.10416665,3.1054688e-6,50.000047)">
    <path
       fill="#d52b1e"
       d="m 0,-480.00053 h 2400 l 99,118.80002 h 4602 l 99,-118.80002 H 9600 V 5280.0005 H 7200 l -99,-118.8 H 2499 l -99,118.8 H 0 Z"
       id="path2461"
       sodipodi:nodetypes="ccccccccccccc"
       style="fill:#e30927;fill-opacity:1" />
    <path
       fill="#ffffff"
       d="M 2400,-480.00039 H 7200 V 5280.0004 H 2400 Z M 4890,4430 4845,3567 c -2.7943,-60.622 51.1916,-108.2852 111,-98 l 859,151 -116,-320 c -9.6496,-26.1057 -1.6079,-55.458 20,-73 l 941,-762 -212,-99 c -29.6253,-13.9995 -44.1986,-47.8611 -34,-79 l 186,-572 -542,115 c -30.2748,6.3122 -60.8049,-9.5802 -73,-38 l -105,-247 -423,454 c -19.8668,20.9549 -51.1759,26.2915 -76.8627,13.101 C 5354.4506,1998.9105 5340.5451,1970.3556 5346,1942 l 204,-1052 -327,189 c -32.4337,19.0091 -74.1821,6.6222 -91,-27 l -332,-652 -332,652 c -16.8179,33.6222 -58.5663,46.0091 -91,27 l -327,-189 204,1052 c 5.4549,28.3556 -8.4506,56.9105 -34.1373,70.101 -25.6868,13.1905 -56.9959,7.8539 -76.8627,-13.101 l -423,-454 -105,247 c -12.1951,28.4198 -42.7252,44.3122 -73,38 l -542,-115 186,572 c 10.1986,31.1389 -4.3747,65.0005 -34,79 l -212,99 941,762 c 21.6079,17.542 29.6496,46.8943 20,73 l -116,320 859,-151 c 59.8084,-10.2852 113.7943,37.378 111,98 l -45,863 z"
       id="path2463"
       sodipodi:nodetypes="cccccccccccccccccccscccccccccsccccccccccccccc" />
  </g>
  <metadata
     id="metadata1">
    <rdf:RDF>
      <cc:Work
         rdf:about="">
        <dc:title>flag-ca</dc:title>
      </cc:Work>
    </rdf:RDF>
  </metadata>
</svg>
