<?xml version="1.0" encoding="UTF-8" standalone="no"?>
<svg
   viewBox="0 0 999.99969 600.001"
   version="1.1"
   id="svg2280"
   sodipodi:docname="chile.svg"
   inkscape:export-filename="..\PNGs\United Kingdom.png"
   inkscape:export-xdpi="11520"
   inkscape:export-ydpi="11520"
   inkscape:version="1.4-beta (62f545ba5e, 2024-04-22)"
   width="999.99969"
   height="600.00098"
   xmlns:inkscape="http://www.inkscape.org/namespaces/inkscape"
   xmlns:sodipodi="http://sodipodi.sourceforge.net/DTD/sodipodi-0.dtd"
   xmlns:xlink="http://www.w3.org/1999/xlink"
   xmlns="http://www.w3.org/2000/svg"
   xmlns:svg="http://www.w3.org/2000/svg"
   xmlns:rdf="http://www.w3.org/1999/02/22-rdf-syntax-ns#"
   xmlns:cc="http://creativecommons.org/ns#"
   xmlns:dc="http://purl.org/dc/elements/1.1/">
  <sodipodi:namedview
     id="namedview2282"
     pagecolor="#505050"
     bordercolor="#ffffff"
     borderopacity="1"
     inkscape:showpageshadow="0"
     inkscape:pageopacity="0"
     inkscape:pagecheckerboard="1"
     inkscape:deskcolor="#505050"
     showgrid="false"
     inkscape:zoom="0.35564704"
     inkscape:cx="-16.870659"
     inkscape:cy="-279.77176"
     inkscape:window-width="2560"
     inkscape:window-height="1351"
     inkscape:window-x="-9"
     inkscape:window-y="-9"
     inkscape:window-maximized="1"
     inkscape:current-layer="svg2280" />
  <defs
     id="defs2258">
    <linearGradient
       id="a"
       x1="9.5369997"
       y1="7.4699998"
       x2="25.674999"
       y2="13.344"
       gradientTransform="matrix(1,0,-0.063,1,-1.093,0)"
       gradientUnits="userSpaceOnUse">
      <stop
         offset="0"
         stop-color="#4f4f4e"
         id="stop2161" />
      <stop
         offset="0.068"
         stop-color="#787878"
         id="stop2163" />
      <stop
         offset="0.139"
         stop-color="#9c9c9c"
         id="stop2165" />
      <stop
         offset="0.218"
         stop-color="#bbbbba"
         id="stop2167" />
      <stop
         offset="0.303"
         stop-color="#d4d4d4"
         id="stop2169" />
      <stop
         offset="0.398"
         stop-color="#e7e7e7"
         id="stop2171" />
      <stop
         offset="0.507"
         stop-color="#f5f5f5"
         id="stop2173" />
      <stop
         offset="0.644"
         stop-color="#fdfdfd"
         id="stop2175" />
      <stop
         offset="0.897"
         stop-color="#fff"
         id="stop2177" />
    </linearGradient>
    <linearGradient
       id="b"
       x1="14.395"
       y1="0.242"
       x2="29.063"
       y2="5.5799999"
       gradientTransform="matrix(1,0,-0.063,1,-1.093,0)"
       gradientUnits="userSpaceOnUse">
      <stop
         offset="0"
         stop-color="#5a0a00"
         id="stop2180" />
      <stop
         offset="0.084"
         stop-color="#7b0905"
         id="stop2182" />
      <stop
         offset="0.186"
         stop-color="#9a0809"
         id="stop2184" />
      <stop
         offset="0.296"
         stop-color="#b5070d"
         id="stop2186" />
      <stop
         offset="0.417"
         stop-color="#c9070f"
         id="stop2188" />
      <stop
         offset="0.555"
         stop-color="#d70611"
         id="stop2190" />
      <stop
         offset="0.721"
         stop-color="#df0613"
         id="stop2192" />
      <stop
         offset="1"
         stop-color="#e20613"
         id="stop2194" />
    </linearGradient>
    <linearGradient
       id="c"
       x1="-409.5"
       y1="-415.78601"
       x2="-409.45801"
       y2="-415.78601"
       gradientTransform="matrix(25.74,-409.123,-409.123,0,-159553.22,-167518.67)"
       gradientUnits="userSpaceOnUse">
      <stop
         offset="0"
         stop-color="#e20613"
         id="stop2197" />
      <stop
         offset="0.285"
         stop-color="#e00613"
         id="stop2199" />
      <stop
         offset="0.451"
         stop-color="#d70612"
         id="stop2201" />
      <stop
         offset="0.587"
         stop-color="#c90710"
         id="stop2203" />
      <stop
         offset="0.706"
         stop-color="#b5070d"
         id="stop2205" />
      <stop
         offset="0.815"
         stop-color="#9b0809"
         id="stop2207" />
      <stop
         offset="0.914"
         stop-color="#7c0905"
         id="stop2209" />
      <stop
         offset="1"
         stop-color="#5a0a00"
         id="stop2211" />
    </linearGradient>
    <linearGradient
       id="d"
       x1="19.038"
       y1="21.691999"
       x2="12.524"
       y2="10.276"
       gradientTransform="matrix(1,0,-0.063,1,-1.093,0)"
       gradientUnits="userSpaceOnUse">
      <stop
         offset="0"
         stop-color="#64bdeb"
         id="stop2214" />
      <stop
         offset="0.199"
         stop-color="#4c9fc9"
         id="stop2216" />
      <stop
         offset="0.575"
         stop-color="#236b8e"
         id="stop2218" />
      <stop
         offset="0.853"
         stop-color="#0a4b6a"
         id="stop2220" />
      <stop
         offset="1"
         stop-color="#003f5c"
         id="stop2222" />
    </linearGradient>
    <linearGradient
       id="e"
       x1="-409.5"
       y1="-415.80701"
       x2="-409.45801"
       y2="-415.80701"
       xlink:href="#c" />
    <linearGradient
       id="f"
       x1="29.297001"
       y1="15.771"
       x2="22.934"
       y2="4.6199999"
       xlink:href="#d" />
    <linearGradient
       id="g"
       x1="-409.5"
       y1="-415.79501"
       x2="-409.45801"
       y2="-415.79501"
       xlink:href="#c" />
    <linearGradient
       id="h"
       x1="26.438"
       y1="17.334999"
       x2="8.6610003"
       y2="-0.63999999"
       gradientTransform="matrix(1,0,-0.063,1,-1.093,0)"
       gradientUnits="userSpaceOnUse">
      <stop
         offset="0"
         stop-color="#e42616"
         id="stop2228" />
      <stop
         offset="0.179"
         stop-color="#cb2414"
         id="stop2230" />
      <stop
         offset="0.552"
         stop-color="#9b2212"
         id="stop2232" />
      <stop
         offset="0.838"
         stop-color="#7e2010"
         id="stop2234" />
      <stop
         offset="1"
         stop-color="#731f0f"
         id="stop2236" />
    </linearGradient>
    <linearGradient
       id="i"
       x1="10.413"
       y1="17.309999"
       x2="10.413"
       gradientTransform="matrix(1,0,-0.063,1,-1.093,0)"
       gradientUnits="userSpaceOnUse">
      <stop
         offset="0"
         stop-color="#5c1906"
         id="stop2239" />
      <stop
         offset="0.005"
         stop-color="#5e1906"
         id="stop2241" />
      <stop
         offset="0.09"
         stop-color="#821d0a"
         id="stop2243" />
      <stop
         offset="0.181"
         stop-color="#a01f0e"
         id="stop2245" />
      <stop
         offset="0.283"
         stop-color="#b92211"
         id="stop2247" />
      <stop
         offset="0.396"
         stop-color="#cc2413"
         id="stop2249" />
      <stop
         offset="0.527"
         stop-color="#da2515"
         id="stop2251" />
      <stop
         offset="0.691"
         stop-color="#e22616"
         id="stop2253" />
      <stop
         offset="1"
         stop-color="#e42616"
         id="stop2255" />
    </linearGradient>
    <clipPath
       clipPathUnits="userSpaceOnUse"
       id="clipPath2022">
      <path
         id="path2024"
         style="fill:#ffffff;fill-opacity:1;stroke-width:8.49335;stroke-linecap:round;stroke-linejoin:round;paint-order:fill markers stroke"
         d="m 1583.0512,599.99902 c 92.3516,0 195.7493,-68.43716 231.834,-153.44727 l 124.416,-293.10547 C 1975.3857,68.43618 1930.0883,-9.8e-4 1837.7367,-9.8e-4 h -244.0254 c -85.8697,0 -184.3434,69.13025 -220.7929,155 -62.964,148.33306 -125.9272,296.66708 -188.8907,445 133.0078,0 266.0157,0 399.0235,0 z"
         sodipodi:nodetypes="cscssccc" />
    </clipPath>
    <clipPath
       id="s">
      <path
         d="M 0,0 V 30 H 60 V 0 Z"
         id="path2" />
    </clipPath>
    <clipPath
       id="t">
      <path
         d="m 30,15 h 30 v 15 z m 0,0 V 30 H 0 Z m 0,0 H 0 V 0 Z m 0,0 V 0 h 30 z"
         id="path5" />
    </clipPath>
    <clipPath
       clipPathUnits="userSpaceOnUse"
       id="clipPath3955">
      <path
         id="path3957"
         style="fill:#ffffff;fill-opacity:1;stroke-width:8.85251;stroke-linecap:round;stroke-linejoin:round;paint-order:fill markers stroke"
         d="m 298.54368,-12.490733 c -92.3516,0 -166.69945,74.347421 -166.6995,166.699033 l -1e-4,318.41818 c 1.5e-4,92.35161 74.3474,166.69903 166.699,166.69903 h 244.0254 c 85.8697,0 154.99934,-75.10038 154.9994,-168.38586 2.5e-4,-161.14316 -5.1e-4,-322.28738 -7e-4,-483.430383 -133.0078,0 -266.0157,0 -399.0235,0 z"
         sodipodi:nodetypes="cscssccc" />
    </clipPath>
    <clipPath
       clipPathUnits="userSpaceOnUse"
       id="clipPath4478">
      <g
         id="g4482">
        <path
           style="fill:#009949;fill-opacity:1;stroke-width:8.49336;stroke-linecap:round;stroke-linejoin:round;paint-order:fill markers stroke"
           d="m 59.853099,-11.49875 c -85.869805,0 -184.343409,69.13017 -220.792909,155 l -123.09769,290 c -36.4495,85.86982 3.3372,155 89.20711,155 H 48.737899 c -92.351605,0 -137.648997,-68.43716 -101.564406,-153.44727 L 71.5895,141.94852 C 107.6741,56.9384 211.07191,-11.49875 303.42349,-11.49875 Z"
           id="path4480" />
      </g>
    </clipPath>
    <clipPath
       clipPathUnits="userSpaceOnUse"
       id="clipPath4484">
      <g
         id="g4488">
        <path
           style="fill:#009949;fill-opacity:1;stroke-width:8.49336;stroke-linecap:round;stroke-linejoin:round;paint-order:fill markers stroke"
           d="m 59.853099,-11.49875 c -85.869805,0 -184.343409,69.13017 -220.792909,155 l -123.09769,290 c -36.4495,85.86982 3.3372,155 89.20711,155 H 48.737899 c -92.351605,0 -137.648997,-68.43716 -101.564406,-153.44727 L 71.5895,141.94852 C 107.6741,56.9384 211.07191,-11.49875 303.42349,-11.49875 Z"
           id="path4486" />
      </g>
    </clipPath>
    <clipPath
       clipPathUnits="userSpaceOnUse"
       id="clipPath5060">
      <path
         style="fill:#009949;fill-opacity:1;stroke-width:8.49336;stroke-linecap:round;stroke-linejoin:round;paint-order:fill markers stroke"
         d="m 59.8531,-11.49875 c -85.8698,0 -184.3434,69.13017 -220.7929,155 l -123.0977,290 c -36.4495,85.86982 3.3372,155 89.2071,155 H 48.7379 c -92.3516,0 -137.649,-68.43716 -101.5644,-153.44727 L 71.5895,141.94852 C 107.6741,56.9384 211.0719,-11.49875 303.4235,-11.49875 Z"
         id="path5062" />
    </clipPath>
    <clipPath
       clipPathUnits="userSpaceOnUse"
       id="clipPath5068">
      <path
         style="fill:#009949;fill-opacity:1;stroke-width:8.49336;stroke-linecap:round;stroke-linejoin:round;paint-order:fill markers stroke"
         d="m 1583.1855,0 c -85.8698,0 -184.3434,69.13017 -220.7929,155 l -123.0977,290 c -36.4495,85.86982 3.3372,155 89.2071,155 h 243.5683 c -92.3516,0 -137.649,-68.43716 -101.5644,-153.44727 l 124.416,-293.10546 C 1631.0065,68.43715 1734.4043,0 1826.7559,0 Z"
         id="path5070" />
    </clipPath>
    <clipPath
       clipPathUnits="userSpaceOnUse"
       id="clipPath1">
      <path
         id="path6"
         style="fill:#ffffff;fill-opacity:1;stroke-width:8.49336;stroke-linecap:round;stroke-linejoin:round;paint-order:fill markers stroke"
         d="m -1221.055,9.7e-4 c -92.3516,0 -195.7493,68.437161 -231.834,153.44727 l -124.416,293.10548 c -36.0845,85.0101 9.2129,153.44726 101.5645,153.44726 h 244.0254 c 85.8697,0 184.3434,-69.13026 220.793,-155 62.9639,-148.33306 125.9272,-296.66709 188.8906,-445.00001 -133.0078,0 -266.0157,0 -399.0235,0 z"
         sodipodi:nodetypes="cscssccc" />
    </clipPath>
    <clipPath
       clipPathUnits="userSpaceOnUse"
       id="clipPath6">
      <path
         id="path7"
         style="fill:#ffffff;fill-opacity:1;stroke-width:8.49336;stroke-linecap:round;stroke-linejoin:round;paint-order:fill markers stroke"
         d="m -1221.055,9.7e-4 c -92.3516,0 -195.7493,68.437161 -231.834,153.44727 l -124.416,293.10548 c -36.0845,85.0101 9.2129,153.44726 101.5645,153.44726 h 244.0254 c 85.8697,0 184.3434,-69.13026 220.793,-155 62.9639,-148.33306 125.9272,-296.66709 188.8906,-445.00001 -133.0078,0 -266.0157,0 -399.0235,0 z"
         sodipodi:nodetypes="cscssccc" />
    </clipPath>
  </defs>
  <title
     id="title2260">flay-uk</title>
  <metadata
     id="metadata557">
    <rdf:RDF>
      <cc:Work
         rdf:about="">
        <dc:title>flay-uk</dc:title>
      </cc:Work>
    </rdf:RDF>
  </metadata>
  <path
     d="m 0,4.9e-4 h 999.99969 v 600 H 0 Z"
     id="path1"
     style="stroke-width:158.114;fill:#ffffff;fill-opacity:1" />
  <g
     id="g1"
     transform="translate(-49.99985)">
    <path
       fill="#0039a6"
       d="m 49.99985,300.00049 v -300 h 300 v 450 z"
       id="path2-5"
       style="stroke-width:150;fill:#0039a6;fill-opacity:1" />
    <path
       d="m 199.99985,75.00049 44.085,135.675 -115.41,-83.85 h 142.65 l -115.41,83.85 z"
       id="path4"
       style="stroke-width:150;fill:#ffffff;fill-opacity:1" />
  </g>
  <path
     fill="#d72b1f"
     d="m 0,300.00049 h 999.99969 v 300 H 0 Z"
     id="path3"
     style="stroke-width:158.114;fill:#db2114;fill-opacity:1" />
</svg>
