<?xml version="1.0" encoding="UTF-8" standalone="no"?>
<svg
   viewBox="0 0 999.99969 600.001"
   version="1.1"
   id="svg4335"
   sodipodi:docname="japan.svg"
   inkscape:export-filename="..\PNGs\Japan.png"
   inkscape:export-xdpi="11520"
   inkscape:export-ydpi="11520"
   inkscape:version="1.4-beta (62f545ba5e, 2024-04-22)"
   xml:space="preserve"
   width="999.99969"
   height="600.00098"
   xmlns:inkscape="http://www.inkscape.org/namespaces/inkscape"
   xmlns:sodipodi="http://sodipodi.sourceforge.net/DTD/sodipodi-0.dtd"
   xmlns="http://www.w3.org/2000/svg"
   xmlns:svg="http://www.w3.org/2000/svg"><sodipodi:namedview
     id="namedview4337"
     pagecolor="#505050"
     bordercolor="#ffffff"
     borderopacity="1"
     inkscape:showpageshadow="0"
     inkscape:pageopacity="0"
     inkscape:pagecheckerboard="1"
     inkscape:deskcolor="#505050"
     showgrid="false"
     inkscape:zoom="0.50296087"
     inkscape:cx="-1.9882262"
     inkscape:cy="205.78142"
     inkscape:window-width="2560"
     inkscape:window-height="1351"
     inkscape:window-x="-9"
     inkscape:window-y="-9"
     inkscape:window-maximized="1"
     inkscape:current-layer="g4830" /><defs
     id="defs4325"><linearGradient
       id="a"
       x1="-409.5"
       y1="-415.79001"
       x2="-409.45801"
       y2="-415.79001"
       gradientTransform="matrix(858.00517,-13637.515,-13637.515,0,-5318986.5,-5584260.2)"
       gradientUnits="userSpaceOnUse"><stop
         offset="0"
         stop-color="#ececec"
         id="stop4280" /><stop
         offset="0.312"
         stop-color="#eaeaea"
         id="stop4282" /><stop
         offset="0.493"
         stop-color="#e1e1e1"
         id="stop4284" /><stop
         offset="0.642"
         stop-color="#d3d3d3"
         id="stop4286" /><stop
         offset="0.773"
         stop-color="#bfbfbf"
         id="stop4288" /><stop
         offset="0.89"
         stop-color="#a6a6a6"
         id="stop4290" /><stop
         offset="1"
         stop-color="#868686"
         id="stop4292" /></linearGradient><linearGradient
       id="b"
       x1="6.1939998"
       y1="34.577"
       x2="11.476"
       y2="43.724998"
       gradientTransform="matrix(27.583245,-18.716011,18.716011,27.583245,-1126.7358,-882.79276)"
       gradientUnits="userSpaceOnUse"><stop
         offset="0.095"
         stop-color="#770f00"
         id="stop4295" /><stop
         offset="0.196"
         stop-color="#950d05"
         id="stop4297" /><stop
         offset="0.319"
         stop-color="#b10a0a"
         id="stop4299" /><stop
         offset="0.451"
         stop-color="#c7080e"
         id="stop4301" /><stop
         offset="0.596"
         stop-color="#d60711"
         id="stop4303" /><stop
         offset="0.762"
         stop-color="#df0612"
         id="stop4305" /><stop
         offset="1"
         stop-color="#e20613"
         id="stop4307" /></linearGradient><linearGradient
       id="c"
       x1="8.2379999"
       y1="17.309999"
       x2="8.2379999"
       gradientTransform="matrix(33.333534,0,-2.1000126,33.333534,-550.46569,-270.85574)"
       gradientUnits="userSpaceOnUse"><stop
         offset="0"
         stop-color="#868686"
         id="stop4310" /><stop
         offset="0.11"
         stop-color="#a6a6a6"
         id="stop4312" /><stop
         offset="0.227"
         stop-color="#bfbfbf"
         id="stop4314" /><stop
         offset="0.358"
         stop-color="#d3d3d3"
         id="stop4316" /><stop
         offset="0.507"
         stop-color="#e1e1e1"
         id="stop4318" /><stop
         offset="0.688"
         stop-color="#eaeaea"
         id="stop4320" /><stop
         offset="1"
         stop-color="#ececec"
         id="stop4322" /></linearGradient><clipPath
       clipPathUnits="userSpaceOnUse"
       id="clipPath1497"><path
         id="path1499"
         style="fill:#808000;stroke-width:7.04243;stroke-linecap:round;stroke-linejoin:round;paint-order:fill markers stroke"
         d="M 1826.7565,0 C 1734.4048,0 1660.057,74.347321 1660.057,166.69903 l -10e-5,318.41817 c 10e-5,92.35171 74.3472,166.69903 166.6989,166.69903 92.3517,0 166.7016,-74.34732 166.7015,-166.69903 0,-161.70607 0,-323.41179 0,-485.1172 z"
         sodipodi:nodetypes="ssssccs" /></clipPath><clipPath
       clipPathUnits="userSpaceOnUse"
       id="clipPath2022"><path
         id="path2024"
         style="fill:#ffffff;fill-opacity:1;stroke-width:8.49335;stroke-linecap:round;stroke-linejoin:round;paint-order:fill markers stroke"
         d="m 1583.0512,599.99902 c 92.3516,0 195.7493,-68.43716 231.834,-153.44727 l 124.416,-293.10547 C 1975.3857,68.43618 1930.0883,-9.8e-4 1837.7367,-9.8e-4 h -244.0254 c -85.8697,0 -184.3434,69.13025 -220.7929,155 -62.964,148.33306 -125.9272,296.66708 -188.8907,445 133.0078,0 266.0157,0 399.0235,0 z"
         sodipodi:nodetypes="cscssccc" /></clipPath><clipPath
       clipPathUnits="userSpaceOnUse"
       id="clipPath2029"><path
         style="fill:#009949;fill-opacity:1;stroke-width:8.49335;stroke-linecap:round;stroke-linejoin:round;paint-order:fill markers stroke"
         d="m 1583.1855,0 c -85.8698,0 -184.3434,69.13017 -220.7929,155 l -123.0977,290 c -36.4495,85.86982 3.3372,155 89.2071,155 h 243.5683 c -92.3516,0 -137.649,-68.43716 -101.5644,-153.44727 l 124.416,-293.10546 C 1631.0065,68.43715 1734.4043,0 1826.7559,0 Z"
         id="path2031" /></clipPath><clipPath
       clipPathUnits="userSpaceOnUse"
       id="clipPath4550"><path
         id="path4552"
         style="fill:#ffffff;stroke-width:8.49335;stroke-linecap:round;stroke-linejoin:round;paint-order:fill markers stroke"
         d="m 1583.1857,0 c -85.8699,0 -184.3433,69.13008 -220.7929,155 l -123.0976,290 c -36.4496,85.86991 3.3371,155.00001 89.207,155.00001 h 487.5944 c 85.8699,0 184.3434,-69.1301 220.793,-155.00002 62.9641,-148.33336 125.927,-296.66679 188.8906,-445 z"
         sodipodi:nodetypes="cssssccc" /></clipPath><clipPath
       clipPathUnits="userSpaceOnUse"
       id="clipPath1497-4"><path
         id="path1499-6"
         style="fill:#808000;stroke-width:7.04243;stroke-linecap:round;stroke-linejoin:round;paint-order:fill markers stroke"
         d="M 1826.7565,0 C 1734.4048,0 1660.057,74.347321 1660.057,166.69903 l -10e-5,318.41817 c 10e-5,92.35171 74.3472,166.69903 166.6989,166.69903 92.3517,0 166.7016,-74.34732 166.7015,-166.69903 0,-161.70607 0,-323.41179 0,-485.1172 z"
         sodipodi:nodetypes="ssssccs" /></clipPath><clipPath
       clipPathUnits="userSpaceOnUse"
       id="clipPath4758"><ellipse
         cx="1662.01"
         cy="386.92999"
         style="fill:#d60711;fill-opacity:1;stroke-width:35.9993"
         id="circle4760"
         rx="176.03439"
         ry="205.31662"
         transform="matrix(1,0,0.36393629,0.93142384,0,0)" /></clipPath></defs><title
     id="title4327">flag-jpn</title><g
     id="g4830"
     transform="translate(586.52639,282.35449)"
     inkscape:export-filename="..\PNGs\PNGs\Japan.png"
     inkscape:export-xdpi="288.00009"
     inkscape:export-ydpi="288.00009"><g
       id="g24408"
       transform="translate(-536.52654,-282.354)"><path
         id="rect1"
         style="stroke-width:1.02691;fill:#ffffff"
         d="M -49.99985 -0.00049 L -49.99985 599.99951 L 0.91811875 599.99951 L 899.08218 599.99951 L 950.00015 599.99951 L 950.00015 -0.00049 L 899.08218 -0.00049 L 0.91811875 -0.00049 L -49.99985 -0.00049 z " /><circle
         fill="#bc002d"
         cx="450"
         cy="300"
         r="180"
         id="circle24281" /></g></g></svg>
