<?xml version="1.0" encoding="UTF-8"?>
<svg id="Layer_2" data-name="Layer 2" xmlns="http://www.w3.org/2000/svg" version="1.1" viewBox="0 0 1000 600">
  <defs>
    <style>
      .cls-1 {
        fill: #fc0;
      }

      .cls-1, .cls-2, .cls-3 {
        stroke-width: 0px;
      }

      .cls-2 {
        fill: #006;
      }

      .cls-3 {
        fill: #fff;
      }

      .cls-4 {
        fill: none;
        stroke: #c00;
        stroke-miterlimit: 171.4;
        stroke-width: 42.9px;
      }
    </style>
  </defs>
  <g>
    <path class="cls-3" d="M0,0h1000v600H0V0Z"/>
    <path class="cls-4" d="M42.9,21.4h957.1M1000,107.1H42.9M42.9,192.8h957.1M1000,278.5H42.9"/>
    <path class="cls-2" d="M0,0h600v364.3H0V0Z"/>
    <path class="cls-4" d="M0,364.2h1000M1000,449.9H0M0,535.6h1000"/>
  </g>
  <path class="cls-1" d="M375,64.2l9.6,65.4,37-54.7-19.8,63,57.1-33.3-45.2,48.2,65.9-5.3-61.6,23.8,61.6,23.8-65.9-5.3,45.2,48.2-57.1-33.3,19.8,63-37-54.7-9.6,65.4-9.6-65.4-37,54.7,19.8-63-57.1,33.3,45.2-48.2-65.9,5.3,61.6-23.8-61.6-23.8,65.9,5.3-45.2-48.2,57.1,33.3-19.8-63,37,54.7,9.6-65.4h0ZM321.4,66.9c-57.7-25.6-125.2.4-150.8,58.1s.4,125.2,58.1,150.8c29.5,13.1,63.2,13.1,92.7,0-57.7,41.4-138,28.2-179.4-29.5s-28.2-138,29.5-179.4c44.8-32.1,105.1-32.1,149.9,0h0Z"/>
</svg>