<?xml version="1.0" encoding="UTF-8" standalone="no"?>
<svg
   viewBox="0 0 999.99969 600.00051"
   version="1.1"
   id="svg4696"
   sodipodi:docname="south-africa.svg"
   inkscape:export-filename="..\PNGs\South Africa.png"
   inkscape:export-xdpi="11520"
   inkscape:export-ydpi="11520"
   inkscape:version="1.4-beta (62f545ba5e, 2024-04-22)"
   width="999.99969"
   height="600.00049"
   xmlns:inkscape="http://www.inkscape.org/namespaces/inkscape"
   xmlns:sodipodi="http://sodipodi.sourceforge.net/DTD/sodipodi-0.dtd"
   xmlns="http://www.w3.org/2000/svg"
   xmlns:svg="http://www.w3.org/2000/svg">
  <sodipodi:namedview
     id="namedview4698"
     pagecolor="#505050"
     bordercolor="#ffffff"
     borderopacity="1"
     inkscape:showpageshadow="0"
     inkscape:pageopacity="0"
     inkscape:pagecheckerboard="1"
     inkscape:deskcolor="#505050"
     showgrid="false"
     inkscape:zoom="0.50296087"
     inkscape:cx="26.841054"
     inkscape:cy="185.89915"
     inkscape:window-width="2560"
     inkscape:window-height="1351"
     inkscape:window-x="-9"
     inkscape:window-y="-9"
     inkscape:window-maximized="1"
     inkscape:current-layer="svg4696" />
  <defs
     id="defs4674">
    <linearGradient
       id="a"
       x1="12.199"
       y1="2.8310001"
       x2="32.695"
       y2="2.8310001"
       gradientTransform="matrix(33.325983,0,-2.0995369,33.325983,-479.29197,-227.88307)"
       gradientUnits="userSpaceOnUse">
      <stop
         offset="0.228"
         stop-color="#e8501d"
         id="stop4611" />
      <stop
         offset="1"
         stop-color="#652500"
         id="stop4613" />
    </linearGradient>
    <linearGradient
       id="b"
       x1="5.585"
       y1="14.422"
       x2="28.5"
       y2="14.422"
       gradientTransform="matrix(33.325983,0,-2.0995369,33.325983,-479.29197,-227.88307)"
       gradientUnits="userSpaceOnUse">
      <stop
         offset="0.142"
         stop-color="#004995"
         id="stop4616" />
      <stop
         offset="0.319"
         stop-color="#00438b"
         id="stop4618" />
      <stop
         offset="0.625"
         stop-color="#00346f"
         id="stop4620" />
      <stop
         offset="1"
         stop-color="#001d45"
         id="stop4622" />
    </linearGradient>
    <linearGradient
       id="c"
       x1="16.695"
       y1="10.36"
       x2="16.695"
       y2="17.165001"
       gradientTransform="matrix(33.325983,0,-2.0995369,33.325983,-479.29197,-227.88307)"
       gradientUnits="userSpaceOnUse">
      <stop
         offset="0.142"
         stop-color="#fff"
         id="stop4625" />
      <stop
         offset="0.271"
         stop-color="#f5f5f5"
         id="stop4627" />
      <stop
         offset="0.494"
         stop-color="#d9d9d9"
         id="stop4629" />
      <stop
         offset="0.781"
         stop-color="#adadad"
         id="stop4631" />
      <stop
         offset="1"
         stop-color="#868686"
         id="stop4633" />
    </linearGradient>
    <linearGradient
       id="d"
       x1="16.91"
       y1="0.616"
       x2="16.91"
       y2="16.538"
       gradientTransform="matrix(33.325983,0,-2.0995369,33.325983,-479.29197,-227.88307)"
       gradientUnits="userSpaceOnUse">
      <stop
         offset="0.324"
         stop-color="#13a438"
         id="stop4636" />
      <stop
         offset="0.428"
         stop-color="#119a34"
         id="stop4638" />
      <stop
         offset="0.605"
         stop-color="#0d7e27"
         id="stop4640" />
      <stop
         offset="0.834"
         stop-color="#065214"
         id="stop4642" />
      <stop
         offset="1"
         stop-color="#002d04"
         id="stop4644" />
    </linearGradient>
    <linearGradient
       id="e"
       x1="8.8520002"
       y1="3.698"
       x2="8.8520002"
       y2="13.403"
       gradientTransform="matrix(33.325983,0,-2.0995369,33.325983,-479.29197,-227.88307)"
       gradientUnits="userSpaceOnUse">
      <stop
         offset="0.306"
         stop-color="#fbc14f"
         id="stop4647" />
      <stop
         offset="0.395"
         stop-color="#f3bb4d"
         id="stop4649" />
      <stop
         offset="0.531"
         stop-color="#deac46"
         id="stop4651" />
      <stop
         offset="0.696"
         stop-color="#bc923a"
         id="stop4653" />
      <stop
         offset="0.882"
         stop-color="#8d6e2b"
         id="stop4655" />
      <stop
         offset="1"
         stop-color="#6b5520"
         id="stop4657" />
    </linearGradient>
    <linearGradient
       id="f"
       x1="5.5"
       y1="8.5550003"
       x2="10.809"
       y2="10.487"
       gradientTransform="matrix(1,0,-0.063,1,-2.695,0)"
       gradientUnits="userSpaceOnUse">
      <stop
         offset="0"
         stop-color="#1a1a1a"
         id="stop4660" />
      <stop
         offset="0.195"
         stop-color="#111"
         id="stop4662" />
      <stop
         offset="0.612"
         stop-color="#040404"
         id="stop4664" />
      <stop
         offset="1"
         id="stop4666" />
    </linearGradient>
    <linearGradient
       id="g"
       x1="-409.47101"
       y1="-415.78101"
       x2="-409.48401"
       y2="-415.81699"
       gradientTransform="matrix(857.8108,-13634.426,-13634.426,0,-5317710.7,-5582952.2)"
       gradientUnits="userSpaceOnUse">
      <stop
         offset="0"
         stop-opacity="0.3"
         id="stop4669" />
      <stop
         offset="1"
         stop-opacity="0"
         id="stop4671" />
    </linearGradient>
    <clipPath
       id="f-6">
      <path
         d="M 0,0 H 90 V 60 H 0 Z"
         id="path24868" />
    </clipPath>
    <clipPath
       id="t">
      <path
         d="M 0,0 45,30 0,60 Z"
         id="path24865" />
    </clipPath>
    <clipPath
       clipPathUnits="userSpaceOnUse"
       id="clipPath2022">
      <path
         id="path2024"
         style="fill:#ffffff;fill-opacity:1;stroke-width:8.49335;stroke-linecap:round;stroke-linejoin:round;paint-order:fill markers stroke"
         d="m 1583.0512,599.99902 c 92.3516,0 195.7493,-68.43716 231.834,-153.44727 l 124.416,-293.10547 C 1975.3857,68.43618 1930.0883,-9.8e-4 1837.7367,-9.8e-4 h -244.0254 c -85.8697,0 -184.3434,69.13025 -220.7929,155 -62.964,148.33306 -125.9272,296.66708 -188.8907,445 133.0078,0 266.0157,0 399.0235,0 z"
         sodipodi:nodetypes="cscssccc" />
    </clipPath>
    <clipPath
       clipPathUnits="userSpaceOnUse"
       id="clipPath2029">
      <path
         style="fill:#009949;fill-opacity:1;stroke-width:8.49335;stroke-linecap:round;stroke-linejoin:round;paint-order:fill markers stroke"
         d="m 1583.1855,0 c -85.8698,0 -184.3434,69.13017 -220.7929,155 l -123.0977,290 c -36.4495,85.86982 3.3372,155 89.2071,155 h 243.5683 c -92.3516,0 -137.649,-68.43716 -101.5644,-153.44727 l 124.416,-293.10546 C 1631.0065,68.43715 1734.4043,0 1826.7559,0 Z"
         id="path2031" />
    </clipPath>
    <clipPath
       clipPathUnits="userSpaceOnUse"
       id="clipPath1268">
      <path
         style="fill:#ffffff;fill-opacity:1;stroke-width:0.849335;stroke-linecap:round;stroke-linejoin:round;paint-order:fill markers stroke"
         d="m 18.006259,-4.9e-5 c -8.5869798,0 -15.4999382,6.913017 -15.4999301,15.5 l -2e-7,29 c 7.6e-6,8.586982 6.9130797,15.5 15.5000693,15.5 h 24.35683 c -9.23516,0 -16.669885,-6.843716 -16.66989,-15.344727 l 1.1e-5,-29.310546 c -5e-6,-8.501012 7.43479,-15.344727 16.66995,-15.344727 z"
         id="path1270" />
    </clipPath>
    <clipPath
       clipPathUnits="userSpaceOnUse"
       id="clipPath1272">
      <path
         id="path1274"
         style="fill:#ffffff;fill-opacity:1;stroke-width:0.849335;stroke-linecap:round;stroke-linejoin:round;paint-order:fill markers stroke"
         d="m 42.36341,4.8e-5 c -9.23516,0 -16.669945,6.843716 -16.669949,15.344727 l -1.1e-5,29.310547 c 1.4e-5,8.50101 7.43474,15.344726 16.6699,15.344726 h 24.40254 c 8.58697,0 15.499935,-6.913025 15.49993,-15.5 3.5e-5,-14.833306 -5.1e-5,-29.666708 -6e-5,-44.5 -13.30078,0 -26.60157,0 -39.90235,0 z"
         sodipodi:nodetypes="cscssccc" />
    </clipPath>
    <clipPath
       clipPathUnits="userSpaceOnUse"
       id="clipPath1280">
      <path
         id="path1282"
         style="fill:#ffffff;fill-opacity:1;stroke-width:8.8525;stroke-linecap:round;stroke-linejoin:round;paint-order:fill markers stroke"
         d="m 1189.8098,-247.56208 c -92.3516,0 -166.6995,74.34741 -166.6995,166.69903 l -1e-4,318.41817 c 1e-4,92.3516 74.3474,166.69902 166.699,166.69902 h 244.0254 c 85.8697,0 154.9993,-75.10036 154.9993,-168.38586 3e-4,-161.143155 -5e-4,-322.287357 -6e-4,-483.43036 -133.0078,0 -266.0157,0 -399.0235,0 z"
         sodipodi:nodetypes="cscssccc" />
    </clipPath>
    <clipPath
       id="t-2">
      <path
         d="M 0,0 45,30 0,60 Z"
         id="path24865-1" />
    </clipPath>
    <clipPath
       clipPathUnits="userSpaceOnUse"
       id="clipPath6">
      <path
         d="M 0,2.4414063e-4 H 999.99969 V 600.00024 H 0 Z"
         id="path6"
         style="stroke-width:10.5409" />
    </clipPath>
    <clipPath
       clipPathUnits="userSpaceOnUse"
       id="clipPath7">
      <path
         d="M 0,2.4414063e-4 H 999.99969 V 600.00024 H 0 Z"
         id="path7"
         style="stroke-width:10.5409" />
    </clipPath>
  </defs>
  <title
     id="title4676">flag-zaf</title>
  <path
     fill="#e03c31"
     d="M 0,2.4414063e-4 H 999.99969 V 300.00024 H 474.78346 Z"
     id="path24873-8"
     sodipodi:nodetypes="ccccc"
     style="stroke-width:10.2717" />
  <path
     fill="#001489"
     d="m 0,600.00024 h 999.99969 v -300 H 474.78346 Z"
     id="path24875-5"
     sodipodi:nodetypes="ccccc"
     style="stroke-width:10.2717" />
  <path
     stroke="#ffffff"
     stroke-width="200"
     d="M 999.99969,300.00024 H 450 L 0,2.4414063e-4 V 600.00024 l 450,-300"
     id="path24877-6"
     sodipodi:nodetypes="ccccc"
     style="fill:none"
     clip-path="url(#clipPath7)" />
  <path
     fill="#000000"
     stroke="#ffb81c"
     stroke-width="20"
     clip-path="url(#t-2)"
     d="M 0,0 45,30 0,60"
     id="path24879-1"
     transform="matrix(10,0,0,10,0,2.4414063e-4)" />
  <path
     stroke="#007749"
     stroke-width="120"
     d="M 0,2.4414063e-4 450,300.00024 l 549.99969,0 M 0,600.00024 l 450,-300"
     id="path24881-8"
     sodipodi:nodetypes="ccccc"
     style="fill:none"
     clip-path="url(#clipPath6)" />
</svg>
